<svg width="22" height="33" viewBox="0 0 22 33" fill="none" xmlns="http://www.w3.org/2000/svg">
   <path
      d="M15.9168 30.5309C15.8803 30.5685 15.5521 30.9068 15.005 31.0571C14.2027 31.2826 13.4368 31.0947 12.598 30.4933C10.6286 28.9899 8.80502 29.8168 8.07561 30.5309C8.07561 30.5309 7.7109 30.8692 7.12737 31.0571C6.43443 31.2826 5.5956 31.0947 4.79325 30.4933C3.29795 29.4034 1.985 29.5913 1.14618 29.9671C0.927355 30.0799 0.817943 30.3806 0.927355 30.6061C1.03677 30.8316 1.32853 30.9443 1.54736 30.8316C1.83912 30.6812 2.16736 30.6061 2.49559 30.6061C3.07912 30.6061 3.66266 30.8316 4.28266 31.2826C6.25207 32.786 8.07561 31.9591 8.80502 31.245C8.80502 31.245 9.16973 30.9068 9.71679 30.7188C10.5191 30.4933 11.285 30.6812 12.1239 31.2826C12.8168 31.8088 13.5827 32.1095 14.385 32.1095C15.4062 32.1095 16.245 31.6209 16.6462 31.2074C16.6462 31.2074 17.0109 30.8316 17.5945 30.6813C18.2874 30.4557 19.1262 30.6437 19.9286 31.245C20.038 31.3202 20.1474 31.3578 20.2568 31.3202C20.3662 31.2826 20.4756 31.245 20.5486 31.1323C20.6215 31.0195 20.658 30.9068 20.6215 30.794C20.585 30.6812 20.5486 30.5685 20.4392 30.4933C18.4698 28.9899 16.6827 29.8168 15.9168 30.5309Z"
      fill="#fff" />
   <path
      d="M20.9862 27.8248C18.9074 26.359 17.0474 27.1859 16.3545 27.8624C16.3545 27.8624 15.9897 28.2007 15.4062 28.3886C14.5309 28.6141 13.6556 28.4262 12.8533 27.8248C12.4156 27.5241 11.978 27.2986 11.5039 27.1483L10.4827 26.8476L9.49796 27.1483C8.80502 27.3738 8.36737 27.7121 8.22149 27.8624C8.18502 27.9 7.82031 28.2383 7.20031 28.3886C6.39796 28.6141 5.55913 28.4262 4.72031 27.8248C3.84501 27.1483 2.93324 26.8852 1.985 26.998C1.14618 27.1107 0.599119 27.4114 0.380295 27.5993C0.197941 27.7121 0.125 27.8624 0.125 28.0503C0.125 28.3134 0.343824 28.5389 0.599119 28.5389C0.67206 28.5389 0.781472 28.5013 0.890884 28.4638C1.14618 28.2758 1.65677 27.9752 2.34971 27.9752C2.8603 27.9752 3.4803 28.1255 4.17324 28.6141C5.12148 29.2906 5.99678 29.441 6.54384 29.441C7.56502 29.441 8.40384 28.9899 8.76855 28.5389C8.80502 28.5013 9.2062 28.1631 9.78973 28.0127C10.5921 27.7872 11.4309 27.9752 12.2697 28.5765C14.3486 30.0799 16.2086 29.2155 16.9015 28.5389C16.9015 28.5389 17.2662 28.2007 17.8497 28.0127C18.725 27.7872 19.6003 27.9752 20.4027 28.5765C20.4756 28.6517 20.6215 28.6893 20.7309 28.6517C20.8403 28.6141 20.9498 28.5765 21.0227 28.4638C21.0956 28.351 21.1321 28.2383 21.0956 28.1255C21.1686 28.0127 21.0956 27.9 20.9862 27.8248Z"
      fill="#fff" />
   <path
      d="M15.9897 26.7725C16.1721 26.7725 16.3545 26.6221 16.4274 26.4342L18.9074 17.2636C18.9439 17.1884 18.9803 17.1508 19.0168 17.0756C19.0533 17.0005 19.0533 16.9253 19.0533 16.8501V16.8125L19.6003 14.783C19.6733 14.5575 19.5274 14.2944 19.3086 14.2192L18.3968 13.8809V7.56674C18.3968 7.30365 18.178 7.07814 17.9227 7.07814H16.0627V5.61235C16.0627 5.34925 15.8439 5.12375 15.5886 5.12375C15.3333 5.12375 15.1144 5.34925 15.1144 5.61235V7.07814H14.1662V3.2821C14.1662 3.01901 13.9474 2.7935 13.6921 2.7935H12.1968V0.613599C12.1968 0.350507 11.978 0.125 11.7227 0.125H8.18502C7.92972 0.125 7.7109 0.350507 7.7109 0.613599V2.7935H6.54384C6.28854 2.7935 6.06972 3.01901 6.06972 3.2821V7.11573H5.12148V5.57476C5.12148 5.31167 4.90266 5.08616 4.64736 5.08616C4.39207 5.08616 4.17324 5.31167 4.17324 5.57476V7.11573H2.38618C2.13089 7.11573 1.91206 7.34124 1.91206 7.60433V13.9185L1.0003 14.2568C0.781472 14.332 0.635589 14.5951 0.708531 14.8206L1.25559 16.8125V16.8501C1.25559 16.9253 1.25559 17.0005 1.29206 17.0756C1.29206 17.1132 1.32853 17.1884 1.365 17.226L1.40147 17.3011L3.91795 26.4342C3.95442 26.5469 4.1003 26.7725 4.3556 26.7725H15.9897ZM17.9227 14.7078H17.9956L18.7615 14.9709L18.3603 16.2864L12.8897 14.4447C12.6709 14.3695 12.3791 14.4447 12.3062 14.7454C12.2697 14.8957 12.2697 15.0085 12.3427 15.1212C12.3791 15.234 12.4886 15.3092 12.598 15.3467L18.105 17.2636L15.698 25.8328H10.665V12.0017L17.6309 14.5951C17.7403 14.6702 17.8133 14.6702 17.9227 14.7078ZM8.65914 1.1022H11.285V2.83109H8.65914V1.1022ZM7.01796 3.80829H13.218V7.15331H7.01796V3.80829ZM9.68032 25.9456H4.72031L2.27677 17.3011L7.7109 15.4219C7.85678 15.3843 7.92972 15.3092 7.9662 15.1964C8.00267 15.0837 8.03914 14.9333 8.00267 14.8206C7.9662 14.7078 7.89325 14.5951 7.78384 14.5575C7.67443 14.5199 7.52855 14.4823 7.41914 14.5199L2.02148 16.3239L1.69324 15.0837L9.68032 12.1145V25.9456ZM9.75326 11.0245L9.71679 11.0621L2.78736 13.5803V10.0473H7.16384C7.38266 10.0473 7.63796 9.82182 7.63796 9.55873C7.63796 9.29563 7.41914 9.07013 7.16384 9.07013H2.78736V8.09293H6.50737C6.58031 8.09293 6.61678 8.09293 6.68972 8.05534H17.4486V9.10771H12.9991C12.7439 9.10771 12.525 9.33322 12.525 9.59631C12.525 9.8594 12.7439 10.0849 12.9991 10.0849H17.4486V13.4675L10.2274 10.8366C10.1544 10.799 9.93561 10.8366 9.8262 10.9118C9.8262 10.9494 9.78973 10.9869 9.75326 11.0245Z"
      fill="#fff" />
   <path
      d="M15.9168 30.5309C15.8803 30.5685 15.5521 30.9068 15.005 31.0571C14.2027 31.2826 13.4368 31.0947 12.598 30.4933C10.6286 28.9899 8.80502 29.8168 8.07561 30.5309C8.07561 30.5309 7.7109 30.8692 7.12737 31.0571C6.43443 31.2826 5.5956 31.0947 4.79325 30.4933C3.29795 29.4034 1.985 29.5913 1.14618 29.9671C0.927355 30.0799 0.817943 30.3806 0.927355 30.6061C1.03677 30.8316 1.32853 30.9443 1.54736 30.8316C1.83912 30.6812 2.16736 30.6061 2.49559 30.6061C3.07912 30.6061 3.66266 30.8316 4.28266 31.2826C6.25207 32.786 8.07561 31.9591 8.80502 31.245C8.80502 31.245 9.16973 30.9068 9.71679 30.7188C10.5191 30.4933 11.285 30.6812 12.1239 31.2826C12.8168 31.8088 13.5827 32.1095 14.385 32.1095C15.4062 32.1095 16.245 31.6209 16.6462 31.2074C16.6462 31.2074 17.0109 30.8316 17.5945 30.6813C18.2874 30.4557 19.1262 30.6437 19.9286 31.245C20.038 31.3202 20.1474 31.3578 20.2568 31.3202C20.3662 31.2826 20.4756 31.245 20.5486 31.1323C20.6215 31.0195 20.658 30.9068 20.6215 30.794C20.585 30.6812 20.5486 30.5685 20.4392 30.4933C18.4698 28.9899 16.6827 29.8168 15.9168 30.5309Z"
      stroke="#fff" stroke-width="0.25" />
   <path
      d="M20.9862 27.8248C18.9074 26.359 17.0474 27.1859 16.3545 27.8624C16.3545 27.8624 15.9897 28.2007 15.4062 28.3886C14.5309 28.6141 13.6556 28.4262 12.8533 27.8248C12.4156 27.5241 11.978 27.2986 11.5039 27.1483L10.4827 26.8476L9.49796 27.1483C8.80502 27.3738 8.36737 27.7121 8.22149 27.8624C8.18502 27.9 7.82031 28.2383 7.20031 28.3886C6.39796 28.6141 5.55913 28.4262 4.72031 27.8248C3.84501 27.1483 2.93324 26.8852 1.985 26.998C1.14618 27.1107 0.599119 27.4114 0.380295 27.5993C0.197941 27.7121 0.125 27.8624 0.125 28.0503C0.125 28.3134 0.343824 28.5389 0.599119 28.5389C0.67206 28.5389 0.781472 28.5013 0.890884 28.4638C1.14618 28.2758 1.65677 27.9752 2.34971 27.9752C2.8603 27.9752 3.4803 28.1255 4.17324 28.6141C5.12148 29.2906 5.99678 29.441 6.54384 29.441C7.56502 29.441 8.40384 28.9899 8.76855 28.5389C8.80502 28.5013 9.2062 28.1631 9.78973 28.0127C10.5921 27.7872 11.4309 27.9752 12.2697 28.5765C14.3486 30.0799 16.2086 29.2155 16.9015 28.5389C16.9015 28.5389 17.2662 28.2007 17.8497 28.0127C18.725 27.7872 19.6003 27.9752 20.4027 28.5765C20.4756 28.6517 20.6215 28.6893 20.7309 28.6517C20.8403 28.6141 20.9498 28.5765 21.0227 28.4638C21.0956 28.351 21.1321 28.2383 21.0956 28.1255C21.1686 28.0127 21.0956 27.9 20.9862 27.8248Z"
      stroke="#fff" stroke-width="0.25" />
   <path
      d="M15.9897 26.7725C16.1721 26.7725 16.3545 26.6221 16.4274 26.4342L18.9074 17.2636C18.9439 17.1884 18.9803 17.1508 19.0168 17.0756C19.0533 17.0005 19.0533 16.9253 19.0533 16.8501V16.8125L19.6003 14.783C19.6733 14.5575 19.5274 14.2944 19.3086 14.2192L18.3968 13.8809V7.56674C18.3968 7.30365 18.178 7.07814 17.9227 7.07814H16.0627V5.61235C16.0627 5.34925 15.8439 5.12375 15.5886 5.12375C15.3333 5.12375 15.1144 5.34925 15.1144 5.61235V7.07814H14.1662V3.2821C14.1662 3.01901 13.9474 2.7935 13.6921 2.7935H12.1968V0.613599C12.1968 0.350507 11.978 0.125 11.7227 0.125H8.18502C7.92972 0.125 7.7109 0.350507 7.7109 0.613599V2.7935H6.54384C6.28854 2.7935 6.06972 3.01901 6.06972 3.2821V7.11573H5.12148V5.57476C5.12148 5.31167 4.90266 5.08616 4.64736 5.08616C4.39207 5.08616 4.17324 5.31167 4.17324 5.57476V7.11573H2.38618C2.13089 7.11573 1.91206 7.34124 1.91206 7.60433V13.9185L1.0003 14.2568C0.781472 14.332 0.635589 14.5951 0.708531 14.8206L1.25559 16.8125V16.8501C1.25559 16.9253 1.25559 17.0005 1.29206 17.0756C1.29206 17.1132 1.32853 17.1884 1.365 17.226L1.40147 17.3011L3.91795 26.4342C3.95442 26.5469 4.1003 26.7725 4.3556 26.7725H15.9897ZM17.9227 14.7078H17.9956L18.7615 14.9709L18.3603 16.2864L12.8897 14.4447C12.6709 14.3695 12.3791 14.4447 12.3062 14.7454C12.2697 14.8957 12.2697 15.0085 12.3427 15.1212C12.3791 15.234 12.4886 15.3092 12.598 15.3467L18.105 17.2636L15.698 25.8328H10.665V12.0017L17.6309 14.5951C17.7403 14.6702 17.8133 14.6702 17.9227 14.7078ZM8.65914 1.1022H11.285V2.83109H8.65914V1.1022ZM7.01796 3.80829H13.218V7.15331H7.01796V3.80829ZM9.68032 25.9456H4.72031L2.27677 17.3011L7.7109 15.4219C7.85678 15.3843 7.92972 15.3092 7.9662 15.1964C8.00267 15.0837 8.03914 14.9333 8.00267 14.8206C7.9662 14.7078 7.89325 14.5951 7.78384 14.5575C7.67443 14.5199 7.52855 14.4823 7.41914 14.5199L2.02148 16.3239L1.69324 15.0837L9.68032 12.1145V25.9456ZM9.75326 11.0245L9.71679 11.0621L2.78736 13.5803V10.0473H7.16384C7.38266 10.0473 7.63796 9.82182 7.63796 9.55873C7.63796 9.29563 7.41914 9.07013 7.16384 9.07013H2.78736V8.09293H6.50737C6.58031 8.09293 6.61678 8.09293 6.68972 8.05534H17.4486V9.10771H12.9991C12.7439 9.10771 12.525 9.33322 12.525 9.59631C12.525 9.8594 12.7439 10.0849 12.9991 10.0849H17.4486V13.4675L10.2274 10.8366C10.1544 10.799 9.93561 10.8366 9.8262 10.9118C9.8262 10.9494 9.78973 10.9869 9.75326 11.0245Z"
      stroke="#fff" stroke-width="0.25" />
</svg>
