<svg width="30" height="32" viewBox="0 0 30 32" fill="none" xmlns="http://www.w3.org/2000/svg">
<path d="M0 31.0125L2.15417 23.0099C0.416886 19.8925 -0.135067 16.2547 0.599597 12.7641C1.33426 9.27356 3.30626 6.16431 6.15373 4.00695C9.0012 1.84958 12.5331 0.788802 16.1014 1.01927C19.6697 1.24975 23.035 2.756 25.5798 5.26165C28.1245 7.7673 29.678 11.1043 29.9553 14.6602C30.2325 18.2161 29.2148 21.7525 27.0889 24.6204C24.9631 27.4883 21.8717 29.4954 18.382 30.2733C14.8923 31.0512 11.2384 30.5477 8.09086 28.8554L0 31.0125ZM8.48098 25.8607L8.98136 26.1568C11.2612 27.5047 13.9241 28.0625 16.5549 27.7432C19.1858 27.424 21.6369 26.2456 23.5262 24.3918C25.4156 22.538 26.6371 20.1128 27.0003 17.4943C27.3636 14.8757 26.8483 12.2108 25.5346 9.9149C24.2209 7.61898 22.1827 5.82101 19.7376 4.80116C17.2925 3.78131 14.5779 3.59688 12.0167 4.27661C9.45559 4.95633 7.1918 6.46203 5.57815 8.55906C3.9645 10.6561 3.09162 13.2267 3.09556 15.8702C3.09342 18.0621 3.70115 20.2116 4.85112 22.0794L5.16492 22.5954L3.96062 27.062L8.48098 25.8607Z" fill="#00C24A"/>
<path fill-rule="evenodd" clip-rule="evenodd" d="M20.3833 18.1591C20.0899 17.9231 19.7465 17.757 19.379 17.6734C19.0116 17.5899 18.6299 17.5911 18.263 17.6769C17.7118 17.9053 17.3556 18.7682 16.9994 19.1996C16.9242 19.303 16.8139 19.3756 16.689 19.4036C16.564 19.4316 16.4332 19.4132 16.3209 19.3519C14.3027 18.5634 12.611 17.1175 11.5206 15.2491C11.4276 15.1325 11.3836 14.9844 11.3979 14.8361C11.4121 14.6878 11.4835 14.5508 11.597 14.4539C11.9942 14.0616 12.2859 13.5757 12.4451 13.0412C12.4804 12.4515 12.345 11.8642 12.0549 11.3493C11.8307 10.6273 11.404 9.98445 10.8252 9.49666C10.5267 9.36274 10.1957 9.31783 9.87212 9.36737C9.54857 9.4169 9.2463 9.55876 9.00178 9.77582C8.57728 10.1411 8.24034 10.5968 8.01578 11.1092C7.79121 11.6216 7.68473 12.1777 7.70419 12.7366C7.7055 13.0505 7.74538 13.363 7.82293 13.6672C8.01986 14.398 8.32272 15.0962 8.72191 15.7397C9.00992 16.2327 9.32417 16.7099 9.6633 17.1693C10.7654 18.6785 12.1509 19.9598 13.7427 20.9422C14.5414 21.4415 15.3951 21.8474 16.287 22.1519C17.2133 22.5708 18.2362 22.7316 19.2468 22.6172C19.8226 22.5303 20.3682 22.3035 20.8355 21.9568C21.3029 21.6102 21.6776 21.1543 21.9268 20.6292C22.0732 20.3121 22.1177 19.9575 22.054 19.6141C21.9014 18.912 20.96 18.4975 20.3833 18.1591Z" fill="#00C24A"/>
</svg>
