<svg width="34" height="34" viewBox="0 0 34 34" fill="none" xmlns="http://www.w3.org/2000/svg">
<path d="M17 8.60471C12.3427 8.60471 8.58685 12.3694 8.58685 17.0376C8.58685 21.7059 12.3427 25.4706 17 25.4706C21.6573 25.4706 25.4131 21.7059 25.4131 17.0376C25.4883 12.3694 21.6573 8.60471 17 8.60471ZM24.2113 17.0376C24.2113 21.0282 20.9812 24.2659 17 24.2659C13.0188 24.2659 9.78873 21.0282 9.78873 17.0376C9.78873 13.0471 13.0188 9.80941 17 9.80941C20.9812 9.88471 24.2113 13.1224 24.2113 17.0376Z" fill="#283583"/>
<path d="M17 7.09882C17.3756 7.09882 17.6009 6.79765 17.6009 6.49647V1.60235C17.6009 1.22588 17.3005 1 17 1C16.6244 1 16.3991 1.30118 16.3991 1.60235V6.42118C16.3991 6.79765 16.6995 7.09882 17 7.09882Z" fill="#283583"/>
<path d="M9.11268 10.0353C9.26291 10.1859 9.41315 10.1859 9.56338 10.1859C9.71362 10.1859 9.86385 10.1106 10.0141 10.0353C10.2394 9.80941 10.2394 9.35765 10.0141 9.13177L6.55869 5.66824C6.33333 5.44235 5.88263 5.44235 5.65728 5.66824C5.43192 5.89412 5.43192 6.34588 5.65728 6.57176L9.11268 10.0353Z" fill="#283583"/>
<path d="M7.08451 17.0376C7.08451 16.6612 6.78404 16.4353 6.48357 16.4353H1.60094C1.22535 16.4353 1 16.7365 1 17.0376C1 17.4141 1.30047 17.64 1.60094 17.64H6.40845C6.78404 17.7153 7.08451 17.4141 7.08451 17.0376Z" fill="#283583"/>
<path d="M9.11268 24.1153L5.73239 27.5035C5.50704 27.7294 5.50704 28.1812 5.73239 28.4071C5.88263 28.5576 6.03286 28.5576 6.1831 28.5576C6.33333 28.5576 6.48357 28.4824 6.6338 28.4071L10.0141 25.0188C10.2394 24.7929 10.2394 24.3412 10.0141 24.1153C9.71362 23.8141 9.33803 23.8141 9.11268 24.1153Z" fill="#283583"/>
<path d="M17 26.9765C16.6244 26.9765 16.3991 27.2776 16.3991 27.5788V32.3976C16.3991 32.7741 16.6995 33 17 33C17.3756 33 17.6009 32.6988 17.6009 32.3976V27.5788C17.6761 27.2776 17.3756 26.9765 17 26.9765Z" fill="#283583"/>
<path d="M24.9624 24.1153C24.7371 23.8894 24.2864 23.8894 24.061 24.1153C23.8357 24.3412 23.8357 24.7929 24.061 25.0188L27.4413 28.4071C27.5916 28.5576 27.7418 28.5576 27.892 28.5576C28.0423 28.5576 28.1925 28.4824 28.3427 28.4071C28.5681 28.1812 28.5681 27.7294 28.3427 27.5035L24.9624 24.1153Z" fill="#283583"/>
<path d="M32.3991 16.4353H27.5916C27.216 16.4353 26.9906 16.7365 26.9906 17.0376C26.9906 17.3388 27.2911 17.64 27.5916 17.64H32.3991C32.7746 17.64 33 17.3388 33 17.0376C33 16.7365 32.7746 16.4353 32.3991 16.4353Z" fill="#283583"/>
<path d="M24.5117 10.1859C24.662 10.1859 24.8122 10.1106 24.9624 10.0353L28.3427 6.64706C28.5681 6.42118 28.5681 5.96941 28.3427 5.74353C28.1174 5.51765 27.6667 5.51765 27.4413 5.74353L24.061 9.13177C23.8357 9.35765 23.8357 9.80941 24.061 10.0353C24.1362 10.1106 24.2864 10.1859 24.5117 10.1859Z" fill="#283583"/>
<path d="M17 8.60471C12.3427 8.60471 8.58685 12.3694 8.58685 17.0376C8.58685 21.7059 12.3427 25.4706 17 25.4706C21.6573 25.4706 25.4131 21.7059 25.4131 17.0376C25.4883 12.3694 21.6573 8.60471 17 8.60471ZM24.2113 17.0376C24.2113 21.0282 20.9812 24.2659 17 24.2659C13.0188 24.2659 9.78873 21.0282 9.78873 17.0376C9.78873 13.0471 13.0188 9.80941 17 9.80941C20.9812 9.88471 24.2113 13.1224 24.2113 17.0376Z" stroke="#283583" stroke-width="0.5"/>
<path d="M17 7.09882C17.3756 7.09882 17.6009 6.79765 17.6009 6.49647V1.60235C17.6009 1.22588 17.3005 1 17 1C16.6244 1 16.3991 1.30118 16.3991 1.60235V6.42118C16.3991 6.79765 16.6995 7.09882 17 7.09882Z" stroke="#283583" stroke-width="0.5"/>
<path d="M9.11268 10.0353C9.26291 10.1859 9.41315 10.1859 9.56338 10.1859C9.71362 10.1859 9.86385 10.1106 10.0141 10.0353C10.2394 9.80941 10.2394 9.35765 10.0141 9.13177L6.55869 5.66824C6.33333 5.44235 5.88263 5.44235 5.65728 5.66824C5.43192 5.89412 5.43192 6.34588 5.65728 6.57176L9.11268 10.0353Z" stroke="#283583" stroke-width="0.5"/>
<path d="M7.08451 17.0376C7.08451 16.6612 6.78404 16.4353 6.48357 16.4353H1.60094C1.22535 16.4353 1 16.7365 1 17.0376C1 17.4141 1.30047 17.64 1.60094 17.64H6.40845C6.78404 17.7153 7.08451 17.4141 7.08451 17.0376Z" stroke="#283583" stroke-width="0.5"/>
<path d="M9.11268 24.1153L5.73239 27.5035C5.50704 27.7294 5.50704 28.1812 5.73239 28.4071C5.88263 28.5576 6.03286 28.5576 6.1831 28.5576C6.33333 28.5576 6.48357 28.4824 6.6338 28.4071L10.0141 25.0188C10.2394 24.7929 10.2394 24.3412 10.0141 24.1153C9.71362 23.8141 9.33803 23.8141 9.11268 24.1153Z" stroke="#283583" stroke-width="0.5"/>
<path d="M17 26.9765C16.6244 26.9765 16.3991 27.2776 16.3991 27.5788V32.3976C16.3991 32.7741 16.6995 33 17 33C17.3756 33 17.6009 32.6988 17.6009 32.3976V27.5788C17.6761 27.2776 17.3756 26.9765 17 26.9765Z" stroke="#283583" stroke-width="0.5"/>
<path d="M24.9624 24.1153C24.7371 23.8894 24.2864 23.8894 24.061 24.1153C23.8357 24.3412 23.8357 24.7929 24.061 25.0188L27.4413 28.4071C27.5916 28.5576 27.7418 28.5576 27.892 28.5576C28.0423 28.5576 28.1925 28.4824 28.3427 28.4071C28.5681 28.1812 28.5681 27.7294 28.3427 27.5035L24.9624 24.1153Z" stroke="#283583" stroke-width="0.5"/>
<path d="M32.3991 16.4353H27.5916C27.216 16.4353 26.9906 16.7365 26.9906 17.0376C26.9906 17.3388 27.2911 17.64 27.5916 17.64H32.3991C32.7746 17.64 33 17.3388 33 17.0376C33 16.7365 32.7746 16.4353 32.3991 16.4353Z" stroke="#283583" stroke-width="0.5"/>
<path d="M24.5117 10.1859C24.662 10.1859 24.8122 10.1106 24.9624 10.0353L28.3427 6.64706C28.5681 6.42118 28.5681 5.96941 28.3427 5.74353C28.1174 5.51765 27.6667 5.51765 27.4413 5.74353L24.061 9.13177C23.8357 9.35765 23.8357 9.80941 24.061 10.0353C24.1362 10.1106 24.2864 10.1859 24.5117 10.1859Z" stroke="#283583" stroke-width="0.5"/>
</svg>
