<svg width="59" height="70" viewBox="0 0 59 70" fill="none" xmlns="http://www.w3.org/2000/svg">
<path d="M58.0911 12.7527C58.0911 11.1536 57.6144 10.6739 55.8664 10.514H55.3897C53.4829 10.3541 51.576 10.3541 49.5103 10.0343C44.1075 9.39463 39.3404 7.47573 35.2089 4.59737C33.7788 3.63792 32.5075 2.51856 31.2363 1.3992C30.9185 1.07938 30.6007 0.919475 30.4418 0.599657C29.4884 -0.199886 28.6938 -0.199886 27.7404 0.599657C27.5815 0.759566 27.4226 0.919475 27.2637 1.07938L26.787 1.3992C21.7021 6.51628 15.0281 9.39463 7.55959 10.1942C6.28836 10.3541 5.01712 10.3541 3.74589 10.3541C3.26918 10.3541 2.63356 10.3541 2.15685 10.3541C1.36233 10.514 0.25 10.8338 0.25 12.273C0.25 13.7122 0.25 14.9914 0.25 16.4306C0.25 20.9081 0.25 25.5454 0.25 30.0228C0.25 33.8607 0.885616 38.0183 1.83904 42.1759C4.54041 53.5294 11.3733 62.0046 21.861 67.1216C23.45 67.9212 25.039 68.5608 26.6281 69.2005C27.2637 69.5203 28.0582 69.8401 28.6938 70H29.4884C30.2829 69.6802 30.9185 69.3604 31.713 69.0405C33.3021 68.4009 35.05 67.6014 36.7979 66.8018C46.8089 61.6847 53.324 53.6893 56.1842 42.9754C57.4555 38.1782 58.0911 32.7413 58.25 26.6648C58.25 23.4666 58.25 20.1085 58.25 16.9103C58.0911 15.6311 58.0911 14.1919 58.0911 12.7527ZM54.5952 31.3021C54.2774 38.1782 52.8473 43.9349 50.4637 49.052C47.6034 54.6488 43.313 59.2861 37.7514 62.4843C36.0034 63.4437 34.0966 64.4032 32.1897 65.2027C31.3952 65.5226 30.7596 65.8424 29.9651 66.1622C29.8062 66.3221 29.4884 66.3221 29.1705 66.3221C29.0116 66.3221 28.8527 66.3221 28.5349 66.1622C22.9733 64.0834 18.3651 61.5248 14.7103 58.1668C9.94315 53.6893 6.76507 48.0925 5.17603 41.0565C4.0637 36.2593 3.58699 31.1422 3.58699 24.5859C3.58699 22.5071 3.58699 20.2684 3.58699 18.1896C3.58699 17.3901 3.58699 16.4306 3.58699 15.6311C3.58699 15.4712 3.58699 15.3112 3.58699 15.1513V14.3518L4.2226 14.1919C4.85822 14.1919 5.49384 14.032 6.12945 14.032C7.55959 13.8721 8.83082 13.7122 10.261 13.5523C16.776 12.5928 22.6555 9.87436 27.7404 5.55682C28.5349 4.75728 29.3295 4.75728 30.2829 5.55682C35.5267 10.0343 41.724 12.7527 48.5569 13.7122C49.6692 13.8721 50.9404 14.032 52.0527 14.1919C52.6884 14.1919 53.1651 14.3518 53.8007 14.3518H54.4363V15.1513C54.4363 15.3112 54.4363 15.4712 54.4363 15.6311C54.4363 17.2302 54.4363 18.8292 54.4363 20.4283C54.7541 23.7864 54.7541 27.6242 54.5952 31.3021Z" fill="#283583"/>
<path d="M39.3404 26.5049C38.8637 26.5049 38.5459 26.6648 38.0692 27.3044C36.1623 29.2233 34.4144 30.9823 32.5075 32.9012C30.6007 34.8201 28.6938 36.739 26.787 38.6579L26.4692 39.2975L25.9925 40.0971L25.039 39.1376C24.8801 38.9777 24.7212 38.8178 24.7212 38.8178L24.0856 37.8584C22.8144 36.5791 21.5432 35.2998 20.2719 34.0206C19.7952 33.5408 19.4774 33.3809 19.0007 33.3809H18.6829C18.0473 33.5408 17.5705 33.8606 17.4116 34.5003C17.2527 35.1399 17.4116 35.7796 17.8884 36.2593C19.9541 38.3381 22.1788 40.5768 24.2445 42.6556C25.5158 43.9349 26.1514 43.9349 27.4226 42.6556C31.713 38.3381 36.1623 33.8606 40.4527 29.5431C40.6116 29.3832 40.7705 29.2233 40.9295 29.0634C41.4062 28.4238 41.4062 27.944 41.0884 27.1445C40.6116 26.6648 40.1349 26.5049 39.3404 26.5049Z" fill="#283583"/>
</svg>
