<svg width="60" height="38" viewBox="0 0 60 38" fill="none" xmlns="http://www.w3.org/2000/svg">
<mask id="path-1-inside-1_160_510" fill="white">
<path d="M41.9286 7.32738V7.40079L41.7143 7.62103L41.9286 7.32738Z"/>
<path d="M38.3571 4.90476H41.2143C42.3571 4.90476 43.3571 5.63889 43.7143 6.74008L45.9286 12.0258C46.0714 12.3194 46 12.5397 45.8571 12.9802C45.7143 13.2738 45.5 13.4206 45.1429 13.4206H36.6429C36.1429 13.4206 35.7857 13.0536 35.7857 12.4663V7.54762C35.7857 6.07937 36.9286 4.90476 38.3571 4.90476ZM37.4286 11.4385H43.7857L41.9286 7.32738C41.8571 6.96032 41.5714 6.66667 41.1429 6.66667H38.2143C37.7857 6.66667 37.4286 7.03373 37.4286 7.47421V11.4385Z"/>
<path d="M47.8571 29.8651C48.8571 29.8651 49.7143 30.746 49.7143 31.7738C49.7143 32.8016 48.8571 33.6825 47.8571 33.6825C47.2857 33.6825 46.7857 33.4623 46.4286 33.0952C46.1429 32.7282 46 32.2877 46 31.8472C46 30.6726 46.8571 29.8651 47.8571 29.8651ZM47.8571 32.4345C48.2857 32.4345 48.5714 32.0675 48.5714 31.7004C48.5714 31.2599 48.2143 30.9663 47.8571 30.9663C47.4286 30.9663 47.1429 31.2599 47.1429 31.7004C47.2143 32.1409 47.5714 32.4345 47.8571 32.4345Z"/>
<path d="M14.7857 29.7183C15.7857 29.7183 16.6429 30.5992 16.6429 31.627C16.6429 32.8016 15.7857 33.6091 14.7143 33.6091C14.2143 33.6091 13.7857 33.3889 13.4286 33.0218C13.0714 32.6548 12.9286 32.1409 13 31.627C12.9286 30.5992 13.7857 29.7183 14.7857 29.7183ZM14.6429 32.4345C15.0714 32.4345 15.3571 32.0675 15.3571 31.7004C15.3571 31.2599 15 30.9663 14.6429 30.9663C14.2857 30.9663 14.0714 31.3333 14 31.4802L13.9286 31.627C14 32.1409 14.3571 32.4345 14.6429 32.4345Z"/>
<path d="M46.5714 4.61111L46.6429 4.68452L46.3571 4.90476L46.5714 4.61111Z"/>
<path d="M1 25.1667H3.28571V16.7976C3.28571 16.2837 3.71429 15.8433 4.21429 15.8433H30.3571V5.56548C30.3571 2.70238 32.5 0.5 35.2857 0.5H43.4286C45.5714 0.5 47.5 1.96825 48.1429 4.09722L53.1429 15.8433H53.3571C57.1429 16.2837 60 19.4405 60 23.4048V28.9107C60 30.746 58.5 32.2877 56.7143 32.2877H53.5714L53.5 32.5813C53.3571 33.4623 53 34.2698 52.5 35.004L52.0714 35.5913H54.2857C54.7857 35.5913 55.2143 36.0317 55.2143 36.5456C55.2143 37.0595 54.7857 37.5 54.2857 37.5H3.5C3.07143 37.5 2.64286 36.9861 2.57143 36.4722C2.57143 36.0317 3 35.5913 3.5 35.5913H10.5L10.0714 35.004C9.57143 34.2698 9.21428 33.4623 9.07143 32.5813L9 32.2877H6.64286C5.64286 32.2877 4.78572 31.8472 4.14286 31.0397L4 30.8929H0.928574C0.5 30.8929 0.0714264 30.5258 0 29.8651V26.0476C0 25.6071 0.428574 25.1667 1 25.1667ZM46.6429 4.61111C46.2857 3.28968 45 2.33532 43.6429 2.33532H35.4286C33.7143 2.33532 32.2857 3.80357 32.2857 5.56548V15.8433H51.3571L46.6429 4.61111ZM44.5 33.6825C45.2143 34.9306 46.5 35.6647 47.9286 35.6647C50 35.6647 51.7857 33.9028 51.8571 31.7738V31.7004L51.7857 31.5536L51.7143 31.4802C51.7143 31.4802 51.7143 31.4067 51.7857 31.2599V31.1131C51.7143 30.379 51.4286 29.6448 50.9286 28.9841L50.7857 28.8373H50.7143C49.6429 27.7361 48.1429 27.369 46.7143 27.8095C45.8571 28.0298 45.0714 28.6905 44.5714 29.5714C43.7857 30.8194 43.7857 32.3611 44.5 33.6825ZM47.6429 25.754C49.3571 25.6806 50.9286 26.3413 52.0714 27.6627C52.3571 27.9563 52.6429 28.3968 52.8571 28.6905C53.1429 29.2044 53.3571 29.7183 53.4286 30.3056L53.5 30.5992H56.7143C57.5714 30.5992 58.2143 29.9385 58.2143 29.0575V23.5516C58.2143 20.3948 55.7143 17.8254 52.6429 17.8254H32.1429V30.379H42.3571L42.4286 30.0853C42.6429 29.3512 42.9286 28.6905 43.3571 28.1032C44.3571 26.7083 45.9286 25.8274 47.6429 25.754ZM43.7143 35.6647L43.2857 35.0774C42.7857 34.3433 42.4286 33.5357 42.2857 32.6548L42.2143 32.3611H20.3571L20.2857 32.6548C20.1429 33.5357 19.7857 34.3433 19.2857 35.0774L18.8571 35.6647H43.7143ZM10.7857 31.7738C10.8571 33.9028 12.6429 35.6647 14.7143 35.6647C16.7857 35.6647 18.5 34.0496 18.6429 31.8472V31.7004C18.5714 31.5536 18.5714 31.4802 18.5714 31.3333C18.5714 31.2599 18.5714 31.1865 18.6429 31.0397V30.8929C18.6429 30.746 18.5714 30.5992 18.5714 30.4524C18.4286 30.0853 18.3571 29.9385 18.2857 29.7183C18.2143 29.498 18.1429 29.4246 18.0714 29.3512C16.9286 27.7361 14.7857 27.1488 13.0714 28.0298C12.2857 28.3968 11.6429 29.0575 11.2857 29.8651C11.1429 30.2321 11 30.5992 10.9286 31.0397V31.4067C10.9286 31.4802 10.9286 31.5536 10.8571 31.7004L10.7857 31.7738ZM5.14286 21.2758H26.3571C26.8571 21.2758 27.2857 21.7163 27.2857 22.2302C27.2857 22.744 26.8571 23.1845 26.3571 23.1845H5.14286V28.7639C5.14286 29.6448 5.78572 30.3056 6.64286 30.3056H9.14286L9.21429 30.0119C9.42857 29.2044 9.78572 28.4702 10.2857 27.8829C10.5 27.5893 10.7857 27.2956 11 27.1488C12.2857 26.0476 13.9286 25.5337 15.5 25.754C17.1429 26.0476 18.5 26.9286 19.4286 28.3968C19.7143 28.8373 20 29.4246 20.1429 30.0853L20.2143 30.379H30.2857V17.752H5.14286V21.2758ZM3.28571 29.131V28.7639C3.28571 28.6171 3.28571 28.5436 3.35714 28.4702V27.0754H1.85714V29.131H3.28571Z"/>
<path d="M39.0714 23.1845H36.5C36.0714 23.1845 35.5714 22.744 35.5714 22.2302C35.5714 21.7163 36 21.2758 36.5 21.2758H39.0714C39.5714 21.2758 40 21.7163 40 22.2302C40 22.744 39.5714 23.1845 39.0714 23.1845Z"/>
</mask>
<path d="M41.9286 7.40079H43.9286V8.21322L43.362 8.7955L41.9286 7.40079ZM41.7143 7.62103L43.1477 9.01574L40.0987 6.44209L41.7143 7.62103ZM43.7143 6.74008L41.8696 7.51285L41.8375 7.43617L41.8118 7.35709L43.7143 6.74008ZM45.9286 12.0258L44.1301 12.9007L44.1056 12.8503L44.0839 12.7986L45.9286 12.0258ZM45.8571 12.9802L47.7596 13.5972L47.7166 13.7298L47.6556 13.8551L45.8571 12.9802ZM35.7857 7.54762H33.7857H35.7857ZM37.4286 11.4385V13.4385H35.4286V11.4385H37.4286ZM43.7857 11.4385L45.6084 10.6151L46.8838 13.4385H43.7857V11.4385ZM46.4286 33.0952L44.9951 34.4899L44.9181 34.4108L44.8503 34.3237L46.4286 33.0952ZM47.1429 31.7004L45.1686 32.0205L45.1429 31.8615V31.7004H47.1429ZM13 31.627L14.9952 31.4883L15.0096 31.6961L14.981 31.9023L13 31.627ZM14 31.4802L15.7985 32.3551L15.7985 32.3551L14 31.4802ZM13.9286 31.627L11.9476 31.9023L11.8638 31.2994L12.1301 30.752L13.9286 31.627ZM46.5714 4.61111L44.9558 3.43217L46.3526 1.51816L48.0049 3.21641L46.5714 4.61111ZM46.6429 4.68452L48.0763 3.28982L49.6414 4.89838L47.8639 6.26854L46.6429 4.68452ZM46.3571 4.90476L47.5782 6.48878L44.7416 3.72582L46.3571 4.90476ZM3.28571 25.1667H5.28571V27.1667H3.28571V25.1667ZM30.3571 15.8433H32.3571V17.8433H30.3571V15.8433ZM48.1429 4.09722L46.3026 4.88056L46.2598 4.77999L46.2282 4.67535L48.1429 4.09722ZM53.1429 15.8433V17.8433H51.8205L51.3026 16.6266L53.1429 15.8433ZM53.3571 15.8433V13.8433H53.4731L53.5883 13.8567L53.3571 15.8433ZM53.5714 32.2877L51.6281 31.815L51.9996 30.2877H53.5714V32.2877ZM53.5 32.5813L51.5258 32.2612L51.5383 32.1843L51.5567 32.1087L53.5 32.5813ZM52.5 35.004L54.153 36.1298L54.1347 36.1567L54.1156 36.1829L52.5 35.004ZM52.0714 35.5913V37.5913H48.1361L50.4558 34.4123L52.0714 35.5913ZM2.57143 36.4722L0.590477 36.7476L0.57143 36.6106V36.4722H2.57143ZM10.5 35.5913L12.1156 34.4123L14.4353 37.5913H10.5V35.5913ZM10.0714 35.004L8.45585 36.1829L8.4367 36.1567L8.41841 36.1298L10.0714 35.004ZM9.07143 32.5813L11.0148 32.1087L11.0332 32.1843L11.0456 32.2612L9.07143 32.5813ZM9 32.2877V30.2877H10.5719L10.9433 31.815L9 32.2877ZM4.14286 31.0397L5.57628 29.6449L5.64565 29.7162L5.70759 29.794L4.14286 31.0397ZM4 30.8929V28.8929H4.84449L5.43342 29.4981L4 30.8929ZM0 29.8651L-1.98841 30.08L-2 29.9729V29.8651H0ZM0 26.0476H2H0ZM46.6429 4.61111L44.7987 5.38513L44.747 5.26192L44.7121 5.13293L46.6429 4.61111ZM32.2857 15.8433V17.8433H30.2857V15.8433H32.2857ZM51.3571 15.8433L53.2013 15.0692L54.3656 17.8433H51.3571V15.8433ZM44.5 33.6825L42.7642 34.676L42.7521 34.6549L42.7406 34.6336L44.5 33.6825ZM51.8571 31.7738H53.8571V31.8073L53.856 31.8409L51.8571 31.7738ZM51.8571 31.7004L53.6556 30.8255L53.8571 31.2397V31.7004H51.8571ZM51.7857 31.5536L53.2191 30.1588L53.4435 30.3894L53.5842 30.6786L51.7857 31.5536ZM51.7143 31.4802L50.2809 32.8749L49.7143 32.2926L49.7143 31.4801L51.7143 31.4802ZM51.7857 31.2599H53.7857V31.7206L53.5842 32.1349L51.7857 31.2599ZM51.7857 31.1131L53.7763 30.9194L53.7857 31.016V31.1131H51.7857ZM50.9286 28.9841L52.362 27.5894L52.4485 27.6783L52.5234 27.7772L50.9286 28.9841ZM50.7857 28.8373V26.8373H51.6302L52.2192 27.4426L50.7857 28.8373ZM50.7143 28.8373V30.8373H49.8698L49.2808 30.232L50.7143 28.8373ZM46.7143 27.8095L47.3036 29.7207L47.2581 29.7348L47.212 29.7466L46.7143 27.8095ZM44.5714 29.5714L46.3108 30.5586L46.2883 30.5983L46.2639 30.637L44.5714 29.5714ZM52.0714 27.6627L50.638 29.0574L50.5971 29.0154L50.5587 28.971L52.0714 27.6627ZM52.8571 28.6905L54.4727 27.5115L54.5453 27.611L54.6051 27.7186L52.8571 28.6905ZM53.4286 30.3056L51.4852 30.7783L51.4574 30.6639L51.4432 30.547L53.4286 30.3056ZM53.5 30.5992V32.5992H51.9282L51.5567 31.0719L53.5 30.5992ZM32.1429 17.8254H30.1429V15.8254H32.1429V17.8254ZM32.1429 30.379V32.379H30.1429V30.379H32.1429ZM42.3571 30.379L44.3005 30.8517L43.929 32.379H42.3571V30.379ZM42.4286 30.0853L40.4852 29.6126L40.496 29.5685L40.5087 29.5249L42.4286 30.0853ZM43.3571 28.1032L44.9826 29.2685L44.9777 29.2753L44.9727 29.2821L43.3571 28.1032ZM43.7143 35.6647L45.3299 34.4857L47.6496 37.6647H43.7143V35.6647ZM43.2857 35.0774L41.6701 36.2563L41.651 36.2301L41.6327 36.2032L43.2857 35.0774ZM42.2857 32.6548L44.229 32.182L44.2475 32.2577L44.2599 32.3346L42.2857 32.6548ZM42.2143 32.3611V30.3611H43.7861L44.1576 31.8884L42.2143 32.3611ZM20.3571 32.3611L18.4138 31.8884L18.7853 30.3611H20.3571V32.3611ZM20.2857 32.6548L18.3115 32.3346L18.324 32.2577L18.3424 32.1821L20.2857 32.6548ZM19.2857 35.0774L20.9387 36.2032L20.9204 36.2301L20.9013 36.2563L19.2857 35.0774ZM18.8571 35.6647V37.6647H14.9218L17.2416 34.4858L18.8571 35.6647ZM10.7857 31.7738L8.78684 31.8409L8.75828 30.9896L9.35224 30.3791L10.7857 31.7738ZM18.6429 31.8472H20.6429V31.912L20.6387 31.9767L18.6429 31.8472ZM18.6429 31.7004L20.4413 30.8255L20.6429 31.2397V31.7004H18.6429ZM18.6429 31.0397H20.6429V31.5004L20.4413 31.9146L18.6429 31.0397ZM18.5714 30.4524L20.4352 29.727L20.5714 30.0769V30.4524H18.5714ZM18.0714 29.3512L16.638 30.7459L16.5291 30.6339L16.4388 30.5064L18.0714 29.3512ZM13.0714 28.0298L13.9856 29.8086L13.9521 29.8258L13.918 29.8418L13.0714 28.0298ZM11.2857 29.8651L9.4219 29.1397L9.43831 29.0975L9.45662 29.0561L11.2857 29.8651ZM10.9286 31.0397H8.92857V30.8786L8.95436 30.7195L10.9286 31.0397ZM10.8571 31.7004L12.6556 32.5753L12.5149 32.8646L12.2906 33.0951L10.8571 31.7004ZM5.14286 21.2758V23.2758H3.14286V21.2758H5.14286ZM5.14286 23.1845H3.14286V21.1845H5.14286V23.1845ZM9.14286 30.3056L11.0862 30.7782L10.7147 32.3056H9.14286V30.3056ZM9.21429 30.0119L7.27095 29.5392L7.27586 29.519L7.28119 29.4989L9.21429 30.0119ZM10.2857 27.8829L11.9013 29.0619L11.8571 29.1224L11.8086 29.1794L10.2857 27.8829ZM11 27.1488L12.301 28.6678L12.2193 28.7378L12.1305 28.7987L11 27.1488ZM15.5 25.754L15.7776 23.7733L15.8149 23.7786L15.8519 23.7852L15.5 25.754ZM19.4286 28.3968L17.7507 29.4852L17.7444 29.4756L17.7382 29.4658L19.4286 28.3968ZM20.1429 30.0853L18.1995 30.558L18.1935 30.5331L18.188 30.508L20.1429 30.0853ZM20.2143 30.379V32.379H18.6425L18.271 30.8517L20.2143 30.379ZM30.2857 30.379H32.2857V32.379H30.2857V30.379ZM30.2857 17.752V15.752H32.2857V17.752H30.2857ZM5.14286 17.752H3.14286V15.752H5.14286V17.752ZM3.28571 29.131H5.28571V31.131H3.28571V29.131ZM3.35714 28.4702H5.35714V29.2827L4.79059 29.8649L3.35714 28.4702ZM3.35714 27.0754V25.0754H5.35714V27.0754H3.35714ZM1.85714 27.0754H-0.142857V25.0754H1.85714V27.0754ZM1.85714 29.131V31.131H-0.142857V29.131H1.85714ZM40 22.2302H42H40ZM41.9286 7.32738H43.9286V7.40079H41.9286H39.9286V7.32738H41.9286ZM41.9286 7.40079L43.362 8.7955L43.1477 9.01574L41.7143 7.62103L40.2808 6.22632L40.4951 6.00608L41.9286 7.40079ZM41.7143 7.62103L40.0987 6.44209L40.313 6.14844L41.9286 7.32738L43.5442 8.50632L43.3299 8.79997L41.7143 7.62103ZM38.3571 4.90476V2.90476H41.2143V4.90476V6.90476H38.3571V4.90476ZM41.2143 4.90476V2.90476C43.2394 2.90476 44.9969 4.21203 45.6167 6.12307L43.7143 6.74008L41.8118 7.35709C41.7174 7.06575 41.4749 6.90476 41.2143 6.90476V4.90476ZM43.7143 6.74008L45.559 5.96731L47.7732 11.253L45.9286 12.0258L44.0839 12.7986L41.8696 7.51285L43.7143 6.74008ZM45.9286 12.0258L47.727 11.1509C48.278 12.2833 47.8541 13.3057 47.7596 13.5972L45.8571 12.9802L43.9547 12.3631C43.9938 12.2425 44.0117 12.1862 44.0236 12.1443C44.0344 12.1058 44.023 12.1373 44.0146 12.2065C44.0049 12.2867 43.9997 12.4098 44.0236 12.557C44.0475 12.7045 44.0918 12.8219 44.1301 12.9007L45.9286 12.0258ZM45.8571 12.9802L47.6556 13.8551C47.4685 14.2397 47.1595 14.6782 46.6494 15.0008C46.138 15.3243 45.5994 15.4206 45.1429 15.4206V13.4206V11.4206C45.0434 11.4206 44.7906 11.4436 44.5113 11.6202C44.2334 11.796 44.1029 12.0143 44.0587 12.1052L45.8571 12.9802ZM45.1429 13.4206V15.4206H36.6429V13.4206V11.4206H45.1429V13.4206ZM36.6429 13.4206V15.4206C35.8812 15.4206 35.116 15.1284 34.5541 14.5169C34.0033 13.9175 33.7857 13.1649 33.7857 12.4663H35.7857H37.7857C37.7857 12.3549 37.7467 12.0795 37.4994 11.8104C37.2411 11.5293 36.9045 11.4206 36.6429 11.4206V13.4206ZM35.7857 12.4663H33.7857V7.54762H35.7857H37.7857V12.4663H35.7857ZM35.7857 7.54762H33.7857C33.7857 5.0268 35.7727 2.90476 38.3571 2.90476V4.90476V6.90476C38.0844 6.90476 37.7857 7.13193 37.7857 7.54762H35.7857ZM37.4286 11.4385V9.43849H43.7857V11.4385V13.4385H37.4286V11.4385ZM43.7857 11.4385L41.9631 12.2619L40.1059 8.15074L41.9286 7.32738L43.7512 6.50402L45.6084 10.6151L43.7857 11.4385ZM41.9286 7.32738L39.9654 7.7094C40.0051 7.91368 40.1158 8.1537 40.3394 8.35282C40.5782 8.56559 40.8754 8.66667 41.1429 8.66667V6.66667V4.66667C42.6582 4.66667 43.6634 5.77181 43.8917 6.94536L41.9286 7.32738ZM41.1429 6.66667V8.66667H38.2143V6.66667V4.66667H41.1429V6.66667ZM38.2143 6.66667V8.66667C38.9416 8.66667 39.4286 8.08629 39.4286 7.47421H37.4286H35.4286C35.4286 5.98117 36.6298 4.66667 38.2143 4.66667V6.66667ZM37.4286 7.47421H39.4286V11.4385H37.4286H35.4286V7.47421H37.4286ZM47.8571 29.8651V27.8651C50.013 27.8651 51.7143 29.6935 51.7143 31.7738H49.7143H47.7143C47.7143 31.7965 47.7192 31.8128 47.7225 31.8205C47.7252 31.8268 47.7269 31.8284 47.7273 31.8287C47.7276 31.829 47.7345 31.8364 47.7539 31.8451C47.7751 31.8545 47.8109 31.8651 47.8571 31.8651V29.8651ZM49.7143 31.7738H51.7143C51.7143 33.8541 50.013 35.6825 47.8571 35.6825V33.6825V31.6825C47.8109 31.6825 47.7751 31.6931 47.7539 31.7025C47.7345 31.7112 47.7276 31.7186 47.7273 31.7189C47.7269 31.7193 47.7252 31.7208 47.7225 31.7271C47.7192 31.7348 47.7143 31.7511 47.7143 31.7738H49.7143ZM47.8571 33.6825V35.6825C46.7545 35.6825 45.7348 35.2502 44.9951 34.4899L46.4286 33.0952L47.862 31.7005C47.8582 31.6966 47.8537 31.6927 47.8485 31.6892C47.8433 31.6857 47.8386 31.6832 47.835 31.6817C47.8313 31.6802 47.8303 31.6802 47.8328 31.6807C47.8352 31.6812 47.8431 31.6825 47.8571 31.6825V33.6825ZM46.4286 33.0952L44.8503 34.3237C44.2837 33.5958 44 32.7203 44 31.8472H46H48C48 31.8514 48.0007 31.855 48.0016 31.8576C48.0023 31.8597 48.0035 31.8625 48.0068 31.8668L46.4286 33.0952ZM46 31.8472H44C44 29.6201 45.7013 27.8651 47.8571 27.8651V29.8651V31.8651C47.878 31.8651 47.9032 31.8606 47.9284 31.8498C47.9531 31.8393 47.9728 31.825 47.987 31.8104C48.0017 31.7953 48.0069 31.7837 48.0075 31.7823C48.0084 31.7801 48 31.7989 48 31.8472H46ZM47.8571 32.4345V30.4345C47.4636 30.4345 47.1178 30.6145 46.8944 30.8606C46.69 31.0856 46.5714 31.3796 46.5714 31.7004H48.5714H50.5714C50.5714 32.9863 49.5673 34.4345 47.8571 34.4345V32.4345ZM48.5714 31.7004H46.5714C46.5714 32.4421 47.1889 32.9663 47.8571 32.9663V30.9663V28.9663C49.2396 28.9663 50.5714 30.0778 50.5714 31.7004H48.5714ZM47.8571 30.9663V32.9663C48.1141 32.9663 48.4759 32.868 48.7727 32.5629C49.0648 32.2627 49.1429 31.9185 49.1429 31.7004H47.1429H45.1429C45.1429 31.0418 45.3637 30.3306 45.9058 29.7734C46.4527 29.2114 47.1716 28.9663 47.8571 28.9663V30.9663ZM47.1429 31.7004L49.1171 31.3803C49.0794 31.1478 48.9653 30.9439 48.8041 30.7893C48.6735 30.664 48.3625 30.4345 47.8571 30.4345V32.4345V34.4345C47.0661 34.4345 46.4337 34.0583 46.0351 33.676C45.6062 33.2645 45.2778 32.6935 45.1686 32.0205L47.1429 31.7004ZM14.7857 29.7183V27.7183C16.9416 27.7183 18.6429 29.5467 18.6429 31.627H16.6429H14.6429C14.6429 31.6497 14.6478 31.666 14.6511 31.6737C14.6537 31.68 14.6555 31.6815 14.6558 31.6819C14.6561 31.6822 14.6631 31.6896 14.6825 31.6982C14.7037 31.7077 14.7394 31.7183 14.7857 31.7183V29.7183ZM16.6429 31.627H18.6429C18.6429 33.9035 16.893 35.6091 14.7143 35.6091V33.6091V31.6091C14.7296 31.6091 14.7274 31.6066 14.7135 31.6122C14.6997 31.6179 14.6818 31.6286 14.6651 31.6453C14.6481 31.6624 14.6398 31.6781 14.6372 31.6845C14.6345 31.6912 14.6429 31.6754 14.6429 31.627H16.6429ZM14.7143 33.6091V35.6091C13.5623 35.6091 12.6427 35.0821 11.9951 34.4165L13.4286 33.0218L14.862 31.6271C14.9022 31.6684 14.9074 31.6614 14.8702 31.6438C14.8514 31.635 14.8262 31.6256 14.796 31.6187C14.7656 31.6118 14.7374 31.6091 14.7143 31.6091V33.6091ZM13.4286 33.0218L11.9951 34.4165C11.1554 33.5534 10.8735 32.3987 11.019 31.3516L13 31.627L14.981 31.9023C14.9836 31.883 14.9875 31.7561 14.862 31.6271L13.4286 33.0218ZM13 31.627L11.0048 31.7656C10.8509 29.5517 12.6567 27.7183 14.7857 27.7183V29.7183V31.7183C14.8792 31.7183 14.9272 31.6793 14.943 31.6627C14.9625 31.6421 15.0017 31.582 14.9952 31.4883L13 31.627ZM14.6429 32.4345V30.4345C14.2493 30.4345 13.9036 30.6145 13.6801 30.8606C13.4757 31.0856 13.3571 31.3796 13.3571 31.7004H15.3571H17.3571C17.3571 32.9862 16.3531 34.4345 14.6429 34.4345V32.4345ZM15.3571 31.7004H13.3571C13.3571 32.4421 13.9747 32.9663 14.6429 32.9663V30.9663V28.9663C16.0254 28.9663 17.3571 30.0778 17.3571 31.7004H15.3571ZM14.6429 30.9663V32.9663C15.2022 32.9663 15.5434 32.6701 15.6477 32.5629C15.7506 32.4572 15.7894 32.3737 15.7985 32.3551L14 31.4802L12.2015 30.6052C12.282 30.4398 12.4637 30.0994 12.7808 29.7734C13.0995 29.446 13.7264 28.9663 14.6429 28.9663V30.9663ZM14 31.4802L15.7985 32.3551L15.727 32.5019L13.9286 31.627L12.1301 30.752L12.2015 30.6052L14 31.4802ZM13.9286 31.627L15.9095 31.3516C15.8892 31.2054 15.8148 31.0097 15.6388 30.8287C15.4904 30.6762 15.1615 30.4345 14.6429 30.4345V32.4345V34.4345C13.0806 34.4345 12.1143 33.1017 11.9476 31.9023L13.9286 31.627ZM46.5714 4.61111L48.0049 3.21641L48.0763 3.28982L46.6429 4.68452L45.2094 6.07922L45.138 6.00581L46.5714 4.61111ZM46.6429 4.68452L47.8639 6.26854L47.5782 6.48878L46.3571 4.90476L45.1361 3.32074L45.4218 3.10051L46.6429 4.68452ZM46.3571 4.90476L44.7416 3.72582L44.9558 3.43217L46.5714 4.61111L48.187 5.79005L47.9727 6.0837L46.3571 4.90476ZM1 25.1667V23.1667H3.28571V25.1667V27.1667H1V25.1667ZM3.28571 25.1667H1.28571V16.7976H3.28571H5.28571V25.1667H3.28571ZM3.28571 16.7976H1.28571C1.28571 15.2312 2.55842 13.8433 4.21429 13.8433V15.8433V17.8433C4.56161 17.8433 4.83107 17.6919 4.99595 17.5224C5.16103 17.3528 5.28571 17.1012 5.28571 16.7976H3.28571ZM4.21429 15.8433V13.8433H30.3571V15.8433V17.8433H4.21429V15.8433ZM30.3571 15.8433H28.3571V5.56548H30.3571H32.3571V15.8433H30.3571ZM30.3571 5.56548H28.3571C28.3571 1.64982 31.3441 -1.5 35.2857 -1.5V0.5V2.5C33.6559 2.5 32.3571 3.75494 32.3571 5.56548H30.3571ZM35.2857 0.5V-1.5H43.4286V0.5V2.5H35.2857V0.5ZM43.4286 0.5V-1.5C46.4952 -1.5 49.172 0.586638 50.0575 3.51909L48.1429 4.09722L46.2282 4.67535C45.828 3.34987 44.6477 2.5 43.4286 2.5V0.5ZM48.1429 4.09722L49.9831 3.31389L54.9831 15.0599L53.1429 15.8433L51.3026 16.6266L46.3026 4.88056L48.1429 4.09722ZM53.1429 15.8433V13.8433H53.3571V15.8433V17.8433H53.1429V15.8433ZM53.3571 15.8433L53.5883 13.8567C58.3904 14.4154 62 18.4334 62 23.4048H60H58C58 20.4475 55.8953 18.1521 53.126 17.8299L53.3571 15.8433ZM60 23.4048H62V28.9107H60H58V23.4048H60ZM60 28.9107H62C62 31.7986 59.6559 34.2877 56.7143 34.2877V32.2877V30.2877C57.3441 30.2877 58 29.6935 58 28.9107H60ZM56.7143 32.2877V34.2877H53.5714V32.2877V30.2877H56.7143V32.2877ZM53.5714 32.2877L55.5148 32.7604L55.4433 33.0541L53.5 32.5813L51.5567 32.1087L51.6281 31.815L53.5714 32.2877ZM53.5 32.5813L55.4742 32.9015C55.2768 34.1189 54.7882 35.1971 54.153 36.1298L52.5 35.004L50.847 33.8781C51.2118 33.3425 51.4375 32.8057 51.5258 32.2612L53.5 32.5813ZM52.5 35.004L54.1156 36.1829L53.687 36.7702L52.0714 35.5913L50.4558 34.4123L50.8844 33.825L52.5 35.004ZM52.0714 35.5913V33.5913H54.2857V35.5913V37.5913H52.0714V35.5913ZM54.2857 35.5913V33.5913C55.9416 33.5913 57.2143 34.9792 57.2143 36.5456H55.2143H53.2143C53.2143 36.8492 53.339 37.1008 53.504 37.2705C53.6689 37.4399 53.9384 37.5913 54.2857 37.5913V35.5913ZM55.2143 36.5456H57.2143C57.2143 38.1121 55.9416 39.5 54.2857 39.5V37.5V35.5C53.9384 35.5 53.6689 35.6513 53.504 35.8208C53.339 35.9905 53.2143 36.2421 53.2143 36.5456H55.2143ZM54.2857 37.5V39.5H3.5V37.5V35.5H54.2857V37.5ZM3.5 37.5V39.5C2.49559 39.5 1.7795 38.9308 1.40059 38.5003C0.993557 38.038 0.684475 37.4238 0.590477 36.7476L2.57143 36.4722L4.55239 36.1969C4.52982 36.0345 4.47074 35.9343 4.40298 35.8573C4.36251 35.8113 4.28408 35.7345 4.15258 35.6618C4.02 35.5884 3.79633 35.5 3.5 35.5V37.5ZM2.57143 36.4722H0.57143C0.57143 35.6131 0.97401 34.9 1.45298 34.4336C1.9426 33.9569 2.65868 33.5913 3.5 33.5913V35.5913V37.5913C3.84133 37.5913 4.09312 37.4459 4.24345 37.2995C4.38314 37.1635 4.57143 36.8908 4.57143 36.4722H2.57143ZM3.5 35.5913V33.5913H10.5V35.5913V37.5913H3.5V35.5913ZM10.5 35.5913L8.88441 36.7702L8.45585 36.1829L10.0714 35.004L11.687 33.825L12.1156 34.4123L10.5 35.5913ZM10.0714 35.004L8.41841 36.1298C7.78319 35.1971 7.29463 34.1189 7.09722 32.9015L9.07143 32.5813L11.0456 32.2612C11.1339 32.8057 11.3597 33.3425 11.7245 33.8781L10.0714 35.004ZM9.07143 32.5813L7.12809 33.054L7.05666 32.7604L9 32.2877L10.9433 31.815L11.0148 32.1087L9.07143 32.5813ZM9 32.2877V34.2877H6.64286V32.2877V30.2877H9V32.2877ZM6.64286 32.2877V34.2877C4.9848 34.2877 3.56896 33.53 2.57812 32.2853L4.14286 31.0397L5.70759 29.794C6.00247 30.1645 6.30092 30.2877 6.64286 30.2877V32.2877ZM4.14286 31.0397L2.70943 32.4344L2.56658 32.2876L4 30.8929L5.43342 29.4981L5.57628 29.6449L4.14286 31.0397ZM4 30.8929V32.8929H0.928574V30.8929V28.8929H4V30.8929ZM0.928574 30.8929V32.8929C-0.75412 32.8929 -1.83418 31.5067 -1.98841 30.08L0 29.8651L1.98841 29.6501C1.98212 29.5919 1.94264 29.4158 1.76381 29.232C1.58849 29.0518 1.29787 28.8929 0.928574 28.8929V30.8929ZM0 29.8651H-2V26.0476H0H2V29.8651H0ZM0 26.0476H-2C-2 24.3586 -0.526306 23.1667 1 23.1667V25.1667V27.1667C1.23768 27.1667 1.46762 27.0731 1.6438 26.9102C1.80399 26.762 2 26.4741 2 26.0476H0ZM46.6429 4.61111L44.7121 5.13293C44.5973 4.70816 44.1219 4.33532 43.6429 4.33532V2.33532V0.335317C45.8781 0.335317 47.9741 1.87121 48.5736 4.08929L46.6429 4.61111ZM43.6429 2.33532V4.33532H35.4286V2.33532V0.335317H43.6429V2.33532ZM35.4286 2.33532V4.33532C34.8702 4.33532 34.2857 4.85613 34.2857 5.56548H32.2857H30.2857C30.2857 2.75101 32.5584 0.335317 35.4286 0.335317V2.33532ZM32.2857 5.56548H34.2857V15.8433H32.2857H30.2857V5.56548H32.2857ZM32.2857 15.8433V13.8433H51.3571V15.8433V17.8433H32.2857V15.8433ZM51.3571 15.8433L49.513 16.6173L44.7987 5.38513L46.6429 4.61111L48.487 3.83709L53.2013 15.0692L51.3571 15.8433ZM44.5 33.6825L46.2358 32.6891C46.5896 33.3072 47.2087 33.6647 47.9286 33.6647V35.6647V37.6647C45.7913 37.6647 43.839 36.5539 42.7642 34.676L44.5 33.6825ZM47.9286 35.6647V33.6647C48.8797 33.6647 49.8216 32.8002 49.8583 31.7067L51.8571 31.7738L53.856 31.8409C53.7498 35.0053 51.1204 37.6647 47.9286 37.6647V35.6647ZM51.8571 31.7738H49.8571V31.7004H51.8571H53.8571V31.7738H51.8571ZM51.8571 31.7004L50.0587 32.5753L49.9872 32.4285L51.7857 31.5536L53.5842 30.6786L53.6556 30.8255L51.8571 31.7004ZM51.7857 31.5536L50.3523 32.9483L50.2809 32.8749L51.7143 31.4802L53.1477 30.0854L53.2191 30.1588L51.7857 31.5536ZM51.7143 31.4802C49.7143 31.4801 49.7143 31.4792 49.7143 31.4782C49.7143 31.4779 49.7143 31.477 49.7143 31.4763C49.7143 31.4751 49.7143 31.4738 49.7143 31.4725C49.7143 31.47 49.7143 31.4674 49.7143 31.4649C49.7144 31.4598 49.7144 31.4547 49.7145 31.4495C49.7147 31.4393 49.7149 31.4289 49.7152 31.4185C49.7159 31.3977 49.7168 31.3766 49.7181 31.3553C49.7207 31.3127 49.7246 31.2692 49.73 31.2249C49.7408 31.1362 49.7573 31.0453 49.7799 30.9524C49.8252 30.7662 49.894 30.5767 49.9872 30.385L51.7857 31.2599L53.5842 32.1349C53.606 32.09 53.6391 32.0106 53.6665 31.8978C53.6802 31.8416 53.6922 31.7782 53.7008 31.7079C53.705 31.6728 53.7084 31.6362 53.7107 31.5981C53.7119 31.5791 53.7128 31.5598 53.7134 31.5401C53.7137 31.5303 53.7139 31.5204 53.7141 31.5104C53.7141 31.5054 53.7142 31.5004 53.7142 31.4953C53.7142 31.4928 53.7143 31.4903 53.7143 31.4878C53.7143 31.4865 53.7143 31.4852 53.7143 31.484C53.7143 31.4833 53.7143 31.4824 53.7143 31.4821C53.7143 31.4811 53.7143 31.4802 51.7143 31.4802ZM51.7857 31.1131L49.7951 31.3068C49.7614 30.9606 49.6233 30.5736 49.3338 30.191L50.9286 28.9841L52.5234 27.7772C53.2339 28.7161 53.6671 29.7974 53.7763 30.9194L51.7857 31.1131ZM50.9286 28.9841L49.4951 30.3788L49.3523 30.232L50.7857 28.8373L52.2192 27.4426L52.362 27.5894L50.9286 28.9841ZM50.7857 28.8373V30.8373H50.7143V28.8373V26.8373H50.7857V28.8373ZM50.7143 28.8373L49.2808 30.232C48.7367 29.6728 48.0193 29.5001 47.3036 29.7207L46.7143 27.8095L46.125 25.8983C48.2664 25.238 50.549 25.7994 52.1477 27.4426L50.7143 28.8373ZM46.7143 27.8095L47.212 29.7466C46.9825 29.8056 46.5998 30.0494 46.3108 30.5586L44.5714 29.5714L42.8321 28.5842C43.543 27.3316 44.7317 26.254 46.2166 25.8724L46.7143 27.8095ZM44.5714 29.5714L46.2639 30.637C45.896 31.2214 45.8577 31.9883 46.2594 32.7315L44.5 33.6825L42.7406 34.6336C41.7137 32.7339 41.6754 30.4175 42.8789 28.5059L44.5714 29.5714ZM47.6429 25.754L47.5573 23.7558C49.8732 23.6566 52.0363 24.5647 53.5842 26.3544L52.0714 27.6627L50.5587 28.971C49.8209 28.1179 48.841 27.7045 47.7284 27.7521L47.6429 25.754ZM52.0714 27.6627L53.5049 26.268C53.9222 26.6969 54.3697 27.3703 54.4727 27.5115L52.8571 28.6905L51.2416 29.8694C51.1758 29.7792 51.1066 29.6807 51.0489 29.5987C50.987 29.5109 50.9313 29.4319 50.8755 29.3555C50.7564 29.1923 50.6801 29.1007 50.638 29.0574L52.0714 27.6627ZM52.8571 28.6905L54.6051 27.7186C54.9593 28.3556 55.2997 29.1249 55.4139 30.0641L53.4286 30.3056L51.4432 30.547C51.4146 30.3116 51.3264 30.0531 51.1091 29.6623L52.8571 28.6905ZM53.4286 30.3056L55.3719 29.8329L55.4433 30.1265L53.5 30.5992L51.5567 31.0719L51.4852 30.7783L53.4286 30.3056ZM53.5 30.5992V28.5992H56.7143V30.5992V32.5992H53.5V30.5992ZM56.7143 30.5992V28.5992C56.6117 28.5992 56.467 28.6461 56.3523 28.764C56.24 28.8794 56.2143 29.0017 56.2143 29.0575H58.2143H60.2143C60.2143 30.9911 58.7273 32.5992 56.7143 32.5992V30.5992ZM58.2143 29.0575H56.2143V23.5516H58.2143H60.2143V29.0575H58.2143ZM58.2143 23.5516H56.2143C56.2143 21.4474 54.5584 19.8254 52.6429 19.8254V17.8254V15.8254C56.8702 15.8254 60.2143 19.3423 60.2143 23.5516H58.2143ZM52.6429 17.8254V19.8254H32.1429V17.8254V15.8254H52.6429V17.8254ZM32.1429 17.8254H34.1429V30.379H32.1429H30.1429V17.8254H32.1429ZM32.1429 30.379V28.379H42.3571V30.379V32.379H32.1429V30.379ZM42.3571 30.379L40.4138 29.9063L40.4852 29.6126L42.4286 30.0853L44.3719 30.558L44.3005 30.8517L42.3571 30.379ZM42.4286 30.0853L40.5087 29.5249C40.7662 28.6427 41.1374 27.7521 41.7416 26.9242L43.3571 28.1032L44.9727 29.2821C44.7197 29.6288 44.5195 30.0597 44.3485 30.6457L42.4286 30.0853ZM43.3571 28.1032L41.7317 26.9379C43.0755 25.0635 45.205 23.8565 47.5573 23.7558L47.6429 25.754L47.7284 27.7521C46.6522 27.7982 45.6388 28.3532 44.9826 29.2685L43.3571 28.1032ZM43.7143 35.6647L42.0987 36.8436L41.6701 36.2563L43.2857 35.0774L44.9013 33.8984L45.3299 34.4857L43.7143 35.6647ZM43.2857 35.0774L41.6327 36.2032C40.9975 35.2705 40.5089 34.1923 40.3115 32.9749L42.2857 32.6548L44.2599 32.3346C44.3482 32.8792 44.574 33.416 44.9387 33.9515L43.2857 35.0774ZM42.2857 32.6548L40.3424 33.1275L40.271 32.8338L42.2143 32.3611L44.1576 31.8884L44.229 32.182L42.2857 32.6548ZM42.2143 32.3611V34.3611H20.3571V32.3611V30.3611H42.2143V32.3611ZM20.3571 32.3611L22.3005 32.8338L22.2291 33.1274L20.2857 32.6548L18.3424 32.1821L18.4138 31.8884L20.3571 32.3611ZM20.2857 32.6548L22.2599 32.9749C22.0625 34.1923 21.574 35.2706 20.9387 36.2032L19.2857 35.0774L17.6327 33.9515C17.9975 33.4159 18.2232 32.8791 18.3115 32.3346L20.2857 32.6548ZM19.2857 35.0774L20.9013 36.2563L20.4727 36.8436L18.8571 35.6647L17.2416 34.4858L17.6701 33.8984L19.2857 35.0774ZM18.8571 35.6647V33.6647H43.7143V35.6647V37.6647H18.8571V35.6647ZM10.7857 31.7738L12.7846 31.7067C12.8213 32.8002 13.7632 33.6647 14.7143 33.6647V35.6647V37.6647C11.5225 37.6647 8.89301 35.0053 8.78684 31.8409L10.7857 31.7738ZM14.7143 35.6647V33.6647C15.6828 33.6647 16.5692 32.9173 16.647 31.7178L18.6429 31.8472L20.6387 31.9767C20.4308 35.1819 17.8886 37.6647 14.7143 37.6647V35.6647ZM18.6429 31.7004L16.8444 32.5753C16.746 32.3731 16.6536 32.1297 16.6061 31.837C16.5666 31.5929 16.5714 31.3683 16.5714 31.3333H18.5714H20.5714C20.5714 31.3796 20.5717 31.372 20.5711 31.3572C20.5703 31.3336 20.5672 31.2746 20.5546 31.1968C20.5413 31.115 20.5214 31.0361 20.497 30.9634C20.4739 30.895 20.4518 30.847 20.4413 30.8255L18.6429 31.7004ZM18.5714 31.3333H16.5714C16.5714 31.2937 16.5679 31.0855 16.6172 30.8321C16.6663 30.5794 16.7505 30.3578 16.8444 30.1647L18.6429 31.0397L20.4413 31.9146C20.4638 31.8684 20.5122 31.7569 20.5435 31.596C20.575 31.4344 20.5714 31.2995 20.5714 31.3333H18.5714ZM18.6429 30.8929H16.6429C16.6429 31.0151 16.6575 31.1052 16.6642 31.1417C16.6697 31.1719 16.6752 31.192 16.6638 31.1453C16.6573 31.1186 16.634 31.0251 16.6151 30.9214C16.595 30.8115 16.5714 30.6481 16.5714 30.4524H18.5714H20.5714C20.5714 30.3301 20.5568 30.2401 20.5501 30.2036C20.5446 30.1733 20.5391 30.1533 20.5505 30.1999C20.557 30.2267 20.5803 30.3202 20.5992 30.4238C20.6193 30.5337 20.6429 30.6972 20.6429 30.8929H18.6429ZM18.5714 30.4524L16.7076 31.1778C16.623 30.9603 16.4756 30.6198 16.3833 30.3353L18.2857 29.7183L20.1882 29.1012C20.2387 29.2572 20.2342 29.2104 20.4352 29.727L18.5714 30.4524ZM18.2857 29.7183L16.3833 30.3353C16.3882 30.3504 16.4204 30.4443 16.5006 30.568C16.5822 30.6938 16.671 30.7798 16.638 30.7459L18.0714 29.3512L19.5049 27.9565C19.5433 27.996 19.7035 28.1554 19.8565 28.3913C20.0082 28.6252 20.1118 28.8658 20.1882 29.1012L18.2857 29.7183ZM18.0714 29.3512L16.4388 30.5064C15.8279 29.6431 14.749 29.4163 13.9856 29.8086L13.0714 28.0298L12.1573 26.2509C14.8224 24.8813 18.0292 25.8291 19.704 28.1959L18.0714 29.3512ZM13.0714 28.0298L13.918 29.8418C13.5789 30.0002 13.2803 30.2998 13.1148 30.674L11.2857 29.8651L9.45662 29.0561C10.0054 27.8153 10.9925 26.7935 12.2249 26.2177L13.0714 28.0298ZM11.2857 29.8651L13.1495 30.5905C13.0008 30.9726 12.9359 31.1556 12.9028 31.3598L10.9286 31.0397L8.95436 30.7195C9.0641 30.0428 9.28493 29.4916 9.4219 29.1397L11.2857 29.8651ZM10.9286 31.4067H12.9286C12.9286 31.4464 12.9321 31.6547 12.8828 31.9081C12.8336 32.1608 12.7495 32.3823 12.6556 32.5753L10.8571 31.7004L9.05867 30.8255C9.0362 30.8716 8.98779 30.9831 8.95648 31.144C8.92502 31.3056 8.92857 31.4405 8.92857 31.4067H10.9286ZM10.8571 31.7004L12.2906 33.0951L12.2192 33.1685L10.7857 31.7738L9.35224 30.3791L9.42366 30.3057L10.8571 31.7004ZM5.14286 21.2758V19.2758H26.3571V21.2758V23.2758H5.14286V21.2758ZM26.3571 21.2758V19.2758C28.013 19.2758 29.2857 20.6637 29.2857 22.2302H27.2857H25.2857C25.2857 22.5337 25.4104 22.7853 25.5755 22.955C25.7404 23.1244 26.0098 23.2758 26.3571 23.2758V21.2758ZM27.2857 22.2302H29.2857C29.2857 23.7966 28.013 25.1845 26.3571 25.1845V23.1845V21.1845C26.0098 21.1845 25.7404 21.3359 25.5755 21.5053C25.4104 21.675 25.2857 21.9266 25.2857 22.2302H27.2857ZM26.3571 23.1845V25.1845H5.14286V23.1845V21.1845H26.3571V23.1845ZM5.14286 23.1845H7.14286V28.7639H5.14286H3.14286V23.1845H5.14286ZM5.14286 28.7639H7.14286C7.14286 28.708 7.1171 28.5857 7.00488 28.4704C6.89017 28.3525 6.74549 28.3056 6.64286 28.3056V30.3056V32.3056C4.62985 32.3056 3.14286 30.6974 3.14286 28.7639H5.14286ZM6.64286 30.3056V28.3056H9.14286V30.3056V32.3056H6.64286V30.3056ZM9.14286 30.3056L7.19952 29.8329L7.27095 29.5392L9.21429 30.0119L11.1576 30.4846L11.0862 30.7782L9.14286 30.3056ZM9.21429 30.0119L7.28119 29.4989C7.55776 28.4567 8.03625 27.4399 8.76285 26.5864L10.2857 27.8829L11.8086 29.1794C11.5352 29.5006 11.2994 29.9521 11.1474 30.5249L9.21429 30.0119ZM10.2857 27.8829L8.67014 26.704C8.96893 26.2945 9.40961 25.8141 9.86954 25.4989L11 27.1488L12.1305 28.7987C12.1578 28.7799 12.1628 28.7739 12.1456 28.7889C12.1305 28.8022 12.1066 28.8244 12.0763 28.8555C12.0133 28.9202 11.9499 28.9953 11.9013 29.0619L10.2857 27.8829ZM11 27.1488L9.699 25.6298C11.3824 24.188 13.5905 23.4668 15.7776 23.7733L15.5 25.754L15.2224 27.7346C14.2667 27.6007 13.189 27.9073 12.301 28.6678L11 27.1488ZM15.5 25.754L15.8519 23.7852C18.0363 24.1756 19.8842 25.3756 21.1189 27.3278L19.4286 28.3968L17.7382 29.4658C17.1158 28.4816 16.2495 27.9196 15.1481 27.7228L15.5 25.754ZM19.4286 28.3968L21.1065 27.3084C21.4932 27.9047 21.8929 28.7154 22.0977 29.6627L20.1429 30.0853L18.188 30.508C18.1071 30.1338 17.9353 29.7699 17.7507 29.4852L19.4286 28.3968ZM20.1429 30.0853L22.0862 29.6126L22.1576 29.9063L20.2143 30.379L18.271 30.8517L18.1995 30.558L20.1429 30.0853ZM20.2143 30.379V28.379H30.2857V30.379V32.379H20.2143V30.379ZM30.2857 30.379H28.2857V17.752H30.2857H32.2857V30.379H30.2857ZM30.2857 17.752V19.752H5.14286V17.752V15.752H30.2857V17.752ZM5.14286 17.752H7.14286V21.2758H5.14286H3.14286V17.752H5.14286ZM3.28571 29.131H1.28571V28.7639H3.28571H5.28571V29.131H3.28571ZM3.28571 28.7639H1.28571C1.28571 28.7609 1.27747 28.485 1.33146 28.2075C1.41132 27.7971 1.60457 27.4035 1.92369 27.0755L3.35714 28.4702L4.79059 29.8649C4.89287 29.7598 5.00238 29.6198 5.09384 29.4423C5.18498 29.2653 5.23273 29.1005 5.25782 28.9715C5.2808 28.8535 5.28448 28.7656 5.28532 28.7441C5.28602 28.7261 5.28571 28.7161 5.28571 28.7639H3.28571ZM3.35714 27.0754V29.0754H1.85714V27.0754V25.0754H3.35714V27.0754ZM1.85714 27.0754H3.85714V29.131H1.85714H-0.142857V27.0754H1.85714ZM39.0714 23.1845V25.1845H36.5V23.1845V21.1845H39.0714V23.1845ZM36.5 23.1845V25.1845C35.6419 25.1845 34.9328 24.7754 34.4778 24.3311C34.0053 23.8697 33.5714 23.1416 33.5714 22.2302H35.5714H37.5714C37.5714 21.8326 37.3876 21.5817 37.2722 21.469C37.1743 21.3734 36.9295 21.1845 36.5 21.1845V23.1845ZM35.5714 22.2302H33.5714C33.5714 20.6637 34.8441 19.2758 36.5 19.2758V21.2758V23.2758C36.8473 23.2758 37.1168 23.1244 37.2817 22.955C37.4467 22.7853 37.5714 22.5337 37.5714 22.2302H35.5714ZM36.5 21.2758V19.2758H39.0714V21.2758V23.2758H36.5V21.2758ZM39.0714 21.2758V19.2758C40.7273 19.2758 42 20.6637 42 22.2302H40H38C38 22.5337 38.1247 22.7853 38.2898 22.955C38.4546 23.1244 38.7241 23.2758 39.0714 23.2758V21.2758ZM40 22.2302H42C42 23.7966 40.7273 25.1845 39.0714 25.1845V23.1845V21.1845C38.7241 21.1845 38.4547 21.3359 38.2898 21.5053C38.1247 21.675 38 21.9266 38 22.2302H40ZM51.7857 31.2599H49.7857V31.1131H51.7857H53.7857V31.2599H51.7857ZM18.6429 31.8472H16.6429V31.7004H18.6429H20.6429V31.8472H18.6429ZM18.6429 31.0397H16.6429V30.8929H18.6429H20.6429V31.0397H18.6429ZM10.9286 31.0397H12.9286V31.4067H10.9286H8.92857V31.0397H10.9286ZM1.85714 29.131V27.131H3.28571V29.131V31.131H1.85714V29.131ZM3.35714 28.4702H1.35714V27.0754H3.35714H5.35714V28.4702H3.35714Z" fill="white" mask="url(#path-1-inside-1_160_510)"/>
</svg>
