<svg width="43" height="43" viewBox="0 0 43 43" fill="none" xmlns="http://www.w3.org/2000/svg">
<path d="M1 21.8783C1 31.0318 7.16216 38.759 15.5788 41.4055C16.9314 41.8309 18.2211 40.7625 18.2211 39.3587V28.7106C18.2211 28.0886 17.7114 27.5841 17.0822 27.5841H14.2351C13.6061 27.5841 13.0963 27.0799 13.0963 26.4577V23.0046C13.0963 22.3825 13.6061 21.8781 14.2351 21.8781H17.0822C17.7114 21.8781 18.2211 21.3739 18.2211 20.7516V17.395C18.2211 12.3004 21.5011 9.4474 26.2161 9.4474C27.3338 9.4474 28.5759 9.57101 29.7485 9.72196C30.3102 9.79426 30.7261 10.271 30.7261 10.8312V13.925C30.7261 14.5471 30.2164 15.0515 29.5872 15.0515H28.0611C25.6011 15.0515 24.9861 16.2742 24.9861 17.9044V20.7516C24.9861 21.3739 25.4961 21.8781 26.125 21.8781H29.0832C29.784 21.8781 30.3184 22.4981 30.2079 23.1826L29.6497 26.6356C29.5613 27.182 29.0845 27.5841 28.5249 27.5841H26.1198C25.4929 27.5841 24.9839 28.0852 24.9809 28.7052L24.9296 39.3456C24.9228 40.7539 26.2152 41.8293 27.5714 41.4005C35.9589 38.7493 42 31.0262 42 21.8783C42 10.6703 32.775 1.5 21.5 1.5C10.225 1.5 1 10.6703 1 21.8783Z" stroke="white" stroke-width="2" stroke-linecap="round"/>
</svg>
