<svg width="40" height="32" viewBox="0 0 40 32" fill="none" xmlns="http://www.w3.org/2000/svg">
<path d="M31.1823 20.3277C29.1971 20.3277 27.5992 21.9598 27.5992 23.9876C27.5992 26.0155 29.1971 27.6476 31.1823 27.6476C33.1675 27.6476 34.7654 26.0155 34.7654 23.9876C34.8138 21.9598 33.1675 20.3277 31.1823 20.3277ZM31.1823 26.3617C29.875 26.3617 28.8097 25.2736 28.8097 23.9382C28.8097 22.6028 29.875 21.5147 31.1823 21.5147C32.4896 21.5147 33.5549 22.6028 33.5549 23.9382C33.6033 25.2736 32.5381 26.3617 31.1823 26.3617Z" fill="white"/>
<path d="M39.4137 30.7141H35.5885L36.1695 30.2689C38.0579 28.7357 39.1716 26.4111 39.1716 23.9382C39.1716 19.4869 35.5885 15.8269 31.2307 15.8269C26.873 15.8269 23.2899 19.4869 23.2899 23.9382C23.2899 26.4111 24.4035 28.7357 26.2919 30.2689L26.873 30.7141H9.49027L9.92605 30.2689C10.9913 29.1808 11.6207 27.6971 11.6692 26.1638V25.9165H21.3531C21.4984 25.9165 21.6436 25.8671 21.7405 25.8176L21.8373 25.7682C21.9341 25.6198 21.9826 25.4714 21.9826 25.2736C21.9341 24.8779 21.9341 24.4822 21.9341 24.0866C21.9341 18.8439 26.0982 14.5904 31.2307 14.5904C31.3276 14.5904 31.4244 14.541 31.5212 14.4915L31.5697 14.442H31.6665C32.296 14.4915 32.7802 14.541 33.2159 14.6399H33.3612C33.5065 14.6399 33.6517 14.5904 33.7486 14.4915C33.9422 14.2937 34.0391 14.1453 34.0391 13.9969V13.7991C34.0391 13.7002 33.9907 13.6012 33.9422 13.5023L33.8938 13.4034L32.0539 1.28594H33.3612C33.7001 1.28594 33.9907 0.989181 33.9907 0.642968C33.9907 0.296754 33.7001 0 33.3612 0H16.1238C15.7848 0 15.4943 0.296754 15.4943 0.642968C15.4943 0.989181 15.7848 1.28594 16.1238 1.28594H17.5764L16.4143 3.85781C16.4143 3.90726 16.3659 3.95672 16.3659 4.00618L14.187 8.95209C14.1386 9.05101 14.0901 9.10046 14.0901 9.10046L12.2502 13.2056H6.8756V11.7218L7.02086 11.6723C7.69874 11.3261 8.13452 10.6337 8.13452 9.94127V7.76507C8.13452 7.22102 7.94084 6.77589 7.6019 6.38022C7.45664 6.23184 7.26296 6.08346 7.06928 5.98454L6.8756 5.93509V4.84699H7.55348C7.89242 4.84699 8.18294 4.55023 8.18294 4.20402C8.18294 3.85781 7.89242 3.56105 7.55348 3.56105H6.24615C5.90721 3.56105 5.61669 3.85781 5.61669 4.20402V5.93509L5.47143 5.98454C4.79355 6.2813 4.35778 6.97373 4.35778 7.71561V9.89181C4.35778 10.6337 4.79355 11.3261 5.47143 11.6229L5.61669 11.6723V13.1561H3.82516C1.74311 13.1561 0 14.8872 0 17.0634V25.2241C0 25.2736 0 25.323 0.0484197 25.3725V25.4714C0 25.7187 0 25.9165 0 26.1144C0 27.6971 0.581037 29.1808 1.69469 30.2689L2.13047 30.7141H0.629457C0.290518 30.7141 0 31.0108 0 31.357C0 31.7032 0.290518 32 0.629457 32H39.3652C39.6558 32 39.9463 31.6538 39.9947 31.3076C40.0431 31.0603 39.7526 30.7141 39.4137 30.7141ZM17.3343 4.84699H23.8225C24.4035 4.84699 24.8877 5.04482 25.2267 5.39104C25.614 5.88563 25.7593 6.33076 25.7593 6.82535C25.7593 7.96291 24.8877 8.85317 23.7741 8.85317H21.4499L22.5152 7.17156C22.612 7.02318 22.6604 6.87481 22.612 6.72643C22.5636 6.57805 22.5152 6.42968 22.3699 6.33076C22.2247 6.23184 22.0794 6.18238 21.9341 6.23184C21.7889 6.23184 21.6436 6.33076 21.5468 6.47914L20.0458 8.85317H15.5427L17.3343 4.84699ZM15.0101 10.0896H23.8709C24.6941 10.0896 25.5172 9.74343 26.1467 9.10046C26.7277 8.4575 27.0182 7.66615 27.0182 6.82535C27.0182 5.98454 26.6793 5.14374 26.0498 4.55023C25.5172 3.90726 24.6941 3.56105 23.8225 3.56105H17.9153L18.9805 1.18702H30.8434L32.6349 13.1561H32.1507C31.8118 13.1066 31.4728 13.1066 31.0855 13.1066C30.9886 13.1066 30.9402 13.1066 30.8434 13.1561H13.6544L15.0101 10.0896ZM5.56827 9.84235V7.66615C5.56827 7.31994 5.90721 6.97373 6.24615 6.97373C6.43983 6.97373 6.6335 7.07264 6.73034 7.17156C6.8756 7.27048 6.92402 7.46832 6.92402 7.66615V9.84235C6.92402 10.0896 6.77876 10.3369 6.53666 10.4359L6.43983 10.4853H6.34299C6.24615 10.4853 6.19773 10.4853 6.10089 10.4853H6.00405L5.90721 10.4359C5.71353 10.3369 5.56827 10.0896 5.56827 9.84235ZM1.25891 17.9536H20.4331C20.7236 17.9536 21.0626 17.6569 21.0626 17.3107C21.0626 16.9645 20.7721 16.6677 20.4331 16.6677H1.30733L1.40417 16.3215C1.74311 15.2334 2.75993 14.541 3.87358 14.541H12.686C12.7828 14.541 12.8312 14.541 12.9281 14.4915H26.3888L25.6625 14.9861C22.5636 16.9645 20.7236 20.3771 20.7236 24.0371V24.7295H11.4755L11.4271 24.5317C11.3302 24.136 11.185 23.7898 11.0397 23.4436C10.7008 22.8006 10.1197 22.1082 9.53869 21.5641C9.49027 21.5147 9.39343 21.5147 9.29659 21.4652L9.19975 21.4158C7.21454 19.9815 4.50304 19.9815 2.56625 21.4158H2.42099C2.32415 21.4158 2.22731 21.4652 2.17889 21.5147C2.03363 21.6136 1.88837 21.7125 1.69469 21.9104L1.25891 22.3555V17.9536ZM7.02086 30.7141H4.84197C2.75992 30.17 1.30733 28.2906 1.30733 26.1638C1.30733 25.1252 1.54943 24.2844 2.03363 23.5425C2.27573 23.1963 2.46941 22.9985 2.71151 22.8006L2.85676 22.6522C3.82516 21.8114 5.03565 21.4158 6.29457 21.5641C7.55348 21.7125 8.66713 22.306 9.44185 23.3447C9.92605 23.9382 10.2166 24.5811 10.4102 25.422C10.4102 25.5209 10.4587 25.5703 10.4587 25.6198L10.5071 25.7187V25.8176C10.5071 25.9165 10.5555 26.0155 10.5555 26.1638C10.4587 28.34 9.05449 30.2195 7.02086 30.7141ZM29.875 30.7141C26.7277 30.0711 24.5004 27.2025 24.5004 23.9876C24.5004 20.1793 27.5024 17.1128 31.2307 17.1128C34.959 17.1128 37.9611 20.1793 37.9611 23.9876C37.9611 27.2025 35.7338 30.0711 32.6349 30.7141H29.875Z" fill="white"/>
<path d="M5.81037 23.7898C4.50304 23.7898 3.4378 24.8284 3.4378 26.1144C3.4378 27.4498 4.50304 28.5379 5.81037 28.5379C7.06928 28.5379 8.18293 27.4498 8.18293 26.2133C8.18293 24.8284 7.1177 23.7898 5.81037 23.7898ZM5.81037 27.3509C5.18091 27.3509 4.64829 26.8068 4.64829 26.1638C4.64829 25.5209 5.18091 24.9768 5.81037 24.9768C6.43983 24.9768 6.97244 25.5209 6.97244 26.1638C6.97244 26.8068 6.43983 27.3509 5.81037 27.3509Z" fill="white"/>
</svg>
