<svg width="40" height="28" viewBox="0 0 40 28" fill="none" xmlns="http://www.w3.org/2000/svg">
<path d="M39.3103 26.0466H35.809L36.6048 25.4876C38.8859 23.9224 40 20.8478 39.3103 18.1087C38.8859 16.4317 38.0371 15.146 36.7639 14.1957C35.0133 12.9658 33.1035 12.6304 30.9814 13.3012L30.7692 13.3571L30.1326 11.9596L30.4509 11.8478C31.8302 11.3447 33.0504 11.2329 34.2706 11.4565C34.9072 11.5683 35.4907 11.7919 36.0743 12.0155C36.3395 12.1273 36.5517 12.1832 36.7639 12.295C37.1353 12.4068 37.4536 12.295 37.5597 12.0155C37.6658 11.6801 37.5597 11.4006 37.2414 11.2329C35.4907 10.2826 33.6339 10.0031 31.7772 10.2826C31.2997 10.3385 30.8223 10.5062 30.3448 10.618L29.6021 10.7857L28.4881 8.32609L29.1777 8.43789C29.5491 8.49379 29.9735 8.54969 30.3448 8.54969C30.557 8.54969 30.7162 8.49379 30.8223 8.38199C30.9284 8.27019 30.9814 8.10248 30.9814 7.82298C30.9814 6.03416 30.9814 4.24534 30.9814 2.45652C30.9814 2.00932 30.7692 1.78571 30.3448 1.78571C29.1247 1.72981 28.0106 2.12112 27.0557 2.95963C26.8966 3.07143 26.7905 3.23913 26.6313 3.35093L26.366 3.63043L26.1538 3.29503L25.8886 2.79193C25.6233 2.17702 25.3581 1.61801 25.0928 1.05901C24.8806 0.667702 24.6684 0.5 24.191 0.5C23.8196 0.5 23.4483 0.5 23.0769 0.5H22.8117C22.7056 0.5 22.5995 0.5 22.4934 0.5H21.9098C21.4324 0.5 20.9549 0.5 20.4775 0.5C20.1591 0.5 19.9469 0.723602 19.8939 1.05901C19.8939 1.39441 20.1061 1.61801 20.4244 1.67391C20.5305 1.67391 20.5836 1.67391 20.6897 1.67391H21.8037C22.4403 1.67391 23.0769 1.67391 23.7135 1.67391H23.8196C23.8196 1.67391 23.7135 1.67391 23.6605 1.78571L23.8727 2.00932L24.1379 1.89752C24.3501 2.40062 24.6154 2.84783 24.8276 3.35093L25.0928 3.96584H23.0769C21.9629 3.96584 20.9019 3.96584 19.7878 3.96584C17.931 3.96584 16.6048 4.80435 15.756 6.48137C15.6499 6.70497 15.4907 6.76087 15.3316 6.76087C11.7772 6.76087 8.22281 6.76087 4.72149 6.76087C4.03183 6.76087 3.44828 6.98447 2.97082 7.48758C2.38727 8.04658 2.12202 8.71739 2.22812 9.3882C2.28117 9.8913 2.54642 10.2826 2.97082 10.618L3.34218 10.8975L2.86472 11.1211L2.38727 11.4006C1.96286 11.6801 1.48541 11.9596 1.06101 12.2391C0.795756 12.4068 0.742706 12.7422 0.901857 13.0217C1.06101 13.3012 1.27321 13.3571 1.53846 13.3012C1.64456 13.2453 1.80371 13.1894 1.90981 13.0776C3.60743 11.7919 5.46419 11.2329 7.48011 11.5124C10.6101 11.9037 12.8382 13.6925 14.1114 16.823C14.695 18.2205 14.695 19.7298 14.6419 20.9596C14.6419 21.4627 14.748 21.854 14.9602 22.1335C15.1724 22.413 15.5438 22.5248 16.0212 22.5248H19.0451C20.3714 22.5248 21.7507 22.5248 23.0769 22.5248C24.0318 22.5248 24.7745 21.9099 24.9337 21.0155C24.9867 20.7919 24.9867 20.5124 24.9867 20.2888V20.1211C24.9867 18.1646 25.4642 16.4876 26.4721 15.0342C27.1088 14.0839 27.8515 13.3571 28.7533 12.7422L29.0186 12.5745L29.6552 13.972L29.443 14.1398C27.5862 15.4814 26.8966 17.2143 26.6843 18.4441C26.313 20.2888 26.6843 22.1894 27.5862 23.6429C28.0637 24.3696 28.7003 25.0404 29.3899 25.5435L30.1857 26.1025H9.49602L10.2387 25.5435C10.7692 25.1522 11.2467 24.705 11.618 24.2019C12.9973 22.4689 13.4218 20.177 12.8382 17.9969C12.1485 15.3696 9.86737 13.3012 7.32095 13.0776C4.56233 12.7981 1.96286 14.3075 0.848806 16.7671C0.689655 17.2702 0.530504 17.8292 0.371353 18.3882C0.318302 18.6677 0.265252 18.8913 0.159151 19.1149V20.5683L0.212202 20.6801C0.212202 20.736 0.265252 20.7919 0.265252 20.9037C0.530504 22.7484 1.53846 24.4255 3.07692 25.5435L3.81963 26.1025H0.689655C0.318302 26.0466 0 26.382 0 26.7733C0 27.1646 0.318302 27.5 0.689655 27.5H39.3103C39.6817 27.5 40 27.1646 40 26.7733C40 26.382 39.6817 26.0466 39.3103 26.0466ZM27.321 4.41304C27.9045 3.57453 28.8064 3.29503 29.496 3.18323L29.8143 3.12733V7.37578H29.496C28.2228 7.26398 27.321 6.53727 27.0557 5.41925C27.0027 5.08385 27.1088 4.69255 27.321 4.41304ZM16.4987 7.82298C16.7639 6.36957 17.9841 5.25155 19.3103 5.19565C20.3183 5.13975 21.3793 5.13975 22.3873 5.13975H25.0928C25.1989 5.13975 25.3581 5.19565 25.4111 5.25155L25.4642 5.30745C25.9947 6.42547 26.5252 7.54348 27.0557 8.71739L27.4271 9.4441H17.8249C17.2414 9.4441 16.87 9.3323 16.6578 9.0528C16.4456 8.88509 16.3926 8.43789 16.4987 7.82298ZM3.28912 9.5L3.34218 9.1646C3.44828 8.49379 3.87268 8.04658 4.50928 7.93478C4.61538 7.93478 4.72149 7.93478 4.88064 7.93478H15.2785V9.5H3.28912ZM25.6764 14.1398C25.4111 14.6429 25.0928 15.146 24.8276 15.5932L24.7745 15.6491C24.6684 15.705 24.5093 15.7609 24.4562 15.7609C23.3422 15.7609 22.1751 15.7609 21.061 15.7609C20.2653 15.7609 19.5225 15.7609 18.7268 15.7609C18.0902 15.7609 17.8249 15.4814 17.8249 14.8106C17.8249 14.6988 17.8249 14.5311 17.8249 14.4193C17.878 13.8043 18.1432 13.5248 18.7268 13.5248H26.1008L25.6764 14.1398ZM28.1698 11.6801C27.9576 11.8478 27.6923 12.0155 27.4271 12.1832C27.321 12.2391 27.2149 12.295 27.0557 12.295H18.7798C17.4005 12.295 16.6578 13.0776 16.6578 14.587C16.6578 15.8727 17.1353 16.5994 18.0371 16.8789C18.3024 16.9348 18.6207 16.9907 18.8329 16.9907C19.8408 16.9907 20.8488 16.9907 21.8568 16.9907H24.2971L24.191 17.4379C24.1379 17.7174 24.0849 17.9969 24.0318 18.2764L23.9788 18.3882C23.8727 18.5 23.7135 18.5559 23.6074 18.5559C22.8117 18.5559 22.069 18.5559 21.2732 18.5559H20.1061C20 18.5559 19.8939 18.5559 19.7878 18.5559C19.5225 18.6118 19.3634 18.7795 19.3634 19.059C19.3634 19.3385 19.4695 19.5621 19.7347 19.618C19.8939 19.6739 20.053 19.6739 20.2122 19.6739C21.008 19.6739 21.7507 19.6739 22.5464 19.6739H23.9257V20.0652C23.9257 20.2329 23.9257 20.3447 23.9257 20.5124C23.9257 21.1832 23.5013 21.3509 23.13 21.3509C21.9098 21.3509 20.7427 21.3509 19.5225 21.3509C18.992 21.3509 18.4085 21.3509 17.8249 21.3509H15.809V20.1211C15.809 18.3882 15.4377 16.7671 14.695 15.3696C13.7931 13.6366 12.4668 12.2391 10.8223 11.3447L9.81432 10.7857H13.0504C17.2944 10.7857 25.0928 10.7857 27.6393 10.7857C27.7984 10.7857 28.3289 10.7857 28.435 11.3447L28.4881 11.5683L28.1698 11.6801ZM2.86472 23.8106C1.85676 22.7484 1.32626 21.295 1.32626 19.8416C1.32626 16.7671 3.76658 14.2516 6.68435 14.2516C8.11671 14.2516 9.44297 14.8665 10.504 15.9286C11.5119 16.9907 12.0955 18.3882 12.0955 19.8975C12.0955 21.4068 11.5119 22.8043 10.504 23.8665C9.49602 24.9286 8.16976 25.4876 6.7374 25.4876C5.19894 25.4876 3.87268 24.8727 2.86472 23.8106ZM32.9973 25.4876C31.0875 25.4876 29.2308 24.3696 28.2228 22.413C27.0027 20.0652 27.7984 16.7671 29.9204 15.2578L30.1857 15.0901L30.504 15.7609C30.7692 16.3758 31.0345 16.9907 31.2997 17.5497L31.3528 17.6056V17.6615C31.3528 17.8292 31.2467 17.9969 31.1936 18.0528C30.6631 18.7236 30.4509 19.5621 30.6631 20.4006C30.8753 21.2391 31.4058 21.854 32.1485 22.1894C33.1034 22.5807 34.1645 22.3012 34.8541 21.5186C35.5438 20.6801 35.7029 19.7298 35.3316 18.7236C34.9602 17.7174 34.0053 17.1025 32.9973 17.1584C32.5729 17.2143 32.4138 17.0466 32.2016 16.6553C31.9894 16.1522 31.7772 15.705 31.565 15.2578L31.2467 14.5311L31.565 14.4193C34.0584 13.5807 36.9761 15.0342 37.931 17.4938C39.0981 20.4006 37.9841 23.6429 35.3316 24.9286C34.5358 25.3199 33.7931 25.4876 32.9973 25.4876ZM31.8302 19.1149L31.9363 18.9472L32.1485 19.0031C32.626 19.059 32.7851 19.0031 32.9443 18.5559L33.0504 18.3323H33.2626C33.8992 18.3882 34.3236 18.8354 34.4297 19.4503C34.5889 20.1211 34.2706 20.7919 33.687 21.0714C33.4748 21.1832 33.2626 21.2391 33.0504 21.2391C32.679 21.2391 32.2546 21.0714 31.9894 20.736C31.565 20.3447 31.5119 19.7298 31.8302 19.1149Z" fill="white"/>
</svg>
