<svg width="28" height="40" viewBox="0 0 28 40" fill="none" xmlns="http://www.w3.org/2000/svg">
<path d="M20.8168 38.0074C20.7698 38.0544 20.347 38.4772 19.6422 38.6651C18.6087 38.947 17.6221 38.7121 16.5415 37.9604C14.0046 36.0812 11.6555 37.1147 10.7159 38.0074C10.7159 38.0074 10.2461 38.4302 9.49442 38.6651C8.60178 38.947 7.52123 38.7121 6.48765 37.9604C4.56144 36.598 2.87014 36.8329 1.78958 37.3027C1.5077 37.4436 1.36675 37.8195 1.5077 38.1013C1.64864 38.3832 2.02448 38.5242 2.30637 38.3832C2.68221 38.1953 3.10504 38.1013 3.52787 38.1013C4.27956 38.1013 5.03125 38.3832 5.82992 38.947C8.36688 40.8262 10.7159 39.7927 11.6555 38.9C11.6555 38.9 12.1253 38.4772 12.83 38.2423C13.8636 37.9604 14.8502 38.1953 15.9308 38.947C16.8234 39.6047 17.81 39.9806 18.8436 39.9806C20.159 39.9806 21.2396 39.3698 21.7564 38.853C21.7564 38.853 22.2262 38.3832 22.9779 38.1953C23.8705 37.9134 24.9511 38.1483 25.9846 38.9C26.1256 38.994 26.2665 39.041 26.4075 38.994C26.5484 38.947 26.6894 38.9 26.7833 38.7591C26.8773 38.6181 26.9243 38.4772 26.8773 38.3362C26.8303 38.1953 26.7833 38.0544 26.6424 37.9604C24.1054 36.0812 21.8034 37.1147 20.8168 38.0074Z" fill="white"/>
<path d="M27.3471 34.6248C24.6692 32.7925 22.2732 33.8261 21.3805 34.6718C21.3805 34.6718 20.9107 35.0946 20.159 35.3295C19.0315 35.6114 17.904 35.3765 16.8704 34.6248C16.3066 34.2489 15.7428 33.967 15.1321 33.7791L13.8166 33.4033L12.5482 33.7791C11.6555 34.061 11.0918 34.4838 10.9038 34.6718C10.8569 34.7187 10.387 35.1416 9.58838 35.3295C8.5548 35.6114 7.47425 35.3765 6.39369 34.6248C5.26615 33.7791 4.09163 33.4503 2.87014 33.5912C1.78958 33.7321 1.08487 34.108 0.802986 34.3429C0.568082 34.4838 0.474121 34.6718 0.474121 34.9067C0.474121 35.2355 0.756005 35.5174 1.08487 35.5174C1.17883 35.5174 1.31977 35.4704 1.46072 35.4234C1.78958 35.1885 2.44731 34.8127 3.33994 34.8127C3.99767 34.8127 4.79635 35.0006 5.68898 35.6114C6.91048 36.457 8.03801 36.6449 8.74272 36.6449C10.0582 36.6449 11.1387 36.0812 11.6085 35.5174C11.6555 35.4704 12.1723 35.0476 12.924 34.8597C13.9576 34.5778 15.0381 34.8127 16.1187 35.5644C18.7966 37.4436 21.1926 36.3631 22.0852 35.5174C22.0852 35.5174 22.555 35.0946 23.3067 34.8597C24.4343 34.5778 25.5618 34.8127 26.5954 35.5644C26.6894 35.6583 26.8773 35.7053 27.0182 35.6583C27.1592 35.6114 27.3001 35.5644 27.3941 35.4234C27.488 35.2825 27.535 35.1416 27.488 35.0006C27.582 34.8597 27.488 34.7187 27.3471 34.6248Z" fill="white"/>
<path d="M20.9107 33.3093C21.1456 33.3093 21.3805 33.1214 21.4745 32.8865L24.6692 21.4232C24.7162 21.3292 24.7631 21.2823 24.8101 21.1883C24.8571 21.0943 24.8571 21.0004 24.8571 20.9064V20.8594L25.5618 18.3225C25.6558 18.0406 25.4679 17.7117 25.186 17.6178L24.0114 17.1949V9.30218C24.0114 8.97331 23.7296 8.69143 23.4007 8.69143H21.0047V6.85918C21.0047 6.53032 20.7228 6.24843 20.3939 6.24843C20.0651 6.24843 19.7832 6.53032 19.7832 6.85918V8.69143H18.5617V3.94638C18.5617 3.61751 18.2798 3.33563 17.9509 3.33563H16.0247V0.610749C16.0247 0.281884 15.7428 0 15.414 0H10.8569C10.528 0 10.2461 0.281884 10.2461 0.610749V3.33563H8.74272C8.41386 3.33563 8.13197 3.61751 8.13197 3.94638V8.73841H6.91048V6.8122C6.91048 6.48334 6.62859 6.20145 6.29973 6.20145C5.97086 6.20145 5.68898 6.48334 5.68898 6.8122V8.73841H3.38692C3.05806 8.73841 2.77618 9.02029 2.77618 9.34916V17.2419L1.60166 17.6647C1.31977 17.7587 1.13185 18.0876 1.22581 18.3695L1.93052 20.8594V20.9064C1.93052 21.0004 1.93052 21.0943 1.9775 21.1883C1.9775 21.2353 2.02448 21.3292 2.07146 21.3762L2.11845 21.4702L5.36011 32.8865C5.40709 33.0274 5.59502 33.3093 5.92388 33.3093H20.9107ZM23.4007 18.2285H23.4947L24.4813 18.5574L23.9645 20.2017L16.9174 17.8996C16.6355 17.8057 16.2596 17.8996 16.1657 18.2755C16.1187 18.4634 16.1187 18.6044 16.2127 18.7453C16.2596 18.8862 16.4006 18.9802 16.5415 19.0272L23.6356 21.4232L20.5349 32.1348H14.0515V14.8459L23.0249 18.0876C23.1658 18.1815 23.2598 18.1815 23.4007 18.2285ZM11.4676 1.2215H14.8502V3.38261H11.4676V1.2215ZM9.35347 4.60411H17.3402V8.78539H9.35347V4.60411ZM12.7831 32.2757H6.39369L3.24598 21.4702L10.2461 19.1211C10.434 19.0742 10.528 18.9802 10.575 18.8393C10.622 18.6983 10.6689 18.5104 10.622 18.3695C10.575 18.2285 10.481 18.0876 10.3401 18.0406C10.1991 17.9936 10.0112 17.9466 9.87026 17.9936L2.91712 20.2487L2.49429 18.6983L12.7831 14.9868V32.2757ZM12.877 13.6244L12.83 13.6714L3.90371 16.8191V12.4029H9.5414C9.82328 12.4029 10.1521 12.121 10.1521 11.7922C10.1521 11.4633 9.87026 11.1814 9.5414 11.1814H3.90371V9.95991H8.69574C8.7897 9.95991 8.83669 9.95991 8.93065 9.91293H22.79V11.2284H17.0583C16.7294 11.2284 16.4476 11.5103 16.4476 11.8391C16.4476 12.168 16.7294 12.4499 17.0583 12.4499H22.79V16.6781L13.4878 13.3895C13.3938 13.3425 13.1119 13.3895 12.971 13.4835C12.971 13.5304 12.924 13.5774 12.877 13.6244Z" fill="white"/>
</svg>
