<svg width="150" height="83" viewBox="0 0 150 83" fill="none" xmlns="http://www.w3.org/2000/svg">
<path d="M149.78 70.5328C149.393 68.5896 148.695 66.8795 147.842 65.2472C146.99 63.6149 145.982 62.0603 144.897 60.5834C143.966 59.262 142.881 58.0184 141.796 56.8524H138.85C139.16 57.1633 139.47 57.552 139.78 57.8629C142.028 60.5057 144.199 63.304 145.749 66.3354C146.524 67.8123 147.145 69.4446 147.455 70.9992C147.765 72.5538 147.61 74.1084 146.99 75.4297C146.292 76.7512 145.129 77.7616 143.734 78.4612C142.338 79.1608 140.71 79.6271 139.005 79.8603C135.672 80.4044 132.183 80.3267 128.695 80.0158C121.796 79.394 114.896 77.7616 108.152 75.8961C97.9195 72.9424 87.9194 69.0559 78.2295 64.5476C79.7023 63.9258 81.1752 63.2262 82.5706 62.5267C86.369 60.7389 90.09 58.8734 93.811 56.9301H91.4854C88.3846 58.4847 85.2062 59.9616 82.0279 61.4385C80.245 62.2157 78.3845 63.0708 76.6015 63.8481C75.0511 64.4699 73.5783 65.0917 72.0279 65.7136C62.2604 69.6 52.1828 72.9424 42.0277 75.4297C35.2059 77.0621 28.2291 78.3835 21.1748 78.6944C17.6864 78.8498 14.198 78.7721 10.8647 78.0726C9.23676 77.7616 7.60884 77.2175 6.21348 76.4402C4.81812 75.6629 3.65533 74.5747 3.03517 73.2533C2.41501 71.9319 2.41501 70.3773 2.80261 68.8227C3.11269 67.2682 3.81037 65.7136 4.66308 64.2367C6.21348 61.5939 8.15148 59.1066 10.322 56.8524H6.60108C6.21348 57.3188 5.82588 57.8629 5.43828 58.3293C4.27548 59.8061 3.26773 61.283 2.33749 62.9153C1.40725 64.5476 0.63205 66.3354 0.24445 68.2009C-0.143149 70.1441 -0.143149 72.3206 0.787089 74.1861C1.71733 76.1293 3.34525 77.5285 5.05068 78.4612C6.75612 79.394 8.6166 79.9381 10.3996 80.249C12.1825 80.5599 14.043 80.7931 15.8259 80.7931C17.6089 80.8708 19.4694 80.7931 21.2523 80.7154C28.4617 80.249 35.516 78.8498 42.4153 77.1398C53.1905 74.497 63.5782 70.766 73.7333 66.4131C84.5861 71.3878 95.7489 75.6629 107.299 78.8498C114.199 80.7154 121.253 82.2699 128.462 82.814C130.245 82.9695 132.106 83.0472 133.889 82.9695C135.749 82.9695 137.532 82.814 139.393 82.5031C141.253 82.1922 143.036 81.6481 144.819 80.7931C146.524 79.9381 148.23 78.5389 149.16 76.5957C150.09 74.6525 150.168 72.476 149.78 70.5328Z" fill="white"/>
<path d="M91.3303 52.4996H100.788V44.2602H116.679V27.1598H91.3303V52.4996ZM100.013 31.9013H107.92V39.8297H100.013V31.9013Z" fill="white"/>
<path d="M119.858 27.1598V52.5773H129.315V44.2602H135.749V52.5773H145.207V27.1598H119.858ZM136.524 39.8297H128.617V31.9013H136.524V39.8297Z" fill="white"/>
<path d="M5.74836 27.1598V36.6428H13.7329V52.4996H23.1903V36.6428H31.0974V27.1598H5.74836Z" fill="white"/>
<path d="M34.2757 27.1598V44.5712H50.1673V47.7581H34.2757V52.4996H59.6247V35.0882H43.7331V31.9013H59.6247V27.1598H34.2757Z" fill="white"/>
<path d="M62.803 52.4996H72.2604V44.2602H78.6946V52.5773H88.152V27.1598H62.803V52.4996ZM71.4852 31.9013H79.3923V39.8297H71.4852V31.9013Z" fill="white"/>
<path d="M15.2833 58.407V59.1843H17.2213V60.6612H15.2833V61.5162H17.4539V63.0708H13.3453V56.8524H17.4539V58.407H15.2833Z" fill="#52AE32"/>
<path d="M24.1206 63.0708H22.1826L20.1671 59.9616V63.0708H18.1515V56.8524H20.1671L22.1826 60.0393V56.8524H24.1206V63.0708Z" fill="#52AE32"/>
<path d="M26.9888 58.407V59.1843H28.8493V60.6612H26.9888V61.5162H29.1594V63.0708H24.9733V56.8524H29.1594V58.407H26.9888Z" fill="#52AE32"/>
<path d="M32.9578 63.0708L31.795 60.8166V63.0708H29.857V56.8524H32.7253C33.1904 56.8524 33.6555 56.9301 34.0431 57.0856C34.4307 57.2411 34.6633 57.4743 34.8183 57.7852C34.9734 58.0961 35.0509 58.407 35.0509 58.7957C35.0509 59.1843 34.9734 59.5729 34.7408 59.8839C34.5082 60.1948 34.1982 60.428 33.733 60.5834L35.0509 62.993H32.9578V63.0708ZM31.795 59.5729H32.5702C32.7253 59.5729 32.8803 59.4952 32.9578 59.4175C33.0354 59.3398 33.1129 59.1843 33.1129 59.0288C33.1129 58.8734 33.0354 58.7179 32.9578 58.6402C32.8803 58.5625 32.7253 58.4847 32.5702 58.4847H31.795V59.5729Z" fill="#52AE32"/>
<path d="M40.7098 57.3965C41.2525 57.7852 41.485 58.3293 41.6401 59.0288H39.547C39.4695 58.8734 39.392 58.7957 39.237 58.7179C39.0819 58.6402 38.9269 58.6402 38.6943 58.6402C38.3067 58.6402 37.9966 58.7957 37.8416 59.0288C37.609 59.262 37.5315 59.5729 37.5315 60.0393C37.5315 60.5057 37.609 60.8943 37.8416 61.1275C38.0742 61.3607 38.3842 61.5162 38.9269 61.5162C39.392 61.5162 39.7021 61.3607 40.0121 60.9721H38.4618V59.573H41.6401V61.4385C41.4075 61.9048 41.0199 62.2935 40.5548 62.6044C40.0897 62.9153 39.4695 63.0708 38.7718 63.0708C38.1517 63.0708 37.609 62.9153 37.0664 62.6821C36.6013 62.4489 36.2137 62.0603 35.9811 61.5939C35.7486 61.1275 35.5935 60.5834 35.5935 59.9616C35.5935 59.3398 35.7486 58.7957 35.9811 58.3293C36.2137 57.8629 36.6013 57.4743 37.0664 57.2411C37.5315 57.0079 38.0742 56.8524 38.6943 56.8524C39.547 56.7747 40.1672 57.0079 40.7098 57.3965Z" fill="#52AE32"/>
<path d="M48.3068 56.8524L46.0587 61.2053V63.0708H44.1207V61.2053L41.8726 56.8524H44.1207L45.1285 59.1066L46.0587 56.8524H48.3068Z" fill="#52AE32"/>
<path d="M18.3066 69.2114C18.5391 69.4446 18.6167 69.8332 18.6167 70.1441C18.6167 70.6883 18.4616 71.0769 18.074 71.3878C17.6864 71.6987 17.2213 71.8542 16.5236 71.8542H13.2678V65.6358H16.4461C17.0663 65.6358 17.6089 65.7913 17.919 66.0245C18.3066 66.3354 18.4616 66.7241 18.4616 67.1904C18.4616 67.5791 18.3841 67.89 18.1515 68.1232C17.9965 68.3564 17.6864 68.5118 17.3763 68.5896C17.8415 68.745 18.1515 68.9782 18.3066 69.2114ZM15.2833 68.0455H16.0585C16.2135 68.0455 16.3686 68.0455 16.4461 67.9677C16.5236 67.89 16.6011 67.8123 16.6011 67.6568C16.6011 67.5014 16.5236 67.4236 16.4461 67.3459C16.3686 67.2682 16.2135 67.2682 16.0585 67.2682H15.2833V68.0455ZM16.5236 70.2219C16.6011 70.1441 16.6787 70.0664 16.6787 69.911C16.6787 69.6 16.5236 69.4446 16.136 69.4446H15.2833V70.2996H16.136C16.2911 70.2996 16.4461 70.2996 16.5236 70.2219Z" fill="#52AE32"/>
<path d="M23.9655 65.9468C24.4307 66.18 24.8183 66.5686 25.1283 67.1127C25.4384 67.5791 25.5159 68.1232 25.5159 68.745C25.5159 69.3669 25.3609 69.911 25.1283 70.3773C24.8183 70.8437 24.4307 71.2324 23.9655 71.5433C23.5004 71.8542 22.9578 71.9319 22.3376 71.9319C21.7175 71.9319 21.2523 71.7765 20.7097 71.5433C20.2446 71.2324 19.857 70.9214 19.5469 70.3773C19.2368 69.911 19.0818 69.3669 19.0818 68.745C19.0818 68.1232 19.2368 67.5791 19.5469 67.1127C19.857 66.6463 20.2446 66.2577 20.7097 65.9468C21.1748 65.6358 21.7175 65.5581 22.3376 65.5581C22.8803 65.5581 23.4229 65.7136 23.9655 65.9468ZM21.4074 67.7345C21.1748 67.9677 21.0973 68.3564 21.0973 68.745C21.0973 69.1337 21.1748 69.5223 21.4074 69.7555C21.6399 69.9887 21.95 70.1441 22.3376 70.1441C22.7252 70.1441 23.0353 69.9887 23.2679 69.7555C23.5004 69.5223 23.5779 69.1337 23.5779 68.745C23.5779 68.2786 23.5004 67.9677 23.2679 67.7345C23.0353 67.5014 22.7252 67.3459 22.3376 67.3459C21.95 67.3459 21.6399 67.5014 21.4074 67.7345Z" fill="#52AE32"/>
<path d="M30.1671 71.8542L29.0043 70.2219L28.0741 71.8542H25.826L27.9191 68.6673L25.7485 65.6358H28.0741L29.1594 67.1904L30.0896 65.6358H32.2602L30.3222 68.8227L32.4927 71.8542H30.1671Z" fill="#52AE32"/>
<path d="M146.214 3.76321C144.974 3.14137 143.656 3.14137 142.416 3.53002C141.951 3.2191 141.486 2.90819 140.943 2.59727C139.083 1.58679 137.145 1.04268 135.207 0.654032C133.269 0.265385 131.408 0.109926 129.548 0.0321966C127.687 -0.0455329 125.827 0.0321966 123.966 0.109926C116.602 0.576303 109.547 1.97543 102.571 3.76321C92.7257 6.32828 83.1907 9.59292 73.8883 13.4794C65.8263 10.137 57.4541 7.10558 48.9269 4.77369C42.0277 2.90819 35.0509 1.43133 27.9966 0.887221C26.2136 0.731762 24.4307 0.654032 22.6477 0.731762C20.8647 0.731762 19.0818 0.88722 17.2988 1.19814C15.5159 1.50906 13.8104 1.97543 12.26 2.83046C12.1825 2.83046 12.105 2.90819 12.0275 2.90819C11.6399 2.51954 11.1748 2.20862 10.7096 1.8977C8.229 0.654032 5.20572 1.66452 4.04292 4.15186C2.95765 6.25055 3.57781 8.81562 5.36076 10.2148C5.36076 10.8366 5.43828 11.4584 5.59332 12.0025C5.98092 14.1012 6.75612 15.9667 7.68636 17.6768C8.6166 19.3868 9.62436 20.9414 10.7872 22.496C10.8647 22.5737 10.9422 22.6515 11.0197 22.7292H17.0663C16.2135 21.7187 15.3608 20.7082 14.6631 19.62C13.6554 18.2986 12.8027 16.8218 12.0275 15.4226C11.2523 13.9458 10.7096 12.3912 10.4771 10.992C11.5624 10.5257 12.5701 9.74838 13.1128 8.58243C14.043 6.6392 13.6554 4.38505 12.26 2.90819L12.4151 2.83046C13.9655 2.05316 15.7484 1.58679 17.4539 1.27587C19.2368 0.96495 20.9423 0.887221 22.7252 0.887221C24.5082 0.887221 26.2911 0.96495 27.9966 1.12041C35.0509 1.74224 42.0277 3.37456 48.7719 5.3178C56.9115 7.72741 64.896 10.6811 72.7255 14.0235C69.2372 15.5004 65.8263 16.9772 62.4154 18.6095C59.5472 19.9309 56.7564 21.3301 53.8882 22.8069H62.2604C62.803 22.5737 63.4232 22.2628 63.9658 22.0296C68.5395 20.0087 73.1131 18.0654 77.7643 16.2776C78.2295 16.1222 78.6946 15.889 79.2372 15.7335C87.2993 12.7021 95.5164 10.0593 103.811 8.03833C110.633 6.40601 117.532 5.16234 124.431 4.85142C126.137 4.77369 127.842 4.77369 129.548 4.85142C131.253 4.92915 132.881 5.08461 134.431 5.47326C136.214 5.78418 137.92 6.40601 139.16 7.26103C138.695 9.43746 139.703 11.7693 141.796 12.8576C142.493 13.2462 143.269 13.4017 144.044 13.4017C144.044 13.5571 143.966 13.7126 143.966 13.7903C143.579 15.5004 142.881 17.1327 141.951 18.6873C141.098 20.1641 140.168 21.5633 139.083 22.8847H139.393C140.4 21.5633 141.331 20.1641 142.106 18.765C142.959 17.2104 143.656 15.5781 144.044 13.7903C144.044 13.6348 144.121 13.4794 144.121 13.3239C145.904 13.3239 147.687 12.3134 148.54 10.5257C149.703 8.03833 148.695 5.00688 146.214 3.76321Z" fill="white"/>
</svg>
