<svg width="50" height="50" viewBox="0 0 50 50" fill="none" xmlns="http://www.w3.org/2000/svg">
<path d="M22.1111 9V1.8H23.3311L26.6711 6.875V1.8H27.8911V9H26.6711L23.3311 3.925V9H22.1111Z" fill="#A3B1C4"/>
<path d="M2.7752 29V21.8H7.4252V22.93H3.9802V24.705H6.8252V25.835H3.9802V27.87H7.4252V29H2.7752Z" fill="#A3B1C4"/>
<path d="M25.0789 49.15C24.5522 49.15 24.0772 49.0583 23.6539 48.875C23.2339 48.6917 22.8872 48.43 22.6139 48.09C22.3439 47.7467 22.1722 47.34 22.0989 46.87L23.3489 46.68C23.4555 47.1067 23.6739 47.4367 24.0039 47.67C24.3372 47.9033 24.7205 48.02 25.1539 48.02C25.4105 48.02 25.6522 47.98 25.8789 47.9C26.1055 47.82 26.2889 47.7033 26.4289 47.55C26.5722 47.3967 26.6439 47.2083 26.6439 46.985C26.6439 46.885 26.6272 46.7933 26.5939 46.71C26.5605 46.6233 26.5105 46.5467 26.4439 46.48C26.3805 46.4133 26.2972 46.3533 26.1939 46.3C26.0939 46.2433 25.9772 46.195 25.8439 46.155L23.9839 45.605C23.8239 45.5583 23.6505 45.4967 23.4639 45.42C23.2805 45.34 23.1055 45.2317 22.9389 45.095C22.7755 44.955 22.6405 44.7783 22.5339 44.565C22.4305 44.3483 22.3789 44.0817 22.3789 43.765C22.3789 43.3017 22.4955 42.9133 22.7289 42.6C22.9655 42.2833 23.2822 42.0467 23.6789 41.89C24.0789 41.7333 24.5222 41.6567 25.0089 41.66C25.5022 41.6633 25.9422 41.7483 26.3289 41.915C26.7155 42.0783 27.0389 42.3167 27.2989 42.63C27.5589 42.9433 27.7422 43.3217 27.8489 43.765L26.5539 43.99C26.5005 43.7367 26.3972 43.5217 26.2439 43.345C26.0939 43.165 25.9089 43.0283 25.6889 42.935C25.4722 42.8417 25.2405 42.7917 24.9939 42.785C24.7539 42.7817 24.5305 42.8183 24.3239 42.895C24.1205 42.9683 23.9555 43.075 23.8289 43.215C23.7055 43.355 23.6439 43.5183 23.6439 43.705C23.6439 43.8817 23.6972 44.0267 23.8039 44.14C23.9105 44.25 24.0422 44.3383 24.1989 44.405C24.3589 44.4683 24.5205 44.5217 24.6839 44.565L25.9739 44.925C26.1505 44.9717 26.3489 45.035 26.5689 45.115C26.7889 45.195 27.0005 45.3067 27.2039 45.45C27.4072 45.5933 27.5739 45.7817 27.7039 46.015C27.8372 46.2483 27.9039 46.545 27.9039 46.905C27.9039 47.2783 27.8255 47.6067 27.6689 47.89C27.5155 48.17 27.3072 48.4033 27.0439 48.59C26.7805 48.7767 26.4789 48.9167 26.1389 49.01C25.8022 49.1033 25.4489 49.15 25.0789 49.15Z" fill="#A3B1C4"/>
<path d="M42.3421 29L40.2371 21.8H41.5021L42.9371 27L44.3671 21.81L45.6321 21.8L47.0671 27L48.4971 21.8H49.7621L47.6621 29H46.4721L44.9971 23.88L43.5321 29H42.3421Z" fill="#273583"/>
<path d="M18.4913 25L16.5964 31.7309C16.3643 32.5558 17.2093 33.2715 17.9847 32.9068L32.8709 25.9049C33.2538 25.7248 33.0013 25.3619 33.0013 24.9995L18.4913 25Z" fill="#273583"/>
<path d="M18.4913 25L16.5964 31.7309C16.3643 32.5558 17.2093 33.2715 17.9847 32.9068L32.8709 25.9049M18.4913 25L16.5965 18.2691C16.3642 17.4443 17.2093 16.7285 17.9847 17.0932L32.871 24.0951C33.6368 24.4553 33.6368 25.5447 32.8709 25.9049M18.4913 25L33.0013 24.9995C33.0013 25.3619 33.2538 25.7248 32.8709 25.9049" stroke="#273583" stroke-width="1.25" stroke-linecap="round"/>
</svg>
