<svg width="48" height="33" viewBox="0 0 48 33" fill="none" xmlns="http://www.w3.org/2000/svg">
   <path
      d="M46.3147 30.4024H42.2006L43.1356 29.7399C45.816 27.8848 47.125 24.2409 46.3147 20.9946C45.816 19.007 44.8186 17.4832 43.3226 16.3569C41.2656 14.8993 39.0216 14.5018 36.5282 15.2968L36.2788 15.3631L35.5308 13.7068L35.9048 13.5743C37.5255 12.978 38.9592 12.8455 40.3929 13.1105C41.1409 13.243 41.8266 13.508 42.5123 13.773C42.8239 13.9055 43.0733 13.9718 43.3226 14.1043C43.759 14.2368 44.133 14.1043 44.2576 13.773C44.3823 13.3755 44.2576 13.0443 43.8836 12.8455C41.8266 11.7192 39.6449 11.3879 37.4632 11.7192C36.9022 11.7855 36.3412 11.9842 35.7802 12.1167L34.9075 12.3155L33.5985 9.40036L34.4088 9.53287C34.8452 9.59912 35.3438 9.66537 35.7802 9.66537C36.0295 9.66537 36.2165 9.59912 36.3412 9.46662C36.4658 9.33411 36.5282 9.13535 36.5282 8.80409C36.5282 6.68401 36.5282 4.56392 36.5282 2.44384C36.5282 1.91382 36.2788 1.64881 35.7802 1.64881C34.3465 1.58256 33.0375 2.04633 31.9155 3.04011C31.7284 3.17262 31.6038 3.37138 31.4168 3.50388L31.1051 3.83515L30.8558 3.43763L30.5441 2.84136C30.2324 2.11258 29.9208 1.45005 29.6091 0.787526C29.3597 0.323758 29.1104 0.125 28.5494 0.125C28.1131 0.125 27.6767 0.125 27.2404 0.125H26.9287C26.804 0.125 26.6794 0.125 26.5547 0.125H25.869C25.308 0.125 24.747 0.125 24.186 0.125C23.812 0.125 23.5627 0.39001 23.5003 0.787526C23.5003 1.18504 23.7497 1.45005 24.1237 1.5163C24.2483 1.5163 24.3107 1.5163 24.4353 1.5163H25.7444C26.4924 1.5163 27.2404 1.5163 27.9884 1.5163H28.1131C28.1131 1.5163 27.9884 1.5163 27.9261 1.64881L28.1754 1.91382L28.4871 1.78131C28.7364 2.37759 29.0481 2.90761 29.2974 3.50388L29.6091 4.23266H27.2404C25.9314 4.23266 24.6847 4.23266 23.3757 4.23266C21.194 4.23266 19.6356 5.22645 18.6383 7.21403C18.5136 7.47904 18.3266 7.54529 18.1396 7.54529C13.9632 7.54529 9.7868 7.54529 5.67274 7.54529C4.8624 7.54529 4.17672 7.8103 3.61572 8.40657C2.93004 9.0691 2.61837 9.86413 2.74304 10.6592C2.80537 11.2554 3.11704 11.7192 3.61572 12.1167L4.05206 12.448L3.49105 12.713L2.93004 13.0443C2.43137 13.3755 1.87036 13.7068 1.37168 14.038C1.06001 14.2368 0.997679 14.6343 1.18468 14.9656C1.37168 15.2968 1.62102 15.3631 1.93269 15.2968C2.05736 15.2306 2.24436 15.1643 2.36903 15.0318C4.36373 13.508 6.54542 12.8455 8.91412 13.1768C12.5918 13.6405 15.2099 15.7606 16.7059 19.4708C17.3916 21.1271 17.3916 22.9159 17.3292 24.3734C17.3292 24.9697 17.4539 25.4335 17.7032 25.7648C17.9526 26.096 18.3889 26.2285 18.9499 26.2285H22.503C24.0613 26.2285 25.682 26.2285 27.2404 26.2285C28.3624 26.2285 29.2351 25.4997 29.4221 24.4397C29.4844 24.1747 29.4844 23.8434 29.4844 23.5784V23.3797C29.4844 21.0608 30.0454 19.0732 31.2298 17.3507C31.9778 16.2244 32.8505 15.3631 33.9101 14.6343L34.2218 14.4356L34.9698 16.0919L34.7205 16.2906C32.5388 17.8807 31.7284 19.9345 31.4791 21.3921C31.0428 23.5784 31.4791 25.831 32.5388 27.5536C33.0998 28.4149 33.8478 29.2099 34.6582 29.8062L35.5932 30.4687H11.2828L12.1555 29.8062C12.7788 29.3424 13.3399 28.8124 13.7762 28.2161C15.3969 26.1623 15.8956 23.4459 15.2099 20.8621C14.3995 17.7482 11.7192 15.2968 8.72712 15.0318C5.48574 14.7006 2.43137 16.4894 1.12235 19.4045C0.935345 20.0008 0.748342 20.6633 0.561339 21.3258C0.499005 21.6571 0.436671 21.9221 0.312003 22.1871V23.9097L0.374337 24.0422C0.374337 24.1084 0.436671 24.1747 0.436671 24.3072C0.748342 26.4935 1.93269 28.4811 3.74038 29.8062L4.61306 30.4687H0.935345C0.499005 30.4024 0.125 30.8 0.125 31.2637C0.125 31.7275 0.499005 32.125 0.935345 32.125H46.3147C46.751 32.125 47.125 31.7275 47.125 31.2637C47.125 30.8 46.751 30.4024 46.3147 30.4024ZM32.2271 4.76268C32.9128 3.76889 33.9725 3.43763 34.7828 3.30512L35.1568 3.23887V8.27407H34.7828C33.2868 8.14156 32.2271 7.28028 31.9155 5.95523C31.8531 5.55771 31.9778 5.09394 32.2271 4.76268ZM19.5109 8.80409C19.8226 7.08152 21.2563 5.75647 22.8147 5.69022C23.999 5.62397 25.2457 5.62397 26.43 5.62397H29.6091C29.7338 5.62397 29.9208 5.69022 29.9831 5.75647L30.0454 5.82272C30.6688 7.14778 31.2921 8.47283 31.9155 9.86413L32.3518 10.7254H21.0693C20.3836 10.7254 19.9473 10.5929 19.6979 10.2616C19.4486 10.0629 19.3863 9.53287 19.5109 8.80409ZM3.98972 10.7917L4.05206 10.3942C4.17672 9.59912 4.6754 9.0691 5.42341 8.9366C5.54808 8.9366 5.67275 8.9366 5.85975 8.9366H18.0773V10.7917H3.98972ZM30.2948 16.2906C29.9831 16.8869 29.6091 17.4832 29.2974 18.0132L29.2351 18.0795C29.1104 18.1457 28.9234 18.212 28.8611 18.212C27.5521 18.212 26.1807 18.212 24.8717 18.212C23.9367 18.212 23.064 18.212 22.129 18.212C21.381 18.212 21.0693 17.8807 21.0693 17.0857C21.0693 16.9532 21.0693 16.7544 21.0693 16.6219C21.1316 15.8931 21.4433 15.5619 22.129 15.5619H30.7934L30.2948 16.2906ZM33.2245 13.3755C32.9751 13.5743 32.6635 13.773 32.3518 13.9718C32.2271 14.038 32.1025 14.1043 31.9155 14.1043H22.1913C20.5706 14.1043 19.6979 15.0318 19.6979 16.8207C19.6979 18.3445 20.259 19.2057 21.3186 19.537C21.6303 19.6033 22.0043 19.6695 22.2536 19.6695C23.438 19.6695 24.6223 19.6695 25.8067 19.6695H28.6741L28.5494 20.1995C28.4871 20.5308 28.4247 20.8621 28.3624 21.1933L28.3001 21.3258C28.1754 21.4583 27.9884 21.5246 27.8637 21.5246C26.9287 21.5246 26.056 21.5246 25.121 21.5246H23.7497C23.625 21.5246 23.5003 21.5246 23.3757 21.5246C23.064 21.5908 22.877 21.7896 22.877 22.1209C22.877 22.4521 23.0017 22.7171 23.3133 22.7834C23.5003 22.8496 23.6873 22.8496 23.8743 22.8496C24.8093 22.8496 25.682 22.8496 26.617 22.8496H28.2377V23.3134C28.2377 23.5122 28.2377 23.6447 28.2377 23.8434C28.2377 24.6385 27.7391 24.8372 27.3027 24.8372C25.869 24.8372 24.4977 24.8372 23.064 24.8372C22.4406 24.8372 21.755 24.8372 21.0693 24.8372H18.7006V23.3797C18.7006 21.3258 18.2643 19.4045 17.3916 17.7482C16.3319 15.6944 14.7735 14.038 12.8412 12.978L11.6568 12.3155H15.4592C20.446 12.3155 29.6091 12.3155 32.6011 12.3155C32.7881 12.3155 33.4115 12.3155 33.5361 12.978L33.5985 13.243L33.2245 13.3755ZM3.49105 27.7523C2.3067 26.4935 1.68336 24.771 1.68336 23.0484C1.68336 19.4045 4.55073 16.4231 7.97911 16.4231C9.66214 16.4231 11.2205 17.1519 12.4672 18.4107C13.6515 19.6695 14.3372 21.3258 14.3372 23.1147C14.3372 24.9035 13.6515 26.5598 12.4672 27.8186C11.2828 29.0774 9.72447 29.7399 8.04145 29.7399C6.23375 29.7399 4.6754 29.0111 3.49105 27.7523ZM38.8969 29.7399C36.6528 29.7399 34.4712 28.4149 33.2868 26.096C31.8531 23.3134 32.7881 19.4045 35.2815 17.6157L35.5932 17.4169L35.9672 18.212C36.2788 18.9407 36.5905 19.6695 36.9022 20.332L36.9645 20.3983V20.4645C36.9645 20.6633 36.8399 20.8621 36.7775 20.9283C36.1542 21.7233 35.9048 22.7171 36.1542 23.7109C36.4035 24.7047 37.0269 25.4335 37.8995 25.831C39.0216 26.2948 40.2682 25.9635 41.0786 25.036C41.8889 24.0422 42.0759 22.9159 41.6396 21.7233C41.2032 20.5308 40.0812 19.802 38.8969 19.8683C38.3982 19.9345 38.2112 19.7358 37.9619 19.272C37.7125 18.6757 37.4632 18.1457 37.2139 17.6157L36.8399 16.7544L37.2139 16.6219C40.1436 15.6281 43.572 17.3507 44.694 20.2658C46.0653 23.7109 44.7563 27.5536 41.6396 29.0774C40.7046 29.5412 39.8319 29.7399 38.8969 29.7399ZM37.5255 22.1871L37.6502 21.9884L37.8995 22.0546C38.4605 22.1209 38.6475 22.0546 38.8345 21.5246L38.9592 21.2596H39.2086C39.9566 21.3258 40.4552 21.8559 40.5799 22.5846C40.7669 23.3797 40.3929 24.1747 39.7072 24.506C39.4579 24.6385 39.2086 24.7047 38.9592 24.7047C38.5229 24.7047 38.0242 24.506 37.7125 24.1084C37.2139 23.6447 37.1515 22.9159 37.5255 22.1871Z"
      fill="#fff" stroke="#fff" stroke-width="0.25" />
</svg>
