<svg aria-hidden="true" xmlns="http://www.w3.org/2000/svg" xmlns:xlink="http://www.w3.org/1999/xlink"><symbol viewBox="0 0 24 18" id="icon_burger" xmlns="http://www.w3.org/2000/svg">
<path d="M22 1.85742L2 1.85745M22 9.00028H2M22 16.1431H2" stroke-width="2.5" stroke-linecap="round"/>
</symbol><symbol viewBox="0 0 49 32" id="submenu-1" xmlns="http://www.w3.org/2000/svg">
<mask id="bpath-1-inside-1_42_70">
<path d="M35.1126 22.9575H28.1386V23.4463H35.1126V22.9575Z"/>
<path d="M21.0433 22.9575H14.0693V23.4463H21.0433V22.9575Z"/>
<path d="M37.9629 15.3203C36.5074 15.3203 35.1733 16.2979 34.6881 17.7031L34.6275 17.9475H14.4332L14.3725 17.7031C13.8874 16.2979 12.5532 15.3203 11.0978 15.3203C9.21782 15.3203 7.64109 16.9088 7.64109 18.8029C7.64109 20.6969 9.21782 22.2854 11.0978 22.2854C12.6139 22.2854 14.0087 21.2468 14.4332 19.7193L14.4938 19.4749H34.5668L34.6275 19.7193C35.052 21.2468 36.4468 22.2854 37.9629 22.2854C39.8428 22.2854 41.4196 20.6969 41.4196 18.8029C41.4196 16.9088 39.8428 15.3203 37.9629 15.3203ZM12.9777 19.1084C12.8564 20.0859 12.0074 20.758 11.0371 20.758C9.94554 20.758 9.09653 19.9026 9.09653 18.8029C9.09653 17.7031 9.94554 16.8477 11.0371 16.8477C11.9468 16.8477 12.7351 17.5198 12.9171 18.3752V18.4974C12.9171 18.5585 12.8564 18.6196 12.8564 18.6807C12.8564 18.7418 12.8564 18.8029 12.9171 18.9251V18.9862L12.9777 19.1084ZM37.9629 20.758C36.9319 20.758 36.1436 20.0859 36.0223 19.1084V18.9862C36.0223 18.9251 36.0829 18.8029 36.0829 18.7418C36.0829 18.6807 36.0829 18.6196 36.0223 18.5585V18.4363C36.2042 17.5198 37.0532 16.9088 37.9022 16.9088C38.9938 16.9088 39.8428 17.7642 39.8428 18.864C39.9035 19.9026 39.0545 20.758 37.9629 20.758Z"/>
<path d="M19.1634 15.8091H29.9579C30.3218 15.8091 30.7463 15.4425 30.7463 15.0148C30.7463 14.5871 30.3824 14.2205 29.9579 14.2205H19.1634C18.7389 14.2205 18.375 14.5871 18.375 15.0148C18.375 15.3814 18.7389 15.8091 19.1634 15.8091Z"/>
<path d="M14.3725 23.5685H20.8007C20.9827 23.5685 21.2859 23.3241 21.2859 23.0797C21.2859 22.8353 21.0433 22.5909 20.8007 22.5909H14.3725C14.1299 22.5909 13.8874 22.8353 13.8874 23.0797C13.8874 23.3241 14.1299 23.5685 14.3725 23.5685Z"/>
<path d="M28.1993 23.5685H34.6275C34.8094 23.5685 35.1126 23.3241 35.1126 23.0797C35.1126 22.8353 34.87 22.5909 34.6275 22.5909H28.1993C27.9567 22.5909 27.7141 22.8353 27.7141 23.0797C27.7141 23.3241 27.9567 23.5685 28.1993 23.5685Z"/>
<path d="M25.1671 3.4673C24.9851 3.28401 24.8032 3.22291 24.6213 3.22291C24.4394 3.22291 24.1968 3.28401 24.0755 3.4673L20.8007 6.76659C20.4975 7.07208 20.4975 7.56086 20.8007 7.86635C21.104 8.17184 21.5285 8.17184 21.8923 7.86635L25.1671 4.56706C25.4703 4.26158 25.4703 3.77279 25.1671 3.4673Z"/>
<path d="M48.2116 30.4115H44.6943L44.7549 30.0449C44.7549 29.9227 44.8156 29.8005 44.8156 29.7394V22.4687C44.8156 22.4076 44.8156 22.3465 44.8156 22.2854V22.2243L45.6646 18.6807C46.0285 17.0921 45.7252 15.4425 44.7549 14.1594L44.2698 13.6095H44.9369C45.9678 13.6095 46.8775 12.6931 46.8775 11.6544V10.6769C46.8775 9.57709 46.0285 8.72172 44.9369 8.72172H41.8441C41.4196 8.72172 41.0557 8.84391 40.6918 9.08831L40.328 9.3938L39.479 5.60573C38.6299 2.30644 35.8403 0.0458234 32.4443 0.0458234H32.323C32.2017 -0.0152745 32.0198 -0.0152745 31.8379 0.0458234H16.7376C13.3416 0.0458234 10.4307 2.30644 9.70297 5.60573L8.79332 9.57709L8.36881 9.2105C8.00495 8.90501 7.58044 8.72172 7.0953 8.72172H4.06312C2.97153 8.72172 2.12252 9.57709 2.12252 10.6769V11.6544C2.12252 12.7542 2.97153 13.6095 4.06312 13.6095H4.91213L4.48762 14.1594C3.45668 15.4425 3.15347 17.0921 3.51733 18.6807L4.36634 22.2854V22.3465C4.36634 22.4076 4.30569 22.4687 4.30569 22.5298V29.9227L4.36634 30.3504H0.788366C0.363861 30.4115 0 30.778 0 31.2057C0 31.6334 0.363861 32 0.788366 32H48.2116C48.6361 32 49 31.6334 49 31.2057C49 30.778 48.6361 30.4115 48.2116 30.4115ZM41.5408 10.3103H44.9369C45.1795 10.3103 45.3614 10.4936 45.3614 10.7379V11.6544C45.3614 11.8988 45.1795 12.0821 44.9369 12.0821H41.8441C41.6015 12.0821 41.4196 11.8988 41.4196 11.6544L41.5408 10.3103ZM11.1584 6.03341C11.7042 3.4673 14.0087 1.63437 16.6163 1.63437H30.1398L26.0767 5.72792C25.7735 6.03341 25.7735 6.5222 26.0767 6.82769C26.3799 7.13317 26.8651 7.13317 27.1683 6.82769L32.323 1.63437H32.4443C35.052 1.69547 37.2351 3.5284 37.7809 6.03341L38.9938 11.2878L38.5087 11.1656C34.9913 10.3714 31.1101 10.127 30.0186 10.0659C27.2896 9.82148 21.8923 9.82148 18.0111 10.1881C15.4641 10.3103 12.6745 10.7379 10.4913 11.2267L10.0062 11.3489L11.1584 6.03341ZM4.06312 12.0821C3.82054 12.0821 3.63861 11.8988 3.63861 11.6544L3.7599 10.3103H7.15594C7.39851 10.3103 7.58044 10.4936 7.58044 10.7379V11.6544C7.58044 11.8988 7.39851 12.0821 7.15594 12.0821H4.06312ZM10.8552 29.7394C10.8552 30.106 10.552 30.4115 10.1881 30.4115H6.24629L6.18564 30.3504C6.00371 30.2282 5.94307 30.0449 5.94307 29.8616V26.0124L6.48886 26.4401C7.45916 27.2344 8.61139 27.6621 9.8849 27.6621H10.9158V29.7394H10.8552ZM12.3713 30.4115L12.4319 30.0449C12.4319 29.9227 12.4926 29.8005 12.4926 29.7394V27.7232H36.6894V29.9838L36.75 30.4115H12.3713ZM43.1782 29.7394C43.1782 30.106 42.875 30.4115 42.5111 30.4115H38.5693L38.5087 30.3504C38.3267 30.2282 38.2661 30.0449 38.2661 29.8616V27.7232H39.1757C40.4493 27.7232 41.6621 27.2955 42.6931 26.379L43.2389 25.9513V29.7394H43.1782ZM44.1485 18.3752L43.2995 21.98C43.1782 22.1021 43.1176 22.2854 43.1176 22.4687C43.1176 22.5298 43.1176 22.5909 43.1176 22.652V22.7131L42.9963 23.2019C42.5111 25.0348 40.995 26.2568 39.2364 26.2568H37.9022L37.8416 26.1957C37.599 26.0124 37.2958 26.0124 37.0532 26.1957L36.9926 26.2568H12.25L12.1287 26.1957C12.0074 26.1346 11.8255 26.0124 11.6436 26.0124C11.4616 26.0124 11.2797 26.1346 11.1584 26.1957L11.0978 26.2568H9.94554C8.12624 26.2568 6.5495 24.9737 6.18564 23.2019L5.03342 18.3752C4.54827 16.42 5.57921 14.4649 7.45916 13.8539C7.70173 13.7317 7.82302 13.6706 8.00495 13.6095C8.24752 13.4874 8.4901 13.3652 8.97525 13.1819C9.15718 13.1819 9.21782 13.1208 9.27846 13.0597L9.33911 12.9986H9.39975C9.52104 12.9986 9.52104 12.9986 10.3094 12.7542H10.37C10.4913 12.7542 10.9158 12.632 11.1584 12.5709C19.7092 10.6158 35.5371 11.1656 40.8738 13.5484C41.1163 13.6095 41.4196 13.7317 41.6015 13.7928C43.5421 14.4649 44.573 16.4811 44.1485 18.3752Z"/>
</mask>
<path d="M35.1126 22.9575H28.1386V23.4463H35.1126V22.9575Z" stroke-width="2" mask="url(#bpath-1-inside-1_42_70)"/>
<path d="M21.0433 22.9575H14.0693V23.4463H21.0433V22.9575Z" stroke-width="2" mask="url(#bpath-1-inside-1_42_70)"/>
<path d="M37.9629 15.3203C36.5074 15.3203 35.1733 16.2979 34.6881 17.7031L34.6275 17.9475H14.4332L14.3725 17.7031C13.8874 16.2979 12.5532 15.3203 11.0978 15.3203C9.21782 15.3203 7.64109 16.9088 7.64109 18.8029C7.64109 20.6969 9.21782 22.2854 11.0978 22.2854C12.6139 22.2854 14.0087 21.2468 14.4332 19.7193L14.4938 19.4749H34.5668L34.6275 19.7193C35.052 21.2468 36.4468 22.2854 37.9629 22.2854C39.8428 22.2854 41.4196 20.6969 41.4196 18.8029C41.4196 16.9088 39.8428 15.3203 37.9629 15.3203ZM12.9777 19.1084C12.8564 20.0859 12.0074 20.758 11.0371 20.758C9.94554 20.758 9.09653 19.9026 9.09653 18.8029C9.09653 17.7031 9.94554 16.8477 11.0371 16.8477C11.9468 16.8477 12.7351 17.5198 12.9171 18.3752V18.4974C12.9171 18.5585 12.8564 18.6196 12.8564 18.6807C12.8564 18.7418 12.8564 18.8029 12.9171 18.9251V18.9862L12.9777 19.1084ZM37.9629 20.758C36.9319 20.758 36.1436 20.0859 36.0223 19.1084V18.9862C36.0223 18.9251 36.0829 18.8029 36.0829 18.7418C36.0829 18.6807 36.0829 18.6196 36.0223 18.5585V18.4363C36.2042 17.5198 37.0532 16.9088 37.9022 16.9088C38.9938 16.9088 39.8428 17.7642 39.8428 18.864C39.9035 19.9026 39.0545 20.758 37.9629 20.758Z" stroke-width="2" mask="url(#bpath-1-inside-1_42_70)"/>
<path d="M19.1634 15.8091H29.9579C30.3218 15.8091 30.7463 15.4425 30.7463 15.0148C30.7463 14.5871 30.3824 14.2205 29.9579 14.2205H19.1634C18.7389 14.2205 18.375 14.5871 18.375 15.0148C18.375 15.3814 18.7389 15.8091 19.1634 15.8091Z" stroke-width="2" mask="url(#bpath-1-inside-1_42_70)"/>
<path d="M14.3725 23.5685H20.8007C20.9827 23.5685 21.2859 23.3241 21.2859 23.0797C21.2859 22.8353 21.0433 22.5909 20.8007 22.5909H14.3725C14.1299 22.5909 13.8874 22.8353 13.8874 23.0797C13.8874 23.3241 14.1299 23.5685 14.3725 23.5685Z" stroke-width="2" mask="url(#bpath-1-inside-1_42_70)"/>
<path d="M28.1993 23.5685H34.6275C34.8094 23.5685 35.1126 23.3241 35.1126 23.0797C35.1126 22.8353 34.87 22.5909 34.6275 22.5909H28.1993C27.9567 22.5909 27.7141 22.8353 27.7141 23.0797C27.7141 23.3241 27.9567 23.5685 28.1993 23.5685Z" stroke-width="2" mask="url(#bpath-1-inside-1_42_70)"/>
<path d="M25.1671 3.4673C24.9851 3.28401 24.8032 3.22291 24.6213 3.22291C24.4394 3.22291 24.1968 3.28401 24.0755 3.4673L20.8007 6.76659C20.4975 7.07208 20.4975 7.56086 20.8007 7.86635C21.104 8.17184 21.5285 8.17184 21.8923 7.86635L25.1671 4.56706C25.4703 4.26158 25.4703 3.77279 25.1671 3.4673Z" stroke-width="2" mask="url(#bpath-1-inside-1_42_70)"/>
<path d="M48.2116 30.4115H44.6943L44.7549 30.0449C44.7549 29.9227 44.8156 29.8005 44.8156 29.7394V22.4687C44.8156 22.4076 44.8156 22.3465 44.8156 22.2854V22.2243L45.6646 18.6807C46.0285 17.0921 45.7252 15.4425 44.7549 14.1594L44.2698 13.6095H44.9369C45.9678 13.6095 46.8775 12.6931 46.8775 11.6544V10.6769C46.8775 9.57709 46.0285 8.72172 44.9369 8.72172H41.8441C41.4196 8.72172 41.0557 8.84391 40.6918 9.08831L40.328 9.3938L39.479 5.60573C38.6299 2.30644 35.8403 0.0458234 32.4443 0.0458234H32.323C32.2017 -0.0152745 32.0198 -0.0152745 31.8379 0.0458234H16.7376C13.3416 0.0458234 10.4307 2.30644 9.70297 5.60573L8.79332 9.57709L8.36881 9.2105C8.00495 8.90501 7.58044 8.72172 7.0953 8.72172H4.06312C2.97153 8.72172 2.12252 9.57709 2.12252 10.6769V11.6544C2.12252 12.7542 2.97153 13.6095 4.06312 13.6095H4.91213L4.48762 14.1594C3.45668 15.4425 3.15347 17.0921 3.51733 18.6807L4.36634 22.2854V22.3465C4.36634 22.4076 4.30569 22.4687 4.30569 22.5298V29.9227L4.36634 30.3504H0.788366C0.363861 30.4115 0 30.778 0 31.2057C0 31.6334 0.363861 32 0.788366 32H48.2116C48.6361 32 49 31.6334 49 31.2057C49 30.778 48.6361 30.4115 48.2116 30.4115ZM41.5408 10.3103H44.9369C45.1795 10.3103 45.3614 10.4936 45.3614 10.7379V11.6544C45.3614 11.8988 45.1795 12.0821 44.9369 12.0821H41.8441C41.6015 12.0821 41.4196 11.8988 41.4196 11.6544L41.5408 10.3103ZM11.1584 6.03341C11.7042 3.4673 14.0087 1.63437 16.6163 1.63437H30.1398L26.0767 5.72792C25.7735 6.03341 25.7735 6.5222 26.0767 6.82769C26.3799 7.13317 26.8651 7.13317 27.1683 6.82769L32.323 1.63437H32.4443C35.052 1.69547 37.2351 3.5284 37.7809 6.03341L38.9938 11.2878L38.5087 11.1656C34.9913 10.3714 31.1101 10.127 30.0186 10.0659C27.2896 9.82148 21.8923 9.82148 18.0111 10.1881C15.4641 10.3103 12.6745 10.7379 10.4913 11.2267L10.0062 11.3489L11.1584 6.03341ZM4.06312 12.0821C3.82054 12.0821 3.63861 11.8988 3.63861 11.6544L3.7599 10.3103H7.15594C7.39851 10.3103 7.58044 10.4936 7.58044 10.7379V11.6544C7.58044 11.8988 7.39851 12.0821 7.15594 12.0821H4.06312ZM10.8552 29.7394C10.8552 30.106 10.552 30.4115 10.1881 30.4115H6.24629L6.18564 30.3504C6.00371 30.2282 5.94307 30.0449 5.94307 29.8616V26.0124L6.48886 26.4401C7.45916 27.2344 8.61139 27.6621 9.8849 27.6621H10.9158V29.7394H10.8552ZM12.3713 30.4115L12.4319 30.0449C12.4319 29.9227 12.4926 29.8005 12.4926 29.7394V27.7232H36.6894V29.9838L36.75 30.4115H12.3713ZM43.1782 29.7394C43.1782 30.106 42.875 30.4115 42.5111 30.4115H38.5693L38.5087 30.3504C38.3267 30.2282 38.2661 30.0449 38.2661 29.8616V27.7232H39.1757C40.4493 27.7232 41.6621 27.2955 42.6931 26.379L43.2389 25.9513V29.7394H43.1782ZM44.1485 18.3752L43.2995 21.98C43.1782 22.1021 43.1176 22.2854 43.1176 22.4687C43.1176 22.5298 43.1176 22.5909 43.1176 22.652V22.7131L42.9963 23.2019C42.5111 25.0348 40.995 26.2568 39.2364 26.2568H37.9022L37.8416 26.1957C37.599 26.0124 37.2958 26.0124 37.0532 26.1957L36.9926 26.2568H12.25L12.1287 26.1957C12.0074 26.1346 11.8255 26.0124 11.6436 26.0124C11.4616 26.0124 11.2797 26.1346 11.1584 26.1957L11.0978 26.2568H9.94554C8.12624 26.2568 6.5495 24.9737 6.18564 23.2019L5.03342 18.3752C4.54827 16.42 5.57921 14.4649 7.45916 13.8539C7.70173 13.7317 7.82302 13.6706 8.00495 13.6095C8.24752 13.4874 8.4901 13.3652 8.97525 13.1819C9.15718 13.1819 9.21782 13.1208 9.27846 13.0597L9.33911 12.9986H9.39975C9.52104 12.9986 9.52104 12.9986 10.3094 12.7542H10.37C10.4913 12.7542 10.9158 12.632 11.1584 12.5709C19.7092 10.6158 35.5371 11.1656 40.8738 13.5484C41.1163 13.6095 41.4196 13.7317 41.6015 13.7928C43.5421 14.4649 44.573 16.4811 44.1485 18.3752Z" stroke-width="2" mask="url(#bpath-1-inside-1_42_70)"/>
</symbol><symbol viewBox="0 0 46 32" id="submenu-2" xmlns="http://www.w3.org/2000/svg">
<mask id="cpath-1-inside-1_42_59">
<path d="M45.8323 7.16932V4.74269C45.8323 4.51695 45.7205 4.29122 45.5529 4.17835C45.3293 3.95262 45.2175 3.89619 44.9939 3.95262L35.8834 5.81492V3.78332C35.8834 3.55759 35.7716 3.33185 35.6039 3.21899L31.9149 0.171587C31.7473 0.00228659 31.4119 -0.0541468 31.1883 0.0587199C30.9648 0.171587 30.7971 0.39732 30.7971 0.679487V17.6095L30.0705 17.7788L25.0401 2.88039H26.2697C26.661 2.88039 27.1081 2.48535 27.1081 2.14675C27.1081 1.75172 26.7728 1.41312 26.3815 1.41312H7.43378C7.04253 1.41312 6.70717 1.75172 6.70717 2.14675C6.70717 2.54179 7.04253 2.88039 7.43378 2.88039H8.32807L4.97448 15.6908H0.72661C0.335358 15.6343 0 15.9729 0 16.368V26.8081C0 27.2032 0.335358 27.5418 0.72661 27.5418H2.12394L2.23572 27.7675C2.4593 28.614 2.90644 29.3476 3.46537 30.0248L3.80073 30.4199L3.29769 30.5327C2.96233 30.5892 2.73876 30.9278 2.73876 31.2664C2.73876 31.6614 3.07412 32 3.46537 32H44.1555C44.5468 32 44.8821 31.6614 44.8821 31.2664C44.8821 30.8713 44.5468 30.5327 44.1555 30.5327H37.113L37.5601 30.0248C38.4544 28.9526 38.9575 27.5418 38.9575 26.1309C38.9575 24.0429 37.8955 22.1806 36.1628 21.1648L35.9951 21.0519V19.3589L45.4411 17.3838C45.7764 17.3273 46 17.0452 46 16.7066V7.67722C46 7.56436 45.9441 7.39506 45.8882 7.28219L45.8323 7.16932ZM32.1385 2.31605L34.3742 4.17835V6.88716C34.3742 7.00002 34.3742 7.05646 34.4301 7.16932V20.544L34.0948 20.4876C33.9271 20.4876 33.7035 20.4312 33.5358 20.4312C33.2564 20.3747 33.0328 20.3747 32.8092 20.4312C32.6974 20.4312 32.6416 20.4312 32.5298 20.4312L32.1385 20.4876L32.0826 20.149V2.31605H32.1385ZM28.8408 18.3996L28.6173 18.5124C28.3937 18.6253 28.1701 18.7946 27.9465 18.9075L27.723 19.0768L27.6112 19.1896L27.4994 19.2461C27.4435 19.3025 27.3876 19.3025 27.3317 19.3589L27.2758 19.4154H25.4313V13.6027L26.7728 12.2483L28.8408 18.3996ZM25.9344 20.8262L25.6549 21.2777C24.7606 22.6321 24.2576 24.2122 24.2017 25.7923V26.0745H23.1397V20.8262H25.9344ZM9.78129 2.88039H23.531L26.2139 10.7811L24.593 12.3612L21.7424 10.1039C21.407 9.87812 20.9599 9.93456 20.7363 10.2167C20.5128 10.5553 20.5686 11.0068 20.8481 11.2325L23.9222 13.6592V19.4154H23.0279V16.4808C23.0279 16.0858 22.6926 15.7472 22.3013 15.7472H20.7922L20.401 13.4899C20.3451 13.1513 20.0656 12.9255 19.7303 12.9255H15.9854L15.4824 9.53952C15.4265 9.14449 15.147 8.91876 14.8117 8.91876H13.079C12.6877 8.91876 12.3524 9.25736 12.3524 9.65239C12.3524 10.0474 12.6877 10.386 13.079 10.386H14.1968L14.6999 13.772C14.7558 14.1671 15.0352 14.3928 15.3706 14.3928H19.1154L19.339 15.6908H6.37181L9.78129 2.88039ZM2.01215 25.8488L1.95626 26.0181L1.39733 27.0339V17.158H21.5188V20.0926C21.5188 20.2054 21.5188 20.2619 21.5747 20.3747V22.0113H18.277C17.8858 22.0113 17.5504 22.3499 17.5504 22.7449V26.1309L13.4702 26.1874V25.9052C13.4702 25.5666 13.4702 25.3973 13.4143 25.1151C13.4143 25.0587 13.3584 25.0023 13.3026 24.9458L13.2467 24.833C13.1349 24.2686 12.9113 23.7607 12.6318 23.3093C12.5759 23.1964 12.5759 23.14 12.52 23.14C11.7934 21.842 10.6197 20.9391 9.22236 20.544C9.11057 20.544 8.99878 20.4876 8.94289 20.4876C8.77521 20.4876 8.66343 20.4876 8.55164 20.4876H8.43985C7.88092 20.4312 7.32199 20.4312 6.76306 20.544H6.65128C6.53949 20.544 6.4836 20.544 6.4277 20.544H6.31592C6.26002 20.544 6.20413 20.6005 6.09234 20.6005C5.14216 20.8826 4.30377 21.3341 3.63305 22.0677C2.90644 22.7449 2.4034 23.535 2.12394 24.4944C2.12394 24.8894 2.01215 25.3409 2.01215 25.8488ZM21.6306 26.0745H19.0595V23.4786H21.6306V26.0745ZM7.71324 30.4763C5.42163 30.4763 3.46537 28.614 3.35358 26.3567V26.1874C3.35358 25.9052 3.35358 25.5666 3.40948 25.1716L3.46537 25.0587C3.52126 25.0023 3.57716 24.9458 3.57716 24.8894C3.68894 24.4379 3.96841 23.93 4.24787 23.535C4.52734 23.1964 4.8068 22.9142 5.19806 22.6321C5.58931 22.3499 6.03645 22.1242 6.4836 22.0113C6.53949 21.9549 6.65128 21.8984 6.76306 21.8984C7.04253 21.842 7.37789 21.842 7.71324 21.842H8.887V21.9549C9.94897 22.2935 10.7874 22.9707 11.4022 23.93C11.6817 24.3815 11.8493 24.833 11.9052 25.3409C12.017 25.5666 12.017 25.9616 12.017 26.1874V26.7517C11.7375 28.8397 9.89307 30.4763 7.71324 30.4763ZM11.5699 30.4763L12.017 29.9684C12.5759 29.3476 13.0231 28.5576 13.2467 27.7675L13.3026 27.5418H22.4131C22.4131 27.5418 22.469 27.5418 22.5808 27.4853H24.8724C25.0401 27.4853 25.2078 27.3725 25.3755 27.316H25.4313C25.4872 27.2032 25.5431 27.0339 25.5431 26.8081V26.2438C25.5431 24.0993 26.4374 22.1242 27.9465 20.7133L28.1701 20.4876C28.226 20.4312 28.2819 20.3747 28.3378 20.3183L28.4496 20.2054C28.5055 20.149 28.5614 20.149 28.6173 20.0926C28.729 20.0361 28.8408 19.9797 28.8967 19.9233L29.0085 19.8668L29.1762 19.8104L29.288 19.6975C29.3439 19.6411 29.3998 19.6411 29.4556 19.5847L29.5115 19.5282L29.7351 19.4718H29.791C29.8469 19.4154 29.9028 19.3589 29.9587 19.3025L30.0705 19.1896C30.2381 19.1332 30.3499 19.0768 30.4617 19.0203L30.853 18.9075V20.8826L30.6853 20.9391C28.729 21.9549 27.4994 23.93 27.4994 26.1309C27.4994 27.5418 28.0024 28.8962 28.9526 29.9684L29.3998 30.4763H11.5699ZM37.6719 26.1874C37.6719 28.2754 36.2187 30.0813 34.1507 30.4763H32.4739C30.4058 30.0813 28.8967 28.2754 28.8967 26.1874C28.8967 24.4379 29.9028 22.9142 31.4678 22.1242L31.5796 22.0677L31.8032 22.1806C31.9149 22.1242 32.0267 22.0677 32.1944 22.0677C32.3062 22.0113 32.3621 21.9549 32.4739 21.8984L32.5298 21.842H32.8092C33.1446 21.7856 33.7035 21.7856 34.2625 21.9549C34.4301 22.0113 34.486 22.0677 34.5978 22.0677C34.7096 22.1242 34.7655 22.1242 34.8773 22.1806L34.9891 22.237C36.6659 22.9142 37.6719 24.4379 37.6719 26.1874ZM35.8834 8.91876V7.33862L44.435 5.58919V7.16932L35.8834 8.91876ZM44.4909 16.0858L35.9392 17.8352V16.3115L44.4909 14.6185V16.0858ZM44.4909 13.0948L35.9392 14.8443V13.3206L44.4909 11.5711V13.0948ZM44.4909 10.0474L35.9392 11.7969V10.2732L44.4909 8.63659V10.0474Z"/>
</mask>
<path d="M45.8323 7.16932V4.74269C45.8323 4.51695 45.7205 4.29122 45.5529 4.17835C45.3293 3.95262 45.2175 3.89619 44.9939 3.95262L35.8834 5.81492V3.78332C35.8834 3.55759 35.7716 3.33185 35.6039 3.21899L31.9149 0.171587C31.7473 0.00228659 31.4119 -0.0541468 31.1883 0.0587199C30.9648 0.171587 30.7971 0.39732 30.7971 0.679487V17.6095L30.0705 17.7788L25.0401 2.88039H26.2697C26.661 2.88039 27.1081 2.48535 27.1081 2.14675C27.1081 1.75172 26.7728 1.41312 26.3815 1.41312H7.43378C7.04253 1.41312 6.70717 1.75172 6.70717 2.14675C6.70717 2.54179 7.04253 2.88039 7.43378 2.88039H8.32807L4.97448 15.6908H0.72661C0.335358 15.6343 0 15.9729 0 16.368V26.8081C0 27.2032 0.335358 27.5418 0.72661 27.5418H2.12394L2.23572 27.7675C2.4593 28.614 2.90644 29.3476 3.46537 30.0248L3.80073 30.4199L3.29769 30.5327C2.96233 30.5892 2.73876 30.9278 2.73876 31.2664C2.73876 31.6614 3.07412 32 3.46537 32H44.1555C44.5468 32 44.8821 31.6614 44.8821 31.2664C44.8821 30.8713 44.5468 30.5327 44.1555 30.5327H37.113L37.5601 30.0248C38.4544 28.9526 38.9575 27.5418 38.9575 26.1309C38.9575 24.0429 37.8955 22.1806 36.1628 21.1648L35.9951 21.0519V19.3589L45.4411 17.3838C45.7764 17.3273 46 17.0452 46 16.7066V7.67722C46 7.56436 45.9441 7.39506 45.8882 7.28219L45.8323 7.16932ZM32.1385 2.31605L34.3742 4.17835V6.88716C34.3742 7.00002 34.3742 7.05646 34.4301 7.16932V20.544L34.0948 20.4876C33.9271 20.4876 33.7035 20.4312 33.5358 20.4312C33.2564 20.3747 33.0328 20.3747 32.8092 20.4312C32.6974 20.4312 32.6416 20.4312 32.5298 20.4312L32.1385 20.4876L32.0826 20.149V2.31605H32.1385ZM28.8408 18.3996L28.6173 18.5124C28.3937 18.6253 28.1701 18.7946 27.9465 18.9075L27.723 19.0768L27.6112 19.1896L27.4994 19.2461C27.4435 19.3025 27.3876 19.3025 27.3317 19.3589L27.2758 19.4154H25.4313V13.6027L26.7728 12.2483L28.8408 18.3996ZM25.9344 20.8262L25.6549 21.2777C24.7606 22.6321 24.2576 24.2122 24.2017 25.7923V26.0745H23.1397V20.8262H25.9344ZM9.78129 2.88039H23.531L26.2139 10.7811L24.593 12.3612L21.7424 10.1039C21.407 9.87812 20.9599 9.93456 20.7363 10.2167C20.5128 10.5553 20.5686 11.0068 20.8481 11.2325L23.9222 13.6592V19.4154H23.0279V16.4808C23.0279 16.0858 22.6926 15.7472 22.3013 15.7472H20.7922L20.401 13.4899C20.3451 13.1513 20.0656 12.9255 19.7303 12.9255H15.9854L15.4824 9.53952C15.4265 9.14449 15.147 8.91876 14.8117 8.91876H13.079C12.6877 8.91876 12.3524 9.25736 12.3524 9.65239C12.3524 10.0474 12.6877 10.386 13.079 10.386H14.1968L14.6999 13.772C14.7558 14.1671 15.0352 14.3928 15.3706 14.3928H19.1154L19.339 15.6908H6.37181L9.78129 2.88039ZM2.01215 25.8488L1.95626 26.0181L1.39733 27.0339V17.158H21.5188V20.0926C21.5188 20.2054 21.5188 20.2619 21.5747 20.3747V22.0113H18.277C17.8858 22.0113 17.5504 22.3499 17.5504 22.7449V26.1309L13.4702 26.1874V25.9052C13.4702 25.5666 13.4702 25.3973 13.4143 25.1151C13.4143 25.0587 13.3584 25.0023 13.3026 24.9458L13.2467 24.833C13.1349 24.2686 12.9113 23.7607 12.6318 23.3093C12.5759 23.1964 12.5759 23.14 12.52 23.14C11.7934 21.842 10.6197 20.9391 9.22236 20.544C9.11057 20.544 8.99878 20.4876 8.94289 20.4876C8.77521 20.4876 8.66343 20.4876 8.55164 20.4876H8.43985C7.88092 20.4312 7.32199 20.4312 6.76306 20.544H6.65128C6.53949 20.544 6.4836 20.544 6.4277 20.544H6.31592C6.26002 20.544 6.20413 20.6005 6.09234 20.6005C5.14216 20.8826 4.30377 21.3341 3.63305 22.0677C2.90644 22.7449 2.4034 23.535 2.12394 24.4944C2.12394 24.8894 2.01215 25.3409 2.01215 25.8488ZM21.6306 26.0745H19.0595V23.4786H21.6306V26.0745ZM7.71324 30.4763C5.42163 30.4763 3.46537 28.614 3.35358 26.3567V26.1874C3.35358 25.9052 3.35358 25.5666 3.40948 25.1716L3.46537 25.0587C3.52126 25.0023 3.57716 24.9458 3.57716 24.8894C3.68894 24.4379 3.96841 23.93 4.24787 23.535C4.52734 23.1964 4.8068 22.9142 5.19806 22.6321C5.58931 22.3499 6.03645 22.1242 6.4836 22.0113C6.53949 21.9549 6.65128 21.8984 6.76306 21.8984C7.04253 21.842 7.37789 21.842 7.71324 21.842H8.887V21.9549C9.94897 22.2935 10.7874 22.9707 11.4022 23.93C11.6817 24.3815 11.8493 24.833 11.9052 25.3409C12.017 25.5666 12.017 25.9616 12.017 26.1874V26.7517C11.7375 28.8397 9.89307 30.4763 7.71324 30.4763ZM11.5699 30.4763L12.017 29.9684C12.5759 29.3476 13.0231 28.5576 13.2467 27.7675L13.3026 27.5418H22.4131C22.4131 27.5418 22.469 27.5418 22.5808 27.4853H24.8724C25.0401 27.4853 25.2078 27.3725 25.3755 27.316H25.4313C25.4872 27.2032 25.5431 27.0339 25.5431 26.8081V26.2438C25.5431 24.0993 26.4374 22.1242 27.9465 20.7133L28.1701 20.4876C28.226 20.4312 28.2819 20.3747 28.3378 20.3183L28.4496 20.2054C28.5055 20.149 28.5614 20.149 28.6173 20.0926C28.729 20.0361 28.8408 19.9797 28.8967 19.9233L29.0085 19.8668L29.1762 19.8104L29.288 19.6975C29.3439 19.6411 29.3998 19.6411 29.4556 19.5847L29.5115 19.5282L29.7351 19.4718H29.791C29.8469 19.4154 29.9028 19.3589 29.9587 19.3025L30.0705 19.1896C30.2381 19.1332 30.3499 19.0768 30.4617 19.0203L30.853 18.9075V20.8826L30.6853 20.9391C28.729 21.9549 27.4994 23.93 27.4994 26.1309C27.4994 27.5418 28.0024 28.8962 28.9526 29.9684L29.3998 30.4763H11.5699ZM37.6719 26.1874C37.6719 28.2754 36.2187 30.0813 34.1507 30.4763H32.4739C30.4058 30.0813 28.8967 28.2754 28.8967 26.1874C28.8967 24.4379 29.9028 22.9142 31.4678 22.1242L31.5796 22.0677L31.8032 22.1806C31.9149 22.1242 32.0267 22.0677 32.1944 22.0677C32.3062 22.0113 32.3621 21.9549 32.4739 21.8984L32.5298 21.842H32.8092C33.1446 21.7856 33.7035 21.7856 34.2625 21.9549C34.4301 22.0113 34.486 22.0677 34.5978 22.0677C34.7096 22.1242 34.7655 22.1242 34.8773 22.1806L34.9891 22.237C36.6659 22.9142 37.6719 24.4379 37.6719 26.1874ZM35.8834 8.91876V7.33862L44.435 5.58919V7.16932L35.8834 8.91876ZM44.4909 16.0858L35.9392 17.8352V16.3115L44.4909 14.6185V16.0858ZM44.4909 13.0948L35.9392 14.8443V13.3206L44.4909 11.5711V13.0948ZM44.4909 10.0474L35.9392 11.7969V10.2732L44.4909 8.63659V10.0474Z" stroke-width="2" mask="url(#cpath-1-inside-1_42_59)"/>
</symbol><symbol viewBox="0 0 34 34" id="submenu-3" xmlns="http://www.w3.org/2000/svg">
<path d="M17 8.60471C12.3427 8.60471 8.58685 12.3694 8.58685 17.0376C8.58685 21.7059 12.3427 25.4706 17 25.4706C21.6573 25.4706 25.4131 21.7059 25.4131 17.0376C25.4883 12.3694 21.6573 8.60471 17 8.60471ZM24.2113 17.0376C24.2113 21.0282 20.9812 24.2659 17 24.2659C13.0188 24.2659 9.78873 21.0282 9.78873 17.0376C9.78873 13.0471 13.0188 9.80941 17 9.80941C20.9812 9.88471 24.2113 13.1224 24.2113 17.0376Z"/>
<path d="M17 7.09882C17.3756 7.09882 17.6009 6.79765 17.6009 6.49647V1.60235C17.6009 1.22588 17.3005 1 17 1C16.6244 1 16.3991 1.30118 16.3991 1.60235V6.42118C16.3991 6.79765 16.6995 7.09882 17 7.09882Z"/>
<path d="M9.11268 10.0353C9.26291 10.1859 9.41315 10.1859 9.56338 10.1859C9.71362 10.1859 9.86385 10.1106 10.0141 10.0353C10.2394 9.80941 10.2394 9.35765 10.0141 9.13177L6.55869 5.66824C6.33333 5.44235 5.88263 5.44235 5.65728 5.66824C5.43192 5.89412 5.43192 6.34588 5.65728 6.57176L9.11268 10.0353Z"/>
<path d="M7.08451 17.0376C7.08451 16.6612 6.78404 16.4353 6.48357 16.4353H1.60094C1.22535 16.4353 1 16.7365 1 17.0376C1 17.4141 1.30047 17.64 1.60094 17.64H6.40845C6.78404 17.7153 7.08451 17.4141 7.08451 17.0376Z"/>
<path d="M9.11268 24.1153L5.73239 27.5035C5.50704 27.7294 5.50704 28.1812 5.73239 28.4071C5.88263 28.5576 6.03286 28.5576 6.1831 28.5576C6.33333 28.5576 6.48357 28.4824 6.6338 28.4071L10.0141 25.0188C10.2394 24.7929 10.2394 24.3412 10.0141 24.1153C9.71362 23.8141 9.33803 23.8141 9.11268 24.1153Z"/>
<path d="M17 26.9765C16.6244 26.9765 16.3991 27.2776 16.3991 27.5788V32.3976C16.3991 32.7741 16.6995 33 17 33C17.3756 33 17.6009 32.6988 17.6009 32.3976V27.5788C17.6761 27.2776 17.3756 26.9765 17 26.9765Z"/>
<path d="M24.9624 24.1153C24.7371 23.8894 24.2864 23.8894 24.061 24.1153C23.8357 24.3412 23.8357 24.7929 24.061 25.0188L27.4413 28.4071C27.5916 28.5576 27.7418 28.5576 27.892 28.5576C28.0423 28.5576 28.1925 28.4824 28.3427 28.4071C28.5681 28.1812 28.5681 27.7294 28.3427 27.5035L24.9624 24.1153Z"/>
<path d="M32.3991 16.4353H27.5916C27.216 16.4353 26.9906 16.7365 26.9906 17.0376C26.9906 17.3388 27.2911 17.64 27.5916 17.64H32.3991C32.7746 17.64 33 17.3388 33 17.0376C33 16.7365 32.7746 16.4353 32.3991 16.4353Z"/>
<path d="M24.5117 10.1859C24.662 10.1859 24.8122 10.1106 24.9624 10.0353L28.3427 6.64706C28.5681 6.42118 28.5681 5.96941 28.3427 5.74353C28.1174 5.51765 27.6667 5.51765 27.4413 5.74353L24.061 9.13177C23.8357 9.35765 23.8357 9.80941 24.061 10.0353C24.1362 10.1106 24.2864 10.1859 24.5117 10.1859Z"/>
<path d="M17 8.60471C12.3427 8.60471 8.58685 12.3694 8.58685 17.0376C8.58685 21.7059 12.3427 25.4706 17 25.4706C21.6573 25.4706 25.4131 21.7059 25.4131 17.0376C25.4883 12.3694 21.6573 8.60471 17 8.60471ZM24.2113 17.0376C24.2113 21.0282 20.9812 24.2659 17 24.2659C13.0188 24.2659 9.78873 21.0282 9.78873 17.0376C9.78873 13.0471 13.0188 9.80941 17 9.80941C20.9812 9.88471 24.2113 13.1224 24.2113 17.0376Z" stroke-width="0.5"/>
<path d="M17 7.09882C17.3756 7.09882 17.6009 6.79765 17.6009 6.49647V1.60235C17.6009 1.22588 17.3005 1 17 1C16.6244 1 16.3991 1.30118 16.3991 1.60235V6.42118C16.3991 6.79765 16.6995 7.09882 17 7.09882Z" stroke-width="0.5"/>
<path d="M9.11268 10.0353C9.26291 10.1859 9.41315 10.1859 9.56338 10.1859C9.71362 10.1859 9.86385 10.1106 10.0141 10.0353C10.2394 9.80941 10.2394 9.35765 10.0141 9.13177L6.55869 5.66824C6.33333 5.44235 5.88263 5.44235 5.65728 5.66824C5.43192 5.89412 5.43192 6.34588 5.65728 6.57176L9.11268 10.0353Z" stroke-width="0.5"/>
<path d="M7.08451 17.0376C7.08451 16.6612 6.78404 16.4353 6.48357 16.4353H1.60094C1.22535 16.4353 1 16.7365 1 17.0376C1 17.4141 1.30047 17.64 1.60094 17.64H6.40845C6.78404 17.7153 7.08451 17.4141 7.08451 17.0376Z" stroke-width="0.5"/>
<path d="M9.11268 24.1153L5.73239 27.5035C5.50704 27.7294 5.50704 28.1812 5.73239 28.4071C5.88263 28.5576 6.03286 28.5576 6.1831 28.5576C6.33333 28.5576 6.48357 28.4824 6.6338 28.4071L10.0141 25.0188C10.2394 24.7929 10.2394 24.3412 10.0141 24.1153C9.71362 23.8141 9.33803 23.8141 9.11268 24.1153Z" stroke-width="0.5"/>
<path d="M17 26.9765C16.6244 26.9765 16.3991 27.2776 16.3991 27.5788V32.3976C16.3991 32.7741 16.6995 33 17 33C17.3756 33 17.6009 32.6988 17.6009 32.3976V27.5788C17.6761 27.2776 17.3756 26.9765 17 26.9765Z" stroke-width="0.5"/>
<path d="M24.9624 24.1153C24.7371 23.8894 24.2864 23.8894 24.061 24.1153C23.8357 24.3412 23.8357 24.7929 24.061 25.0188L27.4413 28.4071C27.5916 28.5576 27.7418 28.5576 27.892 28.5576C28.0423 28.5576 28.1925 28.4824 28.3427 28.4071C28.5681 28.1812 28.5681 27.7294 28.3427 27.5035L24.9624 24.1153Z" stroke-width="0.5"/>
<path d="M32.3991 16.4353H27.5916C27.216 16.4353 26.9906 16.7365 26.9906 17.0376C26.9906 17.3388 27.2911 17.64 27.5916 17.64H32.3991C32.7746 17.64 33 17.3388 33 17.0376C33 16.7365 32.7746 16.4353 32.3991 16.4353Z" stroke-width="0.5"/>
<path d="M24.5117 10.1859C24.662 10.1859 24.8122 10.1106 24.9624 10.0353L28.3427 6.64706C28.5681 6.42118 28.5681 5.96941 28.3427 5.74353C28.1174 5.51765 27.6667 5.51765 27.4413 5.74353L24.061 9.13177C23.8357 9.35765 23.8357 9.80941 24.061 10.0353C24.1362 10.1106 24.2864 10.1859 24.5117 10.1859Z" stroke-width="0.5"/>
</symbol><symbol viewBox="0 0 49 30" id="submenu-4" xmlns="http://www.w3.org/2000/svg">
<mask id="epath-1-inside-1_42_91">
<path d="M34.2417 5.57316V5.63245L34.0667 5.81031L34.2417 5.57316Z"/>
<path d="M31.325 3.61664H33.6583C34.5917 3.61664 35.4083 4.20952 35.7 5.09885L37.5083 9.36763C37.625 9.60478 37.5667 9.78265 37.45 10.1384C37.3333 10.3755 37.1583 10.4941 36.8667 10.4941H29.925C29.5167 10.4941 29.225 10.1977 29.225 9.72336V5.75103C29.225 4.56526 30.1583 3.61664 31.325 3.61664ZM30.5667 8.89332H35.7583L34.2417 5.57316C34.1833 5.27672 33.95 5.03956 33.6 5.03956H31.2083C30.8583 5.03956 30.5667 5.33601 30.5667 5.69174V8.89332Z"/>
<path d="M39.0833 23.7747C39.9 23.7747 40.6 24.4862 40.6 25.3162C40.6 26.1463 39.9 26.8577 39.0833 26.8577C38.6167 26.8577 38.2083 26.6799 37.9167 26.3834C37.6833 26.087 37.5667 25.7313 37.5667 25.3755C37.5667 24.4269 38.2667 23.7747 39.0833 23.7747ZM39.0833 25.8498C39.4333 25.8498 39.6667 25.5534 39.6667 25.257C39.6667 24.9012 39.375 24.6641 39.0833 24.6641C38.7333 24.6641 38.5 24.9012 38.5 25.257C38.5583 25.6127 38.85 25.8498 39.0833 25.8498Z"/>
<path d="M12.075 23.6562C12.8917 23.6562 13.5917 24.3676 13.5917 25.1977C13.5917 26.1463 12.8917 26.7985 12.0167 26.7985C11.6083 26.7985 11.2583 26.6206 10.9667 26.3241C10.675 26.0277 10.5583 25.6127 10.6167 25.1977C10.5583 24.3676 11.2583 23.6562 12.075 23.6562ZM11.9583 25.8498C12.3083 25.8498 12.5417 25.5534 12.5417 25.257C12.5417 24.9012 12.25 24.6641 11.9583 24.6641C11.6667 24.6641 11.4917 24.9605 11.4333 25.0791L11.375 25.1977C11.4333 25.6127 11.725 25.8498 11.9583 25.8498Z"/>
<path d="M38.0333 3.37948L38.0917 3.43877L37.8583 3.61664L38.0333 3.37948Z"/>
<path d="M0.816669 19.9803H2.68333V13.2214C2.68333 12.8064 3.03334 12.4506 3.44167 12.4506H24.7917V4.15024C24.7917 1.83798 26.5417 0.0593262 28.8167 0.0593262H35.4667C37.2167 0.0593262 38.7917 1.2451 39.3167 2.96446L43.4 12.4506H43.575C46.6667 12.8064 49 15.3558 49 18.5574V23.004C49 24.4862 47.775 25.7313 46.3167 25.7313H43.75L43.6917 25.9684C43.575 26.6799 43.2833 27.3321 42.875 27.9249L42.525 28.3992H44.3333C44.7417 28.3992 45.0917 28.755 45.0917 29.17C45.0917 29.585 44.7417 29.9408 44.3333 29.9408H2.85834C2.50834 29.9408 2.15834 29.5257 2.1 29.1107C2.1 28.755 2.45 28.3992 2.85834 28.3992H8.575L8.225 27.9249C7.81667 27.3321 7.525 26.6799 7.40833 25.9684L7.35 25.7313H5.425C4.60834 25.7313 3.90834 25.3755 3.38334 24.7234L3.26667 24.6048H0.758335C0.408337 24.6048 0.0583344 24.3083 0 23.7747V20.6917C0 20.336 0.350002 19.9803 0.816669 19.9803ZM38.0917 3.37948C37.8 2.31229 36.75 1.54154 35.6417 1.54154H28.9333C27.5333 1.54154 26.3667 2.72731 26.3667 4.15024V12.4506H41.9417L38.0917 3.37948ZM36.3417 26.8577C36.925 27.8657 37.975 28.4585 39.1417 28.4585C40.8333 28.4585 42.2917 27.0356 42.35 25.3162V25.257L42.2917 25.1384L42.2333 25.0791C42.2333 25.0791 42.2333 25.0198 42.2917 24.9012V24.7826C42.2333 24.1898 42 23.5969 41.5917 23.0633L41.475 22.9447H41.4167C40.5417 22.0554 39.3167 21.7589 38.15 22.1147C37.45 22.2925 36.8083 22.8261 36.4 23.5376C35.7583 24.5455 35.7583 25.7906 36.3417 26.8577ZM38.9083 20.4546C40.3083 20.3953 41.5917 20.9289 42.525 21.9961C42.7583 22.2332 42.9917 22.589 43.1667 22.8261C43.4 23.2411 43.575 23.6562 43.6333 24.1305L43.6917 24.3676H46.3167C47.0167 24.3676 47.5417 23.834 47.5417 23.1226V18.6759C47.5417 16.1265 45.5 14.0514 42.9917 14.0514H26.25V24.1898H34.5917L34.65 23.9526C34.825 23.3597 35.0583 22.8261 35.4083 22.3518C36.225 21.2253 37.5083 20.5139 38.9083 20.4546ZM35.7 28.4585L35.35 27.9842C34.9417 27.3913 34.65 26.7392 34.5333 26.0277L34.475 25.7906H16.625L16.5667 26.0277C16.45 26.7392 16.1583 27.3913 15.75 27.9842L15.4 28.4585H35.7ZM8.80833 25.3162C8.86667 27.0356 10.325 28.4585 12.0167 28.4585C13.7083 28.4585 15.1083 27.1542 15.225 25.3755V25.257C15.1667 25.1384 15.1667 25.0791 15.1667 24.9605C15.1667 24.9012 15.1667 24.8419 15.225 24.7234V24.6048C15.225 24.4862 15.1667 24.3676 15.1667 24.249C15.05 23.9526 14.9917 23.834 14.9333 23.6562C14.875 23.4783 14.8167 23.419 14.7583 23.3597C13.825 22.0554 12.075 21.5811 10.675 22.2925C10.0333 22.589 9.50834 23.1226 9.21667 23.7747C9.10001 24.0712 8.98334 24.3676 8.925 24.7234V25.0198C8.925 25.0791 8.925 25.1384 8.86666 25.257L8.80833 25.3162ZM4.2 16.838H21.525C21.9333 16.838 22.2833 17.1937 22.2833 17.6087C22.2833 18.0238 21.9333 18.3795 21.525 18.3795H4.2V22.8854C4.2 23.5969 4.725 24.1305 5.425 24.1305H7.46667L7.525 23.8933C7.7 23.2411 7.99167 22.6483 8.4 22.174C8.575 21.9368 8.80834 21.6996 8.98334 21.5811C10.0333 20.6917 11.375 20.2767 12.6583 20.4546C14 20.6917 15.1083 21.4032 15.8667 22.589C16.1 22.9447 16.3333 23.419 16.45 23.9526L16.5083 24.1898H24.7333V13.9921H4.2V16.838ZM2.68333 23.1819V22.8854C2.68333 22.7668 2.68333 22.7075 2.74166 22.6483V21.5218H1.51667V23.1819H2.68333Z"/>
<path d="M31.9083 18.3795H29.8083C29.4583 18.3795 29.05 18.0238 29.05 17.6087C29.05 17.1937 29.4 16.838 29.8083 16.838H31.9083C32.3167 16.838 32.6667 17.1937 32.6667 17.6087C32.6667 18.0238 32.3167 18.3795 31.9083 18.3795Z"/>
</mask>
<path d="M34.2417 5.57316V5.63245L34.0667 5.81031L34.2417 5.57316Z"/>
<path d="M31.325 3.61664H33.6583C34.5917 3.61664 35.4083 4.20952 35.7 5.09885L37.5083 9.36763C37.625 9.60478 37.5667 9.78265 37.45 10.1384C37.3333 10.3755 37.1583 10.4941 36.8667 10.4941H29.925C29.5167 10.4941 29.225 10.1977 29.225 9.72336V5.75103C29.225 4.56526 30.1583 3.61664 31.325 3.61664ZM30.5667 8.89332H35.7583L34.2417 5.57316C34.1833 5.27672 33.95 5.03956 33.6 5.03956H31.2083C30.8583 5.03956 30.5667 5.33601 30.5667 5.69174V8.89332Z"/>
<path d="M39.0833 23.7747C39.9 23.7747 40.6 24.4862 40.6 25.3162C40.6 26.1463 39.9 26.8577 39.0833 26.8577C38.6167 26.8577 38.2083 26.6799 37.9167 26.3834C37.6833 26.087 37.5667 25.7313 37.5667 25.3755C37.5667 24.4269 38.2667 23.7747 39.0833 23.7747ZM39.0833 25.8498C39.4333 25.8498 39.6667 25.5534 39.6667 25.257C39.6667 24.9012 39.375 24.6641 39.0833 24.6641C38.7333 24.6641 38.5 24.9012 38.5 25.257C38.5583 25.6127 38.85 25.8498 39.0833 25.8498Z"/>
<path d="M12.075 23.6562C12.8917 23.6562 13.5917 24.3676 13.5917 25.1977C13.5917 26.1463 12.8917 26.7985 12.0167 26.7985C11.6083 26.7985 11.2583 26.6206 10.9667 26.3241C10.675 26.0277 10.5583 25.6127 10.6167 25.1977C10.5583 24.3676 11.2583 23.6562 12.075 23.6562ZM11.9583 25.8498C12.3083 25.8498 12.5417 25.5534 12.5417 25.257C12.5417 24.9012 12.25 24.6641 11.9583 24.6641C11.6667 24.6641 11.4917 24.9605 11.4333 25.0791L11.375 25.1977C11.4333 25.6127 11.725 25.8498 11.9583 25.8498Z"/>
<path d="M38.0333 3.37948L38.0917 3.43877L37.8583 3.61664L38.0333 3.37948Z"/>
<path d="M0.816669 19.9803H2.68333V13.2214C2.68333 12.8064 3.03334 12.4506 3.44167 12.4506H24.7917V4.15024C24.7917 1.83798 26.5417 0.0593262 28.8167 0.0593262H35.4667C37.2167 0.0593262 38.7917 1.2451 39.3167 2.96446L43.4 12.4506H43.575C46.6667 12.8064 49 15.3558 49 18.5574V23.004C49 24.4862 47.775 25.7313 46.3167 25.7313H43.75L43.6917 25.9684C43.575 26.6799 43.2833 27.3321 42.875 27.9249L42.525 28.3992H44.3333C44.7417 28.3992 45.0917 28.755 45.0917 29.17C45.0917 29.585 44.7417 29.9408 44.3333 29.9408H2.85834C2.50834 29.9408 2.15834 29.5257 2.1 29.1107C2.1 28.755 2.45 28.3992 2.85834 28.3992H8.575L8.225 27.9249C7.81667 27.3321 7.525 26.6799 7.40833 25.9684L7.35 25.7313H5.425C4.60834 25.7313 3.90834 25.3755 3.38334 24.7234L3.26667 24.6048H0.758335C0.408337 24.6048 0.0583344 24.3083 0 23.7747V20.6917C0 20.336 0.350002 19.9803 0.816669 19.9803ZM38.0917 3.37948C37.8 2.31229 36.75 1.54154 35.6417 1.54154H28.9333C27.5333 1.54154 26.3667 2.72731 26.3667 4.15024V12.4506H41.9417L38.0917 3.37948ZM36.3417 26.8577C36.925 27.8657 37.975 28.4585 39.1417 28.4585C40.8333 28.4585 42.2917 27.0356 42.35 25.3162V25.257L42.2917 25.1384L42.2333 25.0791C42.2333 25.0791 42.2333 25.0198 42.2917 24.9012V24.7826C42.2333 24.1898 42 23.5969 41.5917 23.0633L41.475 22.9447H41.4167C40.5417 22.0554 39.3167 21.7589 38.15 22.1147C37.45 22.2925 36.8083 22.8261 36.4 23.5376C35.7583 24.5455 35.7583 25.7906 36.3417 26.8577ZM38.9083 20.4546C40.3083 20.3953 41.5917 20.9289 42.525 21.9961C42.7583 22.2332 42.9917 22.589 43.1667 22.8261C43.4 23.2411 43.575 23.6562 43.6333 24.1305L43.6917 24.3676H46.3167C47.0167 24.3676 47.5417 23.834 47.5417 23.1226V18.6759C47.5417 16.1265 45.5 14.0514 42.9917 14.0514H26.25V24.1898H34.5917L34.65 23.9526C34.825 23.3597 35.0583 22.8261 35.4083 22.3518C36.225 21.2253 37.5083 20.5139 38.9083 20.4546ZM35.7 28.4585L35.35 27.9842C34.9417 27.3913 34.65 26.7392 34.5333 26.0277L34.475 25.7906H16.625L16.5667 26.0277C16.45 26.7392 16.1583 27.3913 15.75 27.9842L15.4 28.4585H35.7ZM8.80833 25.3162C8.86667 27.0356 10.325 28.4585 12.0167 28.4585C13.7083 28.4585 15.1083 27.1542 15.225 25.3755V25.257C15.1667 25.1384 15.1667 25.0791 15.1667 24.9605C15.1667 24.9012 15.1667 24.8419 15.225 24.7234V24.6048C15.225 24.4862 15.1667 24.3676 15.1667 24.249C15.05 23.9526 14.9917 23.834 14.9333 23.6562C14.875 23.4783 14.8167 23.419 14.7583 23.3597C13.825 22.0554 12.075 21.5811 10.675 22.2925C10.0333 22.589 9.50834 23.1226 9.21667 23.7747C9.10001 24.0712 8.98334 24.3676 8.925 24.7234V25.0198C8.925 25.0791 8.925 25.1384 8.86666 25.257L8.80833 25.3162ZM4.2 16.838H21.525C21.9333 16.838 22.2833 17.1937 22.2833 17.6087C22.2833 18.0238 21.9333 18.3795 21.525 18.3795H4.2V22.8854C4.2 23.5969 4.725 24.1305 5.425 24.1305H7.46667L7.525 23.8933C7.7 23.2411 7.99167 22.6483 8.4 22.174C8.575 21.9368 8.80834 21.6996 8.98334 21.5811C10.0333 20.6917 11.375 20.2767 12.6583 20.4546C14 20.6917 15.1083 21.4032 15.8667 22.589C16.1 22.9447 16.3333 23.419 16.45 23.9526L16.5083 24.1898H24.7333V13.9921H4.2V16.838ZM2.68333 23.1819V22.8854C2.68333 22.7668 2.68333 22.7075 2.74166 22.6483V21.5218H1.51667V23.1819H2.68333Z"/>
<path d="M31.9083 18.3795H29.8083C29.4583 18.3795 29.05 18.0238 29.05 17.6087C29.05 17.1937 29.4 16.838 29.8083 16.838H31.9083C32.3167 16.838 32.6667 17.1937 32.6667 17.6087C32.6667 18.0238 32.3167 18.3795 31.9083 18.3795Z"/>
<path d="M34.2417 5.63245H35.2417V6.04191L34.9545 6.33379L34.2417 5.63245ZM34.0667 5.81031L34.7795 6.51166L33.262 5.21655L34.0667 5.81031ZM35.7 5.09885L34.7792 5.48891L34.7629 5.45032L34.7498 5.41048L35.7 5.09885ZM37.5083 9.36763L36.611 9.80905L36.5986 9.7837L36.5875 9.75769L37.5083 9.36763ZM37.45 10.1384L38.4002 10.45L38.3783 10.5168L38.3473 10.5798L37.45 10.1384ZM29.225 5.75103H28.225H29.225ZM30.5667 8.89332V9.89332H29.5667V8.89332H30.5667ZM35.7583 8.89332L36.6679 8.47781L37.3145 9.89332H35.7583V8.89332ZM37.9167 26.3834L37.2038 27.0848L37.1651 27.0454L37.1309 27.0019L37.9167 26.3834ZM38.5 25.257L37.5132 25.4188L37.5 25.3384V25.257H38.5ZM10.6167 25.1977L11.6142 25.1276L11.6216 25.2326L11.6069 25.3369L10.6167 25.1977ZM11.4333 25.0791L12.3306 25.5205L12.3306 25.5205L11.4333 25.0791ZM11.375 25.1977L10.3847 25.3369L10.3419 25.0323L10.4777 24.7562L11.375 25.1977ZM38.0333 3.37948L37.2287 2.78572L37.9244 1.84292L38.7462 2.67815L38.0333 3.37948ZM38.0917 3.43877L38.8045 2.73744L39.6002 3.54622L38.6979 4.23406L38.0917 3.43877ZM37.8583 3.61664L38.4646 4.41192L37.0537 3.02288L37.8583 3.61664ZM2.68333 19.9803H3.68333V20.9803H2.68333V19.9803ZM24.7917 12.4506H25.7917V13.4506H24.7917V12.4506ZM39.3167 2.96446L38.3981 3.35984L38.3764 3.30921L38.3603 3.2565L39.3167 2.96446ZM43.4 12.4506V13.4506H42.7417L42.4815 12.846L43.4 12.4506ZM43.575 12.4506V11.4506H43.6323L43.6893 11.4572L43.575 12.4506ZM43.75 25.7313L42.7789 25.4924L42.9662 24.7313H43.75V25.7313ZM43.6917 25.9684L42.7048 25.8066L42.7112 25.7678L42.7206 25.7296L43.6917 25.9684ZM42.875 27.9249L43.6986 28.4922L43.6893 28.5056L43.6796 28.5187L42.875 27.9249ZM42.525 28.3992V29.3992H40.5443L41.7204 27.8055L42.525 28.3992ZM2.1 29.1107L1.10974 29.2499L1.1 29.1806V29.1107H2.1ZM8.575 28.3992L9.37965 27.8055L10.5557 29.3992H8.575V28.3992ZM8.225 27.9249L7.42036 28.5187L7.41068 28.5056L7.40143 28.4922L8.225 27.9249ZM7.40833 25.9684L8.37939 25.7296L8.38879 25.7678L8.39515 25.8066L7.40833 25.9684ZM7.35 25.7313V24.7313H8.13385L8.32106 25.4924L7.35 25.7313ZM3.38334 24.7234L4.09615 24.022L4.13107 24.0575L4.1623 24.0963L3.38334 24.7234ZM3.26667 24.6048V23.6048H3.68563L3.97948 23.9034L3.26667 24.6048ZM0 23.7747L-0.994076 23.8834L-1 23.8292V23.7747H0ZM0 20.6917H1H0ZM38.0917 3.37948L37.1711 3.77017L37.1448 3.70813L37.127 3.64312L38.0917 3.37948ZM26.3667 12.4506V13.4506H25.3667V12.4506H26.3667ZM41.9417 12.4506L42.8622 12.0599L43.4524 13.4506H41.9417V12.4506ZM36.3417 26.8577L35.4762 27.3587L35.4701 27.3481L35.4642 27.3374L36.3417 26.8577ZM42.35 25.3162H43.35V25.3332L43.3494 25.3501L42.35 25.3162ZM42.35 25.257L43.2473 24.8155L43.35 25.0243V25.257H42.35ZM42.2917 25.1384L43.0045 24.437L43.1177 24.5521L43.189 24.697L42.2917 25.1384ZM42.2333 25.0791L41.5205 25.7804L41.2333 25.4886L41.2333 25.0791L42.2333 25.0791ZM42.2917 24.9012H43.2917V25.1339L43.189 25.3426L42.2917 24.9012ZM42.2917 24.7826L43.2869 24.6847L43.2917 24.7336V24.7826H42.2917ZM41.5917 23.0633L42.3045 22.3619L42.3481 22.4062L42.3858 22.4556L41.5917 23.0633ZM41.475 22.9447V21.9447H41.894L42.1878 22.2434L41.475 22.9447ZM41.4167 22.9447V23.9447H40.9977L40.7038 23.646L41.4167 22.9447ZM38.15 22.1147L38.4417 23.0712L38.4191 23.0781L38.3963 23.0839L38.15 22.1147ZM36.4 23.5376L37.2673 24.0354L37.2559 24.0553L37.2436 24.0746L36.4 23.5376ZM42.525 21.9961L41.8122 22.6974L41.7916 22.6765L41.7723 22.6544L42.525 21.9961ZM43.1667 22.8261L43.9713 22.2324L44.008 22.2821L44.0383 22.336L43.1667 22.8261ZM43.6333 24.1305L42.6623 24.3693L42.6481 24.3116L42.6408 24.2525L43.6333 24.1305ZM43.6917 24.3676V25.3676H42.9078L42.7206 24.6065L43.6917 24.3676ZM26.25 14.0514H25.25V13.0514H26.25V14.0514ZM26.25 24.1898V25.1898H25.25V24.1898H26.25ZM34.5917 24.1898L35.5627 24.4286L35.3755 25.1898H34.5917V24.1898ZM34.65 23.9526L33.6789 23.7138L33.6844 23.6915L33.6909 23.6695L34.65 23.9526ZM35.4083 22.3518L36.218 22.9388L36.213 22.9456L35.4083 22.3518ZM35.7 28.4585L36.5046 27.8648L37.6807 29.4585H35.7V28.4585ZM35.35 27.9842L34.5454 28.578L34.5357 28.5649L34.5264 28.5514L35.35 27.9842ZM34.5333 26.0277L35.5044 25.7888L35.5138 25.8271L35.5202 25.8659L34.5333 26.0277ZM34.475 25.7906V24.7906H35.2588L35.4461 25.5517L34.475 25.7906ZM16.625 25.7906L15.6539 25.5517L15.8412 24.7906H16.625V25.7906ZM16.5667 26.0277L15.5798 25.8659L15.5862 25.8271L15.5956 25.7889L16.5667 26.0277ZM15.75 27.9842L16.5736 28.5514L16.5643 28.5649L16.5546 28.578L15.75 27.9842ZM15.4 28.4585V29.4585H13.4193L14.5954 27.8648L15.4 28.4585ZM8.80833 25.3162L7.80891 25.3501L7.79435 24.921L8.09549 24.6149L8.80833 25.3162ZM15.225 25.3755H16.225V25.4083L16.2229 25.441L15.225 25.3755ZM15.225 25.257L16.1223 24.8155L16.225 25.0243V25.257H15.225ZM15.225 24.7234H16.225V24.956L16.1223 25.1648L15.225 24.7234ZM15.1667 24.249L16.0972 23.8828L16.1667 24.0594V24.249H15.1667ZM14.7583 23.3597L14.0455 24.0611L13.9906 24.0053L13.9451 23.9416L14.7583 23.3597ZM10.675 22.2925L11.128 23.184L11.1114 23.1925L11.0944 23.2003L10.675 22.2925ZM9.21667 23.7747L8.28614 23.4085L8.29449 23.3873L8.3038 23.3665L9.21667 23.7747ZM8.925 24.7234H7.925V24.6419L7.93818 24.5615L8.925 24.7234ZM8.86666 25.257L9.76397 25.6984L9.69271 25.8432L9.57951 25.9583L8.86666 25.257ZM4.2 16.838V17.838H3.2V16.838H4.2ZM4.2 18.3795H3.2V17.3795H4.2V18.3795ZM7.46667 24.1305L8.43773 24.3693L8.25051 25.1305H7.46667V24.1305ZM7.525 23.8933L6.55394 23.6545L6.55645 23.6443L6.55917 23.6342L7.525 23.8933ZM8.4 22.174L9.20464 22.7677L9.18235 22.7979L9.15785 22.8264L8.4 22.174ZM8.98334 21.5811L9.62965 22.3441L9.5887 22.3788L9.54428 22.4089L8.98334 21.5811ZM12.6583 20.4546L12.7956 19.4641L12.8141 19.4666L12.8324 19.4698L12.6583 20.4546ZM15.8667 22.589L15.0304 23.1375L15.0242 23.1277L15.8667 22.589ZM16.45 23.9526L15.4789 24.1915L15.4758 24.1789L15.4731 24.1662L16.45 23.9526ZM16.5083 24.1898V25.1898H15.7245L15.5373 24.4286L16.5083 24.1898ZM24.7333 24.1898H25.7333V25.1898H24.7333V24.1898ZM24.7333 13.9921V12.9921H25.7333V13.9921H24.7333ZM4.2 13.9921H3.2V12.9921H4.2V13.9921ZM2.68333 23.1819H3.68333V24.1819H2.68333V23.1819ZM2.74166 22.6483H3.74166V23.0577L3.45449 23.3496L2.74166 22.6483ZM2.74166 21.5218V20.5218H3.74166V21.5218H2.74166ZM1.51667 21.5218H0.516666V20.5218H1.51667V21.5218ZM1.51667 23.1819V24.1819H0.516666V23.1819H1.51667ZM32.6667 17.6087H33.6667H32.6667ZM34.2417 5.57316H35.2417V5.63245H34.2417H33.2417V5.57316H34.2417ZM34.2417 5.63245L34.9545 6.33379L34.7795 6.51166L34.0667 5.81031L33.3538 5.10897L33.5288 4.93111L34.2417 5.63245ZM34.0667 5.81031L33.262 5.21655L33.437 4.9794L34.2417 5.57316L35.0463 6.16692L34.8713 6.40407L34.0667 5.81031ZM31.325 3.61664V2.61664H33.6583V3.61664V4.61664H31.325V3.61664ZM33.6583 3.61664V2.61664C35.0255 2.61664 36.2244 3.48878 36.6502 4.78722L35.7 5.09885L34.7498 5.41048C34.5923 4.93027 34.1578 4.61664 33.6583 4.61664V3.61664ZM35.7 5.09885L36.6208 4.70879L38.4291 8.97756L37.5083 9.36763L36.5875 9.75769L34.7792 5.48891L35.7 5.09885ZM37.5083 9.36763L38.4056 8.92621C38.7304 9.58645 38.4921 10.1697 38.4002 10.45L37.45 10.1384L36.4998 9.82675C36.5147 9.78134 36.5269 9.74397 36.5379 9.70953C36.5488 9.67544 36.5568 9.64899 36.563 9.62731C36.576 9.58144 36.5757 9.5737 36.5741 9.58647C36.5719 9.60486 36.5692 9.64631 36.578 9.6999C36.5868 9.75362 36.6026 9.79188 36.611 9.80905L37.5083 9.36763ZM37.45 10.1384L38.3473 10.5798C38.23 10.8183 38.046 11.0705 37.7542 11.253C37.4625 11.4355 37.1496 11.4941 36.8667 11.4941V10.4941V9.49411C36.8754 9.49411 36.7958 9.49347 36.6937 9.55736C36.646 9.58714 36.61 9.62106 36.5851 9.65064C36.5615 9.67867 36.5524 9.69763 36.5527 9.69696L37.45 10.1384ZM36.8667 10.4941V11.4941H29.925V10.4941V9.49411H36.8667V10.4941ZM29.925 10.4941V11.4941C29.4687 11.4941 29.0194 11.3225 28.6893 10.9673C28.3639 10.6171 28.225 10.166 28.225 9.72336H29.225H30.225C30.225 9.75499 30.2319 9.68927 30.1544 9.60589C30.0723 9.5175 29.9729 9.49411 29.925 9.49411V10.4941ZM29.225 9.72336H28.225V5.75103H29.225H30.225V9.72336H29.225ZM29.225 5.75103H28.225C28.225 4.02834 29.5908 2.61664 31.325 2.61664V3.61664V4.61664C30.7259 4.61664 30.225 5.10217 30.225 5.75103H29.225ZM30.5667 8.89332V7.89332H35.7583V8.89332V9.89332H30.5667V8.89332ZM35.7583 8.89332L34.8487 9.30882L33.3321 5.98867L34.2417 5.57316L35.1513 5.15765L36.6679 8.47781L35.7583 8.89332ZM34.2417 5.57316L33.2605 5.76624C33.2699 5.81429 33.299 5.88374 33.3692 5.94559C33.4467 6.01382 33.5373 6.03956 33.6 6.03956V5.03956V4.03956C34.4851 4.03956 35.0838 4.67336 35.2229 5.38009L34.2417 5.57316ZM33.6 5.03956V6.03956H31.2083V5.03956V4.03956H33.6V5.03956ZM31.2083 5.03956V6.03956C31.4259 6.03956 31.5667 5.87291 31.5667 5.69174H30.5667H29.5667C29.5667 4.7991 30.2908 4.03956 31.2083 4.03956V5.03956ZM30.5667 5.69174H31.5667V8.89332H30.5667H29.5667V5.69174H30.5667ZM39.0833 23.7747V22.7747C40.4675 22.7747 41.6 23.9493 41.6 25.3162H40.6H39.6C39.6 25.0231 39.3325 24.7747 39.0833 24.7747V23.7747ZM40.6 25.3162H41.6C41.6 26.6832 40.4675 27.8577 39.0833 27.8577V26.8577V25.8577C39.3325 25.8577 39.6 25.6094 39.6 25.3162H40.6ZM39.0833 26.8577V27.8577C38.3547 27.8577 37.6877 27.5766 37.2038 27.0848L37.9167 26.3834L38.6295 25.6821C38.729 25.7832 38.8786 25.8577 39.0833 25.8577V26.8577ZM37.9167 26.3834L37.1309 27.0019C36.7556 26.5251 36.5667 25.9504 36.5667 25.3755H37.5667H38.5667C38.5667 25.5121 38.6111 25.6489 38.7025 25.7649L37.9167 26.3834ZM37.5667 25.3755H36.5667C36.5667 23.89 37.6991 22.7747 39.0833 22.7747V23.7747V24.7747C38.9454 24.7747 38.8224 24.8285 38.7316 24.9207C38.6442 25.0096 38.5667 25.1555 38.5667 25.3755H37.5667ZM39.0833 25.8498V24.8498C38.9584 24.8498 38.8431 24.9083 38.7697 24.9882C38.7058 25.0578 38.6667 25.1497 38.6667 25.257H39.6667H40.6667C40.6667 26.0237 40.0641 26.8498 39.0833 26.8498V25.8498ZM39.6667 25.257H38.6667C38.6667 25.3676 38.717 25.4775 38.7962 25.5526C38.8656 25.6185 38.9636 25.6641 39.0833 25.6641V24.6641V23.6641C39.8769 23.6641 40.6667 24.2999 40.6667 25.257H39.6667ZM39.0833 24.6641V25.6641C39.1405 25.6641 39.2636 25.6399 39.3732 25.5285C39.4815 25.4185 39.5 25.3015 39.5 25.257H38.5H37.5C37.5 24.8567 37.6352 24.4433 37.9476 24.1258C38.2614 23.8068 38.6762 23.6641 39.0833 23.6641V24.6641ZM38.5 25.257L39.4868 25.0951C39.4784 25.0441 39.4531 24.9981 39.4143 24.9613C39.3945 24.9426 39.3633 24.9185 39.3162 24.897C39.2708 24.8764 39.1917 24.8498 39.0833 24.8498V25.8498V26.8498C38.6464 26.8498 38.2805 26.6425 38.0378 26.4123C37.7802 26.168 37.5799 25.8256 37.5132 25.4188L38.5 25.257ZM12.075 23.6562V22.6562C13.4592 22.6562 14.5917 23.8307 14.5917 25.1977H13.5917H12.5917C12.5917 24.9045 12.3241 24.6562 12.075 24.6562V23.6562ZM13.5917 25.1977H14.5917C14.5917 26.7077 13.4347 27.7985 12.0167 27.7985V26.7985V25.7985C12.3486 25.7985 12.5917 25.5848 12.5917 25.1977H13.5917ZM12.0167 26.7985V27.7985C11.2863 27.7985 10.6919 27.4707 10.2538 27.0255L10.9667 26.3241L11.6795 25.6228C11.8248 25.7705 11.9304 25.7985 12.0167 25.7985V26.7985ZM10.9667 26.3241L10.2538 27.0255C9.71873 26.4816 9.53003 25.7441 9.6264 25.0585L10.6167 25.1977L11.6069 25.3369C11.5866 25.4813 11.6313 25.5738 11.6795 25.6228L10.9667 26.3241ZM10.6167 25.1977L9.61913 25.2678C9.51828 23.8328 10.7053 22.6562 12.075 22.6562V23.6562V24.6562C11.9595 24.6562 11.8354 24.7076 11.7398 24.8074C11.6461 24.9053 11.6067 25.0204 11.6142 25.1276L10.6167 25.1977ZM11.9583 25.8498V24.8498C11.8334 24.8498 11.7181 24.9083 11.6447 24.9882C11.5808 25.0578 11.5417 25.1497 11.5417 25.257H12.5417H13.5417C13.5417 26.0237 12.9392 26.8498 11.9583 26.8498V25.8498ZM12.5417 25.257H11.5417C11.5417 25.3676 11.592 25.4775 11.6712 25.5526C11.7406 25.6185 11.8386 25.6641 11.9583 25.6641V24.6641V23.6641C12.7519 23.6641 13.5417 24.2999 13.5417 25.257H12.5417ZM11.9583 24.6641V25.6641C12.1773 25.6641 12.3016 25.5484 12.3212 25.5285C12.3395 25.5099 12.337 25.5076 12.3306 25.5205L11.4333 25.0791L10.536 24.6377C10.588 24.532 10.7022 24.3222 10.8955 24.1258C11.0901 23.928 11.4477 23.6641 11.9583 23.6641V24.6641ZM11.4333 25.0791L12.3306 25.5205L12.2723 25.6391L11.375 25.1977L10.4777 24.7562L10.536 24.6377L11.4333 25.0791ZM11.375 25.1977L12.3653 25.0585C12.3657 25.0619 12.3605 25.0255 12.3139 24.978C12.2809 24.9445 12.1684 24.8498 11.9583 24.8498V25.8498V26.8498C11.0951 26.8498 10.4925 26.1032 10.3847 25.3369L11.375 25.1977ZM38.0333 3.37948L38.7462 2.67815L38.8045 2.73744L38.0917 3.43877L37.3788 4.14011L37.3205 4.08082L38.0333 3.37948ZM38.0917 3.43877L38.6979 4.23406L38.4646 4.41192L37.8583 3.61664L37.2521 2.82135L37.4854 2.64349L38.0917 3.43877ZM37.8583 3.61664L37.0537 3.02288L37.2287 2.78572L38.0333 3.37948L38.838 3.97324L38.663 4.2104L37.8583 3.61664ZM0.816669 19.9803V18.9803H2.68333V19.9803V20.9803H0.816669V19.9803ZM2.68333 19.9803H1.68333V13.2214H2.68333H3.68333V19.9803H2.68333ZM2.68333 13.2214H1.68333C1.68333 12.2695 2.4658 11.4506 3.44167 11.4506V12.4506V13.4506C3.53233 13.4506 3.59243 13.412 3.6222 13.3817C3.65203 13.3514 3.68333 13.2978 3.68333 13.2214H2.68333ZM3.44167 12.4506V11.4506H24.7917V12.4506V13.4506H3.44167V12.4506ZM24.7917 12.4506H23.7917V4.15024H24.7917H25.7917V12.4506H24.7917ZM24.7917 4.15024H23.7917C23.7917 1.30107 25.9741 -0.940674 28.8167 -0.940674V0.0593262V1.05933C27.1092 1.05933 25.7917 2.37489 25.7917 4.15024H24.7917ZM28.8167 0.0593262V-0.940674H35.4667V0.0593262V1.05933H28.8167V0.0593262ZM35.4667 0.0593262V-0.940674C37.6711 -0.940674 39.624 0.546623 40.2731 2.67243L39.3167 2.96446L38.3603 3.2565C37.9594 1.94357 36.7622 1.05933 35.4667 1.05933V0.0593262ZM39.3167 2.96446L40.2352 2.56909L44.3185 12.0553L43.4 12.4506L42.4815 12.846L38.3981 3.35984L39.3167 2.96446ZM43.4 12.4506V11.4506H43.575V12.4506V13.4506H43.4V12.4506ZM43.575 12.4506L43.6893 11.4572C47.281 11.8705 50 14.843 50 18.5574H49H48C48 15.8685 46.0523 13.7423 43.4607 13.4441L43.575 12.4506ZM49 18.5574H50V23.004H49H48V18.5574H49ZM49 23.004H50C50 25.0231 48.3425 26.7313 46.3167 26.7313V25.7313V24.7313C47.2075 24.7313 48 23.9493 48 23.004H49ZM46.3167 25.7313V26.7313H43.75V25.7313V24.7313H46.3167V25.7313ZM43.75 25.7313L44.7211 25.9701L44.6627 26.2073L43.6917 25.9684L42.7206 25.7296L42.7789 25.4924L43.75 25.7313ZM43.6917 25.9684L44.6785 26.1302C44.534 27.0117 44.1753 27.8 43.6986 28.4922L42.875 27.9249L42.0514 27.3577C42.3914 26.8641 42.616 26.3481 42.7048 25.8066L43.6917 25.9684ZM42.875 27.9249L43.6796 28.5187L43.3296 28.993L42.525 28.3992L41.7204 27.8055L42.0704 27.3312L42.875 27.9249ZM42.525 28.3992V27.3992H44.3333V28.3992V29.3992H42.525V28.3992ZM44.3333 28.3992V27.3992C45.3092 27.3992 46.0917 28.2181 46.0917 29.17H45.0917H44.0917C44.0917 29.2464 44.123 29.3 44.1528 29.3303C44.1826 29.3606 44.2427 29.3992 44.3333 29.3992V28.3992ZM45.0917 29.17H46.0917C46.0917 30.1219 45.3092 30.9408 44.3333 30.9408V29.9408V28.9408C44.2427 28.9408 44.1826 28.9794 44.1528 29.0097C44.123 29.04 44.0917 29.0936 44.0917 29.17H45.0917ZM44.3333 29.9408V30.9408H2.85834V29.9408V28.9408H44.3333V29.9408ZM2.85834 29.9408V30.9408C2.29274 30.9408 1.86768 30.6213 1.62287 30.3463C1.36474 30.0563 1.1687 29.6694 1.10974 29.2499L2.1 29.1107L3.09027 28.9715C3.08916 28.9636 3.08899 28.9693 3.09615 28.9843C3.10321 28.9991 3.11164 29.0108 3.11672 29.0165C3.1228 29.0233 3.11374 29.0104 3.08048 28.9922C3.04669 28.9737 2.97023 28.9408 2.85834 28.9408V29.9408ZM2.1 29.1107H1.1C1.1 28.6094 1.33872 28.184 1.63243 27.9012C1.93187 27.6129 2.36222 27.3992 2.85834 27.3992V28.3992V29.3992C2.94612 29.3992 2.9973 29.3635 3.01966 29.3419C3.03629 29.3259 3.1 29.2562 3.1 29.1107H2.1ZM2.85834 28.3992V27.3992H8.575V28.3992V29.3992H2.85834V28.3992ZM8.575 28.3992L7.77036 28.993L7.42036 28.5187L8.225 27.9249L9.02965 27.3312L9.37965 27.8055L8.575 28.3992ZM8.225 27.9249L7.40143 28.4922C6.92475 27.8 6.56605 27.0117 6.42151 26.1302L7.40833 25.9684L8.39515 25.8066C8.48395 26.3481 8.70859 26.8641 9.04857 27.3577L8.225 27.9249ZM7.40833 25.9684L6.43727 26.2073L6.37894 25.9701L7.35 25.7313L8.32106 25.4924L8.37939 25.7296L7.40833 25.9684ZM7.35 25.7313V26.7313H5.425V25.7313V24.7313H7.35V25.7313ZM5.425 25.7313V26.7313C4.28374 26.7313 3.30503 26.2208 2.60437 25.3504L3.38334 24.7234L4.1623 24.0963C4.51163 24.5302 4.93293 24.7313 5.425 24.7313V25.7313ZM3.38334 24.7234L2.67052 25.4247L2.55386 25.3061L3.26667 24.6048L3.97948 23.9034L4.09615 24.022L3.38334 24.7234ZM3.26667 24.6048V25.6048H0.758335V24.6048V23.6048H3.26667V24.6048ZM0.758335 24.6048V25.6048C-0.209949 25.6048 -0.892887 24.809 -0.994076 23.8834L0 23.7747L0.994076 23.6661C1.00172 23.736 1.01965 23.7262 0.982616 23.6885C0.947659 23.653 0.87133 23.6048 0.758335 23.6048V24.6048ZM0 23.7747H-1V20.6917H0H1V23.7747H0ZM0 20.6917H-1C-1 19.7017 -0.116528 18.9803 0.816669 18.9803V19.9803V20.9803C0.841625 20.9803 0.876118 20.9699 0.908283 20.9405C0.932293 20.9185 1 20.8413 1 20.6917H0ZM38.0917 3.37948L37.127 3.64312C36.9593 3.02918 36.3187 2.54154 35.6417 2.54154V1.54154V0.54154C37.1813 0.54154 38.6407 1.5954 39.0563 3.11585L38.0917 3.37948ZM35.6417 1.54154V2.54154H28.9333V1.54154V0.54154H35.6417V1.54154ZM28.9333 1.54154V2.54154C28.1009 2.54154 27.3667 3.26422 27.3667 4.15024H26.3667H25.3667C25.3667 2.1904 26.9658 0.54154 28.9333 0.54154V1.54154ZM26.3667 4.15024H27.3667V12.4506H26.3667H25.3667V4.15024H26.3667ZM26.3667 12.4506V11.4506H41.9417V12.4506V13.4506H26.3667V12.4506ZM41.9417 12.4506L41.0211 12.8413L37.1711 3.77017L38.0917 3.37948L39.0122 2.98879L42.8622 12.0599L41.9417 12.4506ZM36.3417 26.8577L37.2072 26.3568C37.6078 27.049 38.3239 27.4585 39.1417 27.4585V28.4585V29.4585C37.6261 29.4585 36.2422 28.6823 35.4762 27.3587L36.3417 26.8577ZM39.1417 28.4585V27.4585C40.2832 27.4585 41.3101 26.474 41.3506 25.2823L42.35 25.3162L43.3494 25.3501C43.2732 27.5972 41.3835 29.4585 39.1417 29.4585V28.4585ZM42.35 25.3162H41.35V25.257H42.35H43.35V25.3162H42.35ZM42.35 25.257L41.4527 25.6984L41.3944 25.5798L42.2917 25.1384L43.189 24.697L43.2473 24.8155L42.35 25.257ZM42.2917 25.1384L41.5789 25.8397L41.5205 25.7804L42.2333 25.0791L42.9461 24.3777L43.0045 24.437L42.2917 25.1384ZM42.2333 25.0791C41.2333 25.0791 41.2333 25.0786 41.2333 25.0781C41.2333 25.078 41.2333 25.0775 41.2333 25.0772C41.2333 25.0765 41.2333 25.0759 41.2333 25.0752C41.2333 25.0739 41.2334 25.0726 41.2334 25.0714C41.2334 25.0688 41.2334 25.0662 41.2335 25.0635C41.2335 25.0583 41.2337 25.053 41.2338 25.0477C41.2341 25.037 41.2346 25.026 41.2353 25.0149C41.2367 24.9927 41.2388 24.9697 41.2417 24.9459C41.2476 24.8983 41.2567 24.8482 41.2696 24.7958C41.2954 24.6907 41.336 24.5785 41.3944 24.4598L42.2917 24.9012L43.189 25.3426C43.189 25.3427 43.1918 25.3368 43.1961 25.3252C43.2004 25.3135 43.2061 25.2963 43.2117 25.2735C43.2173 25.2507 43.2227 25.2228 43.2268 25.19C43.2288 25.1737 43.2304 25.1562 43.2316 25.1377C43.2321 25.1284 43.2326 25.1189 43.2329 25.1091C43.233 25.1042 43.2331 25.0993 43.2332 25.0943C43.2333 25.0918 43.2333 25.0893 43.2333 25.0867C43.2333 25.0855 43.2333 25.0842 43.2333 25.0829C43.2333 25.0823 43.2333 25.0817 43.2333 25.081C43.2333 25.0807 43.2333 25.0802 43.2333 25.0801C43.2333 25.0796 43.2333 25.0791 42.2333 25.0791ZM42.2917 24.7826L41.2965 24.8806C41.2574 24.4839 41.0995 24.0656 40.7975 23.671L41.5917 23.0633L42.3858 22.4556C42.9005 23.1281 43.2092 23.8956 43.2869 24.6847L42.2917 24.7826ZM41.5917 23.0633L40.8788 23.7646L40.7622 23.646L41.475 22.9447L42.1878 22.2434L42.3045 22.3619L41.5917 23.0633ZM41.475 22.9447V23.9447H41.4167V22.9447V21.9447H41.475V22.9447ZM41.4167 22.9447L40.7038 23.646C40.0934 23.0256 39.2567 22.8227 38.4417 23.0712L38.15 22.1147L37.8583 21.1581C39.3767 20.6952 40.99 21.0852 42.1295 22.2434L41.4167 22.9447ZM38.15 22.1147L38.3963 23.0839C38.0074 23.1827 37.5683 23.511 37.2673 24.0354L36.4 23.5376L35.5327 23.0398C36.0484 22.1413 36.8926 21.4024 37.9037 21.1455L38.15 22.1147ZM36.4 23.5376L37.2436 24.0746C36.8144 24.7487 36.795 25.6022 37.2191 26.3781L36.3417 26.8577L35.4642 27.3374C34.7216 25.9789 34.7023 24.3422 35.5564 23.0005L36.4 23.5376ZM38.9083 20.4546L38.866 19.4555C40.5625 19.3836 42.1405 20.0375 43.2777 21.3378L42.525 21.9961L41.7723 22.6544C41.0428 21.8203 40.0541 21.407 38.9506 21.4537L38.9083 20.4546ZM42.525 21.9961L43.2378 21.2947C43.5375 21.5993 43.8524 22.0713 43.9713 22.2324L43.1667 22.8261L42.362 23.4199C42.1309 23.1067 41.9792 22.8672 41.8122 22.6974L42.525 21.9961ZM43.1667 22.8261L44.0383 22.336C44.3063 22.8126 44.5457 23.3563 44.6259 24.0084L43.6333 24.1305L42.6408 24.2525C42.6043 23.956 42.4937 23.6697 42.295 23.3162L43.1667 22.8261ZM43.6333 24.1305L44.6044 23.8916L44.6627 24.1288L43.6917 24.3676L42.7206 24.6065L42.6623 24.3693L43.6333 24.1305ZM43.6917 24.3676V23.3676H46.3167V24.3676V25.3676H43.6917V24.3676ZM46.3167 24.3676V23.3676C46.4047 23.3676 46.4523 23.3375 46.4788 23.3106C46.5061 23.2828 46.5417 23.2267 46.5417 23.1226H47.5417H48.5417C48.5417 24.3709 47.5842 25.3676 46.3167 25.3676V24.3676ZM47.5417 23.1226H46.5417V18.6759H47.5417H48.5417V23.1226H47.5417ZM47.5417 18.6759H46.5417C46.5417 16.6634 44.9325 15.0514 42.9917 15.0514V14.0514V13.0514C46.0675 13.0514 48.5417 15.5896 48.5417 18.6759H47.5417ZM42.9917 14.0514V15.0514H26.25V14.0514V13.0514H42.9917V14.0514ZM26.25 14.0514H27.25V24.1898H26.25H25.25V14.0514H26.25ZM26.25 24.1898V23.1898H34.5917V24.1898V25.1898H26.25V24.1898ZM34.5917 24.1898L33.6206 23.9509L33.6789 23.7138L34.65 23.9526L35.6211 24.1915L35.5627 24.4286L34.5917 24.1898ZM34.65 23.9526L33.6909 23.6695C33.888 23.0018 34.1649 22.3528 34.6037 21.7581L35.4083 22.3518L36.213 22.9456C35.9518 23.2995 35.762 23.7177 35.6091 24.2357L34.65 23.9526ZM35.4083 22.3518L34.5987 21.7649C35.5892 20.3987 37.1514 19.5281 38.866 19.4555L38.9083 20.4546L38.9506 21.4537C37.8653 21.4997 36.8608 22.052 36.218 22.9388L35.4083 22.3518ZM35.7 28.4585L34.8954 29.0523L34.5454 28.578L35.35 27.9842L36.1546 27.3905L36.5046 27.8648L35.7 28.4585ZM35.35 27.9842L34.5264 28.5514C34.0497 27.8593 33.6911 27.0709 33.5465 26.1895L34.5333 26.0277L35.5202 25.8659C35.609 26.4074 35.8336 26.9234 36.1736 27.417L35.35 27.9842ZM34.5333 26.0277L33.5623 26.2666L33.5039 26.0294L34.475 25.7906L35.4461 25.5517L35.5044 25.7888L34.5333 26.0277ZM34.475 25.7906V26.7906H16.625V25.7906V24.7906H34.475V25.7906ZM16.625 25.7906L17.5961 26.0294L17.5377 26.2665L16.5667 26.0277L15.5956 25.7889L15.6539 25.5517L16.625 25.7906ZM16.5667 26.0277L17.5535 26.1895C17.409 27.0709 17.0503 27.8593 16.5736 28.5514L15.75 27.9842L14.9264 27.417C15.2664 26.9234 15.4911 26.4074 15.5798 25.8659L16.5667 26.0277ZM15.75 27.9842L16.5546 28.578L16.2046 29.0523L15.4 28.4585L14.5954 27.8648L14.9454 27.3905L15.75 27.9842ZM15.4 28.4585V27.4585H35.7V28.4585V29.4585H15.4V28.4585ZM8.80833 25.3162L9.80776 25.2823C9.84819 26.474 10.8751 27.4585 12.0167 27.4585V28.4585V29.4585C9.77488 29.4585 7.88515 27.5972 7.80891 25.3501L8.80833 25.3162ZM12.0167 28.4585V27.4585C13.1666 27.4585 14.144 26.578 14.2271 25.3101L15.225 25.3755L16.2229 25.441C16.0727 27.7304 14.2501 29.4585 12.0167 29.4585V28.4585ZM15.225 25.257L14.3277 25.6984C14.2667 25.5744 14.2141 25.4351 14.1871 25.2705C14.1642 25.1305 14.1667 25.0004 14.1667 24.9605H15.1667H16.1667C16.1667 24.9763 16.1667 24.9857 16.1667 24.9938C16.1668 25.0014 16.1669 25.0035 16.1669 25.0024C16.1668 24.9994 16.1659 24.9779 16.1608 24.9469C16.1554 24.9139 16.1473 24.8825 16.1379 24.8549C16.1292 24.8295 16.1221 24.8151 16.1223 24.8155L15.225 25.257ZM15.1667 24.9605H14.1667C14.1667 24.9294 14.1648 24.813 14.1928 24.6711C14.2206 24.5297 14.269 24.4013 14.3277 24.2819L15.225 24.7234L16.1223 25.1648C16.1222 25.165 16.1272 25.1549 16.1339 25.136C16.1409 25.1161 16.1488 25.0895 16.1551 25.0572C16.1685 24.9894 16.1667 24.9323 16.1667 24.9605H15.1667ZM15.225 24.6048H14.225C14.225 24.6555 14.2311 24.6899 14.2325 24.6973C14.2332 24.7014 14.2333 24.7004 14.2248 24.6658C14.2187 24.6411 14.2041 24.5828 14.1924 24.5194C14.1801 24.4528 14.1667 24.3591 14.1667 24.249H15.1667H16.1667C16.1667 24.1983 16.1605 24.1639 16.1592 24.1566C16.1584 24.1524 16.1584 24.1534 16.1669 24.1881C16.1729 24.2127 16.1876 24.271 16.1993 24.3344C16.2116 24.401 16.225 24.4948 16.225 24.6048H15.225ZM15.1667 24.249L14.2361 24.6153C14.1491 24.3941 14.0521 24.1781 13.9831 23.9678L14.9333 23.6562L15.8835 23.3445C15.9312 23.49 15.9509 23.5111 16.0972 23.8828L15.1667 24.249ZM14.9333 23.6562L13.9831 23.9678C13.9747 23.9421 13.9801 23.9668 14.0097 24.0119C14.0241 24.0339 14.0385 24.0519 14.0493 24.0644C14.057 24.0731 14.0625 24.0784 14.0455 24.0611L14.7583 23.3597L15.4712 22.6584C15.5016 22.6893 15.5936 22.7802 15.682 22.915C15.7699 23.0491 15.8336 23.1924 15.8835 23.3445L14.9333 23.6562ZM14.7583 23.3597L13.9451 23.9416C13.2801 23.0124 12.0586 22.7111 11.128 23.184L10.675 22.2925L10.222 21.401C12.0914 20.451 14.3699 21.0984 15.5716 22.7778L14.7583 23.3597ZM10.675 22.2925L11.0944 23.2003C10.6748 23.3942 10.3237 23.7489 10.1295 24.183L9.21667 23.7747L8.3038 23.3665C8.693 22.4962 9.39189 21.7838 10.2556 21.3847L10.675 22.2925ZM9.21667 23.7747L10.1472 24.141C10.0275 24.4451 9.9506 24.6487 9.91182 24.8852L8.925 24.7234L7.93818 24.5615C8.01607 24.0865 8.17251 23.6972 8.28614 23.4085L9.21667 23.7747ZM8.925 25.0198H9.925C9.925 25.051 9.92682 25.1673 9.89889 25.3092C9.87105 25.4507 9.82267 25.579 9.76397 25.6984L8.86666 25.257L7.96936 24.8155C7.9695 24.8153 7.96449 24.8254 7.95778 24.8443C7.95075 24.8642 7.94287 24.8908 7.93653 24.923C7.92319 24.9908 7.925 25.0479 7.925 25.0198H8.925ZM8.86666 25.257L9.57951 25.9583L9.52118 26.0176L8.80833 25.3162L8.09549 24.6149L8.15382 24.5556L8.86666 25.257ZM4.2 16.838V15.838H21.525V16.838V17.838H4.2V16.838ZM21.525 16.838V15.838C22.5009 15.838 23.2833 16.6568 23.2833 17.6087H22.2833H21.2833C21.2833 17.6851 21.3146 17.7387 21.3445 17.7691C21.3742 17.7993 21.4343 17.838 21.525 17.838V16.838ZM22.2833 17.6087H23.2833C23.2833 18.5607 22.5009 19.3795 21.525 19.3795V18.3795V17.3795C21.4343 17.3795 21.3742 17.4181 21.3445 17.4484C21.3146 17.4787 21.2833 17.5323 21.2833 17.6087H22.2833ZM21.525 18.3795V19.3795H4.2V18.3795V17.3795H21.525V18.3795ZM4.2 18.3795H5.2V22.8854H4.2H3.2V18.3795H4.2ZM4.2 22.8854H5.2C5.2 22.9895 5.23553 23.0457 5.26283 23.0734C5.28938 23.1004 5.33697 23.1305 5.425 23.1305V24.1305V25.1305C4.15747 25.1305 3.2 24.1338 3.2 22.8854H4.2ZM5.425 24.1305V23.1305H7.46667V24.1305V25.1305H5.425V24.1305ZM7.46667 24.1305L6.49561 23.8916L6.55394 23.6545L7.525 23.8933L8.49606 24.1322L8.43773 24.3693L7.46667 24.1305ZM7.525 23.8933L6.55917 23.6342C6.766 22.8633 7.11945 22.1287 7.64215 21.5215L8.4 22.174L9.15785 22.8264C8.86389 23.1678 8.634 23.6189 8.49083 24.1525L7.525 23.8933ZM8.4 22.174L7.59536 21.5802C7.81319 21.285 8.12447 20.9551 8.4224 20.7532L8.98334 21.5811L9.54428 22.4089C9.4922 22.4442 9.33681 22.5886 9.20464 22.7677L8.4 22.174ZM8.98334 21.5811L8.33703 20.818C9.58631 19.7599 11.2084 19.2441 12.7956 19.4641L12.6583 20.4546L12.5211 21.4451C11.5416 21.3094 10.4804 21.6236 9.62965 22.3441L8.98334 21.5811ZM12.6583 20.4546L12.8324 19.4698C14.4414 19.7543 15.7958 20.6221 16.7091 22.0502L15.8667 22.589L15.0242 23.1277C14.4208 22.1843 13.5586 21.6292 12.4843 21.4393L12.6583 20.4546ZM15.8667 22.589L16.7028 22.0405C16.9873 22.4741 17.2786 23.0608 17.4269 23.739L16.45 23.9526L15.4731 24.1662C15.388 23.7772 15.2127 23.4153 15.0305 23.1374L15.8667 22.589ZM16.45 23.9526L17.4211 23.7138L17.4794 23.9509L16.5083 24.1898L15.5373 24.4286L15.4789 24.1915L16.45 23.9526ZM16.5083 24.1898V23.1898H24.7333V24.1898V25.1898H16.5083V24.1898ZM24.7333 24.1898H23.7333V13.9921H24.7333H25.7333V24.1898H24.7333ZM24.7333 13.9921V14.9921H4.2V13.9921V12.9921H24.7333V13.9921ZM4.2 13.9921H5.2V16.838H4.2H3.2V13.9921H4.2ZM2.68333 23.1819H1.68333V22.8854H2.68333H3.68333V23.1819H2.68333ZM2.68333 22.8854H1.68333C1.68333 22.849 1.63778 22.3444 2.02884 21.9469L2.74166 22.6483L3.45449 23.3496C3.5003 23.303 3.55153 23.2388 3.59484 23.1556C3.63805 23.0727 3.66035 22.9959 3.67181 22.9377C3.68218 22.885 3.68338 22.8482 3.68347 22.846C3.68349 22.8455 3.68333 22.8502 3.68333 22.8854H2.68333ZM2.74166 21.5218V22.5218H1.51667V21.5218V20.5218H2.74166V21.5218ZM1.51667 21.5218H2.51667V23.1819H1.51667H0.516666V21.5218H1.51667ZM31.9083 18.3795V19.3795H29.8083V18.3795V17.3795H31.9083V18.3795ZM29.8083 18.3795V19.3795C29.3153 19.3795 28.8884 19.1444 28.6033 18.8691C28.3101 18.586 28.05 18.1475 28.05 17.6087H29.05H30.05C30.05 17.485 29.994 17.4318 29.9925 17.4304C29.9873 17.4253 29.9772 17.4167 29.9565 17.4073C29.9373 17.3986 29.8874 17.3795 29.8083 17.3795V18.3795ZM29.05 17.6087H28.05C28.05 16.6568 28.8325 15.838 29.8083 15.838V16.838V17.838C29.899 17.838 29.9591 17.7993 29.9889 17.7691C30.0187 17.7387 30.05 17.6851 30.05 17.6087H29.05ZM29.8083 16.838V15.838H31.9083V16.838V17.838H29.8083V16.838ZM31.9083 16.838V15.838C32.8842 15.838 33.6667 16.6568 33.6667 17.6087H32.6667H31.6667C31.6667 17.6851 31.698 17.7387 31.7278 17.7691C31.7576 17.7993 31.8177 17.838 31.9083 17.838V16.838ZM32.6667 17.6087H33.6667C33.6667 18.5607 32.8842 19.3795 31.9083 19.3795V18.3795V17.3795C31.8177 17.3795 31.7576 17.4181 31.7278 17.4484C31.698 17.4787 31.6667 17.5323 31.6667 17.6087H32.6667ZM42.2917 24.9012H41.2917V24.7826H42.2917H43.2917V24.9012H42.2917ZM15.225 25.3755H14.225V25.257H15.225H16.225V25.3755H15.225ZM15.225 24.7234H14.225V24.6048H15.225H16.225V24.7234H15.225ZM8.925 24.7234H9.925V25.0198H8.925H7.925V24.7234H8.925ZM1.51667 23.1819V22.1819H2.68333V23.1819V24.1819H1.51667V23.1819ZM2.74166 22.6483H1.74166V21.5218H2.74166H3.74166V22.6483H2.74166Z" mask="url(#epath-1-inside-1_42_91)"/>
</symbol></svg>