<svg width="46" height="32" viewBox="0 0 46 32" fill="none" xmlns="http://www.w3.org/2000/svg">
<mask id="path-1-inside-1_42_59" fill="white">
<path d="M45.8323 7.16932V4.74269C45.8323 4.51696 45.7205 4.29122 45.5529 4.17835C45.3293 3.95262 45.2175 3.89619 44.9939 3.95262L35.8833 5.81492V3.78332C35.8833 3.55759 35.7716 3.33185 35.6039 3.21899L31.9149 0.171587C31.7473 0.00228659 31.4119 -0.0541468 31.1883 0.0587199C30.9648 0.171587 30.7971 0.39732 30.7971 0.679487V17.6095L30.0705 17.7788L25.0401 2.88039H26.2697C26.661 2.88039 27.1081 2.48535 27.1081 2.14675C27.1081 1.75172 26.7728 1.41312 26.3815 1.41312H7.43378C7.04253 1.41312 6.70717 1.75172 6.70717 2.14675C6.70717 2.54179 7.04253 2.88039 7.43378 2.88039H8.32807L4.97448 15.6908H0.72661C0.335358 15.6343 0 15.9729 0 16.368V26.8081C0 27.2032 0.335358 27.5418 0.72661 27.5418H2.12394L2.23572 27.7675C2.4593 28.614 2.90644 29.3476 3.46537 30.0248L3.80073 30.4199L3.29769 30.5327C2.96233 30.5892 2.73876 30.9278 2.73876 31.2664C2.73876 31.6614 3.07412 32 3.46537 32H44.1555C44.5468 32 44.8821 31.6614 44.8821 31.2664C44.8821 30.8713 44.5468 30.5327 44.1555 30.5327H37.113L37.5601 30.0248C38.4544 28.9526 38.9575 27.5418 38.9575 26.1309C38.9575 24.0429 37.8955 22.1806 36.1628 21.1648L35.9951 21.0519V19.3589L45.4411 17.3838C45.7764 17.3273 46 17.0452 46 16.7066V7.67722C46 7.56436 45.9441 7.39506 45.8882 7.28219L45.8323 7.16932ZM32.1385 2.31605L34.3742 4.17835V6.88716C34.3742 7.00002 34.3742 7.05646 34.4301 7.16932V20.544L34.0948 20.4876C33.9271 20.4876 33.7035 20.4312 33.5358 20.4312C33.2564 20.3747 33.0328 20.3747 32.8092 20.4312C32.6974 20.4312 32.6416 20.4312 32.5298 20.4312L32.1385 20.4876L32.0826 20.149V2.31605H32.1385ZM28.8408 18.3996L28.6173 18.5124C28.3937 18.6253 28.1701 18.7946 27.9465 18.9075L27.723 19.0768L27.6112 19.1896L27.4994 19.2461C27.4435 19.3025 27.3876 19.3025 27.3317 19.3589L27.2758 19.4154H25.4313V13.6027L26.7728 12.2483L28.8408 18.3996ZM25.9344 20.8262L25.6549 21.2777C24.7606 22.6321 24.2576 24.2122 24.2017 25.7923V26.0745H23.1397V20.8262H25.9344ZM9.78129 2.88039H23.531L26.2139 10.7811L24.593 12.3612L21.7424 10.1039C21.407 9.87812 20.9599 9.93456 20.7363 10.2167C20.5128 10.5553 20.5686 11.0068 20.8481 11.2325L23.9222 13.6592V19.4154H23.0279V16.4808C23.0279 16.0858 22.6926 15.7472 22.3013 15.7472H20.7922L20.401 13.4899C20.3451 13.1513 20.0656 12.9255 19.7303 12.9255H15.9854L15.4824 9.53952C15.4265 9.14449 15.147 8.91876 14.8117 8.91876H13.079C12.6877 8.91876 12.3524 9.25736 12.3524 9.65239C12.3524 10.0474 12.6877 10.386 13.079 10.386H14.1968L14.6999 13.772C14.7558 14.1671 15.0352 14.3928 15.3706 14.3928H19.1154L19.339 15.6908H6.37181L9.78129 2.88039ZM2.01215 25.8488L1.95626 26.0181L1.39733 27.0339V17.158H21.5188V20.0926C21.5188 20.2054 21.5188 20.2619 21.5747 20.3747V22.0113H18.277C17.8858 22.0113 17.5504 22.3499 17.5504 22.7449V26.1309L13.4702 26.1874V25.9052C13.4702 25.5666 13.4702 25.3973 13.4143 25.1151C13.4143 25.0587 13.3584 25.0023 13.3026 24.9458L13.2467 24.833C13.1349 24.2686 12.9113 23.7607 12.6318 23.3093C12.5759 23.1964 12.5759 23.14 12.52 23.14C11.7934 21.842 10.6197 20.9391 9.22236 20.544C9.11057 20.544 8.99878 20.4876 8.94289 20.4876C8.77521 20.4876 8.66343 20.4876 8.55164 20.4876H8.43985C7.88092 20.4312 7.32199 20.4312 6.76306 20.544H6.65128C6.53949 20.544 6.4836 20.544 6.4277 20.544H6.31592C6.26002 20.544 6.20413 20.6005 6.09234 20.6005C5.14216 20.8826 4.30377 21.3341 3.63305 22.0677C2.90644 22.7449 2.4034 23.535 2.12394 24.4944C2.12394 24.8894 2.01215 25.3409 2.01215 25.8488ZM21.6306 26.0745H19.0595V23.4786H21.6306V26.0745ZM7.71324 30.4763C5.42163 30.4763 3.46537 28.614 3.35358 26.3567V26.1874C3.35358 25.9052 3.35358 25.5666 3.40948 25.1716L3.46537 25.0587C3.52126 25.0023 3.57716 24.9458 3.57716 24.8894C3.68894 24.4379 3.96841 23.93 4.24787 23.535C4.52734 23.1964 4.8068 22.9142 5.19806 22.6321C5.58931 22.3499 6.03645 22.1242 6.4836 22.0113C6.53949 21.9549 6.65128 21.8984 6.76306 21.8984C7.04253 21.842 7.37789 21.842 7.71324 21.842H8.887V21.9549C9.94897 22.2935 10.7874 22.9707 11.4022 23.93C11.6817 24.3815 11.8493 24.833 11.9052 25.3409C12.017 25.5666 12.017 25.9616 12.017 26.1874V26.7517C11.7375 28.8397 9.89307 30.4763 7.71324 30.4763ZM11.5699 30.4763L12.017 29.9684C12.5759 29.3476 13.0231 28.5576 13.2467 27.7675L13.3026 27.5418H22.4131C22.4131 27.5418 22.469 27.5418 22.5808 27.4853H24.8724C25.0401 27.4853 25.2078 27.3725 25.3755 27.316H25.4313C25.4872 27.2032 25.5431 27.0339 25.5431 26.8081V26.2438C25.5431 24.0993 26.4374 22.1242 27.9465 20.7133L28.1701 20.4876C28.226 20.4312 28.2819 20.3747 28.3378 20.3183L28.4496 20.2054C28.5055 20.149 28.5614 20.149 28.6173 20.0926C28.729 20.0361 28.8408 19.9797 28.8967 19.9233L29.0085 19.8668L29.1762 19.8104L29.288 19.6975C29.3439 19.6411 29.3998 19.6411 29.4556 19.5847L29.5115 19.5282L29.7351 19.4718H29.791C29.8469 19.4154 29.9028 19.3589 29.9587 19.3025L30.0705 19.1896C30.2382 19.1332 30.3499 19.0768 30.4617 19.0203L30.853 18.9075V20.8826L30.6853 20.9391C28.729 21.9549 27.4994 23.93 27.4994 26.1309C27.4994 27.5418 28.0024 28.8962 28.9526 29.9684L29.3998 30.4763H11.5699ZM37.6719 26.1874C37.6719 28.2754 36.2187 30.0813 34.1507 30.4763H32.4739C30.4058 30.0813 28.8967 28.2754 28.8967 26.1874C28.8967 24.4379 29.9028 22.9142 31.4678 22.1242L31.5796 22.0677L31.8032 22.1806C31.9149 22.1242 32.0267 22.0677 32.1944 22.0677C32.3062 22.0113 32.3621 21.9549 32.4739 21.8984L32.5298 21.842H32.8092C33.1446 21.7856 33.7035 21.7856 34.2625 21.9549C34.4301 22.0113 34.486 22.0677 34.5978 22.0677C34.7096 22.1242 34.7655 22.1242 34.8773 22.1806L34.9891 22.237C36.6659 22.9142 37.6719 24.4379 37.6719 26.1874ZM35.8833 8.91876V7.33862L44.435 5.58919V7.16932L35.8833 8.91876ZM44.4909 16.0858L35.9392 17.8352V16.3115L44.4909 14.6185V16.0858ZM44.4909 13.0948L35.9392 14.8443V13.3206L44.4909 11.5711V13.0948ZM44.4909 10.0474L35.9392 11.7969V10.2732L44.4909 8.63659V10.0474Z"/>
</mask>
<path d="M45.8323 7.16932V4.74269C45.8323 4.51696 45.7205 4.29122 45.5529 4.17835C45.3293 3.95262 45.2175 3.89619 44.9939 3.95262L35.8833 5.81492V3.78332C35.8833 3.55759 35.7716 3.33185 35.6039 3.21899L31.9149 0.171587C31.7473 0.00228659 31.4119 -0.0541468 31.1883 0.0587199C30.9648 0.171587 30.7971 0.39732 30.7971 0.679487V17.6095L30.0705 17.7788L25.0401 2.88039H26.2697C26.661 2.88039 27.1081 2.48535 27.1081 2.14675C27.1081 1.75172 26.7728 1.41312 26.3815 1.41312H7.43378C7.04253 1.41312 6.70717 1.75172 6.70717 2.14675C6.70717 2.54179 7.04253 2.88039 7.43378 2.88039H8.32807L4.97448 15.6908H0.72661C0.335358 15.6343 0 15.9729 0 16.368V26.8081C0 27.2032 0.335358 27.5418 0.72661 27.5418H2.12394L2.23572 27.7675C2.4593 28.614 2.90644 29.3476 3.46537 30.0248L3.80073 30.4199L3.29769 30.5327C2.96233 30.5892 2.73876 30.9278 2.73876 31.2664C2.73876 31.6614 3.07412 32 3.46537 32H44.1555C44.5468 32 44.8821 31.6614 44.8821 31.2664C44.8821 30.8713 44.5468 30.5327 44.1555 30.5327H37.113L37.5601 30.0248C38.4544 28.9526 38.9575 27.5418 38.9575 26.1309C38.9575 24.0429 37.8955 22.1806 36.1628 21.1648L35.9951 21.0519V19.3589L45.4411 17.3838C45.7764 17.3273 46 17.0452 46 16.7066V7.67722C46 7.56436 45.9441 7.39506 45.8882 7.28219L45.8323 7.16932ZM32.1385 2.31605L34.3742 4.17835V6.88716C34.3742 7.00002 34.3742 7.05646 34.4301 7.16932V20.544L34.0948 20.4876C33.9271 20.4876 33.7035 20.4312 33.5358 20.4312C33.2564 20.3747 33.0328 20.3747 32.8092 20.4312C32.6974 20.4312 32.6416 20.4312 32.5298 20.4312L32.1385 20.4876L32.0826 20.149V2.31605H32.1385ZM28.8408 18.3996L28.6173 18.5124C28.3937 18.6253 28.1701 18.7946 27.9465 18.9075L27.723 19.0768L27.6112 19.1896L27.4994 19.2461C27.4435 19.3025 27.3876 19.3025 27.3317 19.3589L27.2758 19.4154H25.4313V13.6027L26.7728 12.2483L28.8408 18.3996ZM25.9344 20.8262L25.6549 21.2777C24.7606 22.6321 24.2576 24.2122 24.2017 25.7923V26.0745H23.1397V20.8262H25.9344ZM9.78129 2.88039H23.531L26.2139 10.7811L24.593 12.3612L21.7424 10.1039C21.407 9.87812 20.9599 9.93456 20.7363 10.2167C20.5128 10.5553 20.5686 11.0068 20.8481 11.2325L23.9222 13.6592V19.4154H23.0279V16.4808C23.0279 16.0858 22.6926 15.7472 22.3013 15.7472H20.7922L20.401 13.4899C20.3451 13.1513 20.0656 12.9255 19.7303 12.9255H15.9854L15.4824 9.53952C15.4265 9.14449 15.147 8.91876 14.8117 8.91876H13.079C12.6877 8.91876 12.3524 9.25736 12.3524 9.65239C12.3524 10.0474 12.6877 10.386 13.079 10.386H14.1968L14.6999 13.772C14.7558 14.1671 15.0352 14.3928 15.3706 14.3928H19.1154L19.339 15.6908H6.37181L9.78129 2.88039ZM2.01215 25.8488L1.95626 26.0181L1.39733 27.0339V17.158H21.5188V20.0926C21.5188 20.2054 21.5188 20.2619 21.5747 20.3747V22.0113H18.277C17.8858 22.0113 17.5504 22.3499 17.5504 22.7449V26.1309L13.4702 26.1874V25.9052C13.4702 25.5666 13.4702 25.3973 13.4143 25.1151C13.4143 25.0587 13.3584 25.0023 13.3026 24.9458L13.2467 24.833C13.1349 24.2686 12.9113 23.7607 12.6318 23.3093C12.5759 23.1964 12.5759 23.14 12.52 23.14C11.7934 21.842 10.6197 20.9391 9.22236 20.544C9.11057 20.544 8.99878 20.4876 8.94289 20.4876C8.77521 20.4876 8.66343 20.4876 8.55164 20.4876H8.43985C7.88092 20.4312 7.32199 20.4312 6.76306 20.544H6.65128C6.53949 20.544 6.4836 20.544 6.4277 20.544H6.31592C6.26002 20.544 6.20413 20.6005 6.09234 20.6005C5.14216 20.8826 4.30377 21.3341 3.63305 22.0677C2.90644 22.7449 2.4034 23.535 2.12394 24.4944C2.12394 24.8894 2.01215 25.3409 2.01215 25.8488ZM21.6306 26.0745H19.0595V23.4786H21.6306V26.0745ZM7.71324 30.4763C5.42163 30.4763 3.46537 28.614 3.35358 26.3567V26.1874C3.35358 25.9052 3.35358 25.5666 3.40948 25.1716L3.46537 25.0587C3.52126 25.0023 3.57716 24.9458 3.57716 24.8894C3.68894 24.4379 3.96841 23.93 4.24787 23.535C4.52734 23.1964 4.8068 22.9142 5.19806 22.6321C5.58931 22.3499 6.03645 22.1242 6.4836 22.0113C6.53949 21.9549 6.65128 21.8984 6.76306 21.8984C7.04253 21.842 7.37789 21.842 7.71324 21.842H8.887V21.9549C9.94897 22.2935 10.7874 22.9707 11.4022 23.93C11.6817 24.3815 11.8493 24.833 11.9052 25.3409C12.017 25.5666 12.017 25.9616 12.017 26.1874V26.7517C11.7375 28.8397 9.89307 30.4763 7.71324 30.4763ZM11.5699 30.4763L12.017 29.9684C12.5759 29.3476 13.0231 28.5576 13.2467 27.7675L13.3026 27.5418H22.4131C22.4131 27.5418 22.469 27.5418 22.5808 27.4853H24.8724C25.0401 27.4853 25.2078 27.3725 25.3755 27.316H25.4313C25.4872 27.2032 25.5431 27.0339 25.5431 26.8081V26.2438C25.5431 24.0993 26.4374 22.1242 27.9465 20.7133L28.1701 20.4876C28.226 20.4312 28.2819 20.3747 28.3378 20.3183L28.4496 20.2054C28.5055 20.149 28.5614 20.149 28.6173 20.0926C28.729 20.0361 28.8408 19.9797 28.8967 19.9233L29.0085 19.8668L29.1762 19.8104L29.288 19.6975C29.3439 19.6411 29.3998 19.6411 29.4556 19.5847L29.5115 19.5282L29.7351 19.4718H29.791C29.8469 19.4154 29.9028 19.3589 29.9587 19.3025L30.0705 19.1896C30.2382 19.1332 30.3499 19.0768 30.4617 19.0203L30.853 18.9075V20.8826L30.6853 20.9391C28.729 21.9549 27.4994 23.93 27.4994 26.1309C27.4994 27.5418 28.0024 28.8962 28.9526 29.9684L29.3998 30.4763H11.5699ZM37.6719 26.1874C37.6719 28.2754 36.2187 30.0813 34.1507 30.4763H32.4739C30.4058 30.0813 28.8967 28.2754 28.8967 26.1874C28.8967 24.4379 29.9028 22.9142 31.4678 22.1242L31.5796 22.0677L31.8032 22.1806C31.9149 22.1242 32.0267 22.0677 32.1944 22.0677C32.3062 22.0113 32.3621 21.9549 32.4739 21.8984L32.5298 21.842H32.8092C33.1446 21.7856 33.7035 21.7856 34.2625 21.9549C34.4301 22.0113 34.486 22.0677 34.5978 22.0677C34.7096 22.1242 34.7655 22.1242 34.8773 22.1806L34.9891 22.237C36.6659 22.9142 37.6719 24.4379 37.6719 26.1874ZM35.8833 8.91876V7.33862L44.435 5.58919V7.16932L35.8833 8.91876ZM44.4909 16.0858L35.9392 17.8352V16.3115L44.4909 14.6185V16.0858ZM44.4909 13.0948L35.9392 14.8443V13.3206L44.4909 11.5711V13.0948ZM44.4909 10.0474L35.9392 11.7969V10.2732L44.4909 8.63659V10.0474Z" fill="#6F7B8C" stroke="#6F7B8C" stroke-width="2" mask="url(#path-1-inside-1_42_59)"/>
</svg>
