<svg width="49" height="32" viewBox="0 0 49 32" fill="none" xmlns="http://www.w3.org/2000/svg">
	<mask id="path-1-inside-1_42_70" fill="white">
		<path d="M35.1126 22.9575H28.1386V23.4463H35.1126V22.9575Z" />
		<path d="M21.0433 22.9575H14.0693V23.4463H21.0433V22.9575Z" />
		<path d="M37.9629 15.3203C36.5074 15.3203 35.1733 16.2979 34.6881 17.7031L34.6275 17.9475H14.4332L14.3725 17.7031C13.8874 16.2979 12.5532 15.3203 11.0978 15.3203C9.21782 15.3203 7.64109 16.9088 7.64109 18.8029C7.64109 20.6969 9.21782 22.2854 11.0978 22.2854C12.6139 22.2854 14.0087 21.2468 14.4332 19.7193L14.4938 19.4749H34.5668L34.6275 19.7193C35.052 21.2468 36.4468 22.2854 37.9629 22.2854C39.8428 22.2854 41.4196 20.6969 41.4196 18.8029C41.4196 16.9088 39.8428 15.3203 37.9629 15.3203ZM12.9777 19.1084C12.8564 20.0859 12.0074 20.758 11.0371 20.758C9.94554 20.758 9.09653 19.9026 9.09653 18.8029C9.09653 17.7031 9.94554 16.8477 11.0371 16.8477C11.9468 16.8477 12.7351 17.5198 12.9171 18.3752V18.4974C12.9171 18.5585 12.8564 18.6196 12.8564 18.6807C12.8564 18.7418 12.8564 18.8029 12.9171 18.9251V18.9862L12.9777 19.1084ZM37.9629 20.758C36.9319 20.758 36.1436 20.0859 36.0223 19.1084V18.9862C36.0223 18.9251 36.0829 18.8029 36.0829 18.7418C36.0829 18.6807 36.0829 18.6196 36.0223 18.5585V18.4363C36.2042 17.5198 37.0532 16.9088 37.9022 16.9088C38.9938 16.9088 39.8428 17.7642 39.8428 18.864C39.9035 19.9026 39.0545 20.758 37.9629 20.758Z" />
		<path d="M19.1634 15.8091H29.9579C30.3218 15.8091 30.7463 15.4425 30.7463 15.0148C30.7463 14.5871 30.3824 14.2205 29.9579 14.2205H19.1634C18.7389 14.2205 18.375 14.5871 18.375 15.0148C18.375 15.3814 18.7389 15.8091 19.1634 15.8091Z" />
		<path d="M14.3725 23.5685H20.8007C20.9827 23.5685 21.2859 23.3241 21.2859 23.0797C21.2859 22.8353 21.0433 22.5909 20.8007 22.5909H14.3725C14.1299 22.5909 13.8874 22.8353 13.8874 23.0797C13.8874 23.3241 14.1299 23.5685 14.3725 23.5685Z" />
		<path d="M28.1993 23.5685H34.6275C34.8094 23.5685 35.1126 23.3241 35.1126 23.0797C35.1126 22.8353 34.87 22.5909 34.6275 22.5909H28.1993C27.9567 22.5909 27.7141 22.8353 27.7141 23.0797C27.7141 23.3241 27.9567 23.5685 28.1993 23.5685Z" />
		<path d="M25.1671 3.4673C24.9851 3.28401 24.8032 3.22291 24.6213 3.22291C24.4394 3.22291 24.1968 3.28401 24.0755 3.4673L20.8007 6.76659C20.4975 7.07208 20.4975 7.56086 20.8007 7.86635C21.104 8.17184 21.5285 8.17184 21.8923 7.86635L25.1671 4.56706C25.4703 4.26158 25.4703 3.77279 25.1671 3.4673Z" />
		<path d="M48.2116 30.4115H44.6943L44.7549 30.0449C44.7549 29.9227 44.8156 29.8005 44.8156 29.7394V22.4687C44.8156 22.4076 44.8156 22.3465 44.8156 22.2854V22.2243L45.6646 18.6807C46.0285 17.0921 45.7252 15.4425 44.7549 14.1594L44.2698 13.6095H44.9369C45.9678 13.6095 46.8775 12.6931 46.8775 11.6544V10.6769C46.8775 9.57709 46.0285 8.72172 44.9369 8.72172H41.8441C41.4196 8.72172 41.0557 8.84391 40.6918 9.08831L40.328 9.3938L39.479 5.60573C38.6299 2.30644 35.8403 0.0458234 32.4443 0.0458234H32.323C32.2017 -0.0152745 32.0198 -0.0152745 31.8379 0.0458234H16.7376C13.3416 0.0458234 10.4307 2.30644 9.70297 5.60573L8.79332 9.57709L8.36881 9.2105C8.00495 8.90501 7.58044 8.72172 7.0953 8.72172H4.06312C2.97153 8.72172 2.12252 9.57709 2.12252 10.6769V11.6544C2.12252 12.7542 2.97153 13.6095 4.06312 13.6095H4.91213L4.48762 14.1594C3.45668 15.4425 3.15347 17.0921 3.51733 18.6807L4.36634 22.2854V22.3465C4.36634 22.4076 4.30569 22.4687 4.30569 22.5298V29.9227L4.36634 30.3504H0.788366C0.363861 30.4115 0 30.778 0 31.2057C0 31.6334 0.363861 32 0.788366 32H48.2116C48.6361 32 49 31.6334 49 31.2057C49 30.778 48.6361 30.4115 48.2116 30.4115ZM41.5408 10.3103H44.9369C45.1795 10.3103 45.3614 10.4936 45.3614 10.7379V11.6544C45.3614 11.8988 45.1795 12.0821 44.9369 12.0821H41.8441C41.6015 12.0821 41.4196 11.8988 41.4196 11.6544L41.5408 10.3103ZM11.1584 6.03341C11.7042 3.4673 14.0087 1.63437 16.6163 1.63437H30.1398L26.0767 5.72792C25.7735 6.03341 25.7735 6.5222 26.0767 6.82769C26.3799 7.13317 26.8651 7.13317 27.1683 6.82769L32.323 1.63437H32.4443C35.052 1.69547 37.2351 3.5284 37.7809 6.03341L38.9938 11.2878L38.5087 11.1656C34.9913 10.3714 31.1101 10.127 30.0186 10.0659C27.2896 9.82148 21.8923 9.82148 18.0111 10.1881C15.4641 10.3103 12.6745 10.7379 10.4913 11.2267L10.0062 11.3489L11.1584 6.03341ZM4.06312 12.0821C3.82054 12.0821 3.63861 11.8988 3.63861 11.6544L3.7599 10.3103H7.15594C7.39851 10.3103 7.58044 10.4936 7.58044 10.7379V11.6544C7.58044 11.8988 7.39851 12.0821 7.15594 12.0821H4.06312ZM10.8552 29.7394C10.8552 30.106 10.552 30.4115 10.1881 30.4115H6.24629L6.18564 30.3504C6.00371 30.2282 5.94307 30.0449 5.94307 29.8616V26.0124L6.48886 26.4401C7.45916 27.2344 8.61139 27.6621 9.8849 27.6621H10.9158V29.7394H10.8552ZM12.3713 30.4115L12.4319 30.0449C12.4319 29.9227 12.4926 29.8005 12.4926 29.7394V27.7232H36.6894V29.9838L36.75 30.4115H12.3713ZM43.1782 29.7394C43.1782 30.106 42.875 30.4115 42.5111 30.4115H38.5693L38.5087 30.3504C38.3267 30.2282 38.2661 30.0449 38.2661 29.8616V27.7232H39.1757C40.4493 27.7232 41.6621 27.2955 42.6931 26.379L43.2389 25.9513V29.7394H43.1782ZM44.1485 18.3752L43.2995 21.98C43.1782 22.1021 43.1176 22.2854 43.1176 22.4687C43.1176 22.5298 43.1176 22.5909 43.1176 22.652V22.7131L42.9963 23.2019C42.5111 25.0348 40.995 26.2568 39.2364 26.2568H37.9022L37.8416 26.1957C37.599 26.0124 37.2958 26.0124 37.0532 26.1957L36.9926 26.2568H12.25L12.1287 26.1957C12.0074 26.1346 11.8255 26.0124 11.6436 26.0124C11.4616 26.0124 11.2797 26.1346 11.1584 26.1957L11.0978 26.2568H9.94554C8.12624 26.2568 6.5495 24.9737 6.18564 23.2019L5.03342 18.3752C4.54827 16.42 5.57921 14.4649 7.45916 13.8539C7.70173 13.7317 7.82302 13.6706 8.00495 13.6095C8.24752 13.4874 8.4901 13.3652 8.97525 13.1819C9.15718 13.1819 9.21782 13.1208 9.27846 13.0597L9.33911 12.9986H9.39975C9.52104 12.9986 9.52104 12.9986 10.3094 12.7542H10.37C10.4913 12.7542 10.9158 12.632 11.1584 12.5709C19.7092 10.6158 35.5371 11.1656 40.8738 13.5484C41.1163 13.6095 41.4196 13.7317 41.6015 13.7928C43.5421 14.4649 44.573 16.4811 44.1485 18.3752Z" />
	</mask>
	<path d="M35.1126 22.9575H28.1386V23.4463H35.1126V22.9575Z" stroke="#6F7B8C" stroke-width="2" mask="url(#path-1-inside-1_42_70)" />
	<path d="M21.0433 22.9575H14.0693V23.4463H21.0433V22.9575Z" stroke="#6F7B8C" stroke-width="2" mask="url(#path-1-inside-1_42_70)" />
	<path d="M37.9629 15.3203C36.5074 15.3203 35.1733 16.2979 34.6881 17.7031L34.6275 17.9475H14.4332L14.3725 17.7031C13.8874 16.2979 12.5532 15.3203 11.0978 15.3203C9.21782 15.3203 7.64109 16.9088 7.64109 18.8029C7.64109 20.6969 9.21782 22.2854 11.0978 22.2854C12.6139 22.2854 14.0087 21.2468 14.4332 19.7193L14.4938 19.4749H34.5668L34.6275 19.7193C35.052 21.2468 36.4468 22.2854 37.9629 22.2854C39.8428 22.2854 41.4196 20.6969 41.4196 18.8029C41.4196 16.9088 39.8428 15.3203 37.9629 15.3203ZM12.9777 19.1084C12.8564 20.0859 12.0074 20.758 11.0371 20.758C9.94554 20.758 9.09653 19.9026 9.09653 18.8029C9.09653 17.7031 9.94554 16.8477 11.0371 16.8477C11.9468 16.8477 12.7351 17.5198 12.9171 18.3752V18.4974C12.9171 18.5585 12.8564 18.6196 12.8564 18.6807C12.8564 18.7418 12.8564 18.8029 12.9171 18.9251V18.9862L12.9777 19.1084ZM37.9629 20.758C36.9319 20.758 36.1436 20.0859 36.0223 19.1084V18.9862C36.0223 18.9251 36.0829 18.8029 36.0829 18.7418C36.0829 18.6807 36.0829 18.6196 36.0223 18.5585V18.4363C36.2042 17.5198 37.0532 16.9088 37.9022 16.9088C38.9938 16.9088 39.8428 17.7642 39.8428 18.864C39.9035 19.9026 39.0545 20.758 37.9629 20.758Z" stroke="#6F7B8C" stroke-width="2" mask="url(#path-1-inside-1_42_70)" />
	<path d="M19.1634 15.8091H29.9579C30.3218 15.8091 30.7463 15.4425 30.7463 15.0148C30.7463 14.5871 30.3824 14.2205 29.9579 14.2205H19.1634C18.7389 14.2205 18.375 14.5871 18.375 15.0148C18.375 15.3814 18.7389 15.8091 19.1634 15.8091Z" stroke="#6F7B8C" stroke-width="2" mask="url(#path-1-inside-1_42_70)" />
	<path d="M14.3725 23.5685H20.8007C20.9827 23.5685 21.2859 23.3241 21.2859 23.0797C21.2859 22.8353 21.0433 22.5909 20.8007 22.5909H14.3725C14.1299 22.5909 13.8874 22.8353 13.8874 23.0797C13.8874 23.3241 14.1299 23.5685 14.3725 23.5685Z" stroke="#6F7B8C" stroke-width="2" mask="url(#path-1-inside-1_42_70)" />
	<path d="M28.1993 23.5685H34.6275C34.8094 23.5685 35.1126 23.3241 35.1126 23.0797C35.1126 22.8353 34.87 22.5909 34.6275 22.5909H28.1993C27.9567 22.5909 27.7141 22.8353 27.7141 23.0797C27.7141 23.3241 27.9567 23.5685 28.1993 23.5685Z" stroke="#6F7B8C" stroke-width="2" mask="url(#path-1-inside-1_42_70)" />
	<path d="M25.1671 3.4673C24.9851 3.28401 24.8032 3.22291 24.6213 3.22291C24.4394 3.22291 24.1968 3.28401 24.0755 3.4673L20.8007 6.76659C20.4975 7.07208 20.4975 7.56086 20.8007 7.86635C21.104 8.17184 21.5285 8.17184 21.8923 7.86635L25.1671 4.56706C25.4703 4.26158 25.4703 3.77279 25.1671 3.4673Z" stroke="#6F7B8C" stroke-width="2" mask="url(#path-1-inside-1_42_70)" />
	<path d="M48.2116 30.4115H44.6943L44.7549 30.0449C44.7549 29.9227 44.8156 29.8005 44.8156 29.7394V22.4687C44.8156 22.4076 44.8156 22.3465 44.8156 22.2854V22.2243L45.6646 18.6807C46.0285 17.0921 45.7252 15.4425 44.7549 14.1594L44.2698 13.6095H44.9369C45.9678 13.6095 46.8775 12.6931 46.8775 11.6544V10.6769C46.8775 9.57709 46.0285 8.72172 44.9369 8.72172H41.8441C41.4196 8.72172 41.0557 8.84391 40.6918 9.08831L40.328 9.3938L39.479 5.60573C38.6299 2.30644 35.8403 0.0458234 32.4443 0.0458234H32.323C32.2017 -0.0152745 32.0198 -0.0152745 31.8379 0.0458234H16.7376C13.3416 0.0458234 10.4307 2.30644 9.70297 5.60573L8.79332 9.57709L8.36881 9.2105C8.00495 8.90501 7.58044 8.72172 7.0953 8.72172H4.06312C2.97153 8.72172 2.12252 9.57709 2.12252 10.6769V11.6544C2.12252 12.7542 2.97153 13.6095 4.06312 13.6095H4.91213L4.48762 14.1594C3.45668 15.4425 3.15347 17.0921 3.51733 18.6807L4.36634 22.2854V22.3465C4.36634 22.4076 4.30569 22.4687 4.30569 22.5298V29.9227L4.36634 30.3504H0.788366C0.363861 30.4115 0 30.778 0 31.2057C0 31.6334 0.363861 32 0.788366 32H48.2116C48.6361 32 49 31.6334 49 31.2057C49 30.778 48.6361 30.4115 48.2116 30.4115ZM41.5408 10.3103H44.9369C45.1795 10.3103 45.3614 10.4936 45.3614 10.7379V11.6544C45.3614 11.8988 45.1795 12.0821 44.9369 12.0821H41.8441C41.6015 12.0821 41.4196 11.8988 41.4196 11.6544L41.5408 10.3103ZM11.1584 6.03341C11.7042 3.4673 14.0087 1.63437 16.6163 1.63437H30.1398L26.0767 5.72792C25.7735 6.03341 25.7735 6.5222 26.0767 6.82769C26.3799 7.13317 26.8651 7.13317 27.1683 6.82769L32.323 1.63437H32.4443C35.052 1.69547 37.2351 3.5284 37.7809 6.03341L38.9938 11.2878L38.5087 11.1656C34.9913 10.3714 31.1101 10.127 30.0186 10.0659C27.2896 9.82148 21.8923 9.82148 18.0111 10.1881C15.4641 10.3103 12.6745 10.7379 10.4913 11.2267L10.0062 11.3489L11.1584 6.03341ZM4.06312 12.0821C3.82054 12.0821 3.63861 11.8988 3.63861 11.6544L3.7599 10.3103H7.15594C7.39851 10.3103 7.58044 10.4936 7.58044 10.7379V11.6544C7.58044 11.8988 7.39851 12.0821 7.15594 12.0821H4.06312ZM10.8552 29.7394C10.8552 30.106 10.552 30.4115 10.1881 30.4115H6.24629L6.18564 30.3504C6.00371 30.2282 5.94307 30.0449 5.94307 29.8616V26.0124L6.48886 26.4401C7.45916 27.2344 8.61139 27.6621 9.8849 27.6621H10.9158V29.7394H10.8552ZM12.3713 30.4115L12.4319 30.0449C12.4319 29.9227 12.4926 29.8005 12.4926 29.7394V27.7232H36.6894V29.9838L36.75 30.4115H12.3713ZM43.1782 29.7394C43.1782 30.106 42.875 30.4115 42.5111 30.4115H38.5693L38.5087 30.3504C38.3267 30.2282 38.2661 30.0449 38.2661 29.8616V27.7232H39.1757C40.4493 27.7232 41.6621 27.2955 42.6931 26.379L43.2389 25.9513V29.7394H43.1782ZM44.1485 18.3752L43.2995 21.98C43.1782 22.1021 43.1176 22.2854 43.1176 22.4687C43.1176 22.5298 43.1176 22.5909 43.1176 22.652V22.7131L42.9963 23.2019C42.5111 25.0348 40.995 26.2568 39.2364 26.2568H37.9022L37.8416 26.1957C37.599 26.0124 37.2958 26.0124 37.0532 26.1957L36.9926 26.2568H12.25L12.1287 26.1957C12.0074 26.1346 11.8255 26.0124 11.6436 26.0124C11.4616 26.0124 11.2797 26.1346 11.1584 26.1957L11.0978 26.2568H9.94554C8.12624 26.2568 6.5495 24.9737 6.18564 23.2019L5.03342 18.3752C4.54827 16.42 5.57921 14.4649 7.45916 13.8539C7.70173 13.7317 7.82302 13.6706 8.00495 13.6095C8.24752 13.4874 8.4901 13.3652 8.97525 13.1819C9.15718 13.1819 9.21782 13.1208 9.27846 13.0597L9.33911 12.9986H9.39975C9.52104 12.9986 9.52104 12.9986 10.3094 12.7542H10.37C10.4913 12.7542 10.9158 12.632 11.1584 12.5709C19.7092 10.6158 35.5371 11.1656 40.8738 13.5484C41.1163 13.6095 41.4196 13.7317 41.6015 13.7928C43.5421 14.4649 44.573 16.4811 44.1485 18.3752Z" stroke="#6F7B8C" stroke-width="2" mask="url(#path-1-inside-1_42_70)" />
</svg>
