<svg width="71" height="64" viewBox="0 0 71 64" fill="none" xmlns="http://www.w3.org/2000/svg">
<path d="M40.3091 60.1854C26.4213 58.4901 16.0406 46.4812 16.0406 32.0706C16.0406 17.8013 26.4213 5.65121 40.3091 3.95585C41.0105 3.81457 41.4314 3.39073 41.5716 2.68433C41.5716 1.97792 41.1508 1.4128 40.5897 1.27152C37.7841 0.423841 34.9785 0 32.0326 0C14.7781 0.14128 0.75 14.5519 0.75 32.0706C0.75 49.7307 14.7781 64 32.0326 64C34.9785 64 37.7841 63.5762 40.5897 62.7285C41.2911 62.5872 41.5716 62.0221 41.5716 61.3157C41.4314 60.7505 41.0105 60.1854 40.3091 60.1854ZM32.0326 61.8808C16.0406 61.8808 2.85421 48.4592 2.85421 32.0706C2.85421 15.6821 16.0406 2.26049 32.0326 2.26049C33.4354 2.26049 34.8382 2.40177 36.241 2.54305C23.1949 6.07506 13.7961 18.0839 13.7961 32.0706C13.7961 46.0574 23.1949 58.2075 36.1007 61.5982C34.8382 61.7395 33.4354 61.8808 32.0326 61.8808Z" fill="#283583"/>
<path d="M48.0245 7.2053L49.5676 12.2914H54.8983L50.5496 15.5408L52.233 20.6269L48.0245 17.3775L43.6758 20.6269L45.3592 15.5408L41.1508 12.2914H46.3412L48.0245 7.2053Z" fill="#283583"/>
<path d="M31.8923 19.3554L33.5756 24.4415H38.9063L34.5576 27.5497L36.241 32.777L31.8923 29.5276L27.6839 32.777L29.3672 27.5497L25.0185 24.4415H30.3492L31.8923 19.3554Z" fill="#283583"/>
<path d="M63.8763 19.3554L65.5596 24.4415H70.75L66.5416 27.5497L68.2249 32.777L63.8763 29.5276L59.6678 32.777L61.2109 27.5497L57.0025 24.4415H62.3332L63.8763 19.3554Z" fill="#283583"/>
<path d="M57.8442 38.8521L59.5276 43.9382H64.7179L60.5095 47.1876L62.0526 52.2737L57.8442 49.1656L53.6358 52.2737L55.1789 47.1876L50.9704 43.9382H56.1608L57.8442 38.8521Z" fill="#283583"/>
<path d="M38.0646 38.8521L39.6077 43.9382H44.9384L40.5897 47.1876L42.273 52.2737L38.0646 49.1656L33.7159 52.2737L35.3993 47.1876L31.1909 43.9382H36.3813L38.0646 38.8521Z" fill="#283583"/>
</svg>
