<svg width="70" height="70" viewBox="0 0 70 70" fill="none" xmlns="http://www.w3.org/2000/svg">
<path d="M21.4317 14.3309C21.8943 14.6381 22.511 14.9453 22.9736 15.2525C23.5903 15.7133 24.0529 16.6349 24.6696 16.6349C25.2863 16.7885 26.0573 16.0205 26.674 15.8669C27.4449 15.5597 28.2159 15.2525 28.9868 14.9453C29.2952 14.7917 29.6035 14.6381 29.4493 14.3309C29.4493 13.7165 29.4493 13.1021 29.4493 12.4877C29.4493 11.259 30.2203 10.3374 31.4537 10.1838C33.7665 9.87656 36.0793 9.87656 38.3921 10.1838C39.6255 10.3374 40.2423 11.259 40.3965 12.4877C40.3965 13.1021 40.3965 13.8701 40.3965 14.4845C40.3965 14.6381 40.5507 14.9453 40.859 15.0989C42.2467 15.7133 43.6344 16.3277 44.8678 16.7885C45.022 16.7885 45.4846 16.7885 45.6388 16.6349C46.1013 16.1741 46.5639 15.7133 47.0264 15.2525C47.9515 14.4845 49.0308 14.3309 50.1101 15.0989C51.9604 16.4813 53.6564 18.1709 55.0441 20.0141C55.815 21.0893 55.6608 22.1645 54.8899 23.0861C54.2731 23.7005 53.5022 24.1613 53.348 24.7757C53.1938 25.39 53.9648 26.158 54.2731 26.7724C54.5815 27.5404 54.8899 28.3084 55.0441 29.0764C55.1982 29.3836 55.3524 29.5372 55.6608 29.5372C56.2775 29.5372 56.8943 29.5372 57.511 29.5372C58.7445 29.5372 59.5154 30.3052 59.8238 31.534C60.1322 33.838 60.1322 36.142 59.8238 38.4459C59.6696 39.6747 58.7445 40.2891 57.511 40.4427C56.8943 40.4427 56.2775 40.4427 55.6608 40.4427C55.3524 40.4427 55.044 40.5963 54.8899 40.9035C54.4273 42.2859 53.8106 43.5147 53.1938 44.8971C53.1938 45.0507 53.1938 45.5115 53.348 45.6651C53.8106 46.1259 54.2731 46.5867 54.7357 47.2011C55.5066 48.1227 55.6608 49.1979 54.8899 50.1195C53.5022 51.9626 51.8062 53.6522 49.9559 55.0346C49.0308 55.649 47.9515 55.649 47.0264 54.881C46.5639 54.4202 46.1013 53.9594 45.6388 53.4986C45.3304 53.1914 45.1762 53.1914 44.8678 53.345C43.6344 53.9594 42.2467 54.4202 40.859 55.0346C40.5507 55.1882 40.3965 55.3418 40.3965 55.649C40.3965 56.2634 40.3965 56.8778 40.3965 57.4922C40.3965 58.721 39.6255 59.6426 38.3921 59.7962C36.0793 60.1034 33.7665 60.1034 31.4537 59.7962C30.2203 59.6426 29.4493 58.721 29.4493 57.4922C29.4493 56.8778 29.4493 56.1098 29.4493 55.4954C29.4493 55.3418 29.2952 55.0346 28.9868 55.0346C27.5991 54.4202 26.2115 53.8058 24.8238 53.345C24.6696 53.345 24.3612 53.345 24.207 53.4986C23.7445 53.9594 23.2819 54.4202 22.8194 54.881C21.8943 55.649 20.815 55.8026 19.8899 55.0346C18.0396 53.6522 16.3436 51.9626 14.9559 50.1195C14.185 49.1979 14.3392 47.9691 15.1101 47.0475C15.5727 46.5867 16.0352 46.1259 16.4978 45.6651C16.652 45.5115 16.652 45.2043 16.652 44.8971C16.1894 43.5147 15.5727 42.1323 14.9559 40.9035C14.8018 40.7499 14.6476 40.4427 14.3392 40.4427C13.7225 40.4427 13.1057 40.4427 12.489 40.4427C11.1013 40.4427 10.3304 39.6747 10.1762 38.4459C9.86784 36.142 9.86784 33.838 10.1762 31.534C10.3304 30.3052 11.2555 29.5372 12.489 29.5372C13.1057 29.5372 13.7225 29.5372 14.3392 29.5372C14.6476 29.5372 14.8018 29.3836 14.9559 29.0764C15.4185 27.694 16.0352 26.4652 16.652 25.0828C16.8062 24.7757 16.8062 24.6221 16.4978 24.3149C16.0352 23.8541 15.5727 23.3933 15.1101 22.9325C14.185 22.0109 14.185 20.9357 14.9559 19.8605C16.3436 18.0173 18.0396 16.3277 19.8899 15.0989C20.1982 14.6381 20.815 14.4845 21.4317 14.3309ZM12.489 31.6876C12.1806 33.838 12.1806 35.8348 12.489 37.9852C13.5683 37.9852 14.4934 37.9852 15.4185 37.9852C16.3436 37.9852 16.652 38.2924 16.9604 39.0603C17.4229 40.9035 18.1938 42.7467 19.1189 44.4363C19.5815 45.2043 19.5815 45.6651 18.8106 46.2795C18.0396 47.0475 17.4229 47.6619 16.652 48.4299C18.1938 49.9659 19.7357 51.5019 21.2775 52.8842C22.0485 52.1162 22.6652 51.3483 23.2819 50.7339C24.207 49.8123 24.3612 49.8123 25.4405 50.4267C27.1366 51.3483 28.8326 52.1162 30.6828 52.577C31.6079 52.7306 31.7621 53.1914 31.9163 54.113C31.9163 55.0346 31.9163 56.1098 31.9163 57.0314C34.0749 57.3386 36.0793 57.3386 38.2379 57.0314C38.2379 55.9562 38.2379 55.0346 38.2379 53.9594C38.2379 53.0378 38.5463 52.7306 39.3172 52.577C41.3216 52.1162 43.0176 51.3483 44.7137 50.2731C45.4846 49.8123 45.9471 49.8123 46.5639 50.4267C47.3348 51.1947 47.9515 51.809 48.8767 52.7306C50.4185 51.1947 51.9604 49.6587 53.348 48.1227C52.5771 47.3547 51.8062 46.5867 51.1894 45.9723C50.4185 45.2043 50.4185 44.8971 50.8811 43.9755C51.8062 42.2859 52.5771 40.5963 53.0396 38.7532C53.1938 37.8316 53.6564 37.5244 54.5815 37.5244C55.5066 37.5244 56.4317 37.5244 57.511 37.5244C57.8194 35.374 57.8194 33.3772 57.511 31.2268C56.4317 31.2268 55.5066 31.2268 54.4273 31.2268C53.5022 31.2268 53.1938 30.9196 53.0396 30.1516C52.5771 28.1548 51.8062 26.4652 50.7269 24.7757C50.2643 24.0077 50.2643 23.5469 51.0352 22.9325C51.8062 22.1645 52.4229 21.5501 53.348 20.7821C51.8062 19.2461 50.2643 17.8637 48.7225 16.3277C47.9515 17.2493 47.1806 17.8637 46.4097 18.6317C45.9471 19.0925 45.3304 19.2461 44.7137 18.7853C43.0176 17.7101 41.1674 16.9421 39.163 16.4813C38.3921 16.3277 38.0837 15.8669 38.0837 15.0989C38.0837 14.3309 38.0837 13.4093 38.0837 12.6413C38.0837 12.0269 37.9295 11.8733 37.3128 11.8733C36.5419 11.8733 35.7709 11.7197 35 11.7197C33.9207 11.7197 32.8414 11.8733 31.6079 11.8733C31.6079 12.9485 31.6079 14.0237 31.6079 14.9453C31.6079 15.8669 31.2996 16.1741 30.5286 16.3277C28.5242 16.7885 26.8282 17.5565 25.1322 18.4781C24.3612 18.9389 23.8987 18.9389 23.2819 18.3245C22.511 17.5565 21.8943 16.9421 21.1233 16.1741C20.1982 17.0957 19.2731 17.8637 18.5022 18.6317C17.8855 19.2461 17.2687 20.0141 16.652 20.6285C17.4229 21.3965 18.0396 22.0109 18.8106 22.6253C19.5815 23.3933 19.5815 23.7005 19.1189 24.6221C18.1938 26.3116 17.4229 28.0012 16.9604 29.8444C16.8062 30.766 16.3436 31.0732 15.4185 31.0732C14.4934 31.6876 13.4141 31.6876 12.489 31.6876Z" fill="#283583"/>
<path d="M54.1189 8.49417C53.1938 7.87978 52.2687 7.26538 51.3436 6.80458C45.6388 3.57901 39.4714 2.04302 32.8414 2.50382C26.9824 2.81101 21.7401 4.6542 16.8062 7.87978C16.652 8.03338 16.4978 8.03338 16.3436 8.18697C15.7269 8.49417 15.1101 8.34057 14.8018 7.87978C14.3392 7.26538 14.4934 6.65099 15.1101 6.19019C16.652 5.2686 18.0396 4.347 19.7357 3.57901C25.1322 0.967828 30.9912 -0.260963 37.0044 0.0462344C43.6344 0.507031 49.8018 2.65741 55.1982 6.49739L55.5066 6.80458H55.6608C55.6608 6.49739 55.6608 6.19019 55.5066 6.03659C55.3524 5.42219 55.6608 4.8078 56.2775 4.6542C56.8943 4.5006 57.511 4.6542 57.6652 5.2686C58.2819 6.95818 58.8987 8.64777 59.5154 10.3374C59.8238 11.1054 59.207 11.8733 58.2819 11.7197C56.7401 11.5661 55.1982 11.259 53.6564 10.9518C53.348 10.9518 53.0396 10.7982 52.7313 10.7982C52.1145 10.6446 51.8062 10.0302 51.9604 9.41577C52.1145 8.80137 52.7313 8.49417 53.1938 8.49417C53.5022 8.49417 53.6564 8.49417 53.9648 8.64777L54.1189 8.49417Z" fill="#283583"/>
<path d="M14.185 62.8682C14.3392 63.329 14.4934 63.6362 14.4934 63.9434C14.4934 64.5578 14.185 65.0186 13.7225 65.1722C13.1057 65.3258 12.6432 65.1722 12.489 64.5578C11.8722 62.8682 11.1013 61.025 10.6388 59.3354C10.3304 58.5674 11.1013 57.953 11.8722 58.1066C13.1057 58.2602 14.3392 58.5674 15.5727 58.721C16.0352 58.721 16.4978 58.8746 16.9604 58.8746C17.7313 59.0282 18.1938 59.489 18.1938 60.257C18.0396 61.025 17.5771 61.3322 16.652 61.1786C16.4978 61.1786 16.3436 61.1786 16.0352 61.1786C16.3436 61.3322 16.4978 61.4858 16.652 61.6394C20.815 64.5578 25.4405 66.4009 30.5286 67.1689C39.0088 68.3977 46.7181 66.5545 53.8106 61.9466C54.2731 61.6394 54.7357 61.3322 55.3524 61.793C56.1233 62.2538 56.1233 63.1754 55.3524 63.7898C53.0396 65.4794 50.4185 66.7081 47.7974 67.7833C43.1718 69.4729 38.3921 70.2409 33.4581 69.9337C26.2115 69.1657 20.0441 67.0153 14.4934 63.1754C14.3392 63.0218 14.3392 63.0218 14.185 62.8682Z" fill="#283583"/>
<path d="M64.2952 53.4986C64.141 53.9594 63.9868 54.2666 63.8326 54.4202C62.9075 55.649 61.8282 57.0314 60.7489 58.2602C60.1322 59.0282 59.5154 59.0282 59.0529 58.5674C58.5903 58.1066 58.5903 57.4922 59.2071 56.7242C60.1322 55.4954 61.2115 54.2666 62.1366 53.0378C62.4449 52.577 62.9075 52.2699 63.5242 52.577C63.8326 52.7306 63.9868 53.1914 64.2952 53.4986Z" fill="#283583"/>
<path d="M7.09251 17.2493C6.01322 17.2493 5.39648 16.3277 6.01322 15.5597C6.93833 14.0237 8.17181 12.6413 9.2511 11.259C9.71366 10.7982 10.3304 10.7982 10.793 11.259C11.2555 11.5661 11.4097 12.3341 10.9471 12.7949C9.86784 14.1773 8.78855 15.4061 7.70925 16.7885C7.55507 17.0957 7.2467 17.0957 7.09251 17.2493Z" fill="#283583"/>
<path d="M5.39648 20.7821C4.77974 22.4717 4.163 24.1613 3.39207 25.6972C3.23789 26.158 2.62115 26.3116 2.15859 26.0044C1.69604 25.6972 1.38767 25.39 1.54185 24.7757C2.00441 23.2397 2.62115 21.8573 3.23789 20.3213C3.39207 19.7069 4.00881 19.5533 4.62555 19.8605C4.93392 20.1677 5.08811 20.4749 5.39648 20.7821Z" fill="#283583"/>
<path d="M66.6079 26.7724C66.6079 26.3116 66.9163 25.8508 67.533 25.6972C68.1498 25.5436 68.6123 25.8508 68.7665 26.4652C69.0749 28.0012 69.3833 29.5372 69.6916 31.0732C69.8458 31.6876 69.3833 32.1484 68.7665 32.1484C68.1498 32.302 67.6872 31.9948 67.533 31.3804C67.2247 29.8444 66.9163 28.3084 66.6079 26.7724Z" fill="#283583"/>
<path d="M68.4582 44.8971C68.4582 45.0507 68.304 45.3579 68.304 45.5115C67.8414 46.7403 67.3789 47.9691 66.9163 49.0443C66.6079 49.8123 65.9912 49.9659 65.3745 49.8123C64.7577 49.5051 64.6035 48.8907 64.7577 48.2763C65.2203 47.0475 65.6828 45.8187 66.1454 44.4363C66.4537 43.8219 66.9163 43.5147 67.3789 43.6683C68.1498 43.8219 68.4582 44.1291 68.4582 44.8971Z" fill="#283583"/>
<path d="M3.23789 42.7467C3.23789 43.5147 2.92952 43.9755 2.31278 44.1291C1.69604 44.2827 1.0793 43.9755 0.92511 43.3611C0.61674 41.8251 0.30837 40.2891 0.154185 38.9067C-1.14877e-08 38.2924 0.61674 37.8316 1.0793 37.8316C1.69604 37.8316 2.31278 38.1388 2.31278 38.9067C2.46696 39.8283 2.62115 40.7499 2.77533 41.6715C3.0837 41.9787 3.23789 42.4395 3.23789 42.7467Z" fill="#283583"/>
<path d="M0 33.2236C0.154185 32.1484 0.154185 31.0732 0.30837 29.8444C0.462555 29.0764 0.92511 28.462 1.69604 28.6156C2.46696 28.7692 2.77533 29.3836 2.62115 30.1516C2.46696 31.2268 2.46696 32.302 2.31278 33.5308C2.31278 34.4524 1.85022 34.9132 1.0793 34.9132C0.30837 34.9132 0 34.4524 0 33.5308V33.2236Z" fill="#283583"/>
<path d="M70 36.4492C69.8458 37.5244 69.8458 38.7531 69.6916 39.8283C69.5374 40.5963 68.9207 41.2107 68.304 41.0571C67.6872 40.9035 67.2247 40.2891 67.3789 39.5211C67.533 38.4459 67.6872 37.3708 67.6872 36.142C67.8414 35.2204 68.1498 34.7596 68.9207 34.7596C69.6916 34.7596 70 35.2204 70 36.2956V36.4492Z" fill="#283583"/>
<path d="M35 21.5501C42.2467 21.5501 48.2599 27.5404 48.4141 34.7596C48.5683 41.9787 42.4009 48.1227 35.1542 48.1227C27.7533 48.1227 21.7401 42.2859 21.7401 34.7596C21.5859 27.694 27.5991 21.7037 35 21.5501ZM45.9471 34.9132C45.9471 28.7692 41.0132 23.8541 35 23.8541C28.8326 23.8541 23.8987 28.7692 23.8987 34.9132C23.8987 41.0571 28.8326 45.8187 35 45.8187C41.0132 45.8187 45.9471 40.9035 45.9471 34.9132Z" fill="#283583"/>
</svg>
