<svg width="52" height="70" viewBox="0 0 52 70" fill="none" xmlns="http://www.w3.org/2000/svg">
<path d="M12.158 61.5529C9.67337 62.7384 7.33487 63.7758 4.85021 64.9614C4.5579 65.1096 3.97327 65.1096 3.5348 64.9614C2.95017 64.665 3.09633 64.0722 3.24249 63.4794C4.99637 59.3299 6.8964 55.1805 8.65028 51.1792C9.38106 49.5491 10.1118 47.7707 10.8426 45.9924C10.5503 45.9924 10.4042 45.8442 10.1118 45.8442C7.62718 45.2514 6.45793 44.0658 6.16562 41.5465C6.01946 40.9537 6.01946 40.361 5.8733 39.7682C5.72715 38.2862 4.99637 37.2489 3.82711 36.5079C3.09633 36.0633 2.51171 35.4705 1.92708 34.8777C0.61167 33.6922 0.319357 32.2102 0.757827 30.4319C1.05014 29.6909 1.1963 28.9499 1.63477 28.209C2.36555 26.727 2.36555 25.2451 1.63477 23.7631C1.34245 23.0221 1.05014 22.2811 0.757827 21.5402C0.173201 19.91 0.61167 18.4281 1.78092 17.2425C2.36555 16.6497 2.95017 16.2051 3.68096 15.6124C5.14252 14.575 5.8733 13.2412 5.8733 11.4629C5.8733 10.7219 6.01946 10.1291 6.16562 9.38817C6.60409 7.31343 7.9195 6.27607 10.258 5.97968C11.1349 5.68329 11.7196 5.68329 12.3042 5.53509C13.7658 5.3869 14.935 4.64592 15.8119 3.31216C16.2504 2.71938 16.6889 2.1266 17.2735 1.53382C18.5889 0.200063 20.0505 -0.244522 21.8044 0.348259C22.389 0.496454 23.1198 0.792844 23.7044 1.08923C25.166 1.83021 26.7737 1.83021 28.2353 1.08923C28.966 0.792844 29.843 0.496454 30.5738 0.200064C32.0353 -0.244522 33.2046 0.0518684 34.3738 1.08923C34.9585 1.68202 35.5431 2.2748 35.9815 3.01577C37.1508 4.79411 38.6124 5.53509 40.5124 5.68329C41.097 5.68329 41.8278 5.83148 42.4124 5.97968C44.6048 6.57246 45.4817 8.2026 45.774 10.2773C45.9202 10.8701 45.9202 11.4629 46.0663 12.0557C46.2125 13.5376 46.9433 14.575 48.1125 15.316C48.6972 15.7606 49.4279 16.3533 50.0126 16.7979C51.328 17.9835 51.7664 19.6136 51.1818 21.392C50.8895 22.133 50.7434 22.8739 50.451 23.4667C49.7203 24.9487 49.8664 26.4306 50.451 27.9126C50.8895 28.8017 51.1818 29.6909 51.328 30.5801C51.7665 31.9138 51.328 33.0994 50.451 34.1368C49.7203 34.8777 48.9895 35.4705 48.2587 36.0633C46.7971 37.1007 46.2125 38.4344 46.0663 40.0646C46.0663 40.8055 45.9202 41.3983 45.774 42.1393C45.3356 44.0658 44.0202 45.1032 42.1201 45.5478C41.8278 45.5478 41.5355 45.696 41.2432 45.696C42.2663 48.0671 43.2894 50.29 44.1663 52.513C45.6279 56.0697 47.2356 59.4781 48.6972 63.0348L48.8433 63.3312C48.9895 63.7758 49.1356 64.2204 48.6972 64.665C48.2587 65.1096 47.8202 65.1096 47.3818 64.8132C45.1894 63.7758 42.8509 62.7384 40.6586 61.7011C40.5124 61.5529 40.2201 61.5529 39.9278 61.4047C39.6355 62.1457 39.3431 62.8866 39.0508 63.4794C38.32 65.2578 37.5893 67.0361 36.8585 68.8144C36.7123 69.259 36.42 69.7036 35.8354 69.7036C35.2508 69.7036 34.9585 69.259 34.8123 68.8144C32.1815 62.5902 29.4045 56.5142 26.7737 50.29C26.6275 49.9937 26.3352 49.8455 26.1891 49.5491C26.0429 49.8455 25.7506 49.9937 25.6044 50.29C22.9736 56.366 20.3428 62.442 17.712 68.5181C17.5658 68.6662 17.5658 68.9626 17.4197 68.9626C17.1274 69.259 16.835 69.5554 16.3966 69.5554C16.1043 69.5554 15.6658 69.259 15.5196 68.8144C14.7889 67.1843 14.0581 65.406 13.4734 63.6276C12.8888 63.183 12.5965 62.442 12.158 61.5529ZM31.743 49.5491C32.1815 49.2527 32.7661 49.1045 33.0584 48.8081C33.643 48.2153 34.2277 47.6225 34.6661 46.8815C35.6892 45.3996 37.1508 44.3622 38.9047 44.0658C39.6355 43.9176 40.3662 43.9176 40.9509 43.7695C42.2663 43.6213 43.2894 42.8803 43.5817 41.3983C43.7278 40.9537 43.7278 40.5092 43.7278 40.0646C43.874 37.8416 44.6048 35.9151 46.5048 34.5813C47.0894 34.1368 47.6741 33.6922 48.2587 33.0994C48.8433 32.5066 49.2818 31.7656 48.9895 30.8765C48.8433 30.2837 48.6972 29.5427 48.4049 28.9499C47.8202 27.6162 47.3818 26.2824 47.6741 24.8005C47.8202 23.7631 48.2587 22.7257 48.6972 21.6884C49.5741 19.3172 49.2818 18.7245 47.6741 17.3907C47.3818 17.2425 47.2356 16.9461 46.9433 16.7979C44.8971 15.4642 44.0202 13.3894 43.7278 10.8701C43.4355 8.3508 42.9971 7.90621 40.8047 7.46163C40.5124 7.46163 40.3662 7.46163 40.0739 7.46163C38.0277 7.31343 36.1277 6.57246 34.8123 4.79411C34.3738 4.20133 33.9354 3.60855 33.4969 3.01577C32.7661 1.97841 31.8892 1.53382 30.5738 1.97841C30.1353 2.1266 29.5507 2.2748 29.1122 2.57119C27.2122 3.46036 25.3121 3.75675 23.4121 3.01577C22.8275 2.86758 22.389 2.57119 21.8044 2.2748C19.7582 1.38563 19.0274 1.68202 17.712 3.46036C17.5658 3.60855 17.4197 3.75675 17.2735 4.05314C15.8119 6.27607 13.7658 7.31343 11.1349 7.46163C9.38106 7.46163 8.35797 8.3508 8.06565 9.98095C8.21181 10.5737 8.06565 11.0183 8.06565 11.4629C7.9195 13.6858 7.04256 15.6124 5.28868 16.9461C4.70405 17.3907 3.97327 17.9835 3.38864 18.4281C2.80402 18.8727 2.65786 19.6136 2.80402 20.3546C2.95017 20.9474 3.09633 21.6884 3.38864 22.2811C4.5579 24.6523 4.5579 26.8752 3.38864 29.2463C3.24249 29.6909 3.09633 30.1355 2.95017 30.5801C2.51171 31.7656 2.80402 32.803 3.82711 33.6922C4.26558 33.9886 4.5579 34.4332 4.99637 34.7295C7.04256 36.0633 7.9195 38.138 8.06565 40.5092C8.21181 42.5839 8.94259 43.4731 10.6965 43.9176C11.1349 44.0658 11.5734 44.0658 12.0119 44.0658C14.2042 44.214 15.8119 45.1032 17.1274 46.8815C17.5658 47.4743 18.0043 48.0671 18.4428 48.5117C19.1735 49.4009 20.0505 49.5491 21.0736 49.4009C21.5121 49.2527 21.9505 49.1045 22.389 48.9563C24.7275 47.6225 27.2122 47.6225 29.5507 48.9563C30.1353 49.1045 31.0122 49.2527 31.743 49.5491ZM35.6892 66.2951C35.8354 65.9987 35.8354 65.8505 35.9815 65.7023C36.7123 63.7758 37.4431 61.9975 38.1739 60.0709C38.6124 59.0336 39.0508 58.8854 39.9278 59.3299C41.5355 60.0709 42.9971 60.8119 44.6048 61.5529C44.8971 61.7011 45.1894 61.8493 45.774 61.9975C43.4355 56.8106 41.2432 51.6238 39.0508 46.5852C39.0508 46.437 38.4662 46.2888 38.4662 46.2888C37.7354 46.8815 37.0046 47.3261 36.42 48.0671C35.6892 48.8081 35.2508 49.5491 34.52 50.29C33.4969 51.1792 32.3276 51.6238 31.0122 51.3274C30.4276 51.1792 29.6968 51.031 28.966 50.7346C31.1584 55.9215 33.3507 61.1083 35.6892 66.2951ZM23.1198 50.7346C22.8275 50.8828 22.6813 50.8828 22.5351 50.8828C22.389 50.8828 22.2428 51.031 22.0967 51.031C20.0505 51.772 18.2966 51.3274 16.9812 49.5491C16.5427 48.9563 16.1043 48.3635 15.6658 47.7707C15.0812 47.1779 14.4965 46.7334 13.9119 46.2888C13.4734 45.9924 13.1811 46.1406 12.8888 46.7334C10.8426 51.6238 8.65028 56.366 6.60409 61.2565C6.45793 61.4047 6.45793 61.7011 6.31177 61.9975C8.35797 61.1083 10.258 60.2191 12.158 59.3299C13.035 58.8854 13.4734 59.1818 13.9119 60.0709C14.3504 61.1083 14.7889 62.1457 15.2273 63.183C15.6658 64.2204 16.1043 65.2578 16.5427 66.4433C18.5889 61.1083 20.7813 55.9215 23.1198 50.7346Z" fill="#283583"/>
<path d="M35.6892 70C34.9585 70 34.8123 69.5554 34.52 69.1108C31.5969 62.5902 29.1122 56.6624 26.4814 50.5864C26.4814 50.4382 26.3352 50.29 26.0429 50.1418L25.8967 49.9936L25.7506 50.1418C25.6044 50.29 25.4583 50.4382 25.3121 50.5864C23.1198 55.6251 20.9274 60.6637 18.7351 65.7023L17.4197 68.8144V68.9626C17.4197 69.1108 17.2735 69.259 17.2735 69.4072L17.1274 69.5554C16.835 69.8518 16.5427 70 16.2504 70C15.9581 70 15.3735 69.5554 15.2273 69.259C14.6427 68.0735 14.2042 66.7397 13.6196 65.5541C13.4734 65.1096 13.1811 64.665 13.035 64.2204C12.7427 63.6276 12.5965 63.0348 12.3042 62.442L12.0119 61.7011C11.4273 61.9975 10.8426 62.2938 10.258 62.442C8.35797 63.3312 6.60409 64.0722 4.70405 64.9614C4.41174 65.1096 3.82711 65.1096 3.38864 64.9614C2.80402 64.665 2.80402 64.2204 3.09633 63.3312C4.5579 59.9227 6.01946 56.5142 7.48103 53.1057L8.35797 50.8828C8.79644 49.6973 9.38106 48.5117 9.81953 47.3261L10.8426 45.9924H10.6965C10.5503 45.9924 10.4042 45.8442 10.258 45.8442C7.77334 45.2514 6.60409 44.0658 6.16562 41.3983C6.16562 41.1019 6.16562 40.9537 6.01946 40.6574C6.01946 40.361 5.8733 39.9164 5.8733 39.62C5.72715 38.2862 5.14252 37.2489 3.97327 36.3597C3.24249 35.7669 2.51171 35.3223 1.92708 34.7295C0.61167 33.544 0.319357 31.9138 0.757827 30.2837C1.05014 29.3945 1.34245 28.6535 1.63477 28.0608C2.21939 26.5788 2.21939 25.0969 1.63477 23.7631C1.34245 23.1703 1.05014 22.4293 0.757827 21.5402C0.173201 19.91 0.61167 18.2799 1.92708 17.0943C2.51171 16.5015 3.24249 15.9088 3.82711 15.4642C5.14252 14.575 5.8733 13.2412 6.01946 11.4629C6.01946 10.7219 6.16562 10.1291 6.31177 9.38817C6.8964 7.31343 8.06565 6.12787 10.4042 5.83148C10.5503 5.83148 10.6965 5.83148 10.9888 5.68329C11.4273 5.68329 11.8657 5.53509 12.158 5.53509C13.4734 5.3869 14.6427 4.79411 15.6658 3.46036C16.1043 2.86758 16.5427 2.2748 17.1274 1.68202C18.4428 0.200063 20.0505 -0.0963269 21.8044 0.496454C22.5351 0.792844 23.1198 0.94104 23.7044 1.23743C25.166 1.97841 26.7737 1.97841 28.2353 1.23743C28.966 0.94104 29.843 0.644649 30.5738 0.348259C32.0353 -0.0963269 33.3507 0.200064 34.3738 1.23743C34.9585 1.68202 35.5431 2.42299 36.1277 3.16397C37.1508 4.64592 38.6124 5.53509 40.5124 5.68329C41.2432 5.68329 41.8278 5.83148 42.4124 5.97968C44.3125 6.42426 45.4817 7.90621 45.774 10.2773C45.9202 10.4255 45.9202 10.7219 45.9202 10.8701C45.9202 11.3147 46.0663 11.6111 46.0663 12.0557C46.2125 13.3894 46.7971 14.4268 48.1125 15.316C48.6972 15.7606 49.428 16.2051 50.0126 16.9461C51.328 18.2799 51.7665 19.7618 51.1818 21.5402C50.8895 22.2811 50.7434 23.0221 50.451 23.7631C49.8664 25.2451 49.7203 26.5788 50.451 28.0608C50.7434 28.8017 51.0357 29.6909 51.328 30.7283C51.7665 32.062 51.328 33.3958 50.451 34.4332C49.7203 35.1741 48.9895 35.7669 48.2587 36.3597C46.9433 37.2489 46.2125 38.5826 46.2125 40.361C46.2125 40.9537 46.0663 41.6947 45.9202 42.4357C45.4817 44.3622 44.3125 45.5478 42.2663 45.8442L41.097 45.9924L41.974 47.9189C42.7047 49.5491 43.4355 51.1792 44.0202 52.8094L48.551 63.3312V63.6276C48.8433 64.2204 48.6972 64.665 48.4049 64.9614C47.9664 65.4059 47.5279 65.406 46.9433 65.1096C45.1894 64.3686 43.4355 63.4794 41.6817 62.7384L40.2201 61.9975C40.0739 61.9975 39.9278 61.8493 39.7816 61.8493L39.6355 61.7011L39.3431 62.2938C39.197 62.7384 38.9047 63.3312 38.7585 63.7758C38.0277 65.5541 37.297 67.3325 36.5662 69.1108C36.7123 69.5554 36.42 70 35.6892 70ZM26.0429 49.6973L26.3352 49.9936C26.4814 50.1418 26.6275 50.29 26.7737 50.4382C29.4045 56.5142 32.0353 62.442 34.8123 68.9626C34.9585 69.4072 35.2508 69.8518 35.8354 69.8518C36.42 69.8518 36.5662 69.5554 36.8585 68.9626C37.5893 67.1843 38.32 65.406 39.0508 63.6276C39.197 63.183 39.4893 62.5902 39.6355 62.1457L39.9278 61.4047L40.2201 61.5529C40.3662 61.5529 40.5124 61.7011 40.6586 61.7011L42.1201 62.442C43.874 63.183 45.6279 64.0722 47.3818 64.8132C47.8202 65.1096 48.2587 64.9614 48.551 64.665C48.8433 64.3686 48.8433 63.924 48.6972 63.4794V63.183L44.1663 52.6612C43.4355 51.031 42.7047 49.4009 42.1201 47.7707L41.2432 45.696L42.2663 45.5478C44.1663 45.1032 45.3356 44.0658 45.774 42.1393C45.9202 41.3983 46.0663 40.6574 46.0663 40.0646C46.2125 38.2862 46.9433 36.9525 48.2587 35.9151C48.9895 35.3223 49.7203 34.7295 50.451 33.9886C51.328 32.9512 51.7665 31.7656 51.328 30.4319C51.0357 29.3945 50.7434 28.5053 50.451 27.7644C49.7203 26.2824 49.7203 24.8005 50.451 23.3185C50.7434 22.5775 51.0357 21.8366 51.1818 21.2438C51.7665 19.6136 51.328 18.1317 50.0126 16.7979C49.4279 16.2051 48.6972 15.6124 48.1125 15.316C46.651 14.4268 46.0663 13.3894 45.9202 12.0557C45.9202 11.6111 45.774 11.3147 45.774 10.8701C45.774 10.7219 45.774 10.4255 45.6279 10.2773C45.3356 7.90621 44.3125 6.57246 42.4124 6.12787C41.8278 5.97968 41.2432 5.83148 40.5124 5.83148C38.4662 5.68329 37.0046 4.94231 35.9815 3.31216C35.5431 2.57119 34.8123 1.83021 34.3738 1.38563C33.3507 0.348259 32.0353 0.0518683 30.7199 0.496454C29.843 0.792844 29.1122 1.08923 28.3814 1.38563C26.7737 2.1266 25.3121 2.1266 23.7044 1.38563C23.1198 1.08923 22.5351 0.94104 21.8044 0.644649C20.0505 0.0518683 18.5889 0.496454 17.2735 1.83021C16.835 2.42299 16.2504 3.01577 15.8119 3.60855C14.7889 4.79411 13.6196 5.53509 12.3042 5.68329C11.8657 5.68329 11.4273 5.83148 11.1349 5.83148C10.9888 5.83148 10.8426 5.83148 10.5503 5.97968C8.35797 6.27607 7.04256 7.31343 6.60409 9.23997C6.31177 9.98095 6.31177 10.7219 6.16562 11.3147C6.01946 13.093 5.28868 14.575 3.82711 15.4642C3.24249 15.9088 2.65786 16.3533 1.92708 16.9461C0.757827 18.1317 0.319357 19.6136 0.903983 21.2438C1.1963 22.133 1.48861 22.8739 1.78092 23.4667C2.51171 24.9487 2.51171 26.4306 1.78092 27.9126C1.48861 28.5053 1.1963 29.2463 0.903983 30.1355C0.319357 31.7656 0.757827 33.2476 1.92708 34.4332C2.51171 35.0259 3.09633 35.4705 3.82711 36.0633C4.99637 36.9525 5.72715 38.138 5.8733 39.4718C5.8733 39.7682 6.01946 40.2128 6.01946 40.5092C6.01946 40.8055 6.01946 40.9537 6.16562 41.2501C6.45793 43.7695 7.62718 44.955 10.1118 45.5478C10.258 45.5478 10.4042 45.5478 10.5503 45.696H10.9888L10.258 47.4743C9.81953 48.6599 9.2349 49.8455 8.79644 51.031L7.9195 53.2539C6.45793 56.6624 4.99637 60.0709 3.5348 63.4794C3.24249 64.2204 3.24249 64.5168 3.68096 64.8132C3.97327 64.9614 4.5579 64.9614 4.85021 64.8132C6.60409 64.0722 8.50412 63.183 10.4042 62.2938C10.9888 61.9975 11.5734 61.7011 12.158 61.4047H12.3042L12.5965 62.2938C12.8888 62.8866 13.035 63.4794 13.3273 64.0722C13.4734 64.5168 13.7658 64.9614 13.9119 65.4059C14.3504 66.5915 14.935 67.9253 15.5196 69.1108C15.6658 69.4072 16.1043 69.7036 16.3966 69.7036C16.6889 69.7036 16.835 69.4072 17.1274 69.259L17.2735 69.1108L17.4197 68.8144V68.6662L18.7351 65.5541C20.9274 60.6637 23.1198 55.4769 25.3121 50.4382C25.4583 50.29 25.6044 50.1418 25.7506 49.9936L26.0429 49.6973ZM16.2504 66.5915L14.935 63.183C14.7889 62.8866 14.6427 62.5902 14.4965 62.2938C14.2042 61.5529 13.9119 60.8119 13.6196 60.0709C13.4734 59.6263 13.3273 59.3299 13.035 59.3299C12.7427 59.1818 12.4503 59.3299 12.0119 59.4781C10.6965 60.0709 9.38106 60.6637 7.9195 61.4047L6.01946 62.2938V62.1457L6.16562 61.8493C6.16562 61.7011 6.31177 61.5529 6.31177 61.4047C6.8964 60.0709 7.48103 58.8854 8.06565 57.5516C9.52722 54.1431 11.1349 50.4382 12.5965 46.8815C12.7427 46.437 12.8888 46.2888 13.1811 46.2888C13.3273 46.2888 13.6196 46.2888 13.7658 46.437C14.4965 46.8815 14.935 47.4743 15.5196 47.9189C15.8119 48.2153 16.1043 48.6599 16.3966 48.9563C16.5427 49.1045 16.6889 49.4009 16.835 49.5491C18.1505 51.1792 19.9043 51.772 21.8044 51.031L22.0967 50.8828L22.9736 50.5864L16.2504 66.5915ZM12.7427 59.0336H13.035C13.3273 59.1818 13.6196 59.4781 13.7658 59.9227C14.0581 60.6637 14.3504 61.4047 14.6427 62.1457C14.7889 62.442 14.935 62.7384 15.0812 63.0348L16.2504 66.1469L22.8275 50.8828L22.2428 51.031L21.9505 51.1792C19.9043 51.9202 18.1505 51.4756 16.6889 49.6973C16.5427 49.5491 16.3966 49.2527 16.2504 49.1045C15.9581 48.8081 15.6658 48.3635 15.3735 48.0671C14.935 47.6225 14.3504 47.0297 13.6196 46.5852C13.4734 46.437 13.3273 46.437 13.1811 46.437C13.035 46.437 12.8888 46.5852 12.7427 47.0297C11.2811 50.5864 9.67337 54.1431 8.21181 57.6998C7.62718 59.0336 7.04256 60.2191 6.45793 61.5529C6.45793 61.5529 6.45793 61.5529 6.45793 61.7011V61.8493L7.9195 61.1083C9.2349 60.5155 10.6965 59.7745 12.0119 59.1818C12.3042 59.0336 12.5965 59.0336 12.7427 59.0336ZM35.6892 66.5915L28.8199 50.7346H28.966C29.2583 50.7346 29.4045 50.8828 29.6968 50.8828C30.1353 51.031 30.5738 51.1792 31.0122 51.1792C32.3276 51.4756 33.4969 51.1792 34.3738 50.1418C34.6661 49.8455 35.1046 49.4009 35.3969 48.9563C35.6892 48.5117 35.9815 48.2153 36.2739 47.9189C36.8585 47.3261 37.5893 46.7334 38.4662 46.1406H38.7585C38.9047 46.1406 39.197 46.2888 39.197 46.437C41.097 50.8828 42.9971 55.1805 45.0433 59.7745L46.0663 61.9975L45.9202 61.8493C45.774 61.8493 45.6279 61.7011 45.4817 61.7011C45.1894 61.5529 45.0433 61.5529 44.7509 61.4047C43.874 61.1083 43.1432 60.6637 42.4124 60.2191C41.6817 59.9227 40.9509 59.4781 40.0739 59.1818C39.6355 59.0336 39.3431 58.8854 39.0508 59.0336C38.7585 59.1818 38.6124 59.3299 38.4662 59.9227C38.0277 60.9601 37.5893 62.1457 37.1508 63.183L36.2739 65.4059C36.2739 65.5541 36.1277 65.5541 36.1277 65.7023L35.6892 66.5915ZM29.1122 50.8828L35.6892 66.1469V65.9987C35.6892 65.8505 35.8354 65.7023 35.8354 65.7023L36.7123 63.4794C37.1508 62.442 37.5893 61.2565 38.0277 60.2191C38.3201 59.6263 38.4662 59.3299 38.7585 59.1818C39.0508 59.0336 39.3431 59.1818 39.9278 59.3299C40.6586 59.6263 41.3893 60.0709 42.2663 60.3673C42.9971 60.8119 43.874 61.1083 44.6048 61.5529C44.7509 61.7011 45.0433 61.7011 45.3356 61.8493L45.6279 61.9975L44.7509 60.0709C42.7047 55.4769 40.8047 51.1792 38.9047 46.7334L38.4662 46.437C37.7354 47.0297 37.0046 47.4743 36.42 48.2153C36.1277 48.5117 35.8354 48.9563 35.5431 49.2527C35.2508 49.6973 34.9585 49.9936 34.52 50.4382C33.4969 51.4756 32.1815 51.772 30.8661 51.4756C30.4276 51.3274 29.9891 51.1792 29.5507 51.1792C29.4045 51.031 29.2583 51.031 29.1122 50.8828ZM31.743 49.5491C31.4507 49.4009 31.1584 49.4009 30.8661 49.2527C30.2814 49.1045 29.843 48.9563 29.4045 48.8081C27.066 47.4743 24.7275 47.6225 22.2428 48.8081C21.8044 49.1045 21.3659 49.1045 20.9274 49.2527C19.7582 49.5491 18.8812 49.2527 18.1505 48.3635C18.0043 48.0671 17.712 47.9189 17.5658 47.6225C17.2735 47.3261 17.1274 47.0297 16.835 46.7334C15.5196 45.1032 13.9119 44.214 11.7196 44.0658C11.1349 44.0658 10.6965 43.9176 10.4042 43.9176C8.65028 43.4731 7.77334 42.4357 7.77334 40.361C7.62718 37.8416 6.75024 35.9151 4.70405 34.5813C4.41174 34.4332 4.26558 34.1368 3.97327 33.9886C3.82711 33.8404 3.68096 33.6922 3.5348 33.544C2.5117 32.803 2.21939 31.7656 2.65786 30.4319C2.80402 29.9873 2.95017 29.5427 3.09633 29.0981C4.26558 26.8752 4.26558 24.6523 3.09633 22.2811C2.80402 21.8366 2.80402 21.2438 2.65786 20.7992C2.65786 20.651 2.5117 20.5028 2.5117 20.3546C2.36555 19.6136 2.51171 18.8727 3.09633 18.4281C3.82711 17.8353 4.41174 17.2425 4.99637 16.9461C6.8964 15.4642 7.9195 13.834 8.06565 11.4629C8.06565 11.0183 8.21181 10.5737 8.21181 10.1291C8.65028 8.49899 9.67337 7.60982 11.4273 7.60982C14.2042 7.46163 16.1043 6.42426 17.5658 4.34953C17.712 4.20133 17.712 4.05314 17.8581 3.90494L18.0043 3.75675C19.4659 1.97841 20.0505 1.83021 22.2428 2.57119C22.5351 2.71938 22.8275 2.86758 23.1198 2.86758C23.4121 3.01577 23.5582 3.16397 23.8506 3.16397C25.6044 3.90494 27.5045 3.75675 29.5507 2.71938C29.9891 2.57119 30.4276 2.42299 30.8661 2.2748H31.0122C32.1815 1.83021 33.2046 2.2748 33.9354 3.31216C34.0815 3.60855 34.2277 3.75675 34.52 4.05314C34.8123 4.34953 35.1046 4.79411 35.2508 5.0905C36.42 6.72065 38.1739 7.46163 40.5124 7.60982H40.6586C40.8047 7.60982 40.9509 7.60982 41.2432 7.60982C43.4355 8.05441 43.874 8.64719 44.1663 11.1665C44.4586 13.834 45.3356 15.7606 47.2356 16.9461C47.3818 17.0943 47.6741 17.2425 47.8202 17.3907L48.1125 17.5389C49.7203 18.8727 50.0126 19.4654 49.1356 21.8366C48.9895 22.133 48.9895 22.2811 48.8433 22.5775C48.551 23.3185 48.2587 24.2077 48.1125 24.9487C47.8202 26.4306 48.4049 27.7644 48.8433 28.9499C49.1356 29.5427 49.2818 29.9873 49.428 30.5801L49.5741 30.8765C49.8664 31.7656 49.5741 32.5066 48.8433 33.0994C48.2587 33.544 47.6741 34.1368 47.0894 34.5813C45.3356 35.7669 44.4586 37.5453 44.3125 39.9164C44.3125 40.361 44.1663 40.8055 44.1663 41.2501C43.874 42.7321 42.9971 43.4731 41.3893 43.7695C40.9509 43.7695 40.6586 43.9176 40.2201 43.9176C39.9278 43.9176 39.4893 44.0658 39.197 44.0658C37.5893 44.3622 36.1277 45.2514 34.9585 46.7334C34.52 47.3261 33.9354 48.0671 33.3507 48.6599C33.0584 48.9563 32.7661 49.1045 32.3276 49.2527C32.0353 49.4009 31.8892 49.5491 31.743 49.5491ZM26.0429 47.7707C27.2122 47.7707 28.3814 48.0671 29.6968 48.8081C30.1353 48.9563 30.5738 49.1045 31.1584 49.2527C31.4507 49.2527 31.5969 49.4009 31.8892 49.4009C32.0353 49.4009 32.1815 49.2527 32.3276 49.2527C32.6199 49.1045 33.0584 48.9563 33.2046 48.8081C33.7892 48.2153 34.3738 47.6225 34.8123 46.8815C35.9815 45.2514 37.4431 44.3622 39.0508 44.0658C39.3431 44.0658 39.7816 43.9176 40.0739 43.9176C40.3662 43.9176 40.8047 43.7695 41.2432 43.7695C42.7047 43.4731 43.5817 42.7321 43.874 41.3983C44.0202 40.9537 44.0202 40.5092 44.0202 40.0646C44.1663 37.6934 45.0433 35.9151 46.7971 34.5813C47.3818 34.1368 48.1125 33.544 48.551 33.0994C49.2818 32.5066 49.5741 31.7656 49.2818 31.0247L49.1356 30.7283C48.9895 30.1355 48.8433 29.5427 48.551 29.0981C47.9664 27.7644 47.5279 26.4306 47.8202 24.9487C47.9664 24.0595 48.2587 23.3185 48.551 22.5775C48.6972 22.2811 48.6972 22.133 48.8433 21.8366C49.7203 19.4654 49.428 18.8727 47.8202 17.6871L47.5279 17.5389C47.3818 17.3907 47.2356 17.2425 46.9433 17.0943C45.0433 15.7606 44.0202 13.834 43.7278 11.1665C43.4355 8.64719 42.9971 8.2026 40.9509 7.75802C40.8047 7.75802 40.6586 7.75802 40.5124 7.75802H40.3662C38.0277 7.60982 36.2739 6.72065 34.9585 5.0905C34.6661 4.79411 34.3738 4.34953 34.2277 4.05314C34.0815 3.75675 33.9354 3.60855 33.643 3.31216C32.9123 2.2748 32.0353 1.97841 30.8661 2.2748H30.7199C30.2814 2.57119 29.843 2.71938 29.4045 3.01577C27.3583 4.05314 25.4583 4.20133 23.5582 3.46036C23.2659 3.31216 22.9736 3.31216 22.8275 3.16397C22.5351 3.01577 22.389 2.86758 22.0967 2.71938C20.0505 1.97841 19.4659 2.1266 18.1505 3.75675L18.0043 3.90494C17.8581 4.05314 17.712 4.20133 17.712 4.34953C16.2504 6.57246 14.2042 7.60982 11.4273 7.75802C9.67337 7.75802 8.79644 8.64719 8.35797 10.1291C8.21181 10.5737 8.21181 11.0183 8.21181 11.4629C8.06565 13.834 7.18871 15.6124 5.28868 16.9461C4.70405 17.3907 4.11943 17.8353 3.38864 18.4281C2.80402 18.8727 2.65786 19.6136 2.80402 20.2064C2.80402 20.3546 2.95017 20.5028 2.95017 20.651C3.09633 21.0956 3.24249 21.6884 3.38864 22.133C4.5579 24.5041 4.5579 26.727 3.38864 29.0981C3.24249 29.5427 3.09633 29.9873 2.95017 30.2837C2.51171 31.6174 2.80402 32.5066 3.82711 33.2476C3.97327 33.3958 4.11943 33.544 4.41174 33.6922C4.70405 33.8404 4.85021 34.1368 5.14252 34.285C7.18871 35.6187 8.21181 37.5453 8.21181 40.2128C8.21181 42.1393 9.08875 43.1767 10.6965 43.6213C11.1349 43.7695 11.4273 43.7695 12.0119 43.7695C14.2042 43.9176 15.9581 44.8068 17.2735 46.5852C17.5658 46.8815 17.712 47.1779 18.0043 47.4743C18.1505 47.7707 18.4428 47.9189 18.5889 48.2153C19.1735 49.1045 20.0505 49.2527 21.2197 48.9563C21.6582 48.8081 22.0967 48.6599 22.5351 48.5117C23.5582 48.0671 24.7275 47.7707 26.0429 47.7707Z" fill="#283583"/>
<path d="M26.0429 8.79539C35.6892 8.94358 43.1432 17.0943 42.7047 26.727C42.2663 35.6187 34.9585 43.1767 25.3121 42.8803C15.9581 42.5839 8.94259 34.5813 9.08875 25.5414C9.38106 16.2051 16.9812 8.64719 26.0429 8.79539ZM26.0429 10.8701C17.8581 10.8701 11.2811 17.5389 11.1349 25.6896C11.1349 34.1368 17.712 40.8055 26.0429 40.9537C34.0815 40.9537 40.6586 34.1368 40.6586 25.986C40.8047 17.5389 34.2277 10.8701 26.0429 10.8701Z" fill="#283583"/>
<path d="M26.0429 42.8803C25.8967 42.8803 25.6044 42.8803 25.4583 42.8803C20.9274 42.7321 16.835 40.8055 13.7658 37.3971C10.6965 34.1368 9.08875 29.8391 9.2349 25.3932C9.38106 20.7992 11.1349 16.6497 14.3504 13.3894C17.5658 10.1291 21.8044 8.49899 26.1891 8.49899C30.8661 8.49899 35.2508 10.4255 38.4662 13.834C41.6816 17.2425 43.2894 21.6884 42.9971 26.4306C42.8509 30.8765 40.9509 34.8777 37.7354 37.9898C34.3738 41.2501 30.2814 42.8803 26.0429 42.8803ZM25.8967 8.79538C16.9812 8.79538 9.52722 16.2051 9.38106 25.3932C9.2349 34.5813 16.3966 42.2875 25.4583 42.5839C25.6044 42.5839 25.8967 42.5839 26.0429 42.5839C34.8123 42.5839 42.2663 35.4705 42.7047 26.5788C42.9971 21.9848 41.3893 17.5389 38.1739 14.1304C34.9585 10.7219 30.7199 8.79539 26.0429 8.79539L25.8967 8.79538ZM26.1891 40.9537C17.712 40.9537 11.1349 34.285 11.1349 25.6896C11.1349 17.5389 17.8581 10.8701 26.0429 10.8701C29.9891 10.8701 33.7892 12.5003 36.5662 15.316C39.3431 18.1317 40.9509 21.9848 40.9509 25.986C40.9509 29.9873 39.3431 33.8404 36.5662 36.6561C33.7892 39.3236 29.9891 40.9537 26.1891 40.9537ZM26.0429 10.8701C17.8581 10.8701 11.2811 17.3907 11.2811 25.5414C11.2811 33.9886 17.712 40.6574 26.0429 40.6574C29.843 40.6574 33.4969 39.1754 36.2739 36.2115C39.0508 33.3958 40.5124 29.6909 40.6586 25.6896C40.6586 21.6884 39.197 17.9835 36.42 15.1678C33.643 12.5003 29.9891 10.8701 26.0429 10.8701Z" fill="#283583"/>
<path d="M19.612 33.6922C19.9043 32.2102 20.0505 30.7283 20.3428 29.0981C20.489 28.3572 20.489 27.7644 19.7582 27.1716C18.7351 26.2824 17.8581 25.2451 16.835 24.2077C16.3966 23.7631 16.1043 23.4667 16.3966 22.8739C16.5427 22.2811 17.1274 22.2811 17.5658 22.133C19.1735 21.9848 20.6351 21.6884 22.2428 21.392C22.5351 21.392 22.8275 21.0956 22.8275 20.9474C23.5582 19.6136 24.1429 18.1317 24.8737 16.6497C25.0198 16.3533 25.6044 15.9088 25.8967 15.9088C26.1891 15.9088 26.7737 16.3533 26.9198 16.6497C27.6506 17.9835 28.2353 19.4654 28.966 20.9474C29.1122 21.2438 29.4045 21.392 29.6968 21.5402C31.1584 21.8366 32.7661 21.9848 34.2277 22.2811C34.6661 22.2811 35.2508 22.4293 35.3969 23.0221C35.6892 23.6149 35.2508 24.0595 34.9585 24.3559C33.7892 25.3932 32.7661 26.5788 31.5969 27.6162C31.4507 27.7644 31.3045 28.209 31.3045 28.5053C31.5969 30.1355 31.743 31.6174 32.0353 33.2476C32.1815 33.6922 32.1815 34.1368 31.743 34.5813C31.3045 34.8777 30.8661 34.7295 30.4276 34.5813C29.1122 33.8404 27.6506 33.0994 26.3352 32.3584C25.8967 32.2102 25.6044 32.062 25.166 32.3584C23.8506 33.0994 22.389 33.8404 20.9274 34.5813C20.489 34.8777 19.612 34.4332 19.612 33.6922ZM21.9505 31.7656C22.9736 31.1729 23.9967 30.7283 25.0198 30.1355C25.7506 29.6909 26.3352 29.6909 27.066 30.1355C27.9429 30.7283 28.966 31.1729 29.9891 31.7656C29.843 30.5801 29.5507 29.3945 29.4045 28.3572C29.2583 27.6162 29.4045 27.0234 29.9891 26.4306C30.8661 25.6896 31.5969 24.8005 32.3276 23.9113C31.5969 23.7631 30.8661 23.6149 30.2814 23.6149C27.5045 23.1703 28.2353 23.6149 26.9198 21.2438C26.6275 20.651 26.3352 19.91 25.8967 19.169C25.3121 20.3546 24.7275 21.392 24.289 22.4293C23.9967 23.1703 23.5582 23.4667 22.8275 23.4667C21.6582 23.6149 20.6351 23.7631 19.4659 23.9113C20.1966 24.8005 20.9274 25.5414 21.6582 26.2824C22.389 26.8752 22.5351 27.6162 22.389 28.5053C22.2428 29.5427 22.2428 30.5801 21.9505 31.7656Z" fill="#283583"/>
<path d="M31.4507 34.7295C31.1584 34.7295 30.8661 34.5813 30.5738 34.4332C30.1353 34.1368 29.6968 33.9886 29.2583 33.6922C28.3814 33.2476 27.5045 32.803 26.6275 32.2102C26.1891 32.062 26.0429 32.062 25.6044 32.2102C24.4352 32.9512 22.9736 33.544 21.3659 34.4332C20.9274 34.7295 20.489 34.7295 20.0505 34.4332C19.7582 34.285 19.612 33.8404 19.612 33.544C19.612 33.0994 19.7582 32.6548 19.7582 32.2102C19.9043 31.1729 20.0505 29.9873 20.3428 28.9499C20.489 28.209 20.489 27.6162 19.7582 27.1716C19.0274 26.5788 18.4428 25.986 17.8581 25.2451C17.5658 24.9487 17.1274 24.5041 16.835 24.2077C16.3966 23.9113 16.1043 23.4667 16.3966 22.7257C16.6889 22.133 17.2735 21.9848 17.712 21.9848C19.1735 21.8366 20.7813 21.5402 22.389 21.2438C22.5351 21.2438 22.8275 20.9474 22.9736 20.7992C23.2659 20.2064 23.5582 19.6136 23.8506 19.0209C24.289 18.2799 24.5813 17.3907 25.0198 16.6497C25.166 16.2051 25.7506 15.7606 26.0429 15.7606C26.4814 15.7606 26.9198 16.2051 27.2122 16.6497C27.6506 17.3907 28.0891 18.2799 28.3814 19.0209C28.6737 19.6136 28.966 20.2064 29.2583 20.7992C29.4045 21.0956 29.6968 21.2438 29.843 21.2438C31.3045 21.5402 32.9123 21.6884 34.3738 21.9848C34.8123 21.9848 35.3969 22.133 35.6892 22.7257C35.9815 23.3185 35.5431 23.7631 35.1046 24.2077C33.9354 25.3932 32.7661 26.4306 31.8892 27.468C31.743 27.6162 31.5969 28.0608 31.5969 28.209C31.743 29.6909 32.0353 31.1729 32.3276 32.9512C32.4738 33.3958 32.4738 33.9886 31.8892 34.285C31.8892 34.7295 31.5969 34.7295 31.4507 34.7295ZM26.0429 31.9138C26.1891 31.9138 26.4814 31.9138 26.6275 32.062C27.5045 32.5066 28.3814 33.0994 29.2583 33.544C29.6968 33.8404 30.1353 33.9886 30.7199 34.285C31.1584 34.5813 31.5969 34.5813 31.8892 34.285C32.3276 33.9886 32.3276 33.544 32.1815 33.0994C31.8892 31.3211 31.5969 29.8391 31.4507 28.3572C31.4507 28.0608 31.5968 27.6162 31.743 27.468C32.7661 26.4306 33.7892 25.3932 35.1046 24.2077C35.5431 23.7631 35.8354 23.4667 35.5431 22.8739C35.3969 22.4293 34.8123 22.2811 34.3738 22.2811C32.9123 22.133 31.3045 21.8366 29.843 21.5402C29.5507 21.5402 29.2583 21.2438 29.1122 20.9474C28.8199 20.3546 28.5276 19.7618 28.2353 19.169C27.7968 18.4281 27.5045 17.5389 27.066 16.7979C26.9198 16.5015 26.4814 16.0569 26.1891 16.0569C25.8967 16.0569 25.4583 16.5015 25.3121 16.7979C24.8737 17.5389 24.4352 18.4281 24.1429 19.169C23.8506 19.7618 23.5582 20.3546 23.2659 20.9474C23.1198 21.2438 22.8275 21.392 22.5351 21.5402C21.0736 21.8366 19.4659 21.9848 17.8581 22.2811C17.2735 22.4293 16.835 22.4293 16.6889 22.8739C16.5427 23.4667 16.835 23.7631 17.1274 24.0595C17.4197 24.3559 17.8581 24.8005 18.1505 25.0969C18.7351 25.6896 19.4659 26.4306 20.0505 26.8752C20.7813 27.468 20.7813 28.0608 20.6351 28.9499C20.489 29.9873 20.1966 31.1729 20.0505 32.2102C20.0505 32.6548 19.9043 33.0994 19.9043 33.544C19.9043 33.8404 20.0505 34.1368 20.3428 34.285C20.6351 34.4332 21.0736 34.4332 21.5121 34.285C23.1198 33.3958 24.4352 32.803 25.7506 32.062C25.6044 32.062 25.7506 31.9138 26.0429 31.9138ZM21.8044 31.9138V31.7656C21.8044 31.4692 21.9505 31.0247 21.9505 30.7283C22.0967 29.9873 22.2428 29.2463 22.389 28.5053C22.5351 27.6162 22.389 27.0234 21.8044 26.4306C21.2197 25.986 20.7813 25.3932 20.1966 24.8005C19.9043 24.5041 19.7582 24.3559 19.4659 24.0595L19.3197 23.9113H19.4659C19.7582 23.9113 20.0505 23.7631 20.489 23.7631C21.2197 23.6149 22.0967 23.4667 22.8275 23.4667C23.5582 23.3185 23.9967 23.0221 24.289 22.4293C24.5813 21.6884 25.0198 20.9474 25.3121 20.2064C25.4583 19.91 25.6044 19.4654 25.8967 19.169L26.0429 19.0209L26.1891 19.169C26.3352 19.4654 26.4814 19.6136 26.4814 19.91C26.7737 20.3546 26.9198 20.7992 27.2122 21.2438C27.3583 21.6884 27.5045 21.9848 27.6506 22.133C28.2353 23.3185 28.2353 23.3185 29.4045 23.4667C29.6968 23.4667 29.9891 23.6149 30.4276 23.6149C30.8661 23.6149 31.3045 23.7631 31.8892 23.9113L32.7661 24.0595L32.6199 24.2077C32.3276 24.5041 32.1815 24.6523 31.8892 24.9487C31.3045 25.5414 30.8661 26.1342 30.2814 26.727C29.6968 27.1716 29.5507 27.7644 29.6968 28.5053C29.843 29.2463 29.9891 29.9873 30.1353 30.7283C30.1353 31.0247 30.2814 31.4692 30.2814 31.9138V32.062L30.1353 31.9138C29.843 31.7656 29.4045 31.6174 29.1122 31.4692C28.3814 31.1729 27.7968 30.7283 27.066 30.4319C26.3352 29.9873 25.7506 29.9873 25.0198 30.4319C24.4352 30.8765 23.7044 31.1729 22.9736 31.4692C22.6813 31.6174 22.389 31.7656 21.9505 31.9138H21.8044ZM19.7582 24.0595C19.9043 24.2077 20.1966 24.5041 20.3428 24.6523C20.9274 25.2451 21.3659 25.6896 21.9505 26.2824C22.6813 26.8752 22.8275 27.6162 22.6813 28.5053C22.5351 29.2463 22.389 29.9873 22.2428 30.7283C22.2428 31.0247 22.0967 31.3211 22.0967 31.6174C22.389 31.4692 22.6813 31.3211 22.9736 31.1729C23.7044 30.8765 24.289 30.4319 25.0198 30.1355C25.7506 29.6909 26.4814 29.6909 27.2122 30.1355C27.7968 30.5801 28.5276 30.8765 29.2583 31.1729C29.5507 31.3211 29.843 31.4692 30.1353 31.6174C30.1353 31.3211 29.9891 31.0247 29.9891 30.7283C29.843 29.9873 29.6968 29.2463 29.5507 28.5053C29.4045 27.6162 29.5507 27.0234 30.1353 26.4306C30.7199 25.8378 31.3045 25.3932 31.743 24.8005C31.8892 24.6523 32.1815 24.3559 32.3276 24.2077L31.8892 24.0595C31.4507 23.9113 30.8661 23.9113 30.4276 23.7631C29.9891 23.7631 29.6968 23.6149 29.4045 23.6149C28.0891 23.4667 28.0891 23.4667 27.5045 22.133C27.3583 21.8366 27.2122 21.5402 27.066 21.2438C26.7737 20.7992 26.6275 20.3546 26.3352 19.91C26.1891 19.7618 26.1891 19.6136 26.0429 19.3172C25.8967 19.6136 25.7506 19.91 25.6044 20.2064C25.166 20.9474 24.8737 21.6884 24.5813 22.4293C24.289 23.1703 23.8506 23.4667 22.9736 23.6149C22.2428 23.7631 21.3659 23.7631 20.6351 23.9113C20.3428 24.0595 20.0505 24.0595 19.7582 24.0595Z" fill="#283583"/>
</svg>
