<svg width="62" height="62" viewBox="0 0 62 62" fill="none" xmlns="http://www.w3.org/2000/svg">
<path d="M31 15.2588C22.2676 15.2588 15.2254 22.3176 15.2254 31.0706C15.2254 39.8235 22.2676 46.8824 31 46.8824C39.7324 46.8824 46.7747 39.8235 46.7747 31.0706C46.9155 22.3176 39.7324 15.2588 31 15.2588ZM44.5211 31.0706C44.5211 38.5529 38.4648 44.6235 31 44.6235C23.5352 44.6235 17.4789 38.5529 17.4789 31.0706C17.4789 23.5882 23.5352 17.5176 31 17.5176C38.4648 17.6588 44.5211 23.7294 44.5211 31.0706Z" fill="white"/>
<path d="M31 12.4353C31.7042 12.4353 32.1268 11.8706 32.1268 11.3059V2.12941C32.1268 1.42353 31.5634 1 31 1C30.2958 1 29.8732 1.56471 29.8732 2.12941V11.1647C29.8732 11.8706 30.4366 12.4353 31 12.4353Z" fill="white"/>
<path d="M16.2113 17.9412C16.493 18.2235 16.7746 18.2235 17.0563 18.2235C17.338 18.2235 17.6197 18.0824 17.9014 17.9412C18.3239 17.5176 18.3239 16.6706 17.9014 16.2471L11.4225 9.75294C11 9.32941 10.1549 9.32941 9.73239 9.75294C9.30986 10.1765 9.30986 11.0235 9.73239 11.4471L16.2113 17.9412Z" fill="white"/>
<path d="M12.4085 31.0706C12.4085 30.3647 11.8451 29.9412 11.2817 29.9412H2.12676C1.42254 29.9412 1 30.5059 1 31.0706C1 31.7765 1.56338 32.2 2.12676 32.2H11.1408C11.8451 32.3412 12.4085 31.7765 12.4085 31.0706Z" fill="white"/>
<path d="M16.2113 44.3412L9.87324 50.6941C9.4507 51.1176 9.4507 51.9647 9.87324 52.3882C10.1549 52.6706 10.4366 52.6706 10.7183 52.6706C11 52.6706 11.2817 52.5294 11.5634 52.3882L17.9014 46.0353C18.3239 45.6118 18.3239 44.7647 17.9014 44.3412C17.338 43.7765 16.6338 43.7765 16.2113 44.3412Z" fill="white"/>
<path d="M31 49.7059C30.2958 49.7059 29.8732 50.2706 29.8732 50.8353V59.8706C29.8732 60.5765 30.4366 61 31 61C31.7042 61 32.1268 60.4353 32.1268 59.8706V50.8353C32.2676 50.2706 31.7042 49.7059 31 49.7059Z" fill="white"/>
<path d="M45.9296 44.3412C45.507 43.9176 44.662 43.9176 44.2394 44.3412C43.8169 44.7647 43.8169 45.6118 44.2394 46.0353L50.5775 52.3882C50.8592 52.6706 51.1408 52.6706 51.4225 52.6706C51.7042 52.6706 51.9859 52.5294 52.2676 52.3882C52.6901 51.9647 52.6901 51.1176 52.2676 50.6941L45.9296 44.3412Z" fill="white"/>
<path d="M59.8732 29.9412H50.8592C50.1549 29.9412 49.7324 30.5059 49.7324 31.0706C49.7324 31.6353 50.2958 32.2 50.8592 32.2H59.8732C60.5775 32.2 61 31.6353 61 31.0706C61 30.5059 60.5775 29.9412 59.8732 29.9412Z" fill="white"/>
<path d="M45.0845 18.2235C45.3662 18.2235 45.6479 18.0824 45.9296 17.9412L52.2676 11.5882C52.6901 11.1647 52.6901 10.3176 52.2676 9.89412C51.8451 9.47059 51 9.47059 50.5775 9.89412L44.2394 16.2471C43.8169 16.6706 43.8169 17.5176 44.2394 17.9412C44.3803 18.0824 44.662 18.2235 45.0845 18.2235Z" fill="white"/>
<path d="M31 15.2588C22.2676 15.2588 15.2254 22.3176 15.2254 31.0706C15.2254 39.8235 22.2676 46.8824 31 46.8824C39.7324 46.8824 46.7747 39.8235 46.7747 31.0706C46.9155 22.3176 39.7324 15.2588 31 15.2588ZM44.5211 31.0706C44.5211 38.5529 38.4648 44.6235 31 44.6235C23.5352 44.6235 17.4789 38.5529 17.4789 31.0706C17.4789 23.5882 23.5352 17.5176 31 17.5176C38.4648 17.6588 44.5211 23.7294 44.5211 31.0706Z" stroke="white" stroke-width="0.5"/>
<path d="M31 12.4353C31.7042 12.4353 32.1268 11.8706 32.1268 11.3059V2.12941C32.1268 1.42353 31.5634 1 31 1C30.2958 1 29.8732 1.56471 29.8732 2.12941V11.1647C29.8732 11.8706 30.4366 12.4353 31 12.4353Z" stroke="white" stroke-width="0.5"/>
<path d="M16.2113 17.9412C16.493 18.2235 16.7746 18.2235 17.0563 18.2235C17.338 18.2235 17.6197 18.0824 17.9014 17.9412C18.3239 17.5176 18.3239 16.6706 17.9014 16.2471L11.4225 9.75294C11 9.32941 10.1549 9.32941 9.73239 9.75294C9.30986 10.1765 9.30986 11.0235 9.73239 11.4471L16.2113 17.9412Z" stroke="white" stroke-width="0.5"/>
<path d="M12.4085 31.0706C12.4085 30.3647 11.8451 29.9412 11.2817 29.9412H2.12676C1.42254 29.9412 1 30.5059 1 31.0706C1 31.7765 1.56338 32.2 2.12676 32.2H11.1408C11.8451 32.3412 12.4085 31.7765 12.4085 31.0706Z" stroke="white" stroke-width="0.5"/>
<path d="M16.2113 44.3412L9.87324 50.6941C9.4507 51.1176 9.4507 51.9647 9.87324 52.3882C10.1549 52.6706 10.4366 52.6706 10.7183 52.6706C11 52.6706 11.2817 52.5294 11.5634 52.3882L17.9014 46.0353C18.3239 45.6118 18.3239 44.7647 17.9014 44.3412C17.338 43.7765 16.6338 43.7765 16.2113 44.3412Z" stroke="white" stroke-width="0.5"/>
<path d="M31 49.7059C30.2958 49.7059 29.8732 50.2706 29.8732 50.8353V59.8706C29.8732 60.5765 30.4366 61 31 61C31.7042 61 32.1268 60.4353 32.1268 59.8706V50.8353C32.2676 50.2706 31.7042 49.7059 31 49.7059Z" stroke="white" stroke-width="0.5"/>
<path d="M45.9296 44.3412C45.507 43.9176 44.662 43.9176 44.2394 44.3412C43.8169 44.7647 43.8169 45.6118 44.2394 46.0353L50.5775 52.3882C50.8592 52.6706 51.1408 52.6706 51.4225 52.6706C51.7042 52.6706 51.9859 52.5294 52.2676 52.3882C52.6901 51.9647 52.6901 51.1176 52.2676 50.6941L45.9296 44.3412Z" stroke="white" stroke-width="0.5"/>
<path d="M59.8732 29.9412H50.8592C50.1549 29.9412 49.7324 30.5059 49.7324 31.0706C49.7324 31.6353 50.2958 32.2 50.8592 32.2H59.8732C60.5775 32.2 61 31.6353 61 31.0706C61 30.5059 60.5775 29.9412 59.8732 29.9412Z" stroke="white" stroke-width="0.5"/>
<path d="M45.0845 18.2235C45.3662 18.2235 45.6479 18.0824 45.9296 17.9412L52.2676 11.5882C52.6901 11.1647 52.6901 10.3176 52.2676 9.89412C51.8451 9.47059 51 9.47059 50.5775 9.89412L44.2394 16.2471C43.8169 16.6706 43.8169 17.5176 44.2394 17.9412C44.3803 18.0824 44.662 18.2235 45.0845 18.2235Z" stroke="white" stroke-width="0.5"/>
</svg>
