<svg width="60" height="40" viewBox="0 0 60 40" fill="none" xmlns="http://www.w3.org/2000/svg">
<mask id="path-1-inside-1_160_432" fill="white">
<path d="M42.995 28.4559H34.4554V29.05H42.995V28.4559Z"/>
<path d="M25.7673 28.4559H17.2277V29.05H25.7673V28.4559Z"/>
<path d="M46.4851 19.1738C44.703 19.1738 43.0693 20.3619 42.4752 22.0698L42.401 22.3668H17.6733L17.599 22.0698C17.0049 20.3619 15.3713 19.1738 13.5891 19.1738C11.2871 19.1738 9.35644 21.1045 9.35644 23.4064C9.35644 25.7084 11.2871 27.6391 13.5891 27.6391C15.4455 27.6391 17.1535 26.3767 17.6733 24.5203L17.7475 24.2233H42.3267L42.401 24.5203C42.9208 26.3767 44.6287 27.6391 46.4851 27.6391C48.7871 27.6391 50.7178 25.7084 50.7178 23.4064C50.7178 21.1045 48.7871 19.1738 46.4851 19.1738ZM15.8911 23.7777C15.7426 24.9658 14.703 25.7827 13.5149 25.7827C12.1782 25.7827 11.1386 24.7431 11.1386 23.4064C11.1386 22.0698 12.1782 21.0302 13.5149 21.0302C14.6287 21.0302 15.5941 21.847 15.8168 22.8866V23.0351C15.8168 23.1094 15.7426 23.1837 15.7426 23.2579C15.7426 23.3322 15.7426 23.4064 15.8168 23.5549V23.6292L15.8911 23.7777ZM46.4851 25.7827C45.2228 25.7827 44.2574 24.9658 44.1089 23.7777V23.6292C44.1089 23.5549 44.1832 23.4064 44.1832 23.3322C44.1832 23.2579 44.1832 23.1837 44.1089 23.1094V22.9609C44.3317 21.847 45.3713 21.1045 46.4109 21.1045C47.7475 21.1045 48.7871 22.1441 48.7871 23.4807C48.8614 24.7431 47.8218 25.7827 46.4851 25.7827Z"/>
<path d="M23.4653 19.7678H36.6832C37.1287 19.7678 37.6485 19.3223 37.6485 18.8025C37.6485 18.2827 37.203 17.8371 36.6832 17.8371H23.4653C22.9455 17.8371 22.5 18.2827 22.5 18.8025C22.5 19.248 22.9455 19.7678 23.4653 19.7678Z"/>
<path d="M17.599 29.1985H25.4703C25.6931 29.1985 26.0644 28.9015 26.0644 28.6045C26.0644 28.3074 25.7673 28.0104 25.4703 28.0104H17.599C17.302 28.0104 17.0049 28.3074 17.0049 28.6045C17.0049 28.9015 17.302 29.1985 17.599 29.1985Z"/>
<path d="M34.5297 29.1985H42.401C42.6238 29.1985 42.995 28.9015 42.995 28.6045C42.995 28.3074 42.698 28.0104 42.401 28.0104H34.5297C34.2327 28.0104 33.9356 28.3074 33.9356 28.6045C33.9356 28.9015 34.2327 29.1985 34.5297 29.1985Z"/>
<path d="M30.8168 4.76782C30.5941 4.54505 30.3713 4.47079 30.1485 4.47079C29.9257 4.47079 29.6287 4.54505 29.4802 4.76782L25.4703 8.77772C25.099 9.14901 25.099 9.74307 25.4703 10.1144C25.8416 10.4856 26.3614 10.4856 26.8069 10.1144L30.8168 6.10445C31.1881 5.73317 31.1881 5.13911 30.8168 4.76782Z"/>
<path d="M59.0346 37.5153H54.7277L54.802 37.0698C54.802 36.9213 54.8762 36.7728 54.8762 36.6985V27.8619C54.8762 27.7876 54.8762 27.7134 54.8762 27.6391V27.5648L55.9158 23.2579C56.3614 21.3272 55.9901 19.3223 54.802 17.7629L54.2079 17.0946H55.0247C56.2871 17.0946 57.401 15.9807 57.401 14.7183V13.5302C57.401 12.1936 56.3614 11.154 55.0247 11.154H51.2376C50.7178 11.154 50.2723 11.3025 49.8267 11.5995L49.3812 11.9708L48.3416 7.36683C47.302 3.35693 43.8861 0.609404 39.7277 0.609404H39.5792C39.4307 0.535147 39.2079 0.535147 38.9851 0.609404H20.495C16.3366 0.609404 12.7723 3.35693 11.8812 7.36683L10.7673 12.1936L10.2475 11.748C9.80198 11.3767 9.28218 11.154 8.68812 11.154H4.97525C3.63861 11.154 2.59901 12.1936 2.59901 13.5302V14.7183C2.59901 16.0549 3.63861 17.0946 4.97525 17.0946H6.01485L5.49505 17.7629C4.23267 19.3223 3.86139 21.3272 4.30693 23.2579L5.34653 27.6391V27.7134C5.34653 27.7876 5.27228 27.8619 5.27228 27.9361V36.9213L5.34653 37.4411H0.965346C0.445545 37.5153 0 37.9609 0 38.4807C0 39.0005 0.445545 39.446 0.965346 39.446H59.0346C59.5545 39.446 60 39.0005 60 38.4807C60 37.9609 59.5545 37.5153 59.0346 37.5153ZM50.8663 13.0847H55.0247C55.3218 13.0847 55.5446 13.3074 55.5446 13.6045V14.7183C55.5446 15.0153 55.3218 15.2381 55.0247 15.2381H51.2376C50.9406 15.2381 50.7178 15.0153 50.7178 14.7183L50.8663 13.0847ZM13.6634 7.88663C14.3317 4.76782 17.1535 2.5401 20.3465 2.5401H36.9059L31.9307 7.51534C31.5594 7.88663 31.5594 8.48069 31.9307 8.85198C32.302 9.22327 32.896 9.22327 33.2673 8.85198L39.5792 2.5401H39.7277C42.9208 2.61435 45.5941 4.84208 46.2624 7.88663L47.7475 14.2728L47.1535 14.1243C42.8465 13.1589 38.0941 12.8619 36.7574 12.7876C33.4158 12.4906 26.8069 12.4906 22.0545 12.9361C18.9356 13.0847 15.5198 13.6045 12.8465 14.1985L12.2525 14.347L13.6634 7.88663ZM4.97525 15.2381C4.67822 15.2381 4.45545 15.0153 4.45545 14.7183L4.60396 13.0847H8.76238C9.05941 13.0847 9.28218 13.3074 9.28218 13.6045V14.7183C9.28218 15.0153 9.05941 15.2381 8.76238 15.2381H4.97525ZM13.2921 36.6985C13.2921 37.1441 12.9208 37.5153 12.4752 37.5153H7.64851L7.57426 37.4411C7.35148 37.2926 7.27723 37.0698 7.27723 36.847V32.1688L7.94554 32.6886C9.13366 33.654 10.5446 34.1738 12.104 34.1738H13.3663V36.6985H13.2921ZM15.1485 37.5153L15.2228 37.0698C15.2228 36.9213 15.297 36.7728 15.297 36.6985V34.248H44.9257V36.9955L45 37.5153H15.1485ZM52.8713 36.6985C52.8713 37.1441 52.5 37.5153 52.0545 37.5153H47.2277L47.1535 37.4411C46.9307 37.2926 46.8564 37.0698 46.8564 36.847V34.248H47.9703C49.5297 34.248 51.0149 33.7282 52.2772 32.6144L52.9455 32.0946V36.6985H52.8713ZM54.0594 22.8866L53.0198 27.2678C52.8713 27.4163 52.797 27.6391 52.797 27.8619C52.797 27.9361 52.797 28.0104 52.797 28.0847V28.1589L52.6485 28.753C52.0545 30.9807 50.198 32.4658 48.0445 32.4658H46.4109L46.3366 32.3916C46.0396 32.1688 45.6683 32.1688 45.3713 32.3916L45.297 32.4658H15L14.8515 32.3916C14.703 32.3173 14.4802 32.1688 14.2574 32.1688C14.0347 32.1688 13.8119 32.3173 13.6634 32.3916L13.5891 32.4658H12.1782C9.95049 32.4658 8.0198 30.9064 7.57426 28.753L6.16337 22.8866C5.56931 20.5104 6.83168 18.1342 9.13366 17.3916C9.43069 17.2431 9.57921 17.1688 9.80198 17.0946C10.099 16.946 10.396 16.7975 10.9901 16.5748C11.2129 16.5748 11.2871 16.5005 11.3614 16.4262L11.4356 16.352H11.5099C11.6584 16.352 11.6584 16.352 12.6238 16.0549H12.698C12.8465 16.0549 13.3663 15.9064 13.6634 15.8322C24.1337 13.4559 43.5149 14.1243 50.0495 17.0203C50.3465 17.0946 50.7178 17.2431 50.9406 17.3173C53.3168 18.1342 54.5792 20.5847 54.0594 22.8866Z"/>
</mask>
<path d="M42.995 28.4559H34.4554V29.05H42.995V28.4559Z" stroke="white" stroke-width="4" mask="url(#path-1-inside-1_160_432)"/>
<path d="M25.7673 28.4559H17.2277V29.05H25.7673V28.4559Z" stroke="white" stroke-width="4" mask="url(#path-1-inside-1_160_432)"/>
<path d="M46.4851 19.1738C44.703 19.1738 43.0693 20.3619 42.4752 22.0698L42.401 22.3668H17.6733L17.599 22.0698C17.0049 20.3619 15.3713 19.1738 13.5891 19.1738C11.2871 19.1738 9.35644 21.1045 9.35644 23.4064C9.35644 25.7084 11.2871 27.6391 13.5891 27.6391C15.4455 27.6391 17.1535 26.3767 17.6733 24.5203L17.7475 24.2233H42.3267L42.401 24.5203C42.9208 26.3767 44.6287 27.6391 46.4851 27.6391C48.7871 27.6391 50.7178 25.7084 50.7178 23.4064C50.7178 21.1045 48.7871 19.1738 46.4851 19.1738ZM15.8911 23.7777C15.7426 24.9658 14.703 25.7827 13.5149 25.7827C12.1782 25.7827 11.1386 24.7431 11.1386 23.4064C11.1386 22.0698 12.1782 21.0302 13.5149 21.0302C14.6287 21.0302 15.5941 21.847 15.8168 22.8866V23.0351C15.8168 23.1094 15.7426 23.1837 15.7426 23.2579C15.7426 23.3322 15.7426 23.4064 15.8168 23.5549V23.6292L15.8911 23.7777ZM46.4851 25.7827C45.2228 25.7827 44.2574 24.9658 44.1089 23.7777V23.6292C44.1089 23.5549 44.1832 23.4064 44.1832 23.3322C44.1832 23.2579 44.1832 23.1837 44.1089 23.1094V22.9609C44.3317 21.847 45.3713 21.1045 46.4109 21.1045C47.7475 21.1045 48.7871 22.1441 48.7871 23.4807C48.8614 24.7431 47.8218 25.7827 46.4851 25.7827Z" stroke="white" stroke-width="4" mask="url(#path-1-inside-1_160_432)"/>
<path d="M23.4653 19.7678H36.6832C37.1287 19.7678 37.6485 19.3223 37.6485 18.8025C37.6485 18.2827 37.203 17.8371 36.6832 17.8371H23.4653C22.9455 17.8371 22.5 18.2827 22.5 18.8025C22.5 19.248 22.9455 19.7678 23.4653 19.7678Z" stroke="white" stroke-width="4" mask="url(#path-1-inside-1_160_432)"/>
<path d="M17.599 29.1985H25.4703C25.6931 29.1985 26.0644 28.9015 26.0644 28.6045C26.0644 28.3074 25.7673 28.0104 25.4703 28.0104H17.599C17.302 28.0104 17.0049 28.3074 17.0049 28.6045C17.0049 28.9015 17.302 29.1985 17.599 29.1985Z" stroke="white" stroke-width="4" mask="url(#path-1-inside-1_160_432)"/>
<path d="M34.5297 29.1985H42.401C42.6238 29.1985 42.995 28.9015 42.995 28.6045C42.995 28.3074 42.698 28.0104 42.401 28.0104H34.5297C34.2327 28.0104 33.9356 28.3074 33.9356 28.6045C33.9356 28.9015 34.2327 29.1985 34.5297 29.1985Z" stroke="white" stroke-width="4" mask="url(#path-1-inside-1_160_432)"/>
<path d="M30.8168 4.76782C30.5941 4.54505 30.3713 4.47079 30.1485 4.47079C29.9257 4.47079 29.6287 4.54505 29.4802 4.76782L25.4703 8.77772C25.099 9.14901 25.099 9.74307 25.4703 10.1144C25.8416 10.4856 26.3614 10.4856 26.8069 10.1144L30.8168 6.10445C31.1881 5.73317 31.1881 5.13911 30.8168 4.76782Z" stroke="white" stroke-width="4" mask="url(#path-1-inside-1_160_432)"/>
<path d="M59.0346 37.5153H54.7277L54.802 37.0698C54.802 36.9213 54.8762 36.7728 54.8762 36.6985V27.8619C54.8762 27.7876 54.8762 27.7134 54.8762 27.6391V27.5648L55.9158 23.2579C56.3614 21.3272 55.9901 19.3223 54.802 17.7629L54.2079 17.0946H55.0247C56.2871 17.0946 57.401 15.9807 57.401 14.7183V13.5302C57.401 12.1936 56.3614 11.154 55.0247 11.154H51.2376C50.7178 11.154 50.2723 11.3025 49.8267 11.5995L49.3812 11.9708L48.3416 7.36683C47.302 3.35693 43.8861 0.609404 39.7277 0.609404H39.5792C39.4307 0.535147 39.2079 0.535147 38.9851 0.609404H20.495C16.3366 0.609404 12.7723 3.35693 11.8812 7.36683L10.7673 12.1936L10.2475 11.748C9.80198 11.3767 9.28218 11.154 8.68812 11.154H4.97525C3.63861 11.154 2.59901 12.1936 2.59901 13.5302V14.7183C2.59901 16.0549 3.63861 17.0946 4.97525 17.0946H6.01485L5.49505 17.7629C4.23267 19.3223 3.86139 21.3272 4.30693 23.2579L5.34653 27.6391V27.7134C5.34653 27.7876 5.27228 27.8619 5.27228 27.9361V36.9213L5.34653 37.4411H0.965346C0.445545 37.5153 0 37.9609 0 38.4807C0 39.0005 0.445545 39.446 0.965346 39.446H59.0346C59.5545 39.446 60 39.0005 60 38.4807C60 37.9609 59.5545 37.5153 59.0346 37.5153ZM50.8663 13.0847H55.0247C55.3218 13.0847 55.5446 13.3074 55.5446 13.6045V14.7183C55.5446 15.0153 55.3218 15.2381 55.0247 15.2381H51.2376C50.9406 15.2381 50.7178 15.0153 50.7178 14.7183L50.8663 13.0847ZM13.6634 7.88663C14.3317 4.76782 17.1535 2.5401 20.3465 2.5401H36.9059L31.9307 7.51534C31.5594 7.88663 31.5594 8.48069 31.9307 8.85198C32.302 9.22327 32.896 9.22327 33.2673 8.85198L39.5792 2.5401H39.7277C42.9208 2.61435 45.5941 4.84208 46.2624 7.88663L47.7475 14.2728L47.1535 14.1243C42.8465 13.1589 38.0941 12.8619 36.7574 12.7876C33.4158 12.4906 26.8069 12.4906 22.0545 12.9361C18.9356 13.0847 15.5198 13.6045 12.8465 14.1985L12.2525 14.347L13.6634 7.88663ZM4.97525 15.2381C4.67822 15.2381 4.45545 15.0153 4.45545 14.7183L4.60396 13.0847H8.76238C9.05941 13.0847 9.28218 13.3074 9.28218 13.6045V14.7183C9.28218 15.0153 9.05941 15.2381 8.76238 15.2381H4.97525ZM13.2921 36.6985C13.2921 37.1441 12.9208 37.5153 12.4752 37.5153H7.64851L7.57426 37.4411C7.35148 37.2926 7.27723 37.0698 7.27723 36.847V32.1688L7.94554 32.6886C9.13366 33.654 10.5446 34.1738 12.104 34.1738H13.3663V36.6985H13.2921ZM15.1485 37.5153L15.2228 37.0698C15.2228 36.9213 15.297 36.7728 15.297 36.6985V34.248H44.9257V36.9955L45 37.5153H15.1485ZM52.8713 36.6985C52.8713 37.1441 52.5 37.5153 52.0545 37.5153H47.2277L47.1535 37.4411C46.9307 37.2926 46.8564 37.0698 46.8564 36.847V34.248H47.9703C49.5297 34.248 51.0149 33.7282 52.2772 32.6144L52.9455 32.0946V36.6985H52.8713ZM54.0594 22.8866L53.0198 27.2678C52.8713 27.4163 52.797 27.6391 52.797 27.8619C52.797 27.9361 52.797 28.0104 52.797 28.0847V28.1589L52.6485 28.753C52.0545 30.9807 50.198 32.4658 48.0445 32.4658H46.4109L46.3366 32.3916C46.0396 32.1688 45.6683 32.1688 45.3713 32.3916L45.297 32.4658H15L14.8515 32.3916C14.703 32.3173 14.4802 32.1688 14.2574 32.1688C14.0347 32.1688 13.8119 32.3173 13.6634 32.3916L13.5891 32.4658H12.1782C9.95049 32.4658 8.0198 30.9064 7.57426 28.753L6.16337 22.8866C5.56931 20.5104 6.83168 18.1342 9.13366 17.3916C9.43069 17.2431 9.57921 17.1688 9.80198 17.0946C10.099 16.946 10.396 16.7975 10.9901 16.5748C11.2129 16.5748 11.2871 16.5005 11.3614 16.4262L11.4356 16.352H11.5099C11.6584 16.352 11.6584 16.352 12.6238 16.0549H12.698C12.8465 16.0549 13.3663 15.9064 13.6634 15.8322C24.1337 13.4559 43.5149 14.1243 50.0495 17.0203C50.3465 17.0946 50.7178 17.2431 50.9406 17.3173C53.3168 18.1342 54.5792 20.5847 54.0594 22.8866Z" stroke="white" stroke-width="4" mask="url(#path-1-inside-1_160_432)"/>
</svg>
