<svg width="60" height="42" viewBox="0 0 60 42" fill="none" xmlns="http://www.w3.org/2000/svg">
<mask id="path-1-inside-1_160_481" fill="white">
<path d="M59.7813 9.68569V6.57657C59.7813 6.28735 59.6355 5.99813 59.4168 5.85352C59.1252 5.5643 58.9793 5.49199 58.6877 5.5643L46.8044 7.95037V5.34738C46.8044 5.05816 46.6586 4.76894 46.4399 4.62433L41.6282 0.719845C41.4095 0.50293 40.9721 0.430624 40.6804 0.575235C40.3888 0.719845 40.1701 1.00907 40.1701 1.37059V23.0622L39.2224 23.2791L32.661 4.1905H34.2649C34.7752 4.1905 35.3584 3.68436 35.3584 3.25053C35.3584 2.74439 34.921 2.31056 34.4107 2.31056H9.69623C9.18591 2.31056 8.74848 2.74439 8.74848 3.25053C8.74848 3.75667 9.18591 4.1905 9.69623 4.1905H10.8627L6.48846 20.6038H0.947752C0.437424 20.5315 0 20.9653 0 21.4714V34.8479C0 35.3541 0.437424 35.7879 0.947752 35.7879H2.77035L2.91616 36.0771C3.20778 37.1617 3.79101 38.1017 4.52005 38.9693L4.95747 39.4755L4.30134 39.6201C3.86391 39.6924 3.5723 40.1262 3.5723 40.56C3.5723 41.0662 4.00972 41.5 4.52005 41.5H57.5942C58.1045 41.5 58.5419 41.0662 58.5419 40.56C58.5419 40.0539 58.1045 39.6201 57.5942 39.6201H48.4083L48.9915 38.9693C50.158 37.5955 50.8141 35.7879 50.8141 33.9803C50.8141 31.305 49.4289 28.9189 47.1689 27.6174L46.9502 27.4728V25.3036L59.271 22.7729C59.7084 22.7006 60 22.3391 60 21.9053V10.3364C60 10.1918 59.9271 9.97492 59.8542 9.83031L59.7813 9.68569ZM41.9198 3.46744L44.836 5.85352V9.32417C44.836 9.46878 44.836 9.54108 44.9089 9.68569V26.822L44.4714 26.7497C44.2527 26.7497 43.9611 26.6774 43.7424 26.6774C43.3779 26.6051 43.0863 26.6051 42.7947 26.6774C42.6488 26.6774 42.5759 26.6774 42.4301 26.6774L41.9198 26.7497L41.8469 26.3159V3.46744H41.9198ZM37.6185 24.0744L37.3269 24.219C37.0352 24.3637 36.7436 24.5806 36.452 24.7252L36.1604 24.9421L36.0146 25.0867L35.8688 25.159C35.7959 25.2313 35.723 25.2313 35.6501 25.3036L35.5772 25.3759H33.1713V17.9285L34.921 16.1932L37.6185 24.0744ZM33.8275 27.1836L33.4629 27.762C32.2965 29.4973 31.6403 31.5219 31.5674 33.5464V33.908H30.1823V27.1836H33.8275ZM12.7582 4.1905H30.6926L34.192 14.3132L32.0778 16.3378L28.3597 13.4456C27.9222 13.1563 27.339 13.2287 27.0474 13.5902C26.7558 14.024 26.8287 14.6025 27.1932 14.8917L31.2029 18.0008V25.3759H30.0365V21.6161C30.0365 21.1099 29.599 20.6761 29.0887 20.6761H27.1203L26.61 17.7839C26.5371 17.35 26.1725 17.0608 25.7351 17.0608H20.8505L20.1944 12.7225C20.1215 12.2164 19.757 11.9272 19.3196 11.9272H17.0595C16.5492 11.9272 16.1118 12.361 16.1118 12.8671C16.1118 13.3733 16.5492 13.8071 17.0595 13.8071H18.5176L19.1738 18.1454C19.2467 18.6515 19.6112 18.9408 20.0486 18.9408H24.9332L25.2248 20.6038H8.31106L12.7582 4.1905ZM2.62454 33.6187L2.55164 33.8356L1.8226 35.1371V22.4837H28.068V26.2436C28.068 26.3882 28.068 26.4605 28.1409 26.6051V28.702H23.8396C23.3293 28.702 22.8919 29.1358 22.8919 29.6419V33.9803L17.5699 34.0526V33.691C17.5699 33.2572 17.5699 33.0403 17.497 32.6788C17.497 32.6065 17.4241 32.5341 17.3512 32.4618L17.2782 32.3172C17.1324 31.5942 16.8408 30.9434 16.4763 30.365C16.4034 30.2204 16.4034 30.1481 16.3305 30.1481C15.3827 28.4851 13.8518 27.3282 12.0292 26.822C11.8834 26.822 11.7375 26.7497 11.6646 26.7497C11.4459 26.7497 11.3001 26.7497 11.1543 26.7497H11.0085C10.2795 26.6774 9.55043 26.6774 8.82139 26.822H8.67558C8.52977 26.822 8.45687 26.822 8.38396 26.822H8.23815C8.16525 26.822 8.09234 26.8943 7.94654 26.8943C6.70717 27.2559 5.61361 27.8343 4.73876 28.7743C3.79101 29.6419 3.13487 30.6542 2.77035 31.8834C2.77035 32.3895 2.62454 32.968 2.62454 33.6187ZM28.2139 33.908H24.8603V30.5819H28.2139V33.908ZM10.0608 39.5478C7.07169 39.5478 4.52005 37.1617 4.37424 34.2695V34.0526C4.37424 33.691 4.37424 33.2572 4.44714 32.7511L4.52005 32.6065C4.59295 32.5341 4.66586 32.4618 4.66586 32.3895C4.81166 31.8111 5.17618 31.1604 5.5407 30.6542C5.90522 30.2204 6.26974 29.8589 6.78007 29.4973C7.2904 29.1358 7.87363 28.8466 8.45687 28.702C8.52977 28.6297 8.67558 28.5574 8.82139 28.5574C9.18591 28.4851 9.62333 28.4851 10.0608 28.4851H11.5917V28.6297C12.9769 29.0635 14.0705 29.9312 14.8724 31.1604C15.2369 31.7388 15.4556 32.3172 15.5286 32.968C15.6744 33.2572 15.6744 33.7633 15.6744 34.0526V34.7756C15.3098 37.4509 12.904 39.5478 10.0608 39.5478ZM15.0911 39.5478L15.6744 38.897C16.4034 38.1017 16.9866 37.0894 17.2782 36.0771L17.3512 35.7879H29.2345C29.2345 35.7879 29.3074 35.7879 29.4532 35.7156H32.4423C32.661 35.7156 32.8797 35.571 33.0984 35.4987H33.1713C33.2442 35.3541 33.3171 35.1371 33.3171 34.8479V34.1249C33.3171 31.3773 34.4836 28.8466 36.452 27.039L36.7436 26.7497C36.8165 26.6774 36.8894 26.6051 36.9623 26.5328L37.1081 26.3882C37.181 26.3159 37.2539 26.3159 37.3269 26.2436C37.4727 26.1713 37.6185 26.099 37.6914 26.0267L37.8372 25.9544L38.0559 25.8821L38.2017 25.7375C38.2746 25.6652 38.3475 25.6652 38.4204 25.5928L38.4933 25.5205L38.7849 25.4482H38.8578C38.9307 25.3759 39.0036 25.3036 39.0765 25.2313L39.2224 25.0867C39.4411 25.0144 39.5869 24.9421 39.7327 24.8698L40.243 24.7252V27.2559L40.0243 27.3282C37.4727 28.6297 35.8688 31.1603 35.8688 33.9803C35.8688 35.7879 36.5249 37.5232 37.7643 38.897L38.3475 39.5478H15.0911ZM49.1373 34.0526C49.1373 36.7279 47.2418 39.0416 44.5443 39.5478H42.3572C39.6598 39.0416 37.6914 36.7279 37.6914 34.0526C37.6914 31.8111 39.0036 29.8589 41.045 28.8466L41.1908 28.7743L41.4824 28.9189C41.6282 28.8466 41.774 28.7743 41.9927 28.7743C42.1385 28.702 42.2114 28.6297 42.3572 28.5574L42.4301 28.4851H42.7947C43.2321 28.4128 43.9611 28.4128 44.6902 28.6297C44.9089 28.702 44.9818 28.7743 45.1276 28.7743C45.2734 28.8466 45.3463 28.8466 45.4921 28.9189L45.6379 28.9912C47.825 29.8589 49.1373 31.8111 49.1373 34.0526ZM46.8044 11.9272V9.90261L57.9587 7.66115V9.68569L46.8044 11.9272ZM58.0316 21.1099L46.8773 23.3514V21.3991L58.0316 19.23V21.1099ZM58.0316 17.2777L46.8773 19.5192V17.567L58.0316 15.3255V17.2777ZM58.0316 13.3733L46.8773 15.6147V13.6625L58.0316 11.5656V13.3733Z"/>
</mask>
<path d="M59.7813 9.68569V6.57657C59.7813 6.28735 59.6355 5.99813 59.4168 5.85352C59.1252 5.5643 58.9793 5.49199 58.6877 5.5643L46.8044 7.95037V5.34738C46.8044 5.05816 46.6586 4.76894 46.4399 4.62433L41.6282 0.719845C41.4095 0.50293 40.9721 0.430624 40.6804 0.575235C40.3888 0.719845 40.1701 1.00907 40.1701 1.37059V23.0622L39.2224 23.2791L32.661 4.1905H34.2649C34.7752 4.1905 35.3584 3.68436 35.3584 3.25053C35.3584 2.74439 34.921 2.31056 34.4107 2.31056H9.69623C9.18591 2.31056 8.74848 2.74439 8.74848 3.25053C8.74848 3.75667 9.18591 4.1905 9.69623 4.1905H10.8627L6.48846 20.6038H0.947752C0.437424 20.5315 0 20.9653 0 21.4714V34.8479C0 35.3541 0.437424 35.7879 0.947752 35.7879H2.77035L2.91616 36.0771C3.20778 37.1617 3.79101 38.1017 4.52005 38.9693L4.95747 39.4755L4.30134 39.6201C3.86391 39.6924 3.5723 40.1262 3.5723 40.56C3.5723 41.0662 4.00972 41.5 4.52005 41.5H57.5942C58.1045 41.5 58.5419 41.0662 58.5419 40.56C58.5419 40.0539 58.1045 39.6201 57.5942 39.6201H48.4083L48.9915 38.9693C50.158 37.5955 50.8141 35.7879 50.8141 33.9803C50.8141 31.305 49.4289 28.9189 47.1689 27.6174L46.9502 27.4728V25.3036L59.271 22.7729C59.7084 22.7006 60 22.3391 60 21.9053V10.3364C60 10.1918 59.9271 9.97492 59.8542 9.83031L59.7813 9.68569ZM41.9198 3.46744L44.836 5.85352V9.32417C44.836 9.46878 44.836 9.54108 44.9089 9.68569V26.822L44.4714 26.7497C44.2527 26.7497 43.9611 26.6774 43.7424 26.6774C43.3779 26.6051 43.0863 26.6051 42.7947 26.6774C42.6488 26.6774 42.5759 26.6774 42.4301 26.6774L41.9198 26.7497L41.8469 26.3159V3.46744H41.9198ZM37.6185 24.0744L37.3269 24.219C37.0352 24.3637 36.7436 24.5806 36.452 24.7252L36.1604 24.9421L36.0146 25.0867L35.8688 25.159C35.7959 25.2313 35.723 25.2313 35.6501 25.3036L35.5772 25.3759H33.1713V17.9285L34.921 16.1932L37.6185 24.0744ZM33.8275 27.1836L33.4629 27.762C32.2965 29.4973 31.6403 31.5219 31.5674 33.5464V33.908H30.1823V27.1836H33.8275ZM12.7582 4.1905H30.6926L34.192 14.3132L32.0778 16.3378L28.3597 13.4456C27.9222 13.1563 27.339 13.2287 27.0474 13.5902C26.7558 14.024 26.8287 14.6025 27.1932 14.8917L31.2029 18.0008V25.3759H30.0365V21.6161C30.0365 21.1099 29.599 20.6761 29.0887 20.6761H27.1203L26.61 17.7839C26.5371 17.35 26.1725 17.0608 25.7351 17.0608H20.8505L20.1944 12.7225C20.1215 12.2164 19.757 11.9272 19.3196 11.9272H17.0595C16.5492 11.9272 16.1118 12.361 16.1118 12.8671C16.1118 13.3733 16.5492 13.8071 17.0595 13.8071H18.5176L19.1738 18.1454C19.2467 18.6515 19.6112 18.9408 20.0486 18.9408H24.9332L25.2248 20.6038H8.31106L12.7582 4.1905ZM2.62454 33.6187L2.55164 33.8356L1.8226 35.1371V22.4837H28.068V26.2436C28.068 26.3882 28.068 26.4605 28.1409 26.6051V28.702H23.8396C23.3293 28.702 22.8919 29.1358 22.8919 29.6419V33.9803L17.5699 34.0526V33.691C17.5699 33.2572 17.5699 33.0403 17.497 32.6788C17.497 32.6065 17.4241 32.5341 17.3512 32.4618L17.2782 32.3172C17.1324 31.5942 16.8408 30.9434 16.4763 30.365C16.4034 30.2204 16.4034 30.1481 16.3305 30.1481C15.3827 28.4851 13.8518 27.3282 12.0292 26.822C11.8834 26.822 11.7375 26.7497 11.6646 26.7497C11.4459 26.7497 11.3001 26.7497 11.1543 26.7497H11.0085C10.2795 26.6774 9.55043 26.6774 8.82139 26.822H8.67558C8.52977 26.822 8.45687 26.822 8.38396 26.822H8.23815C8.16525 26.822 8.09234 26.8943 7.94654 26.8943C6.70717 27.2559 5.61361 27.8343 4.73876 28.7743C3.79101 29.6419 3.13487 30.6542 2.77035 31.8834C2.77035 32.3895 2.62454 32.968 2.62454 33.6187ZM28.2139 33.908H24.8603V30.5819H28.2139V33.908ZM10.0608 39.5478C7.07169 39.5478 4.52005 37.1617 4.37424 34.2695V34.0526C4.37424 33.691 4.37424 33.2572 4.44714 32.7511L4.52005 32.6065C4.59295 32.5341 4.66586 32.4618 4.66586 32.3895C4.81166 31.8111 5.17618 31.1604 5.5407 30.6542C5.90522 30.2204 6.26974 29.8589 6.78007 29.4973C7.2904 29.1358 7.87363 28.8466 8.45687 28.702C8.52977 28.6297 8.67558 28.5574 8.82139 28.5574C9.18591 28.4851 9.62333 28.4851 10.0608 28.4851H11.5917V28.6297C12.9769 29.0635 14.0705 29.9312 14.8724 31.1604C15.2369 31.7388 15.4556 32.3172 15.5286 32.968C15.6744 33.2572 15.6744 33.7633 15.6744 34.0526V34.7756C15.3098 37.4509 12.904 39.5478 10.0608 39.5478ZM15.0911 39.5478L15.6744 38.897C16.4034 38.1017 16.9866 37.0894 17.2782 36.0771L17.3512 35.7879H29.2345C29.2345 35.7879 29.3074 35.7879 29.4532 35.7156H32.4423C32.661 35.7156 32.8797 35.571 33.0984 35.4987H33.1713C33.2442 35.3541 33.3171 35.1371 33.3171 34.8479V34.1249C33.3171 31.3773 34.4836 28.8466 36.452 27.039L36.7436 26.7497C36.8165 26.6774 36.8894 26.6051 36.9623 26.5328L37.1081 26.3882C37.181 26.3159 37.2539 26.3159 37.3269 26.2436C37.4727 26.1713 37.6185 26.099 37.6914 26.0267L37.8372 25.9544L38.0559 25.8821L38.2017 25.7375C38.2746 25.6652 38.3475 25.6652 38.4204 25.5928L38.4933 25.5205L38.7849 25.4482H38.8578C38.9307 25.3759 39.0036 25.3036 39.0765 25.2313L39.2224 25.0867C39.4411 25.0144 39.5869 24.9421 39.7327 24.8698L40.243 24.7252V27.2559L40.0243 27.3282C37.4727 28.6297 35.8688 31.1603 35.8688 33.9803C35.8688 35.7879 36.5249 37.5232 37.7643 38.897L38.3475 39.5478H15.0911ZM49.1373 34.0526C49.1373 36.7279 47.2418 39.0416 44.5443 39.5478H42.3572C39.6598 39.0416 37.6914 36.7279 37.6914 34.0526C37.6914 31.8111 39.0036 29.8589 41.045 28.8466L41.1908 28.7743L41.4824 28.9189C41.6282 28.8466 41.774 28.7743 41.9927 28.7743C42.1385 28.702 42.2114 28.6297 42.3572 28.5574L42.4301 28.4851H42.7947C43.2321 28.4128 43.9611 28.4128 44.6902 28.6297C44.9089 28.702 44.9818 28.7743 45.1276 28.7743C45.2734 28.8466 45.3463 28.8466 45.4921 28.9189L45.6379 28.9912C47.825 29.8589 49.1373 31.8111 49.1373 34.0526ZM46.8044 11.9272V9.90261L57.9587 7.66115V9.68569L46.8044 11.9272ZM58.0316 21.1099L46.8773 23.3514V21.3991L58.0316 19.23V21.1099ZM58.0316 17.2777L46.8773 19.5192V17.567L58.0316 15.3255V17.2777ZM58.0316 13.3733L46.8773 15.6147V13.6625L58.0316 11.5656V13.3733Z" stroke="white" stroke-width="2" mask="url(#path-1-inside-1_160_481)"/>
</svg>
