<svg width="40" height="28" viewBox="0 0 40 28" fill="none" xmlns="http://www.w3.org/2000/svg">
<mask id="path-1-inside-1_245_126" fill="white">
<path d="M39.8542 6.39472V4.30481C39.8542 4.1104 39.757 3.91599 39.6112 3.81878C39.4168 3.62437 39.3196 3.57577 39.1251 3.62437L31.2029 5.22826V3.47856C31.2029 3.28415 31.1057 3.08974 30.9599 2.99254L27.7521 0.367992C27.6063 0.222184 27.3147 0.173581 27.1203 0.270787C26.9259 0.367992 26.7801 0.562403 26.7801 0.805416V15.3862L26.1482 15.532L21.774 2.70092H22.8433C23.1835 2.70092 23.5723 2.3607 23.5723 2.06909C23.5723 1.72887 23.2807 1.43725 22.9405 1.43725H6.46416C6.12394 1.43725 5.83232 1.72887 5.83232 2.06909C5.83232 2.4093 6.12394 2.70092 6.46416 2.70092H7.2418L4.32564 13.7337H0.631835C0.291616 13.6851 0 13.9767 0 14.317V23.3085C0 23.6487 0.291616 23.9403 0.631835 23.9403H1.8469L1.94411 24.1347C2.13852 24.8637 2.52734 25.4956 3.01337 26.0788L3.30498 26.419L2.86756 26.5162C2.57594 26.5648 2.38153 26.8564 2.38153 27.1481C2.38153 27.4883 2.67315 27.7799 3.01337 27.7799H38.3961C38.7363 27.7799 39.0279 27.4883 39.0279 27.1481C39.0279 26.8078 38.7363 26.5162 38.3961 26.5162H32.2722L32.661 26.0788C33.4386 25.1554 33.8761 23.9403 33.8761 22.7252C33.8761 20.9269 32.9526 19.323 31.4459 18.4482L31.3001 18.351V16.8929L39.514 15.1918C39.8056 15.1432 40 14.9002 40 14.6086V6.83215C40 6.73494 39.9514 6.58913 39.9028 6.49193L39.8542 6.39472ZM27.9465 2.21489L29.8906 3.81878V6.15171C29.8906 6.24892 29.8906 6.29752 29.9392 6.39472V17.9136L29.6476 17.865C29.5018 17.865 29.3074 17.8164 29.1616 17.8164C28.9186 17.7678 28.7242 17.7678 28.5298 17.8164C28.4326 17.8164 28.384 17.8164 28.2868 17.8164L27.9465 17.865L27.8979 17.5733V2.21489H27.9465ZM25.079 16.0667L24.8846 16.1639C24.6902 16.2611 24.4957 16.4069 24.3013 16.5041L24.1069 16.6499L24.0097 16.7471L23.9125 16.7957C23.8639 16.8443 23.8153 16.8443 23.7667 16.8929L23.7181 16.9415H22.1142V11.9354L23.2807 10.769L25.079 16.0667ZM22.5516 18.1566L22.3086 18.5454C21.531 19.7119 21.0936 21.0727 21.045 22.4336V22.6766H20.1215V18.1566H22.5516ZM8.50547 2.70092H20.4617L22.7947 9.50529L21.3852 10.8662L18.9064 8.92206C18.6148 8.72765 18.226 8.77625 18.0316 9.01927C17.8372 9.31088 17.8858 9.6997 18.1288 9.89412L20.8019 11.984V16.9415H20.0243V14.4142C20.0243 14.0739 19.7327 13.7823 19.3925 13.7823H18.0802L17.74 11.8382C17.6914 11.5466 17.4484 11.3522 17.1567 11.3522H13.9004L13.4629 8.43604C13.4143 8.09582 13.1713 7.90141 12.8797 7.90141H11.373C11.0328 7.90141 10.7412 8.19302 10.7412 8.53324C10.7412 8.87346 11.0328 9.16508 11.373 9.16508H12.3451L12.7825 12.0812C12.8311 12.4215 13.0741 12.6159 13.3657 12.6159H16.6221L16.8165 13.7337H5.5407L8.50547 2.70092ZM1.7497 22.4822L1.70109 22.628L1.21507 23.5029V14.9974H18.712V17.5247C18.712 17.6219 18.712 17.6705 18.7606 17.7677V19.1772H15.8931C15.5529 19.1772 15.2612 19.4688 15.2612 19.8091V22.7252L11.7132 22.7738V22.5308C11.7132 22.2392 11.7132 22.0934 11.6646 21.8504C11.6646 21.8018 11.616 21.7532 11.5674 21.7046L11.5188 21.6074C11.4216 21.1213 11.2272 20.6839 10.9842 20.2951C10.9356 20.1979 10.9356 20.1493 10.887 20.1493C10.2552 19.0314 9.23451 18.2538 8.01944 17.9136C7.92224 17.9136 7.82503 17.865 7.77643 17.865C7.63062 17.865 7.53341 17.865 7.43621 17.865H7.339C6.85298 17.8164 6.36695 17.8164 5.88092 17.9136H5.78372C5.68651 17.9136 5.63791 17.9136 5.58931 17.9136H5.4921C5.4435 17.9136 5.3949 17.9622 5.29769 17.9622C4.47145 18.2052 3.74241 18.594 3.15917 19.2258C2.52734 19.8091 2.08991 20.4895 1.8469 21.3157C1.8469 21.656 1.7497 22.0448 1.7497 22.4822ZM18.8092 22.6766H16.5735V20.4409H18.8092V22.6766ZM6.70717 26.4676C4.71446 26.4676 3.01337 24.8637 2.91616 22.9196V22.7738C2.91616 22.5308 2.91616 22.2392 2.96476 21.899L3.01337 21.8018C3.06197 21.7532 3.11057 21.7046 3.11057 21.656C3.20778 21.2671 3.45079 20.8297 3.6938 20.4895C3.93682 20.1979 4.17983 19.9549 4.52005 19.7119C4.86027 19.4688 5.24909 19.2744 5.63791 19.1772C5.68651 19.1286 5.78372 19.08 5.88092 19.08C6.12394 19.0314 6.41555 19.0314 6.70717 19.0314H7.72782V19.1286C8.65127 19.4202 9.38032 20.0035 9.91494 20.8297C10.158 21.2185 10.3038 21.6074 10.3524 22.0448C10.4496 22.2392 10.4496 22.5794 10.4496 22.7738V23.2599C10.2066 25.0582 8.60267 26.4676 6.70717 26.4676ZM10.0608 26.4676L10.4496 26.0302C10.9356 25.4956 11.3244 24.8151 11.5188 24.1347L11.5674 23.9403H19.4897C19.4897 23.9403 19.5383 23.9403 19.6355 23.8917H21.6282C21.774 23.8917 21.9198 23.7945 22.0656 23.7459H22.1142C22.1628 23.6487 22.2114 23.5029 22.2114 23.3085V22.8224C22.2114 20.9755 22.9891 19.2744 24.3013 18.0594L24.4957 17.865C24.5443 17.8164 24.593 17.7677 24.6416 17.7191L24.7388 17.6219C24.7874 17.5733 24.836 17.5733 24.8846 17.5247C24.9818 17.4761 25.079 17.4275 25.1276 17.3789L25.2248 17.3303L25.3706 17.2817L25.4678 17.1845C25.5164 17.1359 25.565 17.1359 25.6136 17.0873L25.6622 17.0387L25.8566 16.9901H25.9052C25.9538 16.9415 26.0024 16.8929 26.051 16.8443L26.1482 16.7471C26.294 16.6985 26.3912 16.6499 26.4885 16.6013L26.8287 16.5041V18.2052L26.6829 18.2538C24.9818 19.1286 23.9125 20.8297 23.9125 22.7252C23.9125 23.9403 24.3499 25.1068 25.1762 26.0302L25.565 26.4676H10.0608ZM32.7582 22.7738C32.7582 24.5721 31.4945 26.1274 29.6962 26.4676H28.2382C26.4399 26.1274 25.1276 24.5721 25.1276 22.7738C25.1276 21.2671 26.0024 19.9549 27.3633 19.2744L27.4605 19.2258L27.6549 19.323C27.7521 19.2744 27.8493 19.2258 27.9951 19.2258C28.0923 19.1772 28.1409 19.1286 28.2382 19.08L28.2868 19.0314H28.5298C28.8214 18.9828 29.3074 18.9828 29.7934 19.1286C29.9392 19.1772 29.9878 19.2258 30.0851 19.2258C30.1823 19.2744 30.2309 19.2744 30.3281 19.323L30.4253 19.3716C31.8834 19.9549 32.7582 21.2671 32.7582 22.7738ZM31.2029 7.90141V6.54053L38.6391 5.03385V6.39472L31.2029 7.90141ZM38.6877 14.0739L31.2515 15.5806V14.2684L38.6877 12.8103V14.0739ZM38.6877 11.498L31.2515 13.0047V11.6924L38.6877 10.1857V11.498ZM38.6877 8.87346L31.2515 10.3801V9.06787L38.6877 7.65839V8.87346Z"/>
</mask>
<path d="M39.8542 6.39472V4.30481C39.8542 4.1104 39.757 3.91599 39.6112 3.81878C39.4168 3.62437 39.3196 3.57577 39.1251 3.62437L31.2029 5.22826V3.47856C31.2029 3.28415 31.1057 3.08974 30.9599 2.99254L27.7521 0.367992C27.6063 0.222184 27.3147 0.173581 27.1203 0.270787C26.9259 0.367992 26.7801 0.562403 26.7801 0.805416V15.3862L26.1482 15.532L21.774 2.70092H22.8433C23.1835 2.70092 23.5723 2.3607 23.5723 2.06909C23.5723 1.72887 23.2807 1.43725 22.9405 1.43725H6.46416C6.12394 1.43725 5.83232 1.72887 5.83232 2.06909C5.83232 2.4093 6.12394 2.70092 6.46416 2.70092H7.2418L4.32564 13.7337H0.631835C0.291616 13.6851 0 13.9767 0 14.317V23.3085C0 23.6487 0.291616 23.9403 0.631835 23.9403H1.8469L1.94411 24.1347C2.13852 24.8637 2.52734 25.4956 3.01337 26.0788L3.30498 26.419L2.86756 26.5162C2.57594 26.5648 2.38153 26.8564 2.38153 27.1481C2.38153 27.4883 2.67315 27.7799 3.01337 27.7799H38.3961C38.7363 27.7799 39.0279 27.4883 39.0279 27.1481C39.0279 26.8078 38.7363 26.5162 38.3961 26.5162H32.2722L32.661 26.0788C33.4386 25.1554 33.8761 23.9403 33.8761 22.7252C33.8761 20.9269 32.9526 19.323 31.4459 18.4482L31.3001 18.351V16.8929L39.514 15.1918C39.8056 15.1432 40 14.9002 40 14.6086V6.83215C40 6.73494 39.9514 6.58913 39.9028 6.49193L39.8542 6.39472ZM27.9465 2.21489L29.8906 3.81878V6.15171C29.8906 6.24892 29.8906 6.29752 29.9392 6.39472V17.9136L29.6476 17.865C29.5018 17.865 29.3074 17.8164 29.1616 17.8164C28.9186 17.7678 28.7242 17.7678 28.5298 17.8164C28.4326 17.8164 28.384 17.8164 28.2868 17.8164L27.9465 17.865L27.8979 17.5733V2.21489H27.9465ZM25.079 16.0667L24.8846 16.1639C24.6902 16.2611 24.4957 16.4069 24.3013 16.5041L24.1069 16.6499L24.0097 16.7471L23.9125 16.7957C23.8639 16.8443 23.8153 16.8443 23.7667 16.8929L23.7181 16.9415H22.1142V11.9354L23.2807 10.769L25.079 16.0667ZM22.5516 18.1566L22.3086 18.5454C21.531 19.7119 21.0936 21.0727 21.045 22.4336V22.6766H20.1215V18.1566H22.5516ZM8.50547 2.70092H20.4617L22.7947 9.50529L21.3852 10.8662L18.9064 8.92206C18.6148 8.72765 18.226 8.77625 18.0316 9.01927C17.8372 9.31088 17.8858 9.6997 18.1288 9.89412L20.8019 11.984V16.9415H20.0243V14.4142C20.0243 14.0739 19.7327 13.7823 19.3925 13.7823H18.0802L17.74 11.8382C17.6914 11.5466 17.4484 11.3522 17.1567 11.3522H13.9004L13.4629 8.43604C13.4143 8.09582 13.1713 7.90141 12.8797 7.90141H11.373C11.0328 7.90141 10.7412 8.19302 10.7412 8.53324C10.7412 8.87346 11.0328 9.16508 11.373 9.16508H12.3451L12.7825 12.0812C12.8311 12.4215 13.0741 12.6159 13.3657 12.6159H16.6221L16.8165 13.7337H5.5407L8.50547 2.70092ZM1.7497 22.4822L1.70109 22.628L1.21507 23.5029V14.9974H18.712V17.5247C18.712 17.6219 18.712 17.6705 18.7606 17.7677V19.1772H15.8931C15.5529 19.1772 15.2612 19.4688 15.2612 19.8091V22.7252L11.7132 22.7738V22.5308C11.7132 22.2392 11.7132 22.0934 11.6646 21.8504C11.6646 21.8018 11.616 21.7532 11.5674 21.7046L11.5188 21.6074C11.4216 21.1213 11.2272 20.6839 10.9842 20.2951C10.9356 20.1979 10.9356 20.1493 10.887 20.1493C10.2552 19.0314 9.23451 18.2538 8.01944 17.9136C7.92224 17.9136 7.82503 17.865 7.77643 17.865C7.63062 17.865 7.53341 17.865 7.43621 17.865H7.339C6.85298 17.8164 6.36695 17.8164 5.88092 17.9136H5.78372C5.68651 17.9136 5.63791 17.9136 5.58931 17.9136H5.4921C5.4435 17.9136 5.3949 17.9622 5.29769 17.9622C4.47145 18.2052 3.74241 18.594 3.15917 19.2258C2.52734 19.8091 2.08991 20.4895 1.8469 21.3157C1.8469 21.656 1.7497 22.0448 1.7497 22.4822ZM18.8092 22.6766H16.5735V20.4409H18.8092V22.6766ZM6.70717 26.4676C4.71446 26.4676 3.01337 24.8637 2.91616 22.9196V22.7738C2.91616 22.5308 2.91616 22.2392 2.96476 21.899L3.01337 21.8018C3.06197 21.7532 3.11057 21.7046 3.11057 21.656C3.20778 21.2671 3.45079 20.8297 3.6938 20.4895C3.93682 20.1979 4.17983 19.9549 4.52005 19.7119C4.86027 19.4688 5.24909 19.2744 5.63791 19.1772C5.68651 19.1286 5.78372 19.08 5.88092 19.08C6.12394 19.0314 6.41555 19.0314 6.70717 19.0314H7.72782V19.1286C8.65127 19.4202 9.38032 20.0035 9.91494 20.8297C10.158 21.2185 10.3038 21.6074 10.3524 22.0448C10.4496 22.2392 10.4496 22.5794 10.4496 22.7738V23.2599C10.2066 25.0582 8.60267 26.4676 6.70717 26.4676ZM10.0608 26.4676L10.4496 26.0302C10.9356 25.4956 11.3244 24.8151 11.5188 24.1347L11.5674 23.9403H19.4897C19.4897 23.9403 19.5383 23.9403 19.6355 23.8917H21.6282C21.774 23.8917 21.9198 23.7945 22.0656 23.7459H22.1142C22.1628 23.6487 22.2114 23.5029 22.2114 23.3085V22.8224C22.2114 20.9755 22.9891 19.2744 24.3013 18.0594L24.4957 17.865C24.5443 17.8164 24.593 17.7677 24.6416 17.7191L24.7388 17.6219C24.7874 17.5733 24.836 17.5733 24.8846 17.5247C24.9818 17.4761 25.079 17.4275 25.1276 17.3789L25.2248 17.3303L25.3706 17.2817L25.4678 17.1845C25.5164 17.1359 25.565 17.1359 25.6136 17.0873L25.6622 17.0387L25.8566 16.9901H25.9052C25.9538 16.9415 26.0024 16.8929 26.051 16.8443L26.1482 16.7471C26.294 16.6985 26.3912 16.6499 26.4885 16.6013L26.8287 16.5041V18.2052L26.6829 18.2538C24.9818 19.1286 23.9125 20.8297 23.9125 22.7252C23.9125 23.9403 24.3499 25.1068 25.1762 26.0302L25.565 26.4676H10.0608ZM32.7582 22.7738C32.7582 24.5721 31.4945 26.1274 29.6962 26.4676H28.2382C26.4399 26.1274 25.1276 24.5721 25.1276 22.7738C25.1276 21.2671 26.0024 19.9549 27.3633 19.2744L27.4605 19.2258L27.6549 19.323C27.7521 19.2744 27.8493 19.2258 27.9951 19.2258C28.0923 19.1772 28.1409 19.1286 28.2382 19.08L28.2868 19.0314H28.5298C28.8214 18.9828 29.3074 18.9828 29.7934 19.1286C29.9392 19.1772 29.9878 19.2258 30.0851 19.2258C30.1823 19.2744 30.2309 19.2744 30.3281 19.323L30.4253 19.3716C31.8834 19.9549 32.7582 21.2671 32.7582 22.7738ZM31.2029 7.90141V6.54053L38.6391 5.03385V6.39472L31.2029 7.90141ZM38.6877 14.0739L31.2515 15.5806V14.2684L38.6877 12.8103V14.0739ZM38.6877 11.498L31.2515 13.0047V11.6924L38.6877 10.1857V11.498ZM38.6877 8.87346L31.2515 10.3801V9.06787L38.6877 7.65839V8.87346Z" stroke="white" stroke-width="2" mask="url(#path-1-inside-1_245_126)"/>
</svg>
