<svg width="40" height="26" viewBox="0 0 40 26" fill="none" xmlns="http://www.w3.org/2000/svg">
<mask id="path-1-inside-1_245_114" fill="white">
<path d="M28.6634 18.6376H22.9703V19.0337H28.6634V18.6376Z"/>
<path d="M17.1782 18.6376H11.4851V19.0337H17.1782V18.6376Z"/>
<path d="M30.9901 12.4495C29.802 12.4495 28.7129 13.2416 28.3168 14.3802L28.2673 14.5782H11.7822L11.7327 14.3802C11.3366 13.2416 10.2475 12.4495 9.05941 12.4495C7.52475 12.4495 6.23762 13.7366 6.23762 15.2713C6.23762 16.8059 7.52475 18.0931 9.05941 18.0931C10.297 18.0931 11.4356 17.2515 11.7822 16.0139L11.8317 15.8158H28.2178L28.2673 16.0139C28.6139 17.2515 29.7525 18.0931 30.9901 18.0931C32.5247 18.0931 33.8119 16.8059 33.8119 15.2713C33.8119 13.7366 32.5247 12.4495 30.9901 12.4495ZM10.5941 15.5188C10.495 16.3109 9.80198 16.8554 9.0099 16.8554C8.11881 16.8554 7.42574 16.1624 7.42574 15.2713C7.42574 14.3802 8.11881 13.6871 9.0099 13.6871C9.75247 13.6871 10.396 14.2317 10.5446 14.9247V15.0238C10.5446 15.0733 10.495 15.1228 10.495 15.1723C10.495 15.2218 10.495 15.2713 10.5446 15.3703V15.4198L10.5941 15.5188ZM30.9901 16.8554C30.1485 16.8554 29.5049 16.3109 29.4059 15.5188V15.4198C29.4059 15.3703 29.4554 15.2713 29.4554 15.2218C29.4554 15.1723 29.4554 15.1228 29.4059 15.0733V14.9743C29.5545 14.2317 30.2475 13.7366 30.9406 13.7366C31.8317 13.7366 32.5247 14.4297 32.5247 15.3208C32.5743 16.1624 31.8812 16.8554 30.9901 16.8554Z"/>
<path d="M15.6436 12.8455H24.4554C24.7525 12.8455 25.099 12.5485 25.099 12.202C25.099 11.8554 24.802 11.5584 24.4554 11.5584H15.6436C15.297 11.5584 15 11.8554 15 12.202C15 12.499 15.297 12.8455 15.6436 12.8455Z"/>
<path d="M11.7327 19.1327H16.9802C17.1287 19.1327 17.3762 18.9346 17.3762 18.7366C17.3762 18.5386 17.1782 18.3406 16.9802 18.3406H11.7327C11.5347 18.3406 11.3366 18.5386 11.3366 18.7366C11.3366 18.9346 11.5347 19.1327 11.7327 19.1327Z"/>
<path d="M23.0198 19.1327H28.2673C28.4158 19.1327 28.6634 18.9346 28.6634 18.7366C28.6634 18.5386 28.4653 18.3406 28.2673 18.3406H23.0198C22.8218 18.3406 22.6238 18.5386 22.6238 18.7366C22.6238 18.9346 22.8218 19.1327 23.0198 19.1327Z"/>
<path d="M20.5446 2.84554C20.396 2.69702 20.2475 2.64752 20.099 2.64752C19.9505 2.64752 19.7525 2.69702 19.6535 2.84554L16.9802 5.51881C16.7327 5.76633 16.7327 6.16237 16.9802 6.40989C17.2277 6.65742 17.5743 6.65742 17.8713 6.40989L20.5446 3.73663C20.7921 3.4891 20.7921 3.09306 20.5446 2.84554Z"/>
<path d="M39.3564 24.6772H36.4851L36.5347 24.3802C36.5347 24.2812 36.5842 24.1822 36.5842 24.1327V18.2416C36.5842 18.1921 36.5842 18.1426 36.5842 18.0931V18.0436L37.2772 15.1723C37.5743 13.8851 37.3267 12.5485 36.5347 11.5089L36.1386 11.0634H36.6832C37.5247 11.0634 38.2673 10.3208 38.2673 9.4792V8.68712C38.2673 7.79603 37.5743 7.10296 36.6832 7.10296H34.1584C33.8119 7.10296 33.5149 7.20197 33.2178 7.39999L32.9208 7.64752L32.2277 4.57821C31.5347 1.90494 29.2574 0.0732615 26.4851 0.0732615H26.3861C26.2871 0.0237566 26.1386 0.0237566 25.9901 0.0732615H13.6634C10.8911 0.0732615 8.51485 1.90494 7.92079 4.57821L7.17822 7.79603L6.83168 7.499C6.53465 7.25148 6.18812 7.10296 5.79208 7.10296H3.31683C2.42574 7.10296 1.73267 7.79603 1.73267 8.68712V9.4792C1.73267 10.3703 2.42574 11.0634 3.31683 11.0634H4.0099L3.66337 11.5089C2.82178 12.5485 2.57426 13.8851 2.87129 15.1723L3.56436 18.0931V18.1426C3.56436 18.1921 3.51485 18.2416 3.51485 18.2911V24.2812L3.56436 24.6277H0.643564C0.29703 24.6772 0 24.9743 0 25.3208C0 25.6673 0.29703 25.9643 0.643564 25.9643H39.3564C39.703 25.9643 40 25.6673 40 25.3208C40 24.9743 39.703 24.6772 39.3564 24.6772ZM33.9109 8.39009H36.6832C36.8812 8.39009 37.0297 8.53861 37.0297 8.73663V9.4792C37.0297 9.67722 36.8812 9.82574 36.6832 9.82574H34.1584C33.9604 9.82574 33.8119 9.67722 33.8119 9.4792L33.9109 8.39009ZM9.10891 4.92475C9.55445 2.84554 11.4356 1.36039 13.5644 1.36039H24.604L21.2871 4.67722C21.0396 4.92475 21.0396 5.32079 21.2871 5.56831C21.5347 5.81584 21.9307 5.81584 22.1782 5.56831L26.3861 1.36039H26.4851C28.6139 1.4099 30.396 2.89504 30.8416 4.92475L31.8317 9.18217L31.4356 9.08316C28.5644 8.4396 25.396 8.24158 24.5049 8.19207C22.2772 7.99405 17.8713 7.99405 14.703 8.29108C12.6238 8.39009 10.3465 8.73663 8.56436 9.13267L8.16832 9.23168L9.10891 4.92475ZM3.31683 9.82574C3.11881 9.82574 2.9703 9.67722 2.9703 9.4792L3.06931 8.39009H5.84158C6.0396 8.39009 6.18812 8.53861 6.18812 8.73663V9.4792C6.18812 9.67722 6.0396 9.82574 5.84158 9.82574H3.31683ZM8.86139 24.1327C8.86139 24.4297 8.61386 24.6772 8.31683 24.6772H5.09901L5.0495 24.6277C4.90099 24.5287 4.85148 24.3802 4.85148 24.2317V21.1129L5.29703 21.4594C6.08911 22.103 7.0297 22.4495 8.06931 22.4495H8.91089V24.1327H8.86139ZM10.099 24.6772L10.1485 24.3802C10.1485 24.2812 10.198 24.1822 10.198 24.1327V22.499H29.9505V24.3307L30 24.6772H10.099ZM35.2475 24.1327C35.2475 24.4297 35 24.6772 34.703 24.6772H31.4851L31.4356 24.6277C31.2871 24.5287 31.2376 24.3802 31.2376 24.2317V22.499H31.9802C33.0198 22.499 34.0099 22.1525 34.8515 21.4099L35.297 21.0634V24.1327H35.2475ZM36.0396 14.9247L35.3465 17.8455C35.2475 17.9445 35.198 18.0931 35.198 18.2416C35.198 18.2911 35.198 18.3406 35.198 18.3901V18.4396L35.099 18.8356C34.703 20.3208 33.4653 21.3109 32.0297 21.3109H30.9406L30.8911 21.2614C30.6931 21.1129 30.4455 21.1129 30.2475 21.2614L30.198 21.3109H10L9.90099 21.2614C9.80198 21.2119 9.65347 21.1129 9.50495 21.1129C9.35644 21.1129 9.20792 21.2119 9.10891 21.2614L9.05941 21.3109H8.11881C6.63366 21.3109 5.34653 20.2713 5.0495 18.8356L4.10891 14.9247C3.71287 13.3406 4.55446 11.7564 6.08911 11.2614C6.28713 11.1624 6.38614 11.1129 6.53465 11.0634C6.73267 10.9644 6.93069 10.8653 7.32673 10.7168C7.47525 10.7168 7.52475 10.6673 7.57426 10.6178L7.62376 10.5683H7.67327C7.77228 10.5683 7.77228 10.5683 8.41584 10.3703H8.46535C8.56436 10.3703 8.91089 10.2713 9.10891 10.2218C16.0891 8.63762 29.0099 9.08316 33.3663 11.0139C33.5644 11.0634 33.8119 11.1624 33.9604 11.2119C35.5446 11.7564 36.3861 13.3901 36.0396 14.9247Z"/>
</mask>
<path d="M28.6634 18.6376H22.9703V19.0337H28.6634V18.6376Z" stroke="white" stroke-width="4" mask="url(#path-1-inside-1_245_114)"/>
<path d="M17.1782 18.6376H11.4851V19.0337H17.1782V18.6376Z" stroke="white" stroke-width="4" mask="url(#path-1-inside-1_245_114)"/>
<path d="M30.9901 12.4495C29.802 12.4495 28.7129 13.2416 28.3168 14.3802L28.2673 14.5782H11.7822L11.7327 14.3802C11.3366 13.2416 10.2475 12.4495 9.05941 12.4495C7.52475 12.4495 6.23762 13.7366 6.23762 15.2713C6.23762 16.8059 7.52475 18.0931 9.05941 18.0931C10.297 18.0931 11.4356 17.2515 11.7822 16.0139L11.8317 15.8158H28.2178L28.2673 16.0139C28.6139 17.2515 29.7525 18.0931 30.9901 18.0931C32.5247 18.0931 33.8119 16.8059 33.8119 15.2713C33.8119 13.7366 32.5247 12.4495 30.9901 12.4495ZM10.5941 15.5188C10.495 16.3109 9.80198 16.8554 9.0099 16.8554C8.11881 16.8554 7.42574 16.1624 7.42574 15.2713C7.42574 14.3802 8.11881 13.6871 9.0099 13.6871C9.75247 13.6871 10.396 14.2317 10.5446 14.9247V15.0238C10.5446 15.0733 10.495 15.1228 10.495 15.1723C10.495 15.2218 10.495 15.2713 10.5446 15.3703V15.4198L10.5941 15.5188ZM30.9901 16.8554C30.1485 16.8554 29.5049 16.3109 29.4059 15.5188V15.4198C29.4059 15.3703 29.4554 15.2713 29.4554 15.2218C29.4554 15.1723 29.4554 15.1228 29.4059 15.0733V14.9743C29.5545 14.2317 30.2475 13.7366 30.9406 13.7366C31.8317 13.7366 32.5247 14.4297 32.5247 15.3208C32.5743 16.1624 31.8812 16.8554 30.9901 16.8554Z" stroke="white" stroke-width="4" mask="url(#path-1-inside-1_245_114)"/>
<path d="M15.6436 12.8455H24.4554C24.7525 12.8455 25.099 12.5485 25.099 12.202C25.099 11.8554 24.802 11.5584 24.4554 11.5584H15.6436C15.297 11.5584 15 11.8554 15 12.202C15 12.499 15.297 12.8455 15.6436 12.8455Z" stroke="white" stroke-width="4" mask="url(#path-1-inside-1_245_114)"/>
<path d="M11.7327 19.1327H16.9802C17.1287 19.1327 17.3762 18.9346 17.3762 18.7366C17.3762 18.5386 17.1782 18.3406 16.9802 18.3406H11.7327C11.5347 18.3406 11.3366 18.5386 11.3366 18.7366C11.3366 18.9346 11.5347 19.1327 11.7327 19.1327Z" stroke="white" stroke-width="4" mask="url(#path-1-inside-1_245_114)"/>
<path d="M23.0198 19.1327H28.2673C28.4158 19.1327 28.6634 18.9346 28.6634 18.7366C28.6634 18.5386 28.4653 18.3406 28.2673 18.3406H23.0198C22.8218 18.3406 22.6238 18.5386 22.6238 18.7366C22.6238 18.9346 22.8218 19.1327 23.0198 19.1327Z" stroke="white" stroke-width="4" mask="url(#path-1-inside-1_245_114)"/>
<path d="M20.5446 2.84554C20.396 2.69702 20.2475 2.64752 20.099 2.64752C19.9505 2.64752 19.7525 2.69702 19.6535 2.84554L16.9802 5.51881C16.7327 5.76633 16.7327 6.16237 16.9802 6.40989C17.2277 6.65742 17.5743 6.65742 17.8713 6.40989L20.5446 3.73663C20.7921 3.4891 20.7921 3.09306 20.5446 2.84554Z" stroke="white" stroke-width="4" mask="url(#path-1-inside-1_245_114)"/>
<path d="M39.3564 24.6772H36.4851L36.5347 24.3802C36.5347 24.2812 36.5842 24.1822 36.5842 24.1327V18.2416C36.5842 18.1921 36.5842 18.1426 36.5842 18.0931V18.0436L37.2772 15.1723C37.5743 13.8851 37.3267 12.5485 36.5347 11.5089L36.1386 11.0634H36.6832C37.5247 11.0634 38.2673 10.3208 38.2673 9.4792V8.68712C38.2673 7.79603 37.5743 7.10296 36.6832 7.10296H34.1584C33.8119 7.10296 33.5149 7.20197 33.2178 7.39999L32.9208 7.64752L32.2277 4.57821C31.5347 1.90494 29.2574 0.0732615 26.4851 0.0732615H26.3861C26.2871 0.0237566 26.1386 0.0237566 25.9901 0.0732615H13.6634C10.8911 0.0732615 8.51485 1.90494 7.92079 4.57821L7.17822 7.79603L6.83168 7.499C6.53465 7.25148 6.18812 7.10296 5.79208 7.10296H3.31683C2.42574 7.10296 1.73267 7.79603 1.73267 8.68712V9.4792C1.73267 10.3703 2.42574 11.0634 3.31683 11.0634H4.0099L3.66337 11.5089C2.82178 12.5485 2.57426 13.8851 2.87129 15.1723L3.56436 18.0931V18.1426C3.56436 18.1921 3.51485 18.2416 3.51485 18.2911V24.2812L3.56436 24.6277H0.643564C0.29703 24.6772 0 24.9743 0 25.3208C0 25.6673 0.29703 25.9643 0.643564 25.9643H39.3564C39.703 25.9643 40 25.6673 40 25.3208C40 24.9743 39.703 24.6772 39.3564 24.6772ZM33.9109 8.39009H36.6832C36.8812 8.39009 37.0297 8.53861 37.0297 8.73663V9.4792C37.0297 9.67722 36.8812 9.82574 36.6832 9.82574H34.1584C33.9604 9.82574 33.8119 9.67722 33.8119 9.4792L33.9109 8.39009ZM9.10891 4.92475C9.55445 2.84554 11.4356 1.36039 13.5644 1.36039H24.604L21.2871 4.67722C21.0396 4.92475 21.0396 5.32079 21.2871 5.56831C21.5347 5.81584 21.9307 5.81584 22.1782 5.56831L26.3861 1.36039H26.4851C28.6139 1.4099 30.396 2.89504 30.8416 4.92475L31.8317 9.18217L31.4356 9.08316C28.5644 8.4396 25.396 8.24158 24.5049 8.19207C22.2772 7.99405 17.8713 7.99405 14.703 8.29108C12.6238 8.39009 10.3465 8.73663 8.56436 9.13267L8.16832 9.23168L9.10891 4.92475ZM3.31683 9.82574C3.11881 9.82574 2.9703 9.67722 2.9703 9.4792L3.06931 8.39009H5.84158C6.0396 8.39009 6.18812 8.53861 6.18812 8.73663V9.4792C6.18812 9.67722 6.0396 9.82574 5.84158 9.82574H3.31683ZM8.86139 24.1327C8.86139 24.4297 8.61386 24.6772 8.31683 24.6772H5.09901L5.0495 24.6277C4.90099 24.5287 4.85148 24.3802 4.85148 24.2317V21.1129L5.29703 21.4594C6.08911 22.103 7.0297 22.4495 8.06931 22.4495H8.91089V24.1327H8.86139ZM10.099 24.6772L10.1485 24.3802C10.1485 24.2812 10.198 24.1822 10.198 24.1327V22.499H29.9505V24.3307L30 24.6772H10.099ZM35.2475 24.1327C35.2475 24.4297 35 24.6772 34.703 24.6772H31.4851L31.4356 24.6277C31.2871 24.5287 31.2376 24.3802 31.2376 24.2317V22.499H31.9802C33.0198 22.499 34.0099 22.1525 34.8515 21.4099L35.297 21.0634V24.1327H35.2475ZM36.0396 14.9247L35.3465 17.8455C35.2475 17.9445 35.198 18.0931 35.198 18.2416C35.198 18.2911 35.198 18.3406 35.198 18.3901V18.4396L35.099 18.8356C34.703 20.3208 33.4653 21.3109 32.0297 21.3109H30.9406L30.8911 21.2614C30.6931 21.1129 30.4455 21.1129 30.2475 21.2614L30.198 21.3109H10L9.90099 21.2614C9.80198 21.2119 9.65347 21.1129 9.50495 21.1129C9.35644 21.1129 9.20792 21.2119 9.10891 21.2614L9.05941 21.3109H8.11881C6.63366 21.3109 5.34653 20.2713 5.0495 18.8356L4.10891 14.9247C3.71287 13.3406 4.55446 11.7564 6.08911 11.2614C6.28713 11.1624 6.38614 11.1129 6.53465 11.0634C6.73267 10.9644 6.93069 10.8653 7.32673 10.7168C7.47525 10.7168 7.52475 10.6673 7.57426 10.6178L7.62376 10.5683H7.67327C7.77228 10.5683 7.77228 10.5683 8.41584 10.3703H8.46535C8.56436 10.3703 8.91089 10.2713 9.10891 10.2218C16.0891 8.63762 29.0099 9.08316 33.3663 11.0139C33.5644 11.0634 33.8119 11.1624 33.9604 11.2119C35.5446 11.7564 36.3861 13.3901 36.0396 14.9247Z" stroke="white" stroke-width="4" mask="url(#path-1-inside-1_245_114)"/>
</svg>
