<svg width="42" height="42" viewBox="0 0 42 42" fill="none" xmlns="http://www.w3.org/2000/svg">
<path d="M21 10.5059C15.1784 10.5059 10.4836 15.2118 10.4836 21.0471C10.4836 26.8824 15.1784 31.5882 21 31.5882C26.8216 31.5882 31.5164 26.8824 31.5164 21.0471C31.6103 15.2118 26.8216 10.5059 21 10.5059ZM30.0141 21.0471C30.0141 26.0353 25.9765 30.0824 21 30.0824C16.0235 30.0824 11.9859 26.0353 11.9859 21.0471C11.9859 16.0588 16.0235 12.0118 21 12.0118C25.9765 12.1059 30.0141 16.1529 30.0141 21.0471Z" fill="white"/>
<path d="M21 8.62353C21.4695 8.62353 21.7512 8.24706 21.7512 7.87059V1.75294C21.7512 1.28235 21.3756 1 21 1C20.5305 1 20.2488 1.37647 20.2488 1.75294V7.77647C20.2488 8.24706 20.6244 8.62353 21 8.62353Z" fill="white"/>
<path d="M11.1408 12.2941C11.3286 12.4824 11.5164 12.4824 11.7042 12.4824C11.892 12.4824 12.0798 12.3882 12.2676 12.2941C12.5493 12.0118 12.5493 11.4471 12.2676 11.1647L7.94836 6.83529C7.66667 6.55294 7.10329 6.55294 6.8216 6.83529C6.53991 7.11765 6.53991 7.68235 6.8216 7.96471L11.1408 12.2941Z" fill="white"/>
<path d="M8.60563 21.0471C8.60563 20.5765 8.23005 20.2941 7.85446 20.2941H1.75117C1.28169 20.2941 1 20.6706 1 21.0471C1 21.5176 1.37559 21.8 1.75117 21.8H7.76056C8.23005 21.8941 8.60563 21.5176 8.60563 21.0471Z" fill="white"/>
<path d="M11.1408 29.8941L6.91549 34.1294C6.6338 34.4118 6.6338 34.9765 6.91549 35.2588C7.10329 35.4471 7.29108 35.4471 7.47887 35.4471C7.66667 35.4471 7.85446 35.3529 8.04225 35.2588L12.2676 31.0235C12.5493 30.7412 12.5493 30.1765 12.2676 29.8941C11.892 29.5176 11.4225 29.5176 11.1408 29.8941Z" fill="white"/>
<path d="M21 33.4706C20.5305 33.4706 20.2488 33.8471 20.2488 34.2235V40.2471C20.2488 40.7176 20.6244 41 21 41C21.4695 41 21.7512 40.6235 21.7512 40.2471V34.2235C21.8451 33.8471 21.4695 33.4706 21 33.4706Z" fill="white"/>
<path d="M30.9531 29.8941C30.6714 29.6118 30.108 29.6118 29.8263 29.8941C29.5446 30.1765 29.5446 30.7412 29.8263 31.0235L34.0516 35.2588C34.2394 35.4471 34.4272 35.4471 34.615 35.4471C34.8028 35.4471 34.9906 35.3529 35.1784 35.2588C35.4601 34.9765 35.4601 34.4118 35.1784 34.1294L30.9531 29.8941Z" fill="white"/>
<path d="M40.2488 20.2941H34.2394C33.77 20.2941 33.4883 20.6706 33.4883 21.0471C33.4883 21.4235 33.8639 21.8 34.2394 21.8H40.2488C40.7183 21.8 41 21.4235 41 21.0471C41 20.6706 40.7183 20.2941 40.2488 20.2941Z" fill="white"/>
<path d="M30.3897 12.4824C30.5775 12.4824 30.7653 12.3882 30.9531 12.2941L35.1784 8.05882C35.4601 7.77647 35.4601 7.21177 35.1784 6.92941C34.8967 6.64706 34.3333 6.64706 34.0516 6.92941L29.8263 11.1647C29.5446 11.4471 29.5446 12.0118 29.8263 12.2941C29.9202 12.3882 30.108 12.4824 30.3897 12.4824Z" fill="white"/>
<path d="M21 10.5059C15.1784 10.5059 10.4836 15.2118 10.4836 21.0471C10.4836 26.8824 15.1784 31.5882 21 31.5882C26.8216 31.5882 31.5164 26.8824 31.5164 21.0471C31.6103 15.2118 26.8216 10.5059 21 10.5059ZM30.0141 21.0471C30.0141 26.0353 25.9765 30.0824 21 30.0824C16.0235 30.0824 11.9859 26.0353 11.9859 21.0471C11.9859 16.0588 16.0235 12.0118 21 12.0118C25.9765 12.1059 30.0141 16.1529 30.0141 21.0471Z" stroke="white" stroke-width="0.5"/>
<path d="M21 8.62353C21.4695 8.62353 21.7512 8.24706 21.7512 7.87059V1.75294C21.7512 1.28235 21.3756 1 21 1C20.5305 1 20.2488 1.37647 20.2488 1.75294V7.77647C20.2488 8.24706 20.6244 8.62353 21 8.62353Z" stroke="white" stroke-width="0.5"/>
<path d="M11.1408 12.2941C11.3286 12.4824 11.5164 12.4824 11.7042 12.4824C11.892 12.4824 12.0798 12.3882 12.2676 12.2941C12.5493 12.0118 12.5493 11.4471 12.2676 11.1647L7.94836 6.83529C7.66667 6.55294 7.10329 6.55294 6.8216 6.83529C6.53991 7.11765 6.53991 7.68235 6.8216 7.96471L11.1408 12.2941Z" stroke="white" stroke-width="0.5"/>
<path d="M8.60563 21.0471C8.60563 20.5765 8.23005 20.2941 7.85446 20.2941H1.75117C1.28169 20.2941 1 20.6706 1 21.0471C1 21.5176 1.37559 21.8 1.75117 21.8H7.76056C8.23005 21.8941 8.60563 21.5176 8.60563 21.0471Z" stroke="white" stroke-width="0.5"/>
<path d="M11.1408 29.8941L6.91549 34.1294C6.6338 34.4118 6.6338 34.9765 6.91549 35.2588C7.10329 35.4471 7.29108 35.4471 7.47887 35.4471C7.66667 35.4471 7.85446 35.3529 8.04225 35.2588L12.2676 31.0235C12.5493 30.7412 12.5493 30.1765 12.2676 29.8941C11.892 29.5176 11.4225 29.5176 11.1408 29.8941Z" stroke="white" stroke-width="0.5"/>
<path d="M21 33.4706C20.5305 33.4706 20.2488 33.8471 20.2488 34.2235V40.2471C20.2488 40.7176 20.6244 41 21 41C21.4695 41 21.7512 40.6235 21.7512 40.2471V34.2235C21.8451 33.8471 21.4695 33.4706 21 33.4706Z" stroke="white" stroke-width="0.5"/>
<path d="M30.9531 29.8941C30.6714 29.6118 30.108 29.6118 29.8263 29.8941C29.5446 30.1765 29.5446 30.7412 29.8263 31.0235L34.0516 35.2588C34.2394 35.4471 34.4272 35.4471 34.615 35.4471C34.8028 35.4471 34.9906 35.3529 35.1784 35.2588C35.4601 34.9765 35.4601 34.4118 35.1784 34.1294L30.9531 29.8941Z" stroke="white" stroke-width="0.5"/>
<path d="M40.2488 20.2941H34.2394C33.77 20.2941 33.4883 20.6706 33.4883 21.0471C33.4883 21.4235 33.8639 21.8 34.2394 21.8H40.2488C40.7183 21.8 41 21.4235 41 21.0471C41 20.6706 40.7183 20.2941 40.2488 20.2941Z" stroke="white" stroke-width="0.5"/>
<path d="M30.3897 12.4824C30.5775 12.4824 30.7653 12.3882 30.9531 12.2941L35.1784 8.05882C35.4601 7.77647 35.4601 7.21177 35.1784 6.92941C34.8967 6.64706 34.3333 6.64706 34.0516 6.92941L29.8263 11.1647C29.5446 11.4471 29.5446 12.0118 29.8263 12.2941C29.9202 12.3882 30.108 12.4824 30.3897 12.4824Z" stroke="white" stroke-width="0.5"/>
</svg>
