<svg width="40" height="40" viewBox="0 0 40 40" fill="none" xmlns="http://www.w3.org/2000/svg">
<path d="M12.0142 16.019H8.64928C8.31752 16.019 8.03316 16.3033 8.03316 16.6351V19.1469C8.03316 19.4787 8.31752 19.763 8.64928 19.763H12.0142C12.346 19.763 12.6303 19.4787 12.6303 19.1943V16.6351C12.6303 16.3507 12.346 16.019 12.0142 16.019ZM11.4455 18.5782H9.26539V17.2038H11.4455V18.5782Z" fill="white"/>
<path d="M28.0806 19.763H31.4455C31.7298 19.763 32.0142 19.4787 32.0616 19.1469V16.6351C32.0616 16.3033 31.7772 16.019 31.4455 16.019H28.0806C27.7488 16.019 27.4644 16.3033 27.4644 16.6351V19.1469C27.417 19.4787 27.7488 19.763 28.0806 19.763ZM28.6019 17.2038H30.782V18.5782H28.6019V17.2038Z" fill="white"/>
<path d="M14.8578 27.8673C14.9526 28.0569 15.1422 28.1991 15.3791 28.1991H18.0332V30.3318H17.0379C16.7061 30.3318 16.4218 30.6161 16.4218 30.9479V31.9905H7.60662V29.4313C7.60662 28.5308 6.89572 27.7725 5.94786 27.7725H2.0616C1.20852 27.7725 0.545012 28.3886 0.450225 29.2417C0.402832 29.4313 0.402832 29.4787 0.402832 29.5735V32.7488C0.402832 32.8436 0.402832 32.891 0.402832 32.9384V35.8768C0.402832 35.9716 0.402832 36.019 0.402832 36.0663V38.2938C0.402832 39.1943 1.11373 39.9526 2.0616 39.9526H5.94786C6.84833 39.9526 7.60662 39.2417 7.60662 38.3886V35.782H32.3934V38.3412C32.3934 39.2417 33.1043 40 34.0521 40H37.9384C38.8388 40 39.5971 39.2891 39.5971 38.436V29.4787C39.5971 28.5782 38.8862 27.8199 37.9384 27.8199H34.0521C33.2464 27.8199 32.5355 28.436 32.4407 29.2891C32.3934 29.4313 32.3934 29.4787 32.4407 29.5735V31.9905H23.6256V30.9479C23.6256 30.6161 23.3412 30.3318 23.0095 30.3318H21.872V28.1991H24.6682C24.8104 28.1991 25.0474 28.1043 25.1896 27.7725L25.9005 26.3981H34.2891C35.3317 26.3981 36.2796 25.6398 36.5166 24.6445L37.0379 22.6066C37.0853 22.4171 37.0379 22.2275 36.9431 22.0853C36.8009 21.9431 36.6588 21.8483 36.4692 21.8483H35.4265V14.7393H37.2749C37.6066 14.7393 37.891 14.455 37.891 14.1232V10.7583C37.891 10.4265 37.6066 10.1422 37.2749 10.1422H34.7156C34.4313 10.1422 34.1943 10.3318 34.0995 10.6161L33.9099 11.1848L32.2986 8.00948C31.3981 6.30332 29.5024 5.16588 27.417 5.16588H26.9431V3.79147H27.9858C28.2701 3.79147 28.5545 3.45972 28.6019 3.12796V0.616114C28.6019 0.28436 28.3175 0 27.9858 0H24.6208C24.2891 0 24.0047 0.28436 24.0047 0.616114V3.17536C24.0047 3.50711 24.2891 3.79147 24.6208 3.79147H25.6635V5.11848H20.9716V3.79147H22.0142C22.346 3.79147 22.6303 3.50711 22.6303 3.17536V0.616114C22.6303 0.28436 22.346 0 22.0142 0H18.6493C18.3175 0 18.0332 0.28436 18.0332 0.616114V3.17536C18.128 3.50711 18.4123 3.79147 18.7441 3.79147H19.8341V5.11848H15.237V3.79147H16.2796C16.564 3.79147 16.8483 3.45972 16.8957 3.12796V0.616114C16.8957 0.28436 16.6114 0 16.2796 0H12.9147C12.5829 0 12.2512 0.28436 12.2512 0.616114V3.17536C12.2512 3.50711 12.5829 3.79147 12.9147 3.79147H13.9573V5.11848H12.5829C10.4502 5.11848 8.60188 6.20853 7.70141 7.96208L6.09004 11.1374L5.90046 10.5687C5.80568 10.2844 5.56871 10.0948 5.28435 10.0948H2.72511C2.39335 10.0948 2.10899 10.3791 2.10899 10.7109V14.0758C2.10899 14.4076 2.39335 14.6919 2.72511 14.6919H4.66823V21.9431H3.57819C3.38861 21.9431 3.19904 22.0379 3.10425 22.1801C3.00947 22.3223 2.96207 22.5592 3.00947 22.7014L3.53079 24.7393C3.76776 25.782 4.71563 26.4929 5.80568 26.4929H14.1943L14.8578 27.8673ZM6.46918 29.0047L3.90994 30.2844L1.3507 29.0047H6.46918ZM6.46918 38.4834C6.46918 38.7678 6.23222 38.9573 5.99525 38.9573H2.10899C1.82463 38.9573 1.63506 38.7204 1.63506 38.4834V37.0142L3.72037 38.0569C3.81515 38.1043 3.90994 38.1043 4.00473 38.1043C4.05212 38.1043 4.14691 38.0569 4.14691 38.0569L6.46918 36.9194V38.4834ZM6.46918 34.8341L6.42179 34.8815C6.3744 34.9763 6.327 35.0711 6.327 35.2133C6.327 35.2607 6.327 35.3081 6.3744 35.4028L6.42179 35.5924L3.90994 36.8246L1.63506 35.6872V33.8863L3.72037 34.8815C3.81515 34.9289 3.90994 34.9289 4.09951 34.9289L6.51658 33.7441V34.8341H6.46918ZM6.46918 32.2749L6.3744 32.4171L6.27961 32.5118L3.90994 33.6967L1.63506 32.5592V30.5687L3.72037 31.5166C3.81515 31.564 3.90994 31.564 4.09951 31.564L6.51658 30.3791V32.2749H6.46918ZM16.4692 34.5498H7.60662V33.2227H16.4692V34.5498ZM38.4123 38.4834C38.4123 38.7678 38.1753 38.9573 37.9384 38.9573H34.0995C33.8152 38.9573 33.6256 38.7204 33.6256 38.4834V37.0142L35.6635 38.0569C35.7583 38.1043 35.8531 38.1043 35.9479 38.1043C35.9952 38.1043 36.09 38.0569 36.09 38.0569L38.3175 36.9194V38.4834H38.4123ZM38.4123 35.5924L35.9479 36.8246L33.673 35.6872V35.3554C33.7204 35.3081 33.7204 35.2133 33.7204 35.1659C33.7204 35.1185 33.7204 35.0711 33.673 34.9763V33.8863L35.7109 34.9289C35.8057 34.9763 35.9005 34.9763 36.09 34.9763L38.4123 33.7915V35.5924ZM38.4123 32.4171L35.9479 33.6493L33.7678 32.5592L33.7204 32.3223V30.5213L35.7583 31.564C35.8531 31.6114 35.9479 31.6114 36.1374 31.6114L38.4597 30.4265V32.4171H38.4123ZM38.5071 29.0047L35.9479 30.2844L33.3886 29.0047H38.5071ZM23.6256 33.2701H32.3934V34.5972H23.6256V33.2701ZM22.4407 32.3697C22.3934 32.4645 22.3934 32.5118 22.3934 32.6066C22.3934 32.7014 22.3934 32.7488 22.4407 32.8436V34.5972H17.7014V31.5166H22.4407V32.3697ZM19.3128 28.1517H20.6872V30.3318H19.3128V28.1517ZM35.3791 11.3744H36.7535V13.5545H35.3791V11.3744ZM25.237 2.60664V1.23223H27.417V2.60664H26.564C26.4218 2.55924 26.2322 2.55924 26.09 2.60664H25.237ZM19.4076 2.60664V1.23223H21.5877V2.60664H20.6872C20.545 2.55924 20.4028 2.55924 20.2133 2.60664H19.4076ZM13.436 2.60664V1.23223H15.6161V2.60664H14.763C14.6208 2.55924 14.4313 2.55924 14.2891 2.60664H13.436ZM8.74406 8.48341C9.40757 7.1564 10.8768 6.30332 12.5355 6.30332H27.417C27.4644 6.30332 27.5118 6.30332 27.5592 6.30332L28.1753 6.35071L25.0474 9.47867C24.9526 9.57346 24.8578 9.76303 24.8578 9.90521C24.8578 10.0474 24.9052 10.237 25.0474 10.3318C25.1896 10.4739 25.3317 10.5213 25.4739 10.5213C25.6161 10.5213 25.7583 10.4265 25.9479 10.2844L29.3128 6.91943L29.455 6.72986L29.6445 6.82464C30.3554 7.20379 30.9242 7.77251 31.2559 8.43602L33.8152 13.5071H6.23222L8.74406 8.48341ZM5.90046 14.7393H34.1469V21.8957H25.3317V16.6825C25.3317 16.3507 25.0474 16.0664 24.7156 16.0664H15.3791C15.0474 16.0664 14.763 16.3507 14.763 16.6825V22.0379H5.90046V14.7393ZM24.0521 21.9905H21.9194V17.2512H24.0521V21.9905ZM20.6872 21.9905H19.3602V17.2512H20.6872V21.9905ZM18.128 21.9905H15.9952V17.2512H18.128V21.9905ZM3.34122 11.3744H4.71563V13.5545H3.34122V11.3744ZM4.71563 24.455L4.38387 23.1754H34.8104C34.8578 23.1754 34.9526 23.1754 35 23.128H35.7583L35.4265 24.455C35.237 24.9763 34.8104 25.3081 34.2891 25.3081H25.5213C25.2843 25.3081 25.0948 25.4502 25 25.6398L24.3365 26.9668H18.6967C18.6019 26.9668 18.5545 26.9668 18.4597 27.0142H15.7583L15.0948 25.6872C15 25.4976 14.8104 25.3554 14.5734 25.3554H5.80568C5.28435 25.3554 4.76302 24.9763 4.71563 24.455Z" fill="white"/>
<path d="M24.2417 7.8199C24.1469 7.72512 23.9573 7.63033 23.8152 7.63033C23.673 7.63033 23.4834 7.67772 23.3886 7.8199L21.6825 9.47867C21.5877 9.57346 21.4929 9.76303 21.4929 9.90521C21.4929 10.0474 21.5403 10.237 21.6825 10.3318C21.8246 10.4739 21.9668 10.5213 22.109 10.5213C22.2512 10.5213 22.3934 10.4265 22.5829 10.2844L24.2417 8.62559C24.3365 8.53081 24.4313 8.34123 24.4313 8.19905C24.4313 8.05687 24.3365 7.91469 24.2417 7.8199Z" fill="white"/>
<path d="M8.74406 27.5829C8.69667 27.7725 8.69667 27.9147 8.79146 28.0569C8.83885 28.1991 8.98103 28.2938 9.12321 28.3412L10.3554 28.8152H10.4502C10.6398 28.8152 10.9242 28.7204 11.0189 28.3886C11.1137 28.1043 11.0189 27.7251 10.6398 27.6303L9.50236 27.2038C9.45496 27.2038 9.36018 27.1564 9.31278 27.1564C9.218 27.1564 9.12321 27.1564 9.02842 27.2038C8.88624 27.2986 8.79146 27.4408 8.74406 27.5829Z" fill="white"/>
<path d="M11.0663 30.6635C11.1137 30.5213 11.1137 30.3318 11.0189 30.1896C10.9716 30.0474 10.8294 29.9526 10.6872 29.9052L9.54975 29.4787C9.50236 29.4787 9.40757 29.4313 9.36018 29.4313C9.26539 29.4313 9.1706 29.4313 9.07582 29.4787C8.93364 29.5261 8.83885 29.6682 8.79146 29.8104C8.74406 30 8.74406 30.1422 8.83885 30.2844C8.88624 30.4265 9.02842 30.5213 9.1706 30.5687L10.4028 31.0427H10.4976C10.6872 31.09 10.9242 30.9953 11.0663 30.6635Z" fill="white"/>
<path d="M28.8862 27.9147C28.8389 28.0569 28.7915 28.2464 28.8389 28.3886C28.9336 28.7204 29.218 28.8152 29.4076 28.8152H29.5024L29.5971 28.7678L30.7346 28.3412C30.9242 28.2938 31.0189 28.1991 31.0663 28.0569C31.1137 27.9147 31.1611 27.7251 31.1137 27.5829C31.0663 27.4408 30.9715 27.2986 30.8294 27.2512C30.7346 27.2038 30.6398 27.2038 30.545 27.2038C30.4502 27.2038 30.4028 27.2038 30.308 27.2512L29.1706 27.6303C29.0284 27.6777 28.9336 27.7725 28.8862 27.9147Z" fill="white"/>
<path d="M28.8862 30.1422C28.7915 30.2844 28.7915 30.4739 28.8389 30.6635C28.9336 30.9953 29.218 31.09 29.4076 31.09H29.5024L29.5971 31.0427L30.7346 30.6161C30.9242 30.5687 31.0189 30.4739 31.0663 30.3318C31.1137 30.1896 31.1611 30 31.1137 29.8578C31.0663 29.7156 30.9715 29.5735 30.8294 29.5261C30.6872 29.4787 30.4976 29.4313 30.3554 29.4787L29.218 29.8578C29.0758 29.9526 28.9336 30.0474 28.8862 30.1422Z" fill="white"/>
</svg>
