<svg width="40" height="26" viewBox="0 0 40 26" fill="none" xmlns="http://www.w3.org/2000/svg">
<mask id="path-1-inside-1_245_132" fill="white">
<path d="M27.9524 5.3048V5.3532L27.8095 5.4984L27.9524 5.3048Z"/>
<path d="M25.5714 3.70764H27.4762C28.2381 3.70764 28.9048 4.19163 29.1429 4.91761L30.619 8.40232C30.7143 8.59592 30.6667 8.74112 30.5714 9.03151C30.4762 9.2251 30.3333 9.3219 30.0952 9.3219H24.4286C24.0952 9.3219 23.8571 9.07991 23.8571 8.69272V5.45C23.8571 4.48202 24.619 3.70764 25.5714 3.70764ZM24.9524 8.01513H29.1905L27.9524 5.3048C27.9048 5.06281 27.7143 4.86921 27.4286 4.86921H25.4762C25.1905 4.86921 24.9524 5.11121 24.9524 5.4016V8.01513Z"/>
<path d="M31.9048 20.1632C32.5714 20.1632 33.1429 20.744 33.1429 21.4216C33.1429 22.0992 32.5714 22.68 31.9048 22.68C31.5238 22.68 31.1905 22.5348 30.9524 22.2928C30.7619 22.0508 30.6667 21.7604 30.6667 21.47C30.6667 20.6956 31.2381 20.1632 31.9048 20.1632ZM31.9048 21.8572C32.1905 21.8572 32.381 21.6152 32.381 21.3732C32.381 21.0828 32.1429 20.8892 31.9048 20.8892C31.619 20.8892 31.4286 21.0828 31.4286 21.3732C31.4762 21.6636 31.7143 21.8572 31.9048 21.8572Z"/>
<path d="M9.85714 20.0664C10.5238 20.0664 11.0952 20.6472 11.0952 21.3248C11.0952 22.0992 10.5238 22.6316 9.80952 22.6316C9.47619 22.6316 9.19048 22.4864 8.95238 22.2444C8.71429 22.0024 8.61905 21.6636 8.66666 21.3248C8.61905 20.6472 9.19047 20.0664 9.85714 20.0664ZM9.76191 21.8572C10.0476 21.8572 10.2381 21.6152 10.2381 21.3732C10.2381 21.0828 10 20.8892 9.76191 20.8892C9.52381 20.8892 9.38095 21.1312 9.33333 21.228L9.28571 21.3248C9.33333 21.6636 9.57143 21.8572 9.76191 21.8572Z"/>
<path d="M31.0476 3.51404L31.0952 3.56244L30.9048 3.70764L31.0476 3.51404Z"/>
<path d="M0.666668 17.0657H2.19048V11.5482C2.19048 11.2095 2.47619 10.9191 2.80952 10.9191H20.2381V4.14323C20.2381 2.25567 21.6667 0.803711 23.5238 0.803711H28.9524C30.381 0.803711 31.6667 1.77169 32.0952 3.17525L35.4286 10.9191H35.5714C38.0952 11.2095 40 13.2906 40 15.9041V19.534C40 20.744 39 21.7604 37.8095 21.7604H35.7143L35.6667 21.954C35.5714 22.5348 35.3333 23.0672 35 23.5511L34.7143 23.9383H36.1905C36.5238 23.9383 36.8095 24.2287 36.8095 24.5675C36.8095 24.9063 36.5238 25.1967 36.1905 25.1967H2.33334C2.04762 25.1967 1.76191 24.8579 1.71429 24.5191C1.71429 24.2287 2 23.9383 2.33334 23.9383H7L6.71429 23.5511C6.38095 23.0672 6.14286 22.5348 6.04762 21.954L6 21.7604H4.42857C3.76191 21.7604 3.19048 21.47 2.76191 20.9376L2.66666 20.8408H0.619049C0.333335 20.8408 0.047619 20.5988 0 20.1632V17.6465C0 17.3561 0.285716 17.0657 0.666668 17.0657ZM31.0952 3.51404C30.8571 2.64287 30 2.01368 29.0952 2.01368H23.619C22.4762 2.01368 21.5238 2.98166 21.5238 4.14323V10.9191H34.2381L31.0952 3.51404ZM29.6667 22.68C30.1429 23.5028 31 23.9867 31.9524 23.9867C33.3333 23.9867 34.5238 22.8252 34.5714 21.4216V21.3732L34.5238 21.2764L34.4762 21.228C34.4762 21.228 34.4762 21.1796 34.5238 21.0828V20.986C34.4762 20.502 34.2857 20.018 33.9524 19.5824L33.8571 19.4856H33.8095C33.0952 18.7597 32.0952 18.5177 31.1429 18.8081C30.5714 18.9533 30.0476 19.3889 29.7143 19.9696C29.1905 20.7924 29.1905 21.8088 29.6667 22.68ZM31.7619 17.4529C32.9048 17.4045 33.9524 17.8401 34.7143 18.7113C34.9048 18.9049 35.0952 19.1953 35.2381 19.3889C35.4286 19.7276 35.5714 20.0664 35.619 20.4536L35.6667 20.6472H37.8095C38.381 20.6472 38.8095 20.2116 38.8095 19.6308V16.0009C38.8095 13.9198 37.1429 12.2258 35.0952 12.2258H21.4286V20.502H28.2381L28.2857 20.3084C28.4286 19.8244 28.619 19.3889 28.9048 19.0017C29.5714 18.0821 30.619 17.5013 31.7619 17.4529ZM29.1429 23.9867L28.8571 23.5995C28.5238 23.1156 28.2857 22.5832 28.1905 22.0024L28.1429 21.8088H13.5714L13.5238 22.0024C13.4286 22.5832 13.1905 23.1156 12.8571 23.5995L12.5714 23.9867H29.1429ZM7.19048 21.4216C7.23809 22.8252 8.42857 23.9867 9.80952 23.9867C11.1905 23.9867 12.3333 22.922 12.4286 21.47V21.3732C12.381 21.2764 12.381 21.228 12.381 21.1312C12.381 21.0828 12.381 21.0344 12.4286 20.9376V20.8408C12.4286 20.744 12.381 20.6472 12.381 20.5504C12.2857 20.3084 12.2381 20.2116 12.1905 20.0664C12.1429 19.9212 12.0952 19.8728 12.0476 19.8244C11.2857 18.7597 9.85714 18.3725 8.71429 18.9533C8.19048 19.1953 7.76191 19.6308 7.52381 20.1632C7.42857 20.4052 7.33334 20.6472 7.28572 20.9376V21.1796C7.28572 21.228 7.28571 21.2764 7.23809 21.3732L7.19048 21.4216ZM3.42857 14.5006H17.5714C17.9048 14.5006 18.1905 14.791 18.1905 15.1298C18.1905 15.4686 17.9048 15.7589 17.5714 15.7589H3.42857V19.4373C3.42857 20.018 3.85715 20.4536 4.42857 20.4536H6.09524L6.14286 20.26C6.28571 19.7276 6.52381 19.2437 6.85714 18.8565C7 18.6629 7.19048 18.4693 7.33334 18.3725C8.19048 17.6465 9.28572 17.3077 10.3333 17.4529C11.4286 17.6465 12.3333 18.2273 12.9524 19.1953C13.1429 19.4857 13.3333 19.8728 13.4286 20.3084L13.4762 20.502H20.1905V12.1774H3.42857V14.5006ZM2.19048 19.6792V19.4373C2.19048 19.3405 2.19048 19.2921 2.23809 19.2437V18.3241H1.23809V19.6792H2.19048Z"/>
<path d="M26.0476 15.7589H24.3333C24.0476 15.7589 23.7143 15.4686 23.7143 15.1298C23.7143 14.791 24 14.5006 24.3333 14.5006H26.0476C26.381 14.5006 26.6667 14.791 26.6667 15.1298C26.6667 15.4686 26.381 15.7589 26.0476 15.7589Z"/>
</mask>
<path d="M27.9524 5.3532H29.9524V6.17213L29.378 6.75588L27.9524 5.3532ZM27.8095 5.4984L29.2352 6.90108L26.2002 4.31088L27.8095 5.4984ZM29.1429 4.91761L27.3013 5.69774L27.2686 5.62054L27.2425 5.54087L29.1429 4.91761ZM30.619 8.40232L28.8244 9.28517L28.7995 9.23447L28.7775 9.18245L30.619 8.40232ZM30.5714 9.03151L32.4718 9.65477L32.4281 9.78828L32.366 9.91435L30.5714 9.03151ZM23.8571 5.45L21.8571 5.45L23.8571 5.45ZM24.9524 8.01513V10.0151H22.9524V8.01513H24.9524ZM29.1905 8.01513L31.0097 7.18412L32.3029 10.0151H29.1905V8.01513ZM30.9524 22.2928L29.5267 23.6955L29.4492 23.6167L29.3808 23.5298L30.9524 22.2928ZM31.4286 21.3732L29.4549 21.6968L29.4286 21.5361V21.3732H31.4286ZM8.66666 21.3248L10.6617 21.1846L10.6765 21.3947L10.6472 21.6032L8.66666 21.3248ZM9.33333 21.228L11.1279 22.1109L11.1279 22.1109L9.33333 21.228ZM9.28571 21.3248L7.30518 21.6032L7.21955 20.994L7.49113 20.4419L9.28571 21.3248ZM31.0476 3.51404L29.4383 2.32653L30.8297 0.440921L32.4733 2.11136L31.0476 3.51404ZM31.0952 3.56244L32.5209 2.15976L34.1124 3.77733L32.3077 5.15301L31.0952 3.56244ZM30.9048 3.70764L32.1172 5.29821L29.2955 2.52012L30.9048 3.70764ZM2.19048 17.0657H4.19048V19.0657H2.19048V17.0657ZM20.2381 10.9191H22.2381V12.9191H20.2381V10.9191ZM32.0952 3.17525L30.2582 3.96601L30.2146 3.86475L30.1824 3.75932L32.0952 3.17525ZM35.4286 10.9191V12.9191H34.1121L33.5915 11.7098L35.4286 10.9191ZM35.5714 10.9191V8.91906H35.6861L35.8 8.93217L35.5714 10.9191ZM35.7143 21.7604L33.7722 21.2827L34.1466 19.7604H35.7143V21.7604ZM35.6667 21.954L33.693 21.6304L33.7058 21.5527L33.7246 21.4763L35.6667 21.954ZM35 23.5511L36.6471 24.6856L36.6286 24.7124L36.6093 24.7387L35 23.5511ZM34.7143 23.9383V25.9383H30.7529L33.105 22.7508L34.7143 23.9383ZM1.71429 24.5191L-0.266245 24.7975L-0.285713 24.659V24.5191H1.71429ZM7 23.9383L8.60929 22.7508L10.9614 25.9383H7V23.9383ZM6.71429 23.5511L5.105 24.7387L5.08564 24.7124L5.06714 24.6856L6.71429 23.5511ZM6.04762 21.954L7.98973 21.4763L8.00853 21.5527L8.02126 21.6304L6.04762 21.954ZM6 21.7604V19.7604H7.56767L7.94211 21.2827L6 21.7604ZM2.76191 20.9376L4.18752 19.5349L4.25738 19.6059L4.31984 19.6835L2.76191 20.9376ZM2.66666 20.8408V18.8408H3.50459L4.09228 19.4381L2.66666 20.8408ZM0 20.1632L-1.98815 20.3806L-2 20.2722V20.1632H0ZM0 17.6465H2H0ZM31.0952 3.51404L29.2542 4.29542L29.2015 4.17134L29.166 4.04131L31.0952 3.51404ZM21.5238 10.9191V12.9191H19.5238V10.9191H21.5238ZM34.2381 10.9191L36.0791 10.1377L37.2596 12.9191H34.2381V10.9191ZM29.6667 22.68L27.9357 23.6818L27.9234 23.6607L27.9117 23.6392L29.6667 22.68ZM34.5714 21.4216H36.5714V21.4555L36.5703 21.4894L34.5714 21.4216ZM34.5714 21.3732L36.366 20.4904L36.5714 20.9079V21.3732H34.5714ZM34.5238 21.2764L35.9494 19.8737L36.1759 20.1038L36.3184 20.3936L34.5238 21.2764ZM34.4762 21.228L33.0506 22.6307L32.4762 22.047L32.4762 21.228L34.4762 21.228ZM34.5238 21.0828H36.5238V21.5481L36.3184 21.9657L34.5238 21.0828ZM34.5238 20.986L36.5142 20.7902L36.5238 20.8879V20.986H34.5238ZM33.9524 19.5824L35.378 18.1798L35.4652 18.2683L35.5407 18.367L33.9524 19.5824ZM33.8571 19.4856V17.4856H34.6951L35.2828 18.083L33.8571 19.4856ZM33.8095 19.4856V21.4856H32.9716L32.3839 20.8883L33.8095 19.4856ZM31.1429 18.8081L31.7262 20.7211L31.6811 20.7349L31.6354 20.7465L31.1429 18.8081ZM29.7143 19.9696L31.4489 20.9652L31.4261 21.005L31.4014 21.0437L29.7143 19.9696ZM34.7143 18.7113L33.2886 20.114L33.2475 20.0721L33.2088 20.0279L34.7143 18.7113ZM35.2381 19.3889L36.8474 18.2013L36.9208 18.3009L36.9815 18.4087L35.2381 19.3889ZM35.619 20.4536L33.6769 20.9313L33.6485 20.8158L33.634 20.6978L35.619 20.4536ZM35.6667 20.6472V22.6472H34.099L33.7246 21.1249L35.6667 20.6472ZM21.4286 12.2258H19.4286V10.2258H21.4286V12.2258ZM21.4286 20.502V22.502H19.4286V20.502H21.4286ZM28.2381 20.502L30.1802 20.9797L29.8058 22.502H28.2381V20.502ZM28.2857 20.3084L26.3436 19.8307L26.3546 19.7862L26.3675 19.7422L28.2857 20.3084ZM28.9048 19.0017L30.524 20.1756L30.5191 20.1824L30.514 20.1892L28.9048 19.0017ZM29.1429 23.9867L30.7521 22.7992L33.1043 25.9867H29.1429V23.9867ZM28.8571 23.5995L27.2479 24.7871L27.2285 24.7608L27.21 24.734L28.8571 23.5995ZM28.1905 22.0024L30.1326 21.5247L30.1514 21.6011L30.1641 21.6787L28.1905 22.0024ZM28.1429 21.8088V19.8088H29.7105L30.085 21.3311L28.1429 21.8088ZM13.5714 21.8088L11.6293 21.3311L12.0037 19.8088H13.5714V21.8088ZM13.5238 22.0024L11.5502 21.6787L11.5629 21.6011L11.5817 21.5247L13.5238 22.0024ZM12.8571 23.5995L14.5043 24.734L14.4858 24.7608L14.4664 24.7871L12.8571 23.5995ZM12.5714 23.9867V25.9867H8.61004L10.9621 22.7992L12.5714 23.9867ZM7.19048 21.4216L5.19163 21.4894L5.16251 20.6311L5.76482 20.0189L7.19048 21.4216ZM12.4286 21.47H14.4286V21.5355L14.4243 21.6009L12.4286 21.47ZM12.4286 21.3732L14.2232 20.4904L14.4286 20.9079V21.3732H12.4286ZM12.4286 20.9376H14.4286V21.4029L14.2232 21.8205L12.4286 20.9376ZM12.381 20.5504L14.242 19.818L14.381 20.171V20.5504H12.381ZM12.0476 19.8244L10.622 21.2271L10.5122 21.1156L10.4211 20.9883L12.0476 19.8244ZM8.71429 18.9533L9.62037 20.7362L9.58703 20.7532L9.55308 20.7689L8.71429 18.9533ZM7.52381 20.1632L5.66275 19.4308L5.67945 19.3884L5.69808 19.3467L7.52381 20.1632ZM7.28572 20.9376H5.28572V20.7747L5.31208 20.614L7.28572 20.9376ZM7.23809 21.3732L9.03269 22.256L8.89018 22.5457L8.66375 22.7759L7.23809 21.3732ZM3.42857 14.5006V16.5006H1.42857V14.5006H3.42857ZM3.42857 15.7589H1.42857V13.7589H3.42857V15.7589ZM6.09524 20.4536L8.03736 20.9313L7.66294 22.4536H6.09524V20.4536ZM6.14286 20.26L4.20074 19.7824L4.20575 19.762L4.21119 19.7417L6.14286 20.26ZM6.85714 18.8565L8.46643 20.044L8.42184 20.1044L8.37284 20.1613L6.85714 18.8565ZM7.33334 18.3725L8.62595 19.8986L8.54406 19.968L8.45522 20.0282L7.33334 18.3725ZM10.3333 17.4529L10.6079 15.4718L10.6448 15.477L10.6815 15.4834L10.3333 17.4529ZM12.9524 19.1953L11.28 20.2922L11.2737 20.2825L11.2675 20.2728L12.9524 19.1953ZM13.4286 20.3084L11.4865 20.7861L11.4803 20.761L11.4747 20.7356L13.4286 20.3084ZM13.4762 20.502V22.502H11.9085L11.5341 20.9797L13.4762 20.502ZM20.1905 20.502H22.1905V22.502H20.1905V20.502ZM20.1905 12.1774V10.1774H22.1905V12.1774H20.1905ZM3.42857 12.1774H1.42857V10.1774H3.42857V12.1774ZM2.19048 19.6792H4.19048V21.6792H2.19048V19.6792ZM2.23809 19.2437H4.23809V20.0626L3.66375 20.6463L2.23809 19.2437ZM2.23809 18.3241V16.3241H4.23809V18.3241H2.23809ZM1.23809 18.3241H-0.761906V16.3241H1.23809V18.3241ZM1.23809 19.6792V21.6792H-0.761906V19.6792H1.23809ZM26.6667 15.1298L28.6667 15.1298L26.6667 15.1298ZM27.9524 5.3048H29.9524V5.3532H27.9524H25.9524V5.3048H27.9524ZM27.9524 5.3532L29.378 6.75588L29.2352 6.90108L27.8095 5.4984L26.3839 4.09572L26.5267 3.95052L27.9524 5.3532ZM27.8095 5.4984L26.2002 4.31088L26.3431 4.11728L27.9524 5.3048L29.5617 6.49232L29.4188 6.68591L27.8095 5.4984ZM25.5714 3.70764V1.70764H27.4762V3.70764V5.70764H25.5714V3.70764ZM27.4762 3.70764V1.70764C29.1058 1.70764 30.5368 2.75014 31.0433 4.29435L29.1429 4.91761L27.2425 5.54087C27.256 5.58231 27.2862 5.62631 27.331 5.65885C27.3759 5.69144 27.4289 5.70764 27.4762 5.70764V3.70764ZM29.1429 4.91761L30.9844 4.13748L32.4606 7.6222L30.619 8.40232L28.7775 9.18245L27.3013 5.69774L29.1429 4.91761ZM30.619 8.40232L32.4136 7.51948C32.9252 8.55926 32.5176 9.51531 32.4718 9.65477L30.5714 9.03151L28.671 8.40825C28.6983 8.32503 28.7056 8.30193 28.7089 8.29008C28.7113 8.28169 28.6934 8.34078 28.6816 8.43649C28.6685 8.54345 28.6632 8.69213 28.6915 8.86512C28.7199 9.03834 28.773 9.18064 28.8244 9.28517L30.619 8.40232ZM30.5714 9.03151L32.366 9.91435C32.2004 10.2509 31.9189 10.6501 31.4475 10.9449C30.9762 11.2397 30.4885 11.3219 30.0952 11.3219V9.3219V7.3219C29.9401 7.3219 29.6428 7.35572 29.3263 7.55366C29.0097 7.75171 28.8472 8.00567 28.7768 8.14867L30.5714 9.03151ZM30.0952 9.3219V11.3219H24.4286V9.3219V7.3219H30.0952V9.3219ZM24.4286 9.3219V11.3219C23.7577 11.3219 23.0661 11.0664 22.5527 10.5139C22.0487 9.97148 21.8571 9.29735 21.8571 8.69272H23.8571H25.8571C25.8571 8.47527 25.7846 8.11574 25.483 7.79109C25.172 7.4564 24.7661 7.3219 24.4286 7.3219V9.3219ZM23.8571 8.69272H21.8571V5.45H23.8571H25.8571V8.69272H23.8571ZM23.8571 5.45L21.8571 5.45C21.8571 3.4082 23.484 1.70764 25.5714 1.70764V3.70764V5.70764C25.7541 5.70764 25.8571 5.55584 25.8571 5.45L23.8571 5.45ZM24.9524 8.01513V6.01513H29.1905V8.01513V10.0151H24.9524V8.01513ZM29.1905 8.01513L27.3713 8.84615L26.1332 6.13581L27.9524 5.3048L29.7716 4.47379L31.0097 7.18412L29.1905 8.01513ZM27.9524 5.3048L25.99 5.69095C26.0434 5.9625 26.1879 6.2593 26.4578 6.49704C26.7422 6.74755 27.0961 6.86921 27.4286 6.86921V4.86921V2.86921C28.7846 2.86921 29.7057 3.8561 29.9147 4.91865L27.9524 5.3048ZM27.4286 4.86921V6.86921H25.4762V4.86921V2.86921H27.4286V4.86921ZM25.4762 4.86921V6.86921C26.3255 6.86921 26.9524 6.18502 26.9524 5.4016H24.9524H22.9524C22.9524 4.03739 24.0554 2.86921 25.4762 2.86921V4.86921ZM24.9524 5.4016H26.9524V8.01513H24.9524H22.9524V5.4016H24.9524ZM31.9048 20.1632V18.1632C33.7065 18.1632 35.1429 19.6702 35.1429 21.4216H33.1429H31.1429C31.1429 21.6507 31.2376 21.8286 31.3482 21.941C31.4586 22.0533 31.6484 22.1632 31.9048 22.1632V20.1632ZM33.1429 21.4216H35.1429C35.1429 23.173 33.7065 24.68 31.9048 24.68V22.68V20.68C31.6484 20.68 31.4586 20.7899 31.3482 20.9022C31.2376 21.0146 31.1429 21.1926 31.1429 21.4216H33.1429ZM31.9048 22.68V24.68C30.9999 24.68 30.1492 24.3281 29.5267 23.6955L30.9524 22.2928L32.378 20.8901C32.2317 20.7414 32.0477 20.68 31.9048 20.68V22.68ZM30.9524 22.2928L29.3808 23.5298C28.9064 22.9271 28.6667 22.1987 28.6667 21.47H30.6667H32.6667C32.6667 21.3221 32.6174 21.1745 32.524 21.0558L30.9524 22.2928ZM30.6667 21.47H28.6667C28.6667 19.6218 30.103 18.1632 31.9048 18.1632V20.1632V22.1632C32.1123 22.1632 32.315 22.0777 32.4614 21.9289C32.6145 21.7733 32.6667 21.5913 32.6667 21.47H30.6667ZM31.9048 21.8572V19.8572C30.9288 19.8572 30.381 20.6745 30.381 21.3732H32.381H34.381C34.381 22.5559 33.4521 23.8572 31.9048 23.8572V21.8572ZM32.381 21.3732H30.381C30.381 22.2855 31.139 22.8892 31.9048 22.8892V20.8892V18.8892C33.1467 18.8892 34.381 19.8801 34.381 21.3732H32.381ZM31.9048 20.8892V22.8892C32.2263 22.8892 32.6451 22.7707 32.9852 22.425C33.3224 22.0822 33.4286 21.6728 33.4286 21.3732H31.4286H29.4286C29.4286 20.7832 29.6299 20.1318 30.1339 19.6196C30.6407 19.1046 31.2976 18.8892 31.9048 18.8892V20.8892ZM31.4286 21.3732L33.4022 21.0496C33.3509 20.7369 33.1967 20.4696 32.9895 20.2731C32.8122 20.1048 32.4501 19.8572 31.9048 19.8572V21.8572V23.8572C31.169 23.8572 30.5926 23.5127 30.2367 23.1751C29.851 22.8092 29.5538 22.2999 29.4549 21.6968L31.4286 21.3732ZM9.85714 20.0664V18.0664C11.6589 18.0664 13.0952 19.5734 13.0952 21.3248H11.0952H9.09524C9.09524 21.5539 9.18998 21.7318 9.30054 21.8442C9.41098 21.9565 9.60082 22.0664 9.85714 22.0664V20.0664ZM11.0952 21.3248H13.0952C13.0952 23.2221 11.61 24.6316 9.80952 24.6316V22.6316V20.6316C9.66143 20.6316 9.47051 20.6914 9.31292 20.8475C9.14935 21.0095 9.09524 21.2018 9.09524 21.3248H11.0952ZM9.80952 22.6316V24.6316C8.83215 24.6316 8.05763 24.1867 7.52673 23.6471L8.95238 22.2444L10.378 20.8417C10.3577 20.821 10.2973 20.7659 10.1898 20.7158C10.0759 20.6628 9.94312 20.6316 9.80952 20.6316V22.6316ZM8.95238 22.2444L7.52673 23.6471C6.80174 22.9102 6.56245 21.9264 6.68613 21.0464L8.66666 21.3248L10.6472 21.6032C10.6756 21.4008 10.6268 21.0946 10.378 20.8417L8.95238 22.2444ZM8.66666 21.3248L6.67158 21.465C6.53895 19.5777 8.08435 18.0664 9.85714 18.0664V20.0664V22.0664C10.1095 22.0664 10.3102 21.9588 10.4383 21.8251C10.5702 21.6874 10.6812 21.4615 10.6617 21.1846L8.66666 21.3248ZM9.76191 21.8572V19.8572C8.78597 19.8572 8.23809 20.6745 8.23809 21.3732H10.2381H12.2381C12.2381 22.5559 11.3093 23.8572 9.76191 23.8572V21.8572ZM10.2381 21.3732H8.23809C8.23809 22.2855 8.99615 22.8892 9.76191 22.8892V20.8892V18.8892C11.0038 18.8892 12.2381 19.8801 12.2381 21.3732H10.2381ZM9.76191 20.8892V22.8892C10.3724 22.8892 10.7591 22.5701 10.9018 22.425C11.042 22.2825 11.1061 22.1553 11.1279 22.1109L9.33333 21.228L7.53873 20.3452C7.60822 20.2039 7.76752 19.9073 8.05054 19.6196C8.33616 19.3293 8.91331 18.8892 9.76191 18.8892V20.8892ZM9.33333 21.228L11.1279 22.1109L11.0803 22.2077L9.28571 21.3248L7.49113 20.4419L7.53875 20.3451L9.33333 21.228ZM9.28571 21.3248L11.2662 21.0464C11.2327 20.8076 11.1187 20.5418 10.8959 20.3154C10.7004 20.1167 10.3202 19.8572 9.76191 19.8572V21.8572V23.8572C8.31165 23.8572 7.45156 22.6446 7.30518 21.6032L9.28571 21.3248ZM31.0476 3.51404L32.4733 2.11136L32.5209 2.15976L31.0952 3.56244L29.6696 4.96512L29.622 4.91673L31.0476 3.51404ZM31.0952 3.56244L32.3077 5.15301L32.1172 5.29821L30.9048 3.70764L29.6923 2.11707L29.8828 1.97187L31.0952 3.56244ZM30.9048 3.70764L29.2955 2.52012L29.4383 2.32653L31.0476 3.51404L32.6569 4.70156L32.5141 4.89515L30.9048 3.70764ZM0.666668 17.0657V15.0657H2.19048V17.0657V19.0657H0.666668V17.0657ZM2.19048 17.0657H0.190475V11.5482H2.19048H4.19048V17.0657H2.19048ZM2.19048 11.5482H0.190475C0.190475 10.1356 1.34113 8.91906 2.80952 8.91906V10.9191V12.9191C3.61126 12.9191 4.19048 12.2833 4.19048 11.5482H2.19048ZM2.80952 10.9191V8.91906H20.2381V10.9191V12.9191H2.80952V10.9191ZM20.2381 10.9191H18.2381V4.14323H20.2381H22.2381V10.9191H20.2381ZM20.2381 4.14323H18.2381C18.2381 1.18186 20.5316 -1.19629 23.5238 -1.19629V0.803711V2.80371C22.8017 2.80371 22.2381 3.32949 22.2381 4.14323H20.2381ZM23.5238 0.803711V-1.19629H28.9524V0.803711V2.80371H23.5238V0.803711ZM28.9524 0.803711V-1.19629C31.2899 -1.19629 33.3313 0.37474 34.0081 2.59118L32.0952 3.17525L30.1824 3.75932C30.0021 3.16863 29.472 2.80371 28.9524 2.80371V0.803711ZM32.0952 3.17525L33.9323 2.3845L37.2656 10.1283L35.4286 10.9191L33.5915 11.7098L30.2582 3.96601L32.0952 3.17525ZM35.4286 10.9191V8.91906H35.5714V10.9191V12.9191H35.4286V10.9191ZM35.5714 10.9191L35.8 8.93217C39.3239 9.33763 42 12.2651 42 15.9041H40H38C38 14.3161 36.8665 13.0813 35.3428 12.906L35.5714 10.9191ZM40 15.9041H42V19.534H40H38V15.9041H40ZM40 19.534H42C42 21.8178 40.1351 23.7604 37.8095 23.7604V21.7604V19.7604C37.8249 19.7604 37.8708 19.7539 37.9255 19.6983C37.9804 19.6425 38 19.5808 38 19.534H40ZM37.8095 21.7604V23.7604H35.7143V21.7604V19.7604H37.8095V21.7604ZM35.7143 21.7604L37.6564 22.2381L37.6088 22.4317L35.6667 21.954L33.7246 21.4763L33.7722 21.2827L35.7143 21.7604ZM35.6667 21.954L37.6403 22.2776C37.4893 23.1983 37.1172 24.0031 36.6471 24.6856L35 23.5511L33.3529 22.4167C33.5495 22.1312 33.6535 21.8712 33.693 21.6304L35.6667 21.954ZM35 23.5511L36.6093 24.7387L36.3236 25.1259L34.7143 23.9383L33.105 22.7508L33.3907 22.3636L35 23.5511ZM34.7143 23.9383V21.9383H36.1905V23.9383V25.9383H34.7143V23.9383ZM36.1905 23.9383V21.9383C37.6589 21.9383 38.8095 23.1549 38.8095 24.5675H36.8095H34.8095C34.8095 25.3026 35.3887 25.9383 36.1905 25.9383V23.9383ZM36.8095 24.5675H38.8095C38.8095 25.9801 37.6589 27.1967 36.1905 27.1967V25.1967V23.1967C35.3887 23.1967 34.8095 23.8325 34.8095 24.5675H36.8095ZM36.1905 25.1967V27.1967H2.33334V25.1967V23.1967H36.1905V25.1967ZM2.33334 25.1967V27.1967C1.40928 27.1967 0.766317 26.6806 0.440671 26.3148C0.0884102 25.9191 -0.182831 25.391 -0.266245 24.7975L1.71429 24.5191L3.69482 24.2408C3.65902 23.9861 3.55445 23.7968 3.42838 23.6552C3.32893 23.5434 2.97167 23.1967 2.33334 23.1967V25.1967ZM1.71429 24.5191H-0.285713C-0.285713 23.7271 0.0881488 23.0869 0.511591 22.6791C0.946485 22.2604 1.58277 21.9383 2.33334 21.9383V23.9383V25.9383C2.75057 25.9383 3.07733 25.7615 3.28603 25.5605C3.48328 25.3706 3.71429 25.0207 3.71429 24.5191H1.71429ZM2.33334 23.9383V21.9383H7V23.9383V25.9383H2.33334V23.9383ZM7 23.9383L5.39071 25.1259L5.105 24.7387L6.71429 23.5511L8.32358 22.3636L8.60929 22.7508L7 23.9383ZM6.71429 23.5511L5.06714 24.6856C4.59711 24.0031 4.22496 23.1983 4.07398 22.2776L6.04762 21.954L8.02126 21.6304C8.06076 21.8712 8.1648 22.1312 8.36143 22.4167L6.71429 23.5511ZM6.04762 21.954L4.10551 22.4317L4.05789 22.2381L6 21.7604L7.94211 21.2827L7.98973 21.4763L6.04762 21.954ZM6 21.7604V23.7604H4.42857V21.7604V19.7604H6V21.7604ZM4.42857 21.7604V23.7604C3.11271 23.7604 1.98388 23.1606 1.20398 22.1917L2.76191 20.9376L4.31984 19.6835C4.34643 19.7165 4.36694 19.7355 4.37903 19.7455C4.38515 19.7505 4.3896 19.7536 4.39228 19.7553C4.39494 19.7571 4.39636 19.7578 4.39662 19.7579C4.39686 19.758 4.39664 19.7579 4.39619 19.7578C4.39574 19.7576 4.39586 19.7577 4.3969 19.7579C4.3983 19.7582 4.40791 19.7604 4.42857 19.7604V21.7604ZM2.76191 20.9376L1.33629 22.3403L1.24105 22.2435L2.66666 20.8408L4.09228 19.4381L4.18752 19.5349L2.76191 20.9376ZM2.66666 20.8408V22.8408H0.619049V20.8408V18.8408H2.66666V20.8408ZM0.619049 20.8408V22.8408C-0.903235 22.8408 -1.85483 21.6002 -1.98815 20.3806L0 20.1632L1.98815 19.9459C1.95006 19.5974 1.5699 18.8408 0.619049 18.8408V20.8408ZM0 20.1632H-2V17.6465H0H2V20.1632H0ZM0 17.6465L-2 17.6465C-2 16.0875 -0.64735 15.0657 0.666668 15.0657V17.0657V19.0657C0.992775 19.0657 1.30343 18.9397 1.54038 18.7229C1.76102 18.5211 2 18.1562 2 17.6465H0ZM31.0952 3.51404L29.166 4.04131C29.171 4.05965 29.1767 4.06698 29.175 4.06462C29.1729 4.06157 29.1651 4.05198 29.15 4.04075C29.1349 4.0295 29.1191 4.02155 29.1061 4.01709C29.0936 4.01278 29.0896 4.01368 29.0952 4.01368V2.01368V0.0136812C30.8627 0.0136812 32.5386 1.20908 33.0245 2.98678L31.0952 3.51404ZM29.0952 2.01368V4.01368H23.619V2.01368V0.0136812H29.0952V2.01368ZM23.619 2.01368V4.01368C23.6182 4.01368 23.6156 4.01347 23.6082 4.01668C23.5993 4.02058 23.5845 4.02933 23.5685 4.04555C23.5343 4.08028 23.5238 4.11685 23.5238 4.14323H21.5238H19.5238C19.5238 1.90784 21.3411 0.0136812 23.619 0.0136812V2.01368ZM21.5238 4.14323H23.5238V10.9191H21.5238H19.5238V4.14323H21.5238ZM21.5238 10.9191V8.91906H34.2381V10.9191V12.9191H21.5238V10.9191ZM34.2381 10.9191L32.3971 11.7004L29.2542 4.29542L31.0952 3.51404L32.9363 2.73266L36.0791 10.1377L34.2381 10.9191ZM29.6667 22.68L31.3977 21.6781C31.5084 21.8695 31.6978 21.9867 31.9524 21.9867V23.9867V25.9867C30.3022 25.9867 28.7773 25.1361 27.9357 23.6818L29.6667 22.68ZM31.9524 23.9867V21.9867C32.0744 21.9867 32.2269 21.9343 32.3633 21.8008C32.4994 21.6677 32.5675 21.5038 32.5726 21.3538L34.5714 21.4216L36.5703 21.4894C36.4869 23.9483 34.4336 25.9867 31.9524 25.9867V23.9867ZM34.5714 21.4216H32.5714V21.3732H34.5714H36.5714V21.4216H34.5714ZM34.5714 21.3732L32.7768 22.256L32.7292 22.1593L34.5238 21.2764L36.3184 20.3936L36.366 20.4904L34.5714 21.3732ZM34.5238 21.2764L33.0982 22.6791L33.0506 22.6307L34.4762 21.228L35.9018 19.8253L35.9494 19.8737L34.5238 21.2764ZM34.4762 21.228C32.4762 21.228 32.4762 21.227 32.4762 21.2261C32.4762 21.2258 32.4762 21.2248 32.4762 21.2242C32.4762 21.2229 32.4762 21.2216 32.4762 21.2203C32.4762 21.2177 32.4762 21.2152 32.4762 21.2126C32.4763 21.2074 32.4763 21.2023 32.4764 21.1971C32.4766 21.1868 32.4768 21.1764 32.4771 21.166C32.4778 21.1451 32.4788 21.1241 32.4801 21.103C32.4827 21.0607 32.4866 21.0179 32.4919 20.9748C32.5025 20.8884 32.5185 20.8013 32.54 20.714C32.5831 20.5389 32.6469 20.3672 32.7292 20.2L34.5238 21.0828L36.3184 21.9657C36.3531 21.8952 36.3931 21.7961 36.4243 21.6694C36.4398 21.6063 36.4528 21.5374 36.462 21.4631C36.4665 21.426 36.4701 21.3878 36.4725 21.3485C36.4737 21.3289 36.4746 21.309 36.4753 21.2889C36.4756 21.2789 36.4758 21.2688 36.476 21.2586C36.476 21.2535 36.4761 21.2485 36.4761 21.2434C36.4762 21.2408 36.4762 21.2383 36.4762 21.2357C36.4762 21.2344 36.4762 21.2331 36.4762 21.2319C36.4762 21.2312 36.4762 21.2303 36.4762 21.2299C36.4762 21.229 36.4762 21.228 34.4762 21.228ZM34.5238 20.986L32.5334 21.1818C32.5244 21.0903 32.4848 20.9556 32.3641 20.7979L33.9524 19.5824L35.5407 18.367C36.0867 19.0805 36.428 19.9137 36.5142 20.7902L34.5238 20.986ZM33.9524 19.5824L32.5267 20.9851L32.4315 20.8883L33.8571 19.4856L35.2828 18.083L35.378 18.1798L33.9524 19.5824ZM33.8571 19.4856V21.4856H33.8095V19.4856V17.4856H33.8571V19.4856ZM33.8095 19.4856L32.3839 20.8883C32.1986 20.7001 31.9752 20.6452 31.7262 20.7211L31.1429 18.8081L30.5595 16.895C32.2152 16.3902 33.9918 16.8193 35.2352 18.083L33.8095 19.4856ZM31.1429 18.8081L31.6354 20.7465C31.669 20.7379 31.654 20.734 31.6056 20.7735C31.5582 20.8123 31.4998 20.8765 31.4489 20.9652L29.7143 19.9696L27.9797 18.9741C28.5278 18.0191 29.4567 17.173 30.6503 16.8697L31.1429 18.8081ZM29.7143 19.9696L31.4014 21.0437C31.3026 21.1989 31.2639 21.4322 31.4216 21.7207L29.6667 22.68L27.9117 23.6392C27.1171 22.1854 27.0784 20.3859 28.0272 18.8956L29.7143 19.9696ZM31.7619 17.4529L31.6773 15.4547C33.4132 15.3812 35.0501 16.0573 36.2198 17.3946L34.7143 18.7113L33.2088 20.0279C32.8546 19.6229 32.3963 19.4278 31.8465 19.4511L31.7619 17.4529ZM34.7143 18.7113L36.1399 17.3086C36.463 17.6369 36.8168 18.1599 36.8474 18.2013L35.2381 19.3889L33.6288 20.5764C33.5807 20.5112 33.5308 20.4408 33.4936 20.3886C33.4522 20.3305 33.4181 20.2827 33.3848 20.2376C33.3105 20.137 33.2824 20.1076 33.2886 20.114L34.7143 18.7113ZM35.2381 19.3889L36.9815 18.4087C37.2412 18.8706 37.5127 19.4668 37.6041 20.2095L35.619 20.4536L33.634 20.6978C33.6301 20.6661 33.616 20.5847 33.4947 20.369L35.2381 19.3889ZM35.619 20.4536L37.5612 19.9759L37.6088 20.1695L35.6667 20.6472L33.7246 21.1249L33.6769 20.9313L35.619 20.4536ZM35.6667 20.6472V18.6472H37.8095V20.6472V22.6472H35.6667V20.6472ZM37.8095 20.6472V18.6472C37.5713 18.6472 37.304 18.745 37.0982 18.9541C36.8938 19.1618 36.8095 19.418 36.8095 19.6308H38.8095H40.8095C40.8095 21.2855 39.516 22.6472 37.8095 22.6472V20.6472ZM38.8095 19.6308H36.8095V16.0009H38.8095H40.8095V19.6308H38.8095ZM38.8095 16.0009H36.8095C36.8095 14.9936 36.0078 14.2258 35.0952 14.2258V12.2258V10.2258C38.2779 10.2258 40.8095 12.846 40.8095 16.0009H38.8095ZM35.0952 12.2258V14.2258H21.4286V12.2258V10.2258H35.0952V12.2258ZM21.4286 12.2258H23.4286V20.502H21.4286H19.4286V12.2258H21.4286ZM21.4286 20.502V18.502H28.2381V20.502V22.502H21.4286V20.502ZM28.2381 20.502L26.296 20.0243L26.3436 19.8307L28.2857 20.3084L30.2278 20.7861L30.1802 20.9797L28.2381 20.502ZM28.2857 20.3084L26.3675 19.7422C26.5546 19.1085 26.8321 18.4421 27.2955 17.8141L28.9048 19.0017L30.514 20.1892C30.406 20.3356 30.3026 20.5404 30.2039 20.8746L28.2857 20.3084ZM28.9048 19.0017L27.2855 17.8278C28.2998 16.4287 29.9051 15.5297 31.6773 15.4547L31.7619 17.4529L31.8465 19.4511C31.333 19.4729 30.8431 19.7354 30.524 20.1756L28.9048 19.0017ZM29.1429 23.9867L27.5336 25.1743L27.2479 24.7871L28.8571 23.5995L30.4664 22.412L30.7521 22.7992L29.1429 23.9867ZM28.8571 23.5995L27.21 24.734C26.74 24.0515 26.3678 23.2467 26.2168 22.326L28.1905 22.0024L30.1641 21.6787C30.2036 21.9196 30.3077 22.1796 30.5043 22.4651L28.8571 23.5995ZM28.1905 22.0024L26.2484 22.4801L26.2007 22.2865L28.1429 21.8088L30.085 21.3311L30.1326 21.5247L28.1905 22.0024ZM28.1429 21.8088V23.8088H13.5714V21.8088V19.8088H28.1429V21.8088ZM13.5714 21.8088L15.5135 22.2865L15.4659 22.4801L13.5238 22.0024L11.5817 21.5247L11.6293 21.3311L13.5714 21.8088ZM13.5238 22.0024L15.4975 22.326C15.3465 23.2467 14.9743 24.0515 14.5043 24.734L12.8571 23.5995L11.21 22.4651C11.4066 22.1796 11.5107 21.9196 11.5502 21.6787L13.5238 22.0024ZM12.8571 23.5995L14.4664 24.7871L14.1807 25.1743L12.5714 23.9867L10.9621 22.7992L11.2479 22.412L12.8571 23.5995ZM12.5714 23.9867V21.9867H29.1429V23.9867V25.9867H12.5714V23.9867ZM7.19048 21.4216L9.18933 21.3538C9.19442 21.5038 9.26251 21.6677 9.39859 21.8008C9.535 21.9343 9.68752 21.9867 9.80952 21.9867V23.9867V25.9867C7.32833 25.9867 5.27505 23.9483 5.19163 21.4894L7.19048 21.4216ZM9.80952 23.9867V21.9867C10.1069 21.9867 10.4046 21.7696 10.4329 21.3391L12.4286 21.47L14.4243 21.6009C14.262 24.0744 12.274 25.9867 9.80952 25.9867V23.9867ZM12.4286 21.3732L10.634 22.256C10.5465 22.0783 10.4586 21.8522 10.4133 21.5758C10.376 21.3485 10.381 21.1408 10.381 21.1312H12.381H14.381C14.381 21.1651 14.3812 21.1461 14.3803 21.1206C14.379 21.0862 14.375 21.0169 14.3605 20.9286C14.3271 20.7248 14.263 20.5713 14.2232 20.4904L12.4286 21.3732ZM12.381 21.1312H10.381C10.381 21.1041 10.3773 20.9064 10.4245 20.6664C10.4716 20.4274 10.5511 20.2233 10.634 20.0548L12.4286 20.9376L14.2232 21.8205C14.2585 21.7487 14.3141 21.6172 14.3493 21.4387C14.3846 21.2592 14.381 21.11 14.381 21.1312H12.381ZM12.4286 20.8408H10.4286C10.4286 20.9774 10.4451 21.0813 10.4543 21.131C10.4623 21.1744 10.4711 21.2076 10.4626 21.1733C10.4592 21.1592 10.4385 21.0776 10.4216 20.9858C10.4035 20.8877 10.381 20.7354 10.381 20.5504H12.381H14.381C14.381 20.4139 14.3644 20.3099 14.3552 20.2602C14.3472 20.2168 14.3384 20.1837 14.3469 20.2179C14.3504 20.2321 14.371 20.3136 14.3879 20.4054C14.406 20.5035 14.4286 20.6559 14.4286 20.8408H12.4286ZM12.381 20.5504L10.5199 21.2829C10.4792 21.1794 10.4542 21.1208 10.4173 21.0308C10.3812 20.9427 10.3362 20.8304 10.2901 20.6897L12.1905 20.0664L14.0909 19.4432C14.0924 19.4477 14.095 19.4564 14.1184 19.5135C14.141 19.5687 14.1875 19.6795 14.242 19.818L12.381 20.5504ZM12.1905 20.0664L10.2901 20.6897C10.3077 20.7435 10.353 20.8632 10.4467 21.0061C10.5415 21.1505 10.6432 21.2488 10.622 21.2271L12.0476 19.8244L13.4733 18.4218C13.4996 18.4485 13.649 18.5951 13.7914 18.8122C13.9327 19.0277 14.0256 19.2441 14.0909 19.4432L12.1905 20.0664ZM12.0476 19.8244L10.4211 20.9883C10.196 20.6737 9.8244 20.6326 9.62037 20.7362L8.71429 18.9533L7.8082 17.1703C9.88988 16.1124 12.3754 16.8457 13.6741 18.6606L12.0476 19.8244ZM8.71429 18.9533L9.55308 20.7689C9.47337 20.8057 9.39258 20.8835 9.34955 20.9797L7.52381 20.1632L5.69808 19.3467C6.13123 18.3782 6.90759 17.5848 7.8755 17.1377L8.71429 18.9533ZM7.52381 20.1632L9.38487 20.8957C9.28356 21.1531 9.26787 21.2094 9.25936 21.2613L7.28572 20.9376L5.31208 20.614C5.39881 20.0851 5.57359 19.6574 5.66275 19.4308L7.52381 20.1632ZM7.28572 21.1796H9.28572C9.28572 21.2069 9.28935 21.4045 9.24212 21.6445C9.19508 21.8835 9.11558 22.0876 9.03269 22.256L7.23809 21.3732L5.44349 20.4904C5.40823 20.562 5.35254 20.6935 5.31741 20.872C5.28209 21.0515 5.28572 21.2007 5.28572 21.1796H7.28572ZM7.23809 21.3732L8.66375 22.7759L8.61613 22.8243L7.19048 21.4216L5.76482 20.0189L5.81244 19.9705L7.23809 21.3732ZM3.42857 14.5006V12.5006H17.5714V14.5006V16.5006H3.42857V14.5006ZM17.5714 14.5006V12.5006C19.0398 12.5006 20.1905 13.7171 20.1905 15.1298H18.1905H16.1905C16.1905 15.8648 16.7697 16.5006 17.5714 16.5006V14.5006ZM18.1905 15.1298H20.1905C20.1905 16.5424 19.0398 17.7589 17.5714 17.7589V15.7589V13.7589C16.7697 13.7589 16.1905 14.3947 16.1905 15.1298H18.1905ZM17.5714 15.7589V17.7589H3.42857V15.7589V13.7589H17.5714V15.7589ZM3.42857 15.7589H5.42857V19.4373H3.42857H1.42857V15.7589H3.42857ZM3.42857 19.4373H5.42857C5.42857 19.2244 5.34426 18.9682 5.13993 18.7605C4.93412 18.5514 4.66679 18.4536 4.42857 18.4536V20.4536V22.4536C2.72209 22.4536 1.42857 21.0919 1.42857 19.4373H3.42857ZM4.42857 20.4536V18.4536H6.09524V20.4536V22.4536H4.42857V20.4536ZM6.09524 20.4536L4.15312 19.976L4.20074 19.7824L6.14286 20.26L8.08498 20.7377L8.03736 20.9313L6.09524 20.4536ZM6.14286 20.26L4.21119 19.7417C4.41772 18.972 4.77937 18.2045 5.34145 17.5516L6.85714 18.8565L8.37284 20.1613C8.26826 20.2828 8.15371 20.4833 8.07452 20.7784L6.14286 20.26ZM6.85714 18.8565L5.24786 17.6689C5.47639 17.3593 5.82275 16.9801 6.21145 16.7168L7.33334 18.3725L8.45522 20.0282C8.46754 20.0198 8.47794 20.0124 8.48637 20.0063C8.49483 20.0001 8.50182 19.9948 8.50734 19.9905C8.51815 19.982 8.52497 19.9762 8.52787 19.9737C8.53088 19.9711 8.53146 19.9705 8.52978 19.9721C8.52816 19.9736 8.52513 19.9765 8.52089 19.9809C8.51205 19.9898 8.50136 20.0014 8.49039 20.0142C8.48509 20.0204 8.48028 20.0262 8.47605 20.0315C8.47182 20.0368 8.46861 20.041 8.46643 20.044L6.85714 18.8565ZM7.33334 18.3725L6.04072 16.8463C7.29643 15.7828 8.95261 15.2424 10.6079 15.4718L10.3333 17.4529L10.0588 19.434C9.61883 19.373 9.08453 19.5102 8.62595 19.8986L7.33334 18.3725ZM10.3333 17.4529L10.6815 15.4834C12.3115 15.7716 13.7083 16.6652 14.6373 18.1177L12.9524 19.1953L11.2675 20.2728C10.9583 19.7894 10.5457 19.5214 9.98521 19.4224L10.3333 17.4529ZM12.9524 19.1953L14.6247 18.0983C14.9174 18.5445 15.2239 19.1564 15.3824 19.8812L13.4286 20.3084L11.4747 20.7356C11.4427 20.5893 11.3683 20.4268 11.28 20.2922L12.9524 19.1953ZM13.4286 20.3084L15.3707 19.8307L15.4183 20.0243L13.4762 20.502L11.5341 20.9797L11.4865 20.7861L13.4286 20.3084ZM13.4762 20.502V18.502H20.1905V20.502V22.502H13.4762V20.502ZM20.1905 20.502H18.1905V12.1774H20.1905H22.1905V20.502H20.1905ZM20.1905 12.1774V14.1774H3.42857V12.1774V10.1774H20.1905V12.1774ZM3.42857 12.1774H5.42857V14.5006H3.42857H1.42857V12.1774H3.42857ZM2.19048 19.6792H0.190475V19.4373H2.19048H4.19048V19.6792H2.19048ZM2.19048 19.4373H0.190475C0.190475 19.4242 0.190162 19.3605 0.192766 19.2943C0.195508 19.2247 0.20305 19.0937 0.234059 18.9362C0.312562 18.5372 0.503322 18.1552 0.812443 17.841L2.23809 19.2437L3.66375 20.6463C3.77261 20.5357 3.88803 20.3896 3.98436 20.2046C4.08047 20.0201 4.13155 19.8469 4.1588 19.7085C4.18385 19.5811 4.18842 19.4835 4.18967 19.4516C4.19079 19.4233 4.19048 19.4019 4.19048 19.4373H2.19048ZM2.23809 18.3241V20.3241H1.23809V18.3241V16.3241H2.23809V18.3241ZM1.23809 18.3241H3.23809V19.6792H1.23809H-0.761906V18.3241H1.23809ZM26.0476 15.7589V17.7589H24.3333V15.7589V13.7589H26.0476V15.7589ZM24.3333 15.7589V17.7589C23.5544 17.7589 22.9251 17.3941 22.5274 17.0102C22.1137 16.6107 21.7143 15.9617 21.7143 15.1298H23.7143H25.7143C25.7143 14.6367 25.4816 14.3022 25.3059 14.1326C25.1464 13.9786 24.8265 13.7589 24.3333 13.7589V15.7589ZM23.7143 15.1298H21.7143C21.7143 13.7172 22.8649 12.5006 24.3333 12.5006V14.5006V16.5006C25.1351 16.5006 25.7143 15.8648 25.7143 15.1298H23.7143ZM24.3333 14.5006V12.5006H26.0476V14.5006V16.5006H24.3333V14.5006ZM26.0476 14.5006V12.5006C27.516 12.5006 28.6667 13.7171 28.6667 15.1298H26.6667H24.6667C24.6667 15.8648 25.2459 16.5006 26.0476 16.5006V14.5006ZM26.6667 15.1298L28.6667 15.1298C28.6667 16.5424 27.516 17.7589 26.0476 17.7589V15.7589V13.7589C25.2459 13.7589 24.6667 14.3947 24.6667 15.1298L26.6667 15.1298ZM34.5238 21.0828H32.5238V20.986H34.5238H36.5238V21.0828H34.5238ZM12.4286 21.47H10.4286V21.3732H12.4286H14.4286V21.47H12.4286ZM12.4286 20.9376H10.4286V20.8408H12.4286H14.4286V20.9376H12.4286ZM7.28572 20.9376H9.28572V21.1796H7.28572H5.28572V20.9376H7.28572ZM1.23809 19.6792V17.6792H2.19048V19.6792V21.6792H1.23809V19.6792ZM2.23809 19.2437H0.238094V18.3241H2.23809H4.23809V19.2437H2.23809Z" fill="white" mask="url(#path-1-inside-1_245_132)"/>
</svg>
